<?xml version="1.0" encoding="UTF-8"?>
<!DOCTYPE svg PUBLIC "-//W3C//DTD SVG 1.1//EN" "http://www.w3.org/Graphics/SVG/1.1/DTD/svg11.dtd">
<!-- Creator: CorelDRAW 2017 -->
<svg xmlns="http://www.w3.org/2000/svg" xml:space="preserve" width="1.76389E+06px" height="1.44992E+06px" version="1.1" style="shape-rendering:geometricPrecision; text-rendering:geometricPrecision; image-rendering:optimizeQuality; fill-rule:evenodd; clip-rule:evenodd"
viewBox="0 0 190509.36 156435.43"
 xmlns:xlink="http://www.w3.org/1999/xlink">
 <defs>
  <style type="text/css">
   <![CDATA[
    .str0 {stroke:#51363B;stroke-width:935.76;stroke-linecap:round;stroke-linejoin:round;stroke-miterlimit:22.9256}
    .fil2 {fill:none}
    .fil0 {fill:none;fill-rule:nonzero}
    .fil1 {fill:#51363B;fill-rule:nonzero}
   ]]>
  </style>
 </defs>
 <g id="Capa_x0020_1">
  <metadata id="CorelCorpID_0Corel-Layer"/>
  <g id="_2274407410352">
   <path class="fil0 str0" d="M59141.74 28216.27c-426.89,-71.68 -881.86,33.87 -1264.96,293.26 -797.07,540.12 -1070.13,1586.67 -609.92,2337.9 1024.09,1672.39 4596.81,-211.48 4596.81,-2909.46 0,-2383.56 -1871.7,-3297.23 -4135.67,-3153.31"/>
   <path class="fil0 str0" d="M69806.01 25396.46c164.88,-2050.81 3060.67,-2280.07 3060.67,3.37 0,652.22 -328.82,1322.97 -912.55,1672.38 -3250.26,1945.25 -10313.54,-2684.87 -13988.26,-2316.75 -2892.8,289.71 -5237.81,2869.6 -5237.81,5762.21 0,2892.8 2345.19,5014.72 5237.81,4713.04 3627.18,-378.24 18741.53,-8447.09 29273.86,-9590.96 1429.84,-155.33 1660.03,1134.7 1041.87,1784.12 -652.78,685.53 -1729.47,434.75 -1648.43,-447.86"/>
   <path class="fil0 str0" d="M87239.73 25639.75c1429.84,-131.19 1660.03,-1467.26 1041.87,-1992.97 -652.78,-554.72 -1729.47,-88.15 -1648.43,777.99"/>
   <path class="fil1" d="M75537.71 24962.26c241.98,-367.37 550.97,-891.21 821.22,-1490.66 530.95,-1177.37 718.1,-2132.96 1217.98,-2838.9 499.32,-705.75 499.32,-705.75 499.32,-705.75 0,0 312.36,718.1 93.95,1458.29 -218.59,740.18 -218.59,740.18 -218.59,740.18 0,0 967.76,-1127.4 1935.89,-1599.21 968.14,-471.62 2435.97,-837.31 3029.24,-1271.5 593.27,-434.2 593.27,-434.2 593.27,-434.2 0,0 -249.85,1024.28 -1561.41,2217.38 -1311.56,1193.27 -2310.76,1324.47 -2310.76,1324.47 0,0 343.24,-65.51 1186.54,6.17 843.12,71.68 1343,365.14 1343,365.14 0,0 -312.35,281.1 -1873.95,468.62 -1561.03,187.72 -3464.36,1287.98 -4184.33,2167.97 -355.77,434.75 -956.34,176.85 -571.37,-408z"/>
   <path class="fil1" d="M94799.71 12888.94l-1439.38 14422.08c-398.26,3992.31 4488.45,3502.91 4090.2,-409.68l-1439.39 -14133.68c-78.23,-770.69 -1130.58,-693.02 -1211.43,121.28zm-1771.2 101.62l-2354.93 5652.91c-651.84,1564.96 1264.02,1985.68 1603.52,352.22l1226.21 -5900.89c67.19,-321.71 -342.11,-423.52 -474.8,-104.24zm4753.84 -476.3l2354.92 5181.29c651.85,1434.33 -1264.02,2238.89 -1603.51,673.37l-1226.4 -5655.16c-67,-308.42 342.3,-492.21 474.99,-199.5z"/>
   <path class="fil0 str0" d="M131669.12 20951.42c426.89,-157.39 881.85,-142.98 1264.95,39.68 797.08,380.48 1070.14,1372.38 609.93,2215.87 -1024.09,1877.5 -4596.81,709.31 -4596.81,-1988.67 0,-2383.56 1871.7,-3672.29 4135.67,-3981.84"/>
   <path class="fil0 str0" d="M121005.04 20267.94c-165.07,-2017.86 -3060.86,-1666.95 -3060.86,616.67 0,652.03 328.82,1257.09 912.55,1489.35 3250.26,1294.34 10313.54,-4750.84 13988.26,-5118.97 2892.8,-289.9 5237.81,1820.24 5237.81,4712.85 0,2892.8 -2345.2,5484.66 -5237.81,5762.4 -3627.18,348.28 -18741.54,-4692.45 -29273.86,-3726.38 -1429.84,131.01 -1660.04,1467.27 -1041.87,1992.98 652.78,554.72 1729.46,88.15 1648.24,-778.18"/>
   <path class="fil0 str0" d="M103571.13 24003.86c-1429.84,155.15 -1660.04,-1134.7 -1041.87,-1784.3 652.78,-685.54 1729.46,-434.57 1648.24,447.85"/>
   <path class="fil1" d="M115273.15 20981.93c-241.99,-318.91 -550.97,-780.8 -821.22,-1326.16 -530.95,-1070.88 -718.1,-1989.04 -1217.98,-2594.67 -499.32,-605.81 -499.32,-605.81 -499.32,-605.81 0,0 -312.36,780.8 -93.77,1477 218.41,696.39 218.41,696.39 218.41,696.39 0,0 -967.76,-933.51 -1936.08,-1211.24 -967.95,-277.73 -2435.78,-349.41 -3029.05,-664.57 -593.27,-315.36 -593.27,-315.36 -593.27,-315.36 0,0 249.85,974.13 1561.22,1904.65 1311.74,930.33 2310.94,861.45 2310.94,861.45 0,0 -343.23,3.19 -1186.54,243.86 -843.11,240.49 -1343,634.07 -1343,634.07 0,0 312.36,218.59 1873.95,93.39 1561.03,-125.2 3464.36,593.83 4184.52,1329.52 355.59,363.64 956.16,-14.59 571.19,-522.52z"/>
   <path class="fil0 str0" d="M131669.12 130891.13c426.89,103.12 881.85,31.06 1264.95,-200.07 797.08,-481.54 1070.14,-1508.06 609.93,-2293.16 -1024.09,-1747.63 -4596.81,-126.71 -4596.81,2571.08 0,2383.56 1871.7,3435.17 4135.67,3457.81"/>
   <path class="fil0 str0" d="M121005.04 132925.84c-165.07,2038.64 -3060.86,2054.73 -3060.86,-228.7 0,-652.22 328.82,-1298.83 912.55,-1605.2 3250.26,-1706.07 10313.54,3444.15 13988.26,3346.46 2892.8,-76.74 5237.81,-2483.88 5237.81,-5376.68 0,-2892.61 -2345.2,-5187.28 -5237.81,-5098.57 -3627.18,111.36 -18741.54,7067.41 -29273.86,7435.91 -1429.84,50.15 -1660.04,-1256.91 -1041.87,-1860.85 652.78,-637.44 1729.46,-307.3 1648.24,569.13"/>
   <path class="fil0 str0" d="M103571.13 131399.06c-1429.84,26.01 -1660.04,1345.24 -1041.87,1916.43 652.78,602.63 1729.46,215.41 1648.24,-656.72"/>
   <path class="fil1" d="M115273.15 132938.19c-241.99,349.6 -550.97,850.42 -821.22,1430.03 -530.95,1138.25 -718.1,2080.18 -1217.98,2749.25 -499.32,668.88 -499.32,668.88 -499.32,668.88 0,0 -312.36,-740.93 -93.77,-1465.02 218.41,-724.09 218.41,-724.09 218.41,-724.09 0,0 -967.76,1056.09 -1936.08,1456.6 -967.95,400.5 -2435.78,658.02 -3029.05,1048.42 -593.27,390.59 -593.27,390.59 -593.27,390.59 0,0 249.85,-1005.94 1561.22,-2102.46 1311.74,-1096.71 2310.94,-1154.35 2310.94,-1154.35 0,0 -343.23,40.23 -1186.54,-93.39 -843.11,-133.82 -1343,-463.95 -1343,-463.95 0,0 312.36,-258.27 1873.95,-330.88 1561.03,-72.62 3464.36,-1032.89 4184.52,-1859.92 355.59,-408.55 956.16,-106.49 571.19,450.29z"/>
   <path class="fil1" d="M96011.14 143593.29l1439.39 -14315.97c398.25,-3963.12 -4488.46,-3833.42 -4090.2,108.55l1439.38 14239.61c78.23,776.49 1130.58,776.11 1211.43,-32.19zm1771.21 28.82l2354.92 -5479.42c651.85,-1517.05 -1264.02,-2078.88 -1603.51,-470.32l-1226.4 5810.5c-67,316.84 342.3,448.79 474.99,139.24zm-4753.84 126.32l-2354.93 -5354.59c-651.84,-1482.24 1264.02,-2145.88 1603.52,-555.46l1226.21 5745.55c67.19,313.29 -342.11,466.94 -474.8,164.5z"/>
   <path class="fil0 str0" d="M59141.74 132816.73c-426.89,125.77 -881.86,77.85 -1264.96,-133.07 -797.07,-439.05 -1070.13,-1451.17 -609.92,-2260.6 1024.09,-1802.08 4596.81,-370.93 4596.81,2326.86 0,2383.74 -1871.7,3534.54 -4135.67,3677.52"/>
   <path class="fil0 str0" d="M69806.01 134285.12c164.88,2030.03 3060.67,1892.29 3060.67,-391.33 0,-652.04 -328.82,-1281.24 -912.55,-1556.54 -3250.26,-1533.52 -10313.54,3991.75 -13988.26,4089.26 -2892.8,76.73 -5237.81,-2205.96 -5237.81,-5098.57 0,-2892.61 2345.19,-5311.92 5237.81,-5376.68 3627.18,-81.41 18741.53,6072.13 29273.86,5881.43 1429.84,-25.83 1660.03,-1345.06 1041.87,-1916.25 -652.78,-602.81 -1729.47,-215.41 -1648.43,656.72"/>
   <path class="fil0 str0" d="M87239.73 131832.69c1429.84,-49.97 1660.03,1256.91 1041.87,1861.03 -652.78,637.44 -1729.47,307.3 -1648.43,-569.13"/>
   <path class="fil1" d="M75537.71 133993.16c241.98,336.69 550.97,821.22 821.22,1386.42 530.95,1110 718.1,2042.01 1217.98,2684.5 499.32,642.49 499.32,642.49 499.32,642.49 0,0 312.36,-757.59 93.95,-1470.07 -218.59,-712.49 -218.59,-712.49 -218.59,-712.49 0,0 967.76,1004.82 1935.89,1353.86 968.14,349.03 2435.97,528.51 3029.24,887.66 593.27,358.95 593.27,358.95 593.27,358.95 0,0 -249.85,-992.65 -1561.41,-2019.55 -1311.56,-1026.9 -2310.76,-1031.58 -2310.76,-1031.58 0,0 343.24,21.9 1186.54,-156.46 843.12,-178.54 1343,-535.25 1343,-535.25 0,0 -312.35,-241.61 -1873.95,-231.32 -1561.03,10.11 -3464.36,-848.92 -4184.33,-1637.76 -355.77,-389.65 -956.34,-55.77 -571.37,480.6z"/>
   <path class="fil1" d="M73257.83 39885.91l0 971.88 925.65 11016.11c694.33,8377.84 694.33,15459.46 1203.57,22587.5 370.19,648.1 1295.84,694.33 1619.98,694.33 7266.91,0 10923.47,-5646.92 10923.47,-12265.72 0,-6202.39 -2082.99,-10136.69 -7359.54,-13423.07 1573.76,-1758.85 2499.41,-3934.29 2499.41,-6341.06 0,-5693.15 -6803.89,-6665.22 -9812.54,-3239.97zm4582.22 32446.45c-555.28,-6942.94 -1064.52,-13839.66 -1064.52,-20828.83 6063.52,0 8424.06,6248.61 8424.06,11386.48 0,4443.35 -1619.98,9488.58 -6526.35,9488.58 -277.73,0 -555.46,0 -833.19,-46.23zm-1897.72 -31428.16c2453.18,-1157.16 4628.63,-231.5 4628.63,2406.77 0,2545.82 -1573.76,5230.32 -3934.3,5230.32l-694.33 -7637.09zm26938.58 24901.82l1157.16 8794.25c46.23,323.95 509.05,323.95 786.79,323.95l138.86 0c879.43,0 1064.52,-370.18 1388.67,-1249.61 0,-46.41 46.22,-46.41 46.22,-92.64l-277.73 -3008.64c-1249.8,-10923.47 -2499.41,-21800.53 -5184.1,-32400.04l-370.18 -972.07c-277.73,-462.82 -925.65,-694.33 -1434.89,-694.33 -1157.16,0 -1481.12,1296.03 -1712.63,2175.45 0,0 -46.22,92.64 -4859.94,33650.02 0,462.83 416.59,1666.21 1018.29,1666.21 1342.25,0 1296.02,-1990.35 1388.47,-2684.5l786.98 -5230.32 277.73 -277.73 6850.3 0zm-3471.47 -24346.54l3101.1 21615.62 -5785.6 -138.86 2684.5 -21476.76zm11617.8 34205.3c323.96,463.02 879.43,648.11 1388.48,648.11 1157.16,0 1018.29,-972.07 1018.29,-1851.49 46.42,-3934.3 277.73,-14209.66 324.15,-14626.26 0,-416.6 185.09,-2268.09 277.73,-2684.69l740.56 0c2823.37,0 3286.19,3101.29 3471.47,5369.19 92.45,1573.75 509.05,8655.57 555.28,10182.91 185.28,648.11 786.97,648.11 1296.02,648.11l46.42 0c601.69,0 1342.25,-92.64 1342.25,-879.62l0 -370.18c0,-277.74 -277.73,-2406.96 -277.73,-2684.69 -231.51,-3193.55 277.73,-9812.54 -1805.27,-12543.45 -185.09,-323.96 -1249.61,-1573.76 -1481.11,-1805.08 3054.87,-2082.81 3934.29,-6017.11 3934.29,-9396.13l0 -509.05c0,-4073.16 -2730.72,-6850.31 -6989.17,-6850.31l-462.82 0c-1851.49,0 -2638.28,0 -2730.92,2129.04 -277.73,10414.42 -647.92,20921.29 -647.92,31335.71l0 3887.88zm3008.65 -22217.12c0,-4119.58 370.19,-7498.41 323.96,-11525.17 0,-786.97 462.83,-1203.57 1157.16,-1203.57 2638.27,0 3656.56,2777.14 3656.56,4952.59 0,2129.22 -1249.79,8192.75 -4535.99,8192.75 -277.73,0 -601.69,-46.42 -601.69,-416.6z"/>
   <path class="fil1" d="M51065.22 76550.38c-5753.79,-1760.53 -10380.17,3551.95 -12850.95,7829.86 -4676.72,8007.84 -7204.02,21804.27 2775.27,25099.63 1416.18,433.45 3216.58,403.32 2805.03,-1416.54 -298.13,-1398.21 -3720.38,-654.47 -5136,-2830.11 -2906.46,-4422.76 -2027.78,-8558.62 -294.39,-14224.07 1530.15,-5001.25 6155.6,-13315.27 10448.67,-12001.65l265.76 81.22c619.47,189.58 3092.11,1284.98 3565.79,-264.07 311.42,-1018.11 -649.79,-1989.98 -1579.18,-2274.27zm7985 29528.2l-750.29 8838.23c-23.77,326.39 428.21,425.4 699.58,484.73l135.68 29.75c859.03,188.09 1119.17,-134 1623.73,-923.78 9.73,-45.48 55.02,-35.56 64.94,-80.66l372.06 -2998.17c1114.86,-10938.07 2219.8,-21831.03 1863.65,-32759.18l-153.65 -1028.77c-172.56,-511.49 -755.91,-876.24 -1253.36,-985.17 -1130.2,-247.41 -1724.03,949.42 -2138.2,1759.04 0,0 -64.76,80.48 -11942.7,31832.41 -98.81,451.97 50.72,1716.74 638.38,1845.31 1311.37,287.09 1691.66,-1667.14 1930.46,-2325.54l1887.05 -4940.99 330.7 -212.04 6691.97 1464.83zm1814.62 -24525.64l-1592.47 21778.63 -5622.22 -1372.75 7214.69 -20405.88zm6187.61 3237.54c-948.49,8978.59 -1471.2,23942.29 -1512.56,28511.96 94.14,1413 2150.74,2103.96 2410.32,130.64l24.33 -183.41c691.34,-5604.63 156.27,-10763.65 1182.05,-15717.36 1110,-274.18 5803.76,950.73 6087.66,-1205.82 217.47,-1652.17 -2582.69,-947.17 -3323.06,-997.89 -786.41,-56.89 -1887.61,-201.75 -2563.79,-384.22 23.02,-2658.11 276.8,-6359.41 486.04,-9366.56l48.47 -367c326.02,-2477.89 4842.73,-1323.16 6213.05,-1095.96 511.11,20.59 1269.45,-66.44 1354.23,-708.93 155.52,-1893.41 -3444.15,-1853.92 -4591.57,-2004.95 -3793,-265.95 -5494.96,957.28 -5803.01,3297.61l-12.16 91.89zm11010.87 32715.2c-64.38,876.99 10262.26,1820.98 10285.28,244.61 17.22,-2133.53 -2322.55,-1238.01 -5415.6,-1465.03 -415.48,-30.5 -1984.74,-145.79 -2396.66,-222.33l1022.78 -12038.15 4667.18 -353.34c1866.65,-141.49 2853.5,-2203.71 684.04,-2363.16l-230.94 -16.84 -5039.43 372.43 894.4 -15342.49 5539.12 406.68c738.87,54.27 2015.81,-269.69 2083.56,-1193.09 6.73,-92.08 10.1,-138.5 -29.2,-233.94 -29.57,-234.32 -901.88,-994.53 -1178.68,-1014.93l-7293.48 -535.62c-831.14,-61.02 -1673.32,666.26 -1734.33,1497.21l-1858.04 32257.99zm18497.68 -3025.87c5.8,416.6 934.82,635.01 1212.36,631.27 277.55,-3.93 1200.02,-248.35 1194.22,-664.95l-1291.35 -29376.24 3887.51 -54.46c416.6,-5.8 919.29,-475.74 913.3,-892.34 -18.53,-1342.06 -1733.02,-1456.97 -2751.69,-1488.97l-3887.7 54.65c-4817.27,-210.36 -4809.6,345.1 -4879.97,1919.8 103.68,785.66 1399.89,813.73 4266.87,588.4l1336.45 29282.84zm8860.68 3523.32c88.71,874.93 10422.28,11.41 10171.31,-1544.94 -353.34,-2104.14 -2502.03,-815.79 -5587.22,-502.5 -414.73,42.11 -1980.44,201.19 -2399.28,197.26l-1082.67 -12032.91 4534.68 -1158.46c1814.24,-463.39 2427.73,-2665.6 263.69,-2445.89l-230.57 23.4 -4898.31 1241.93 -1782.99 -15264.82 5525.64 -561.27c736.82,-74.86 1938.33,-615.54 1844.76,-1536.7 -9.36,-91.89 -14.04,-138.12 -69.25,-225.33 -69.81,-225.7 -1060.78,-822.9 -1337.2,-794.83l-7275.7 738.87c-828.71,84.22 -1532.21,946.62 -1447.8,1775.7l3770.91 32090.49zm14973.24 -387.59c393.02,405.93 970.95,501 1473.63,420.53 1142.75,-182.85 851.92,-1120.67 713.05,-1989.05 -576.05,-3892.19 -1970.7,-14075.1 -1990.92,-14493.76 -65.69,-411.36 -175.36,-2268.84 -150.09,-2694.61l731.57 -117.15c2788,-445.98 3734.99,2543.01 4276.04,4753.27 339.87,1539.32 1870.02,8466.36 2157.3,9967.13 285.03,610.86 879.23,515.79 1382.11,435.31l45.48 -7.3c594.2,-95.07 1310.81,-303.56 1186.35,-1080.42l-58.2 -365.88c-43.98,-274.18 -654.28,-2332.66 -698.27,-2606.84 -733.25,-3117.01 -1276.37,-9733.37 -3764.36,-12100.65 -234.13,-290.83 -1482.61,-1356.66 -1747.62,-1548.68 2687.12,-2539.27 2933.97,-6563.03 2400.4,-9899.56l-80.47 -502.51c-643.62,-4022.07 -3778.96,-6332.83 -7983.7,-5660.21l-457.02 73.18c-1828.28,292.52 -2605.34,416.79 -2360.17,2533.84 1371.07,10327.4 2665.41,20760.72 4310.66,31044.32l614.23 3839.04zm-539.18 -22413.45c-651.1,-4067.55 -818.97,-7462.48 -1500.77,-11431.59 -124.27,-776.86 266.69,-1261.4 952.23,-1371.07 2605.34,-416.79 4049.58,2164.59 4393.38,4312.72 336.31,2102.46 60.26,8287.07 -3184.76,8806.22 -274.36,43.8 -601.69,49.41 -660.08,-316.28zm15571.19 19016.27c323.02,1302.76 2794.17,499.7 2394.42,-1499.27l-6266.77 -31064.15c-22.46,-90.02 -122.21,-685.16 -155.71,-819.91 -322.84,-1302.76 -467.69,-1886.86 -1770.45,-1564.02 -943.62,233.75 -1156.79,334.25 -1248.68,1310.99l7047.19 33636.36zm15634.82 -13863.06l3682.4 8069.6c139.24,296.26 581.48,160.58 847.04,79.35l132.88 -40.79c840.69,-257.53 909.56,-665.7 961.59,-1601.46 -13.67,-44.35 30.69,-58.02 17.21,-102.18l-1146.86 -2795.11c-4394.32,-10078.3 -8774.97,-20112.61 -14446.41,-29460.64l-638.56 -821.03c-401.26,-361.21 -1088.66,-392.83 -1575.44,-243.67 -1106.44,338.93 -1036.64,1672.94 -1000.52,2581.75 0,0 -16.84,102 5209.18,33597.43 135.5,442.62 886.54,1471.2 1461.84,1294.91 1283.48,-393.21 656.15,-2282.69 541.05,-2973.47l-779.48 -5231.44 184.34 -346.79 6549.74 -2006.46zm-10450.16 -22261.85l9296.37 19759.08 -5572.81 1561.96 -3723.56 -21321.04z"/>
   <path class="fil0 str0" d="M40645.56 64529.83c1562.15,3652.08 5838.38,5574.12 14198.43,3669.11 8359.87,-1905.21 10824.1,-4182.65 9890.21,-8901.12 -427.45,-2158.79 -2029.28,-3071.34 -4148.02,-3358.99 -830.4,1594.9 -1949.94,3023.99 -2549.19,3570.1 -931.64,848.73 48.65,1276.94 -1289.85,1603.14 -1338.14,326.39 -1660.6,646.8 -4701.06,1038.13 -3040.84,391.33 -1128.15,-350.53 -2934.16,-589.9 -1685.49,-223.46 -3264.3,-651.1 -5581.23,-2450.19 -2088.61,1267.58 -3403.35,3028.49 -2885.13,5419.72z"/>
   <path class="fil0 str0" d="M46060.41 62598.24c741.31,1344.87 2983.38,1961.54 7516.01,1018.11 4532.24,-943.62 5913.42,-1873.02 5537.25,-3639.17 -84.97,-398.82 -331.63,-674.68 -694.9,-858.46 -141.67,157.21 -270.8,288.96 -381.78,390.21 -931.64,848.73 48.65,1276.94 -1289.85,1603.14 -1338.14,326.39 -1660.6,646.8 -4701.06,1038.13 -3040.84,391.33 -1128.15,-350.53 -2934.16,-589.9 -765.64,-101.44 -1509.75,-245.17 -2310.57,-540.49 -580.36,441.49 -888.23,964.95 -740.94,1578.43z"/>
   <path class="fil0 str0" d="M46157.73 62756.95c828.52,1233.14 3068.35,1765.02 7418.69,859.4 4082.89,-850.05 5608.37,-1688.49 5595.83,-3137.6 -177.8,-472.74 -621.53,-742.24 -1230.15,-877.93 -767.51,788.1 94.14,1197.02 -1194.96,1511.25 -1338.14,326.39 -1660.6,646.8 -4701.06,1038.13 -3040.84,391.33 -1128.15,-350.53 -2934.16,-589.9 -503.63,-66.81 -997.71,-151.78 -1505.07,-286.16 -783.42,404.06 -1336.08,895.34 -1449.12,1482.81z"/>
   <path class="fil0 str0" d="M39504.68 51657.93c1444.81,-5197.57 24011.54,-8548.9 22096.61,-3064.8 0,0 367.56,2241.7 -38.56,4663.63 -406.12,2422.12 -2594.1,5403.63 -3525.74,6252.17 -931.64,848.73 48.65,1276.75 -1289.85,1603.14 -1338.14,326.39 -1660.6,646.8 -4701.44,1038.13 -3040.46,391.15 -1127.77,-350.53 -2933.78,-589.9 -1805.64,-239.37 -3489.25,-713.05 -6088.6,-2856.68 -2599.72,-2143.45 -3177.83,-4639.11 -3518.64,-7045.69z"/>
   <path class="fil0 str0" d="M39715.23 52942.91c4268.18,2989.18 19336.12,318.34 21713.31,-3964.06 -3344.95,-2445.51 -18321.19,65.13 -21713.31,3964.06z"/>
   <path class="fil0 str0" d="M61582.38 53135.3c1710.19,-2169.46 4513.54,-6955.11 32.57,-4450.46m-1272.07 7702.97c5587.03,-4435.49 7205.52,-12268.16 1223.78,-9038.48"/>
   <line class="fil0 str0" x1="46115.81" y1="52209.84" x2="53783.59" y2= "49347.54" />
   <line class="fil0 str0" x1="48729.19" y1="52745.28" x2="57110.4" y2= "49070" />
   <path class="fil0 str0" d="M52344.21 64441.12c-466.57,1331.4 -467.32,2053.43 932.76,3476.53"/>
   <path class="fil0 str0" d="M53051.64 64325.09c866.89,1112.99 1098.02,1797.03 225.33,3592.56"/>
   <path class="fil0 str0" d="M48798.25 64612.37c-796.89,1164.08 -985.54,1861.03 -4.3,3599.48"/>
   <path class="fil0 str0" d="M49511.49 64684.61c547.6,1300.32 592.52,2020.86 -717.54,3527.24"/>
   <path class="fil0 str0" d="M46019.99 63827.08c-1321.29,493.89 -1876.57,955.59 -2073.64,2942.21"/>
   <path class="fil0 str0" d="M46562.17 64296.45c-300.01,1378.56 -677.49,1993.92 -2615.82,2472.84"/>
   <path class="fil0 str0" d="M44838.69 61772.9c-1349.74,-410.98 -2071.02,-381.6 -3434.98,1075.94"/>
   <path class="fil0 str0" d="M44983.73 62475.1c-1076.12,912.36 -1750.24,1171.38 -3580.02,373.74"/>
   <path class="fil0 str0" d="M56776.71 63469.43c1038.31,955.22 1378.55,1592.1 813.17,3506.66"/>
   <path class="fil0 str0" d="M56097.72 63700.19c-241.24,1389.97 -122.77,2102.27 1492.16,3275.9"/>
   <path class="fil0 str0" d="M59726.21 62069.54c1340.94,437.75 1915.13,875.87 2195.67,2852.37"/>
   <path class="fil0 str0" d="M59204.25 62561.37c357.83,1364.52 761.33,1963.41 2717.63,2360.54"/>
   <path class="fil0 str0" d="M60562.59 60292.53c1356.85,-387.02 2077.57,-344.92 3415.52,1136.76"/>
   <path class="fil0 str0" d="M60405.01 60991.92c1059.65,931.27 1729.1,1202.45 3573.1,437.37"/>
   <path class="fil0 str0" d="M59742.12 58266.06c997.52,-997.89 1647.68,-1311.56 3537.35,-667.38"/>
   <path class="fil0 str0" d="M59944.62 58953.84c1378.75,298.51 2095.54,209.98 3334.85,-1355.16"/>
   <path class="fil0 str0" d="M54661.9 59210.24c206.98,-410.61 121.46,-329.58 423.14,-765.45 -149.34,-1153.23 344.92,-869.13 -697.88,-1503.2m-1435.08 -381.98c538.81,-436.44 461.89,-359.33 888.22,-861.64m-2390.3 4853.21c-901.69,106.49 -295.32,268 -1024.65,-272.87m3293.86 -1.5c1142.56,-763.76 697.33,-68.68 737.19,-1121.22m-1996.72 -4044.53c959.34,-106.12 1008.56,-184.35 1380.62,586.91 764.14,203.43 373.74,115.66 765.26,423.71l-218.4 819.91c-71.12,71.86 -556.97,639.12 -628.08,710.99 -165.26,1012.49 -196.7,966.82 697.32,1503.01l205.5 54.65m-5235.57 -954.47c-203.43,764.32 -115.1,373.92 -423.15,765.44 193.14,446.17 245.92,542.74 396.76,984.23l1025.41 272.87 381.97 -1435.45c-674.68,-492.4 -514.29,-356.34 -1380.99,-587.09 -164.13,-1231.46 -427.45,-243.49 327.52,-1230.15m1257.09 -1421.98c85.72,774.25 101.81,441.87 -122.39,1284.8 -468.82,87.21 -655.41,102.37 -1134.7,137.18 285.78,-985.17 332.38,-1376.87 1257.09,-1421.98 362.52,-1030.08 -124.26,-261.45 682.55,-915.92 456.08,315.54 321.33,207.93 766.19,423.34 -53.15,1003.51 -119.02,758.71 492.4,1448.55l-314.04 355.78m-395.64 2309.63c-273.99,781.73 -291.96,726.52 -792.4,1326.16 661.21,232.63 395.45,100.69 970.94,477.98 881.49,-180.22 720.91,-20.77 1298.27,-752.35 -877.18,-443.17 -671.68,-590.65 -1476.81,-1051.79 183.22,-687.4 110.42,-174.05 -40.99,-669.81"/>
   <path class="fil0 str0" d="M150165.3 64529.83c-1561.97,3652.08 -5838.38,5574.12 -14198.44,3669.11 -8359.87,-1905.21 -10823.9,-4182.65 -9890.2,-8901.12 427.45,-2158.79 2029.47,-3071.34 4148.02,-3358.99 830.21,1594.9 1949.93,3023.99 2549.19,3570.1 931.64,848.73 -48.66,1276.94 1289.85,1603.14 1338.13,326.39 1660.59,646.8 4701.06,1038.13 3040.83,391.33 1128.15,-350.53 2934.16,-589.9 1685.48,-223.46 3264.48,-651.1 5581.23,-2450.19 2088.61,1267.58 3403.35,3028.49 2885.13,5419.72z"/>
   <path class="fil0 str0" d="M144750.44 62598.24c-741.12,1344.87 -2983.38,1961.54 -7516,1018.11 -4532.25,-943.62 -5913.61,-1873.02 -5537.25,-3639.17 84.97,-398.82 331.63,-674.68 695.08,-858.46 141.49,157.21 270.62,288.96 381.6,390.21 931.64,848.73 -48.66,1276.94 1289.85,1603.14 1338.13,326.39 1660.59,646.8 4701.06,1038.13 3040.83,391.33 1128.15,-350.53 2934.16,-589.9 765.64,-101.44 1509.75,-245.17 2310.57,-540.49 580.36,441.49 888.22,964.95 740.93,1578.43z"/>
   <path class="fil0 str0" d="M144653.31 62756.95c-828.52,1233.14 -3068.53,1765.02 -7418.87,859.4 -4082.9,-850.05 -5608.37,-1688.49 -5595.83,-3137.6 177.79,-472.74 621.53,-742.24 1230.15,-877.93 767.51,788.1 -94.14,1197.02 1194.96,1511.25 1338.13,326.39 1660.59,646.8 4701.06,1038.13 3040.83,391.33 1128.15,-350.53 2934.16,-589.9 503.62,-66.81 997.7,-151.78 1504.88,-286.16 783.61,404.06 1336.27,895.34 1449.49,1482.81z"/>
   <path class="fil0 str0" d="M151306.17 51657.93c-1444.99,-5197.57 -24011.53,-8548.9 -22096.6,-3064.8 0,0 -367.56,2241.7 38.55,4663.63 406.12,2422.12 2594.11,5403.63 3525.75,6252.17 931.64,848.73 -48.66,1276.75 1289.85,1603.14 1338.13,326.39 1660.59,646.8 4701.43,1038.13 3040.46,391.15 1127.78,-350.53 2933.79,-589.9 1805.64,-239.37 3489.25,-713.05 6088.6,-2856.68 2599.72,-2143.45 3177.83,-4639.11 3518.63,-7045.69z"/>
   <path class="fil0 str0" d="M151095.63 52942.91c-4268.18,2989.18 -19336.12,318.34 -21713.32,-3964.06 3344.96,-2445.51 18321.2,65.13 21713.32,3964.06z"/>
   <path class="fil0 str0" d="M129228.47 53135.3c-1710.19,-2169.46 -4513.34,-6955.11 -32.56,-4450.46m1272.26 7702.97c-5587.41,-4435.49 -7205.9,-12268.16 -1223.98,-9038.48"/>
   <line class="fil0 str0" x1="144695.05" y1="52209.84" x2="137027.26" y2= "49347.54" />
   <line class="fil0 str0" x1="142081.85" y1="52745.28" x2="133700.46" y2= "49070" />
   <path class="fil0 str0" d="M138466.65 64441.12c466.56,1331.4 467.31,2053.43 -932.77,3476.53"/>
   <path class="fil0 str0" d="M137759.21 64325.09c-866.88,1112.99 -1098.02,1797.03 -225.33,3592.56"/>
   <path class="fil0 str0" d="M142012.6 64612.37c796.9,1164.08 985.54,1861.03 4.31,3599.48"/>
   <path class="fil0 str0" d="M141299.37 64684.61c-547.42,1300.32 -592.52,2020.86 717.54,3527.24"/>
   <path class="fil0 str0" d="M144790.68 63827.08c1321.48,493.89 1876.76,955.59 2073.83,2942.21"/>
   <path class="fil0 str0" d="M144248.5 64296.45c300.19,1378.56 677.68,1993.92 2616.01,2472.84"/>
   <path class="fil0 str0" d="M145972.17 61772.9c1349.73,-410.98 2071.02,-381.6 3434.98,1075.94"/>
   <path class="fil0 str0" d="M145827.13 62475.1c1076.12,912.36 1750.05,1171.38 3580.02,373.74"/>
   <path class="fil0 str0" d="M134034.15 63469.43c-1038.32,955.22 -1378.56,1592.1 -813.17,3506.66"/>
   <path class="fil0 str0" d="M134712.95 63700.19c241.42,1389.97 122.96,2102.27 -1491.97,3275.9"/>
   <path class="fil0 str0" d="M131084.64 62069.54c-1340.94,437.75 -1915.12,875.87 -2195.66,2852.37"/>
   <path class="fil0 str0" d="M131606.61 62561.37c-357.84,1364.52 -761.33,1963.41 -2717.63,2360.54"/>
   <path class="fil0 str0" d="M130248.26 60292.53c-1356.66,-387.02 -2077.57,-344.92 -3415.51,1136.76"/>
   <path class="fil0 str0" d="M130405.84 60991.92c-1059.65,931.27 -1729.09,1202.45 -3573.09,437.37"/>
   <path class="fil0 str0" d="M131068.73 58266.06c-997.51,-997.89 -1647.68,-1311.56 -3537.35,-667.38"/>
   <path class="fil0 str0" d="M130866.24 58953.84c-1378.94,298.51 -2095.54,209.98 -3334.86,-1355.16"/>
   <path class="fil0 str0" d="M136148.96 59210.24c-206.99,-410.61 -121.46,-329.58 -423.15,-765.45 149.35,-1153.23 -345.11,-869.13 697.89,-1503.2m1435.08 -381.98c-538.81,-436.44 -461.89,-359.33 -888.22,-861.64m2390.3 4853.21c901.69,106.49 295.32,268 1024.65,-272.87m-3293.87 -1.5c-1142.74,-763.76 -697.32,-68.68 -737.19,-1121.22m1996.91 -4044.53c-959.53,-106.12 -1008.75,-184.35 -1380.8,586.91 -764.14,203.43 -373.56,115.66 -765.27,423.71l218.41 819.91c71.12,71.86 556.96,639.12 628.08,710.99 165.25,1012.49 196.7,966.82 -697.33,1503.01l-205.49 54.65m5235.56 -954.47c203.44,764.32 115.1,373.92 423.15,765.44 -193.14,446.17 -246.1,542.74 -396.76,984.23l-1025.4 272.87 -381.98 -1435.45c674.68,-492.4 514.3,-356.34 1380.99,-587.09 164.14,-1231.46 427.46,-243.49 -327.51,-1230.15m-1257.1 -1421.98c-85.71,774.25 -101.81,441.87 122.4,1284.8 468.81,87.21 655.4,102.37 1134.7,137.18 -285.78,-985.17 -332.38,-1376.87 -1257.1,-1421.98 -362.51,-1030.08 124.27,-261.45 -682.54,-915.92 -456.09,315.54 -321.34,207.93 -766.01,423.34 52.96,1003.51 118.84,758.71 -492.58,1448.55l314.04 355.78m395.64 2309.63c273.99,781.73 291.95,726.52 792.4,1326.16 -661.21,232.63 -395.46,100.69 -970.95,477.98 -881.48,-180.22 -720.9,-20.77 -1298.27,-752.35 877.18,-443.17 671.5,-590.65 1476.82,-1051.79 -183.23,-687.4 -110.42,-174.05 40.98,-669.81"/>
  </g>
  <rect class="fil2" width="190509.35" height="156435.42"/>
 </g>
</svg>
