<?xml version="1.0" encoding="UTF-8"?>
<!DOCTYPE svg PUBLIC "-//W3C//DTD SVG 1.1//EN" "http://www.w3.org/Graphics/SVG/1.1/DTD/svg11.dtd">
<!-- Creator: CorelDRAW 2017 -->
<svg xmlns="http://www.w3.org/2000/svg" xml:space="preserve" width="1.76389E+06px" height="1.12536E+06px" version="1.1" style="shape-rendering:geometricPrecision; text-rendering:geometricPrecision; image-rendering:optimizeQuality; fill-rule:evenodd; clip-rule:evenodd"
viewBox="0 0 190509.36 121395.06"
 xmlns:xlink="http://www.w3.org/1999/xlink">
 <defs>
  <style type="text/css">
   <![CDATA[
    .str0 {stroke:#51363B;stroke-width:935.76;stroke-linecap:round;stroke-linejoin:round;stroke-miterlimit:22.9256}
    .fil2 {fill:none}
    .fil1 {fill:none;fill-rule:nonzero}
    .fil0 {fill:#51363B;fill-rule:nonzero}
   ]]>
  </style>
 </defs>
 <g id="Capa_x0020_1">
  <metadata id="CorelCorpID_0Corel-Layer"/>
  <g id="_2239407282032">
   <path class="fil0" d="M53360.07 76891c1138.82,431.95 1492.16,431.95 2552.18,235.62l981.61 -235.62c3730.12,-1060.21 6792.85,-3965.74 6792.85,-8049.2 0,-5222.27 -1413.55,-10758.4 -6517.92,-13035.85 2041.82,-1845.31 2277.26,-2198.84 2277.26,-4908.05 0,-4083.45 -3337.47,-5654.03 -7067.59,-5889.65 -667.38,-39.3 -1491.97,353.34 -1491.97,1060.21 0,1020.91 0,1374.25 235.62,2709.21 628.27,3533.79 706.69,27210.14 2237.96,28113.33zm235.62 -19710.79c5968.26,0 7852.88,5811.24 7852.88,10994.02 0,4083.46 -2159.54,6949.87 -6557.04,6949.87l-235.62 0c-274.93,-5654.03 -706.87,-10640.68 -1020.91,-16530.34 0,-196.32 -39.31,-1217.23 -39.31,-1413.55zm-510.36 -9933.82c2591.49,0 4083.46,1531.28 4083.46,4083.46 0,1806.2 -1177.93,3494.49 -3141.15,3494.49 -78.6,0 -549.66,0 -667.57,-39.3 -39.12,-274.74 -196.32,-1884.61 -196.32,-2237.96 -39.12,-785.28 -78.42,-4476.1 -78.42,-5300.69zm15116.79 26542.76c39.3,1138.63 5614.73,706.69 7067.59,588.97l196.32 0c510.36,-78.61 745.98,-549.85 745.98,-1020.91 0,-1727.6 -4986.46,-745.99 -5928.95,-981.61l-78.42 -9187.83 4986.46 0c1806.2,0 903.2,-2277.45 -431.76,-2316.75 -667.56,0 -3965.74,117.91 -4554.7,-39.11 -235.62,-4279.97 -628.27,-7342.52 -628.27,-11504.58 0,-117.72 0,-314.04 274.93,-314.04l4279.78 0c274.74,-117.91 471.06,-706.87 471.06,-981.61 0,-863.89 -706.69,-1295.84 -6988.99,-785.29l0 2002.52c0,5614.73 549.67,9227.13 549.67,14841.86l0 7774.28 39.3 1924.1zm14409.91 3101.85c1138.82,431.95 1492.16,431.95 2552.19,235.62l981.61 -235.62c3730.11,-1060.21 6792.85,-3965.74 6792.85,-8049.2 0,-5222.27 -1413.56,-10758.4 -6517.93,-13035.85 2041.83,-1845.31 2277.26,-2198.84 2277.26,-4908.05 0,-4083.45 -3337.47,-5654.03 -7067.59,-5889.65 -667.38,-39.3 -1491.97,353.34 -1491.97,1060.21 0,1020.91 0,1374.25 235.63,2709.21 628.26,3533.79 706.68,27210.14 2237.95,28113.33zm235.63 -19710.79c5968.26,0 7852.87,5811.24 7852.87,10994.02 0,4083.46 -2159.54,6949.87 -6557.04,6949.87l-235.62 0c-274.93,-5654.03 -706.87,-10640.68 -1020.91,-16530.34 0,-196.32 -39.3,-1217.23 -39.3,-1413.55zm-510.36 -9933.82c2591.48,0 4083.45,1531.28 4083.45,4083.46 0,1806.2 -1177.93,3494.49 -3141.15,3494.49 -78.6,0 -549.66,0 -667.57,-39.3 -39.11,-274.74 -196.32,-1884.61 -196.32,-2237.96 -39.11,-785.28 -78.41,-4476.1 -78.41,-5300.69zm14567.12 431.95c-78.61,2826.92 353.34,5654.03 549.66,8480.95l981.61 17237.22c117.72,745.98 274.93,1491.97 1138.63,1491.97 667.57,0 1295.84,-235.62 1334.95,-863.89 0,-706.69 -117.72,-1334.95 -196.32,-2080.94l-1727.59 -23951.27c-78.42,-942.31 -2041.64,-1295.65 -2080.94,-314.04zm8716.58 -706.87l-39.3 235.62c-39.31,745.99 -117.72,6478.62 -157.02,7146.19 -196.33,5104.37 -392.65,9855.21 -510.37,14881.17 -39.3,1806.19 -78.6,6203.69 -78.6,6203.69 588.97,117.91 1138.63,157.02 1688.29,157.02 6674.95,0 8795.38,-6007.37 8991.7,-13467.6 0,-510.37 39.11,-1099.33 39.11,-1688.3 0,-5732.64 -981.61,-14017.46 -8049.2,-14331.5l-157.02 0c-588.96,0 -1688.29,196.32 -1727.59,863.71zm2198.84 1334.95c5536.32,471.25 5693.34,10287.34 5497.01,13978.16 -157.02,3219.75 -981.6,11622.29 -5968.26,11622.29 -39.3,0 -117.71,0 -431.94,-39.3l903.19 -25561.15zm11700.71 29055.64c-39.3,706.87 1648.99,942.5 1727.6,0 78.6,-1648.99 353.34,-5143.48 667.57,-6988.98l5300.69 -785.29 1413.37 7067.59c706.87,1256.53 1884.8,588.96 1884.8,-274.93 -4279.78,-20810.12 -5025.95,-24383.03 -6007.56,-28309.47 -667.39,-2670.09 -3023.25,-3612.4 -3258.87,0l-1727.6 29291.08zm3455.19 -27053.12l3848.02 17472.65 -4908.04 706.87c0,-314.23 39.11,-1845.5 78.41,-2120.43 117.91,-2434.28 824.59,-13663.93 981.61,-16059.09zm11504.58 22420c0,78.6 -39.3,196.32 -39.3,274.92 0,1609.69 2395.16,2944.83 3769.41,3180.27 314.05,39.3 628.27,39.3 942.31,39.3 3180.46,0 4515.41,-1884.61 5065.07,-5104.37 706.87,-4240.48 -1099.33,-7460.23 -3180.45,-11072.44 -1334.95,-2277.45 -2355.86,-3298.36 -1923.92,-5811.24 903.19,-5497.02 5065.07,-2237.96 5418.6,-4162.06 196.32,-1099.33 -549.85,-1334.96 -1609.88,-1452.67 -314.23,-39.31 -588.96,-39.31 -863.89,-39.31 -3258.87,0 -4751.03,2120.24 -5300.69,5222.09 -353.34,2198.84 235.62,3691 1334.95,5418.6 2355.86,3690.81 4515.4,7028.29 3808.72,11465.09 -353.34,2120.42 -942.31,3926.43 -3494.49,3494.68 -1570.58,-235.63 -1295.84,-2159.55 -2748.51,-2395.17 -549.66,0 -1138.63,471.06 -1177.93,942.31z"/>
   <path class="fil1 str0" d="M90164.34 34074.86c323.22,-227.95 708.37,-318.35 1070.51,-251.16 754.6,140.18 1207.13,911.24 1010.43,1722.92 -437.18,1806.01 -3698.86,1628.96 -4305.42,-635.57 -536.19,-2000.65 63.07,-3916.14 1893.6,-4685.15"/>
   <path class="fil1 str0" d="M84340 34874.18c-592.33,-1656.48 -2944.08,-710.8 -2430.53,1206.01 146.91,547.41 559.21,981.23 1101.38,1044.86 3018.57,355.59 3625.5,-5694.83 6627.04,-6830.28 2362.78,-893.65 4805.67,349.98 5456.21,2777.89 650.73,2427.92 -734.75,5131.13 -3100.16,6014.86 -2965.98,1107.94 -23571.17,-4714.9 -32194.18,-1535.2 -1170.25,431.57 -1063.2,1605.01 -425.95,1907.07 672.25,319.1 1471.38,-314.79 1208.44,-1023.72"/>
   <path class="fil1 str0" d="M59799.76 37552.32c-1165.01,451.97 -1648.43,-579.05 -1275.62,-1263.27 393.58,-722.22 1354.04,-753.85 1484.3,5.24"/>
   <path class="fil1 str0" d="M82557.2 86192.05c245.54,173.49 538.62,242.18 814.29,190.9 573.81,-106.49 917.98,-693.02 768.45,-1310.06 -332.76,-1373.69 -2813.08,-1239.13 -3274.4,483.22 -407.99,1521.55 47.91,2978.15 1440.13,3563.18"/>
   <path class="fil1 str0" d="M78127.88 85584.19c-450.47,1259.71 -2239.26,540.49 -1848.3,-917.23 111.35,-416.42 424.83,-746.18 837.12,-794.65 2295.98,-270.43 2757.68,4331.06 5039.99,5194.39 1796.85,679.74 3655.07,-266.13 4149.9,-2112.56 494.64,-1846.44 -559.02,-3902.3 -2357.92,-4574.17 -2255.55,-842.75 -17926.12,3585.63 -24484.09,1167.45 -889.91,-328.27 -808.31,-1220.61 -323.96,-1450.43 511.67,-242.55 1119.16,239.56 919.1,778.55"/>
   <path class="fil1 str0" d="M59464.58 83547.42c-885.98,-343.61 -1253.54,440.36 -970.01,960.65 299.44,549.28 1029.71,573.24 1128.71,-3.93"/>
   <path class="fil1 str0" d="M100345.01 34074.86c-323.02,-227.95 -708.18,-318.35 -1070.32,-251.16 -754.59,140.18 -1207.13,911.24 -1010.43,1722.92 437.19,1806.01 3698.68,1628.96 4305.42,-635.57 536.19,-2000.65 -63.07,-3916.14 -1893.41,-4685.15"/>
   <path class="fil1 str0" d="M106169.35 34874.18c592.52,-1656.48 2944.27,-710.8 2430.73,1206.01 -146.92,547.41 -559.21,981.23 -1101.2,1044.86 -3018.76,355.59 -3626.06,-5694.83 -6627.22,-6830.28 -2362.79,-893.65 -4805.68,349.98 -5456.22,2777.89 -650.72,2427.92 734.76,5131.13 3100.17,6014.86 2965.78,1107.94 23571.16,-4714.9 32194.17,-1535.2 1170.07,431.57 1063.21,1605.01 425.95,1907.07 -672.24,319.1 -1471.38,-314.79 -1208.43,-1023.72"/>
   <path class="fil1 str0" d="M130709.78 37552.32c1165.02,451.97 1648.43,-579.05 1275.62,-1263.27 -393.58,-722.22 -1354.04,-753.85 -1484.3,5.24"/>
   <path class="fil1 str0" d="M106901.3 86057.31c-256.58,180.97 -562.39,252.65 -849.85,199.31 -598.7,-111.17 -957.66,-723.15 -801.57,-1367.14 346.79,-1433.39 2935.09,-1292.84 3416.82,504.19 425.4,1587.79 -49.97,3107.83 -1502.82,3718.13"/>
   <path class="fil1 str0" d="M111523.57 85423.05c469.75,1314.55 2336.02,564.07 1928.6,-957.09 -116.6,-434.57 -443.55,-778.74 -873.82,-829.27 -2395.91,-282.23 -2877.64,4519.52 -5259.51,5420.47 -1874.7,709.3 -3813.78,-277.74 -4330.13,-2204.46 -516.35,-1926.91 583.54,-4072.04 2460.48,-4773.3 2353.99,-879.42 18705.98,3741.72 25549.36,1218.17 928.65,-342.3 843.68,-1273.75 338,-1513.49 -533.57,-253.22 -1167.45,250.03 -958.97,812.61"/>
   <path class="fil1 str0" d="M130998.55 83297.57c924.53,-358.58 1308.38,459.64 1012.12,1002.57 -312.36,573.06 -1074.06,598.32 -1177.75,-4.12"/>
   <path class="fil1 str0" d="M45517.11 62052.13c-1455.66,245.55 -2877.45,635.94 -3621.75,1237.82 -133.82,838.82 393.58,2225.8 682.91,3201.04 841.81,-175.92 1643.19,-659.89 2601.78,-944.55 113.98,-33.69 226.08,-65.88 337.06,-96.57l0 1089.59c-5333.63,1514.81 -4064.74,5686.98 -3629.05,11282.43 507.37,6521.86 -403.5,11308.63 8598.67,10607.75 3447.71,-268.19 5283.1,-1117.11 6208.94,-2435.97l2931.54 0c30.32,412.11 58.95,784.54 84.97,1107 163.19,2007.39 1055.35,8121.82 121.83,9357.95 -2091.41,2769.1 -13096.3,3480.83 -16653.3,2122.3 -1577.68,-602.44 -1564.96,-1295.27 -1708.13,-3358.06 -377.3,-5409.99 -2736.34,-31683.81 -2499.59,-34165.06 354.09,-3707.1 2331.34,-4629.76 2722.11,-6811.94 833.95,-4656.33 270.06,-14208.54 296.08,-19394.14 -182.47,-1306.69 -36.12,-132.69 -354.09,-911.42 -360.27,-880.74 675.99,-1619.05 0,-3714.96 -251.72,-780.42 -673.75,-722.59 -331.82,-1912.69 432.51,-964.95 3291.81,-1074.44 4173.1,-1122.91 5293.58,-291.58 3991.01,142.24 4130.06,3959.94 31.63,868.2 415.66,1197.58 537.31,1603.7 200.63,670.56 -151.03,515.23 -34.06,1666.21l774.62 4396m-8707.03 -9269.99c553.4,-43.23 1065.07,-620.03 1618.11,-663.26 553.4,-42.86 1147.8,447.67 1701.02,404.81 553.03,-43.23 1064.51,-620.03 1617.73,-663.08 553.41,-43.04 1147.99,447.85 1701.02,404.62m-6387.48 3733.67c2155.05,-906.74 4372.61,-1033.26 6637.71,-516.53m-6549 1654.23c2269.59,569.69 4478.91,337.06 6638.08,-516.73m8215.39 57591.38c-2192.86,853.22 -3720.76,1374.25 -6404.14,1634.77 -1999.52,194.26 -5384.72,313.66 -6830.47,-523.09 -262.38,-808.12 44.17,-2259.67 178.92,-3268.23 859.03,43.42 1725.54,397.7 2716.51,530.39 4135.48,554.72 6256.66,-480.42 9409.97,-1360.59l929.21 2986.75z"/>
   <path class="fil1 str0" d="M38677.29 47950.46c767.51,1222.28 1424.59,1964.15 2044.81,2483.12 -450.1,7582.82 -3030.91,3693.81 -3281.51,10376.8 -2194.73,930.33 -5791.78,2724.55 -6825.04,4415.84 184.53,991.34 1327.09,2331.35 2039.02,3306.22 870.81,-532.26 1573.56,-1392.41 2531.41,-2092.54 772.74,-564.64 1500.39,-1024.47 2199.03,-1405.7 3.36,484.73 8.98,976 17.96,1475.69 -7293.85,4075.04 -3937.66,8398.05 -1005,14962.58 839.75,1879.19 1519.48,3662.18 2246.94,5185.78 204.18,2234.4 417.53,4400.12 628.83,6434.27 -4809.23,-10620.66 -12272.46,-27052.19 -12814.26,-29196.38 -1081.93,-4284.09 760.77,-6103.57 328.07,-8698.8 -923.21,-5536.51 -5360.39,-15988.73 -7397.72,-21795.29 -725.03,-1387.54 -93.01,-133.82 -758.9,-877.18 -754.03,-841.25 110.61,-2079.07 -1480.37,-4152.33 -592.33,-772 -1040.93,-539.37 -1133.2,-2006.08 98.63,-1250.36 3251.38,-2512.51 4216.9,-2917.69 5800.57,-2435.59 4517.83,-1431.52 6194.52,2780.32 381.42,957.84 941.75,1172.88 1239.32,1578.06 491.65,669.82 37.24,636.13 625.84,1875.82l10383.35 18267.49zm-21191.17 -20554.29c600.95,-268.56 942.87,-1117.11 1544,-1385.67 600.95,-268.56 1461.1,42.86 2062.23,-225.7 601.13,-268.57 943.05,-1117.11 1544.37,-1385.67 601.13,-268.57 1461.28,43.04 2062.41,-225.52m-5651.04 6718.55c2046.69,-1871.89 4474.61,-2897.29 7213.01,-3222.56m-6660.73 4458.88c2763.86,-267.44 5140.12,-1408.13 7213.2,-3222.56"/>
   <path class="fil1 str0" d="M144992.43 62052.13c1455.85,245.55 2877.45,635.94 3621.76,1237.82 133.81,838.82 -393.58,2225.8 -682.92,3201.04 -841.99,-175.92 -1643.38,-659.89 -2601.97,-944.55 -113.6,-33.69 -225.89,-65.88 -336.87,-96.57l0 1089.59c5333.63,1514.81 4064.74,5686.98 3628.87,11282.43 -507.18,6521.86 403.68,11308.63 -8598.49,10607.75 -3447.7,-268.19 -5283.1,-1117.11 -6208.94,-2435.97l-2931.54 0c-30.32,412.11 -58.95,784.54 -84.97,1107 -163.19,2007.39 -1055.53,8121.82 -121.83,9357.95 2091.42,2769.1 13096.3,3480.83 16653.3,2122.3 1577.69,-602.44 1564.96,-1295.27 1708.13,-3358.06 377.3,-5409.99 2736.34,-31683.81 2499.6,-34165.06 -353.91,-3707.1 -2331.35,-4629.76 -2722.12,-6811.94 -833.95,-4656.33 -270.06,-14208.54 -296.08,-19394.14 182.48,-1306.69 36.12,-132.69 354.28,-911.42 360.08,-880.74 -676.18,-1619.05 0,-3714.96 251.53,-780.42 673.56,-722.59 331.63,-1912.69 -432.5,-964.95 -3291.8,-1074.44 -4173.1,-1122.91 -5293.58,-291.58 -3991,142.24 -4130.06,3959.94 -31.63,868.2 -415.66,1197.58 -537.31,1603.7 -200.63,670.56 151.03,515.23 33.87,1666.21l-774.43 4396m8707.04 -9269.99c-553.41,-43.23 -1065.08,-620.03 -1618.3,-663.26 -553.22,-42.86 -1147.61,447.67 -1700.83,404.81 -553.04,-43.23 -1064.52,-620.03 -1617.74,-663.08 -553.41,-43.04 -1147.99,447.85 -1701.02,404.62m6387.48 3733.67c-2155.24,-906.74 -4372.61,-1033.26 -6637.7,-516.53m6548.99 1654.23c-2269.59,569.69 -4478.91,337.06 -6638.08,-516.73m-8215.39 57591.38c2192.86,853.22 3720.76,1374.25 6404.14,1634.77 1999.53,194.26 5384.54,313.66 6830.47,-523.09 262.38,-808.12 -44.17,-2259.67 -178.92,-3268.23 -859.02,43.42 -1725.54,397.7 -2716.5,530.39 -4135.49,554.72 -6256.66,-480.42 -9409.98,-1360.59l-929.21 2986.75z"/>
   <path class="fil1 str0" d="M151832.26 47950.46c-767.7,1222.28 -1424.6,1964.15 -2044.82,2483.12 450.1,7582.82 3030.92,3693.81 3281.51,10376.8 2194.73,930.33 5791.78,2724.55 6825.04,4415.84 -184.53,991.34 -1327.09,2331.35 -2039.01,3306.22 -870.63,-532.26 -1573.57,-1392.41 -2531.41,-2092.54 -772.75,-564.64 -1500.4,-1024.47 -2199.03,-1405.7 -3.37,484.73 -8.99,976 -17.78,1475.69 7293.66,4075.04 3937.48,8398.05 1004.81,14962.58 -839.56,1879.19 -1519.48,3662.18 -2246.94,5185.78 -204.18,2234.4 -417.53,4400.12 -628.83,6434.27 4809.24,-10620.66 12272.46,-27052.19 12814.27,-29196.38 1081.92,-4284.09 -760.77,-6103.57 -328.08,-8698.8 923.22,-5536.51 5360.39,-15988.73 7397.72,-21795.29 725.03,-1387.54 93.02,-133.82 758.72,-877.18 754.22,-841.25 -110.24,-2079.07 1480.36,-4152.33 592.71,-772 1041.13,-539.37 1133.39,-2006.08 -98.63,-1250.36 -3251.38,-2512.51 -4216.89,-2917.69 -5800.58,-2435.59 -4517.84,-1431.52 -6194.53,2780.32 -381.42,957.84 -941.75,1172.88 -1239.32,1578.06 -491.83,669.82 -37.24,636.13 -625.83,1875.82l-10383.35 18267.49zm21191.16 -20554.29c-601.13,-268.56 -942.87,-1117.11 -1544,-1385.67 -601.13,-268.56 -1461.09,42.86 -2062.22,-225.7 -601.13,-268.57 -943.06,-1117.11 -1544.38,-1385.67 -601.13,-268.57 -1461.28,43.04 -2062.41,-225.52m5651.04 6718.55c-2046.69,-1871.89 -4474.79,-2897.29 -7213,-3222.56m6660.72 4458.88c-2763.86,-267.44 -5140.12,-1408.13 -7213.19,-3222.56"/>
   <path class="fil1 str0" d="M90803.47 86479.89c329.2,1713.94 414.35,4743.73 -147.1,6377.19 -54.65,-102.56 -401.26,-8390.75 -406.5,-9428.88 -4.68,-955.97 -67.75,-4240.1 838.63,-4664 1181.3,-552.47 3329.98,-488.28 4608.79,-347.92 1017.92,111.92 3621.76,614.98 4326.57,1368.27 1099.89,1175.5 -2002.15,13437.29 -2377.57,13901.61 -964.39,-46.79 885.6,1617.93 -2544.51,1693.54 2548.81,-614.42 4834.68,-10782.18 4782.09,-14337.12m-4254.89 -2329.29c-2261.72,-383.28 -6249.74,158.15 -4061.19,1519.49 1065.64,820.66 4628.26,1125.53 6187.23,1020.16 674.12,-45.67 1496.09,-178.54 2085.8,-528.52m-2219.42 13248.46c1060.4,3108.96 -8387.95,1903.33 -6947.82,-361.95 154.4,1698.96 2995.18,1772.7 4428.2,1768.77"/>
  </g>
  <rect class="fil2" width="190509.35" height="121395.06"/>
 </g>
</svg>
