<?xml version="1.0" encoding="UTF-8"?>
<!DOCTYPE svg PUBLIC "-//W3C//DTD SVG 1.1//EN" "http://www.w3.org/Graphics/SVG/1.1/DTD/svg11.dtd">
<!-- Creator: CorelDRAW 2017 -->
<svg xmlns="http://www.w3.org/2000/svg" xml:space="preserve" width="1.76389E+06px" height="1.12536E+06px" version="1.1" style="shape-rendering:geometricPrecision; text-rendering:geometricPrecision; image-rendering:optimizeQuality; fill-rule:evenodd; clip-rule:evenodd"
viewBox="0 0 190509.36 121395.06"
 xmlns:xlink="http://www.w3.org/1999/xlink">
 <defs>
  <style type="text/css">
   <![CDATA[
    .str1 {stroke:#51363B;stroke-width:935.76;stroke-linecap:round;stroke-linejoin:round;stroke-miterlimit:22.9256}
    .str0 {stroke:#452E2E;stroke-width:935.76;stroke-linecap:round;stroke-linejoin:round;stroke-miterlimit:22.9256}
    .fil2 {fill:none}
    .fil0 {fill:none;fill-rule:nonzero}
    .fil1 {fill:#51363B;fill-rule:nonzero}
   ]]>
  </style>
 </defs>
 <g id="Capa_x0020_1">
  <metadata id="CorelCorpID_0Corel-Layer"/>
  <g id="_2239407267760">
   <path class="fil0 str0" d="M53478.54 95233.72c-493.71,132.31 -1019.6,63.07 -1462.22,-192.58 -921.72,-532.07 -1237.44,-1710.57 -705.37,-2632.29 1184.11,-2052.11 5314.73,-287.84 5314.73,2831.42 0,2755.8 -2163.85,4028.99 -4781.72,4124.63"/>
   <path class="fil0 str1" d="M65808.26 97258.88c190.52,2351.94 3538.85,2281.57 3538.85,-358.39 0,-754.04 -380.67,-1491.6 -1055.35,-1827.91 -3757.62,-1872.64 -11923.98,4298.49 -16172.69,4298.49 -3344.4,0 -6055.48,-2711.07 -6055.48,-6055.47 0,-3344.4 2711.27,-6069.51 6055.48,-6055.66 4193.5,17.41 21668.4,7595.92 33845.6,7698.66 1652.73,14.04 1919.05,-1504.13 1204.32,-2183.49 -754.6,-716.98 -1999.53,-302.25 -1905.58,708.55"/>
   <g>
    <path class="fil1" d="M85964.67 94958.6c1652.73,-13.85 1919.05,1504.14 1204.32,2183.5 -754.6,716.98 -1999.53,302.25 -1905.58,-708.55l701.26 -1474.95zm-4455.89 2137.84c-279.61,396.76 -637.07,966.45 -949.42,1628.21 -613.67,1299.77 -830.58,2383 -1407.94,3141.15 -577.55,758.15 -577.55,758.15 -577.55,758.15 0,0 -361.21,-866.32 -108.36,-1696.9 252.46,-830.39 252.46,-830.39 252.46,-830.39 0,0 -1119.16,1191.41 -2238.14,1624.66 -1119.35,433.26 -2816.44,686.1 -3502.35,1119.36 -686.1,433.25 -686.1,433.25 -686.1,433.25 0,0 288.96,-1155.28 1805.26,-2382.81 1516.68,-1227.71 2671.96,-1263.83 2671.96,-1263.83 0,0 -397.13,36.12 -1372.19,-144.49 -974.87,-180.41 -1552.24,-577.55 -1552.24,-577.55 0,0 361.02,-288.96 2166.1,-324.89 1805.26,-36.12 4005.6,-1087.91 4837.86,-2021.98 411.55,-461.33 1105.5,-93.77 660.65,538.06zm13196.05 -4633.88l-1663.78 10736.89c-703.32,4538.61 5431.88,4538.23 4728.76,0l-1663.78 -10736.89c-138.31,-893.64 -1257.66,-925.65 -1401.2,0zm-2047.63 -87.77l-2722.3 6263.03c-753.66,1733.95 1461.28,2442.32 1853.92,593.08l1417.48 -6680.56c77.67,-364.2 -395.45,-529.27 -549.1,-175.55zm5496.27 0l2722.49 6263.03c753.66,1733.95 -1461.47,2442.32 -1853.92,593.08l-1417.49 -6680.56c-77.67,-364.2 395.45,-529.27 548.92,-175.55zm6692.72 2583.81c-1652.73,-13.85 -1919.05,1504.14 -1204.32,2183.5 754.6,716.98 1999.53,302.25 1905.58,-708.55l-701.26 -1474.95zm4455.89 2137.84c279.42,396.76 636.88,966.45 949.42,1628.21 613.67,1299.77 830.58,2383 1407.94,3141.15 577.55,758.15 577.55,758.15 577.55,758.15 0,0 361.2,-866.32 108.36,-1696.9 -252.65,-830.39 -252.65,-830.39 -252.65,-830.39 0,0 1119.35,1191.41 2238.33,1624.66 1119.16,433.26 2816.44,686.1 3502.35,1119.36 685.91,433.25 685.91,433.25 685.91,433.25 0,0 -288.77,-1155.28 -1805.07,-2382.81 -1516.68,-1227.71 -2671.97,-1263.83 -2671.97,-1263.83 0,0 397.14,36.12 1372.2,-144.49 974.87,-180.41 1552.23,-577.55 1552.23,-577.55 0,0 -361.01,-288.96 -2166.09,-324.89 -1805.26,-36.12 -4005.6,-1087.91 -4837.86,-2021.98 -411.55,-461.33 -1105.7,-93.77 -660.65,538.06zm-23337.41 -65022.98c1652.73,14.04 1919.05,-1504.14 1204.32,-2183.5 -754.6,-716.97 -1999.53,-302.25 -1905.58,708.56l701.26 1474.94zm-4455.89 -2138.21c-279.61,-396.76 -637.07,-966.45 -949.42,-1628.21 -613.67,-1299.58 -830.58,-2383 -1407.94,-3141.15 -577.55,-758.15 -577.55,-758.15 -577.55,-758.15 0,0 -361.21,866.51 -108.36,1696.9 252.46,830.39 252.46,830.39 252.46,830.39 0,0 -1119.16,-1191.41 -2238.14,-1624.66 -1119.35,-433.26 -2816.44,-685.91 -3502.35,-1119.17 -686.1,-433.25 -686.1,-433.25 -686.1,-433.25 0,0 288.96,1155.09 1805.26,2382.81 1516.68,1227.52 2671.96,1263.64 2671.96,1263.64 0,0 -397.13,-35.93 -1372.19,144.49 -974.87,180.41 -1552.24,577.55 -1552.24,577.55 0,0 361.02,288.96 2166.1,325.08 1805.26,36.12 4005.6,1087.72 4837.86,2021.79 411.55,461.52 1105.5,93.77 660.65,-538.06zm13196.05 4634.25l-1663.78 -16351.43c-465.07,-4568.93 5193.64,-4568.18 4728.76,0l-1663.78 16351.43c-91.52,899.26 -1306.32,931.83 -1401.2,0zm-2047.63 87.77l-2722.3 -6263.02c-753.66,-1733.77 1461.28,-2442.33 1853.92,-593.08l1417.48 6680.56c77.67,364.19 -395.45,529.26 -549.1,175.54zm5496.27 0l2722.49 -6263.02c753.66,-1733.77 -1461.47,-2442.33 -1853.92,-593.08l-1417.49 6680.56c-77.67,364.19 395.45,529.26 548.92,175.54zm6692.72 -2583.81c-1652.73,14.04 -1919.05,-1504.14 -1204.32,-2183.5 754.6,-716.97 1999.53,-302.25 1905.58,708.56l-701.26 1474.94zm4455.89 -2138.21c279.42,-396.76 636.88,-966.45 949.42,-1628.21 613.67,-1299.58 830.58,-2383 1407.94,-3141.15 577.55,-758.15 577.55,-758.15 577.55,-758.15 0,0 361.2,866.51 108.36,1696.9 -252.65,830.39 -252.65,830.39 -252.65,830.39 0,0 1119.35,-1191.41 2238.33,-1624.66 1119.16,-433.26 2816.44,-685.91 3502.35,-1119.17 685.91,-433.25 685.91,-433.25 685.91,-433.25 0,0 -288.77,1155.09 -1805.07,2382.81 -1516.68,1227.52 -2671.97,1263.64 -2671.97,1263.64 0,0 397.14,-35.93 1372.2,144.49 974.87,180.41 1552.23,577.55 1552.23,577.55 0,0 -361.01,288.96 -2166.09,325.08 -1805.26,36.12 -4005.6,1087.72 -4837.86,2021.79 -411.55,461.52 -1105.7,93.77 -660.65,-538.06z"/>
   </g>
   <path class="fil0 str0" d="M137332.13 95233.72c493.9,132.31 1019.79,63.07 1462.4,-192.58 921.73,-532.07 1237.45,-1710.57 705.19,-2632.29 -1183.92,-2052.11 -5314.54,-287.84 -5314.54,2831.42 0,2755.8 2163.85,4028.99 4781.53,4124.63"/>
   <path class="fil0 str1" d="M125002.59 97258.88c-190.52,2351.94 -3538.84,2281.57 -3538.84,-358.39 0,-754.04 380.66,-1491.6 1055.34,-1827.91 3757.63,-1872.64 11923.99,4298.49 16172.7,4298.49 3344.4,0 6055.28,-2711.07 6055.28,-6055.47 0,-3344.4 -2711.07,-6069.51 -6055.28,-6055.66 -4193.5,17.41 -21668.4,7595.92 -33845.6,7698.66 -1652.73,14.04 -1919.05,-1504.13 -1204.32,-2183.49 754.6,-716.98 1999.53,-302.25 1905.58,708.55"/>
   <path class="fil0 str0" d="M53478.54 31798.35c-493.71,-132.32 -1019.6,-62.89 -1462.22,192.58 -921.72,532.07 -1237.44,1710.56 -705.37,2632.47 1184.11,2051.93 5314.73,287.65 5314.73,-2831.42 0,-2755.8 -2163.85,-4028.99 -4781.72,-4124.81"/>
   <path class="fil0 str0" d="M65808.26 29773.18c190.52,-2351.93 3538.85,-2281.56 3538.85,358.58 0,753.85 -380.67,1491.41 -1055.35,1827.72 -3757.62,1872.64 -11923.98,-4298.49 -16172.69,-4298.49 -3344.4,0 -6055.48,2711.08 -6055.48,6055.47 0,3344.4 2711.27,6069.51 6055.48,6055.66 4193.5,-17.4 21668.4,-7595.73 33845.6,-7698.66 1652.73,-13.85 1919.05,1504.14 1204.32,2183.5 -754.6,716.97 -1999.53,302.25 -1905.58,-708.56"/>
   <path class="fil0 str0" d="M137332.13 31798.35c493.9,-132.32 1019.79,-62.89 1462.4,192.58 921.73,532.07 1237.45,1710.56 705.19,2632.47 -1183.92,2051.93 -5314.54,287.65 -5314.54,-2831.42 0,-2755.8 2163.85,-4028.99 4781.53,-4124.81"/>
   <path class="fil0 str0" d="M125002.59 29773.18c-190.52,-2351.93 -3538.84,-2281.56 -3538.84,358.58 0,753.85 380.66,1491.41 1055.34,1827.72 3757.63,1872.64 11923.99,-4298.49 16172.7,-4298.49 3344.4,0 6055.28,2711.08 6055.28,6055.47 0,3344.4 -2711.07,6069.51 -6055.28,6055.66 -4193.5,-17.4 -21668.4,-7595.73 -33845.6,-7698.66 -1652.73,-13.85 -1919.05,1504.14 -1204.32,2183.5 754.6,716.97 1999.53,302.25 1905.58,-708.56"/>
   <path class="fil0 str1" d="M151122.95 76616.45l817.85 -1490.29c195.76,-1149.86 587.85,-2313 741.31,-3471.47m-4587.27 585.97c-1986.99,841.99 -3341.59,1754.17 -4107.04,3951.52 -826.46,2372.52 -186.59,5761.45 1739.57,7486.99l4855.28 3111.77c761.89,-51.47 903.75,-100.5 1683.05,-240.12m14096.81 5407.37c-622.28,-1336.82 -318.91,-794.08 -1298.08,-1875.44l-1788.24 -981.24m-11058.22 -5291.15l1144.81 -2086.73m7512.64 -9451.53c-802.7,-955.59 -399.76,-607.31 -1625.04,-1279.37 -2240.02,-381.6 -3011.83,-381.97 -5318.1,-202.87l-1250.17 864.83c-838.63,-132.13 -650.35,-141.49 -1355.72,-355.78 -1646.94,299.26 -1707.76,69.44 -3231.55,941.75 672.62,994.34 439.81,878.49 1461.47,1577.31l538.24 1846.63c588.03,665.32 419.22,446.91 1028.4,951.85 -182.66,1384.73 -302.06,1257.84 -1010.05,2548.63m2777.7 6953.24l-624.9 432.5c410.23,912.74 381.6,1138.82 672.43,2308.33 1058.53,691.15 1988.49,1602.02 2951.76,2394.98 714.17,217.28 552.47,208.3 1355.91,355.96 4949.41,1760.91 6969.71,4740.92 10461.58,4964.38 1090.72,69.62 6803.52,-611.42 7654.5,-2033.03 185.28,-1239.13 13.47,-1121.6 578.29,-2369.52m-30250.97 -12719.38l1220.6 -909.37 2010.75 3.93 1192.35 617.98c1387.91,1756.04 1038.12,2781.44 2105.07,4645.28 70.19,1484.12 -65.5,1018.48 672.63,2307.96 1078.55,-132.88 285.59,196.13 1384.92,-403.69 1237.44,509.05 917.98,417.54 2086.55,1144.81 84.59,1244.55 -31.82,427.82 403.69,1384.92l2579.88 194.82c2618.81,-305.62 -964.58,-910.86 3930.55,662.33 1500.59,-2193.41 2630.61,-673.37 4510.36,-2566.59m-11614.63 -10638.63c180.23,-1443.87 -303.56,-562.2 817.86,-1490.29m596.07 327.33c816.73,-600.01 900.39,-638.93 1577.32,-1461.47m16845.69 13120.45c-802.88,-955.6 -399.38,-607.12 -1625.04,-1279.37 -2065.59,-351.85 -2425.86,-339.49 -4558.07,-174.05 -1456.23,776.3 -1126.65,262.38 -2039.2,1596.03 1351.23,576.98 3183.44,378.42 4693.19,635.56l2384.31 1308.19c1279.74,2554.24 -247.04,2301.22 1076.12,3693.25l1308.38 -2385.06 44.17 -3040.84 -734.95 -2767.41c-528.89,-991.71 -1008.18,-1843.44 -1567.39,-2798.85l-1191.97 -653.9m-19425.39 -1350.49c530.02,-917.79 823.28,-1170.44 1442.94,-1922.98 138.31,-877.37 113.6,-602.25 355.96,-1356.1 1507.14,-707.99 454.41,300.94 1413.93,-1162.96l-596.07 -327.33c981.79,-1789.91 678.61,-2028.53 2173.39,-1134.14 595.33,-1226.21 -166.38,-39.3 1712.25,-999.76 2403.77,-672.25 3128.79,-472.74 5346.91,-556.59l4471.05 2453.18c1724.98,1361.72 3590.5,4204.18 3105.03,6357.17 -4691.14,-2573.71 -7288.24,2443.82 -10617.29,3094.36 363.08,-2915.07 5109.8,-5610.8 6607.57,-5682.11 1300.89,247.79 1016.42,169.94 2249.94,846.86m-10493.03 7816.2l-654.09 1191.97c-667.38,-1165.4 -710.8,-1578.07 -1105.5,-2933.42 238.43,-731.2 349.41,-1214.05 683.29,-1951.99"/>
   <path class="fil1" d="M62012.08 42298.29l5.8 118.1c58.96,364.38 620.22,3140.77 671.13,3467.54 439.06,2485.37 840.87,4800.06 1309.5,7239.58 169.56,876.24 610.3,3003.97 610.3,3003.97 296.63,-4.68 566.51,-43.05 831.7,-100.69 3223.31,-697.7 3619.32,-3820.32 2934.54,-7443.76 -53.34,-246.48 -96.2,-534.88 -157.96,-819.35 -599.07,-2768.16 -1939.08,-6666.52 -5385.1,-6079.24l-75.79 16.28c-284.47,61.76 -794.84,271.37 -744.12,597.57zm1201.7 415.11c2722.49,-351.29 3824.63,4372.79 4115.65,6175.62 260.52,1570.95 741.12,5714.86 -1667.14,6236.26 -19.28,4.12 -56.9,12.35 -212.8,26.02l-2235.71 -12437.9zm8667.55 11053.91c113.41,551.16 2793.61,-121.83 3491.12,-299.63l96.01 -16.47c241.99,-80.47 317.6,-329.57 278.3,-559.21 -143.36,-841.62 -2490.62,50.53 -2969.16,14.04l-800.82 -4468.62 2428.85 -413.79c879.8,-149.91 250.97,-1184.29 -402.75,-1092.59 -325.08,55.4 -1922.05,386.47 -2221.68,358.77 -469.93,-2064.84 -915.17,-3524.06 -1260.46,-5551.47 -9.92,-57.27 -26.39,-152.91 107.61,-175.74l2084.31 -355.21c124.26,-80.1 170.87,-383.29 148.03,-517.29 -71.3,-420.53 -451.59,-572.5 -3469.22,197.63l166.19 975.44c465.82,2734.84 1033.63,4448.77 1499.83,7183.43l645.11 3786.83 178.73 933.88zm5103.62 -1419.17c4.68,38.37 -7.67,98.44 -2.62,137.18 96.94,789.41 1352.54,1299.21 2040.7,1331.77 156.46,0.19 310.48,-18.9 464.51,-37.8 1559.35,-192.21 2100.21,-1197.21 2175.07,-2809.33 90.4,-2121.93 -990.03,-3591.81 -2228.78,-5237.25 -792.03,-1036.26 -1354.61,-1475.31 -1294.53,-2733.72 110.23,-2750.19 2348.38,-1403.64 2405.27,-2368.59 29.76,-550.97 -350.16,-621.34 -877.18,-614.98 -156.27,-0.19 -291.21,16.47 -425.77,33.13 -1598.65,196.88 -2202.02,1326.9 -2283.81,2881.01 -40.61,1099.7 338.56,1795.9 981.8,2576.7 1378.37,1667.52 2639.21,3173.53 2560.98,5391.83 -45.29,1061.15 -224.96,1982.5 -1502.26,1925.23 -784.36,-20.59 -766.02,-981.05 -1492.72,-1008.37 -269.5,33.12 -529.64,299.63 -520.66,533.19zm7172.39 1389.04c6.93,349.6 847.8,402.75 851.17,-64.57 -22.65,-815.42 -17.41,-2547.5 68.68,-3468.29l2582.32 -584.1 959.52 3429.18c395.08,592.89 950.73,220.09 918.36,-205.49 -2883.63,-10093.65 -3384.45,-11826.11 -4014.22,-13724.2 -428.38,-1290.41 -1624.1,-1666.96 -1605.75,121.46l239.92 14496.01zm694.9 -13457.69l2546.57 8465.24 -2391.61 531.13c-11.98,-154.77 -49.78,-910.68 -40.61,-1047.67 -32.76,-1203.57 -102.94,-6762.72 -114.35,-7948.7zm7864.66 12435.47c68.13,269.5 323.78,357.08 594.96,347.16 271.74,-9.91 519.16,-135.49 507.93,-445.79l-965.7 -7846.33 1704.38 -5963.77 -2.99 -77.66c-23.39,-639.69 -1188.04,-635.94 -1245.49,-90.4l-1111.68 5185.03 -2379.82 -4572.29c-213.73,-535.82 -1293.59,-340.99 -749.17,745.8 335.38,686.47 2104.15,3941.59 2478.82,4626.94 640.62,2131.47 808.12,5658.34 1168.76,8091.31zm4598.32 -8668.11c-43.61,930.33 -128.76,3431.61 -131.76,3548.02l-9.17 349.04c-44.73,1687.35 80.29,4329.75 2543.2,4394.5 2152.43,56.71 2799.23,-3128.61 3068.54,-4518.77 40.8,-76.55 42.86,-154.03 63.44,-192.21l45.29 -251.15c601.69,-2953.63 906.75,-5701.39 1179.24,-8682.9l27.14 -290.64c7.3,-290.65 -256.4,-588.78 -585.97,-597.58 -252.28,-6.55 -642.68,80.48 -649.98,371.31l-11.23 426.52c-89.83,3413.45 -630.14,6970.27 -1436.57,10345.17 -151.59,597.58 -840.69,2442.51 -1791.04,2417.62 -2074.95,-54.64 -1314.55,-5352.15 -1241,-6669.89 89.64,-1938.33 372.43,-3832.86 461.89,-5771.19l3.18 -116.41c32.75,-503.62 90.77,-1239.69 -607.31,-1258.03 -174.61,-4.68 -371.49,106.68 -490.71,219.9 -268.75,2088.99 -323.96,4183.4 -437.18,6276.69zm8381.57 8695.62c-28.82,581.48 604.69,1159.59 1132.83,191.08l1048.24 -11009.18c859.21,3730.86 1919.42,7381.06 2818.5,11096.02 66.06,141.86 336.87,397.7 510.74,412.11 174.05,14.6 447.85,-235.44 494.45,-329.02l40.42 -249.66c503.63,-4435.49 1026.72,-8869.67 1720.86,-13017.13 -99.94,-202.68 -288.77,-276.8 -520.65,-296.07 -309.36,-25.64 -670.19,100.12 -774.62,422.4 -182.48,2437.83 -376.55,4543.47 -791.09,6962.03l-417.54 2691.05c-1124.78,-3577.96 -1637.01,-7027.16 -2521.68,-10448.66 -170.87,-286.91 -680.29,-951.86 -1105.13,-286.16l-1635.33 13861.19zm9069.55 -2253.3c216.54,1831.65 967.76,2915.07 2582.13,3138.15 76.73,10.48 156.46,1.87 233.38,12.54 4278.47,219.16 5590.59,-13523.94 1324.47,-14113.84 -4823.83,-666.82 -4230.56,9775.67 -4139.98,10963.15zm3878.53 -9922.21l153.28 21.33c2729.23,377.11 1493.65,7472.4 973.37,8967.36 -297.57,879.43 -1031.02,3069.29 -2334.53,3006.59 -57.64,-8.04 -137.36,0.75 -230.57,-31.81 -947.54,-228.89 -1329.52,-2142.33 -1395.58,-2797.73 -171.06,-1453.23 -105.18,-9297.87 2834.03,-9165.74zm2776.95 12349.75c-8.23,37.8 -40.23,90.39 -48.84,128.38 -173.68,776.12 836.94,1678.38 1473.82,1940.58 147.47,52.77 298.88,86.65 450.28,120.52 1533.33,343.43 2380.94,-420.9 2993.49,-1913.81 798.95,-1968.27 276.05,-3715.7 -337.43,-5682.1 -397.33,-1242.13 -779.68,-1844.76 -299.82,-3009.4 1028.96,-2553.12 2683.75,-532.07 3062.36,-1421.6 213.16,-508.87 -121.09,-703.32 -619.85,-874.37 -147.1,-52.78 -279.41,-82.54 -411.92,-112.11 -1571.32,-352.22 -2519.62,508.87 -3119.63,1945.25 -408.17,1021.85 -285.21,1804.89 58.02,2756.75 737.19,2033.77 1418.05,3876.28 597.95,5939.06 -399.19,984.04 -878.49,1791.41 -2062.22,1307.44 -731.76,-283.16 -391.15,-1181.11 -1066.39,-1451.73 -265.01,-59.33 -600.01,104.24 -669.82,327.14z"/>
   <path class="fil1" d="M95952 68825.89c47.54,221.97 253.59,301.13 475.37,301.13 221.96,0 427.83,-95.07 427.83,-348.66l-554.53 -6433.15 1568.7 -4817.09 0 -63.44c0,-522.91 -950.73,-554.53 -1014.17,-110.98l-1061.53 4199.11 -1806.38 -3802.92c-158.52,-443.73 -1045.8,-316.84 -633.88,586.35 253.59,570.44 1600.33,3280.02 1885.55,3850.46 459.64,1758.84 491.27,4642.66 713.04,6639.19z"/>
   <path class="fil1" d="M65486.74 83832.82c49.97,148.04 366.81,348.29 481.16,370.56 171.25,33.32 391.52,-81.78 470.5,-283.91 716.98,-3477.46 1441.82,-6992.54 2532.16,-10357.71 19.28,3.75 76.17,14.97 1138.26,4708.55 159.64,702.94 788.28,213.16 951.1,-12.36 245.54,-347.35 1330.27,-1756.6 1557.48,-2008.88 566.88,-779.11 1183.54,-1508.81 1800.21,-2238.71 -805.13,3420.76 -1324.48,6897.1 -2072.15,10329.08l-238.24 1119.54c73.18,132.88 233.94,322.28 386.28,352.03 304.5,59.33 558.46,-128.38 698.45,-338.18l197.26 -910.49c918.91,-4208.66 1670.14,-8469.92 2627.04,-12671.47 -210.54,-238.43 -328.63,-340.61 -591.77,-411.73 -285.41,-55.58 -460.02,28.82 -618.91,235.06 -698.07,1148.93 -1352.17,1970.15 -2305.52,3108.59l-125.02 133.81c-514.1,611.24 -1482.8,1727.22 -1638.51,1815.37 -811.67,-1818.36 -832.07,-4451.4 -904.13,-5908.37 -21.52,-498.01 -448.41,-640.62 -524.77,-754.41 -15.53,-22.83 -53.34,-30.13 -72.61,-33.69 -495.21,-96.57 -1173.26,2064.1 -1846.63,5114.67l-1901.64 8642.65zm10166.07 1164.09c-63.64,559.2 2692.54,754.78 3411.02,803.06l96.19 14.41c255.09,-1.12 404.44,-214.29 438.69,-444.48 126.14,-844.43 -2382.44,-728.21 -2825.62,-911.99l631.08 -4495.75 2437.27 363.44c882.42,131.76 607.12,-1047.11 -42.29,-1163.52 -326.4,-48.47 -1946.75,-231.5 -2223.18,-351.28 196.89,-2108.64 228.52,-3633.92 531.89,-5667.88 8.98,-57.46 22.83,-153.47 157.21,-133.44l2091.6 311.98c142.98,-37.43 281.66,-311.05 301.88,-445.42 62.88,-421.84 -250.97,-684.79 -3358.44,-893.27l-145.98 978.61c-409.3,2743.64 -403.68,4549.28 -813.17,7293.29l-566.88 3798.99 -121.27 943.25zm5931.76 1823.6c191.83,391.33 733.64,430.26 1022.04,110.23 372.43,-2184.43 435.87,-4401.99 883.16,-6558.54 38.56,4.12 175.55,-0.56 195.2,1.5 2237.21,241.43 2162.91,4369.99 2103.02,5826.96 62.89,319.1 159.83,329.58 390.96,354.47 347.36,37.43 573.81,-74.68 611.43,-422.03 233,-2160.1 32.19,-5362.45 -2079.82,-6585.3 1330.09,-754.22 2121.74,-1761.47 2313.38,-3536.04 239.18,-2218.12 -499.88,-4229.62 -3161.92,-4516.9 -385.72,-41.55 -899.83,20.03 -947.36,463.58l-8.61 77.29c-3.56,214.29 -70.74,1924.1 -91.71,2117.06 -59.32,910.68 -341.17,4431.37 -405.93,5029.51 -105.74,1159.4 -679.92,6482.92 -823.84,7638.21zm2213.26 -14005.67c16.65,-154.21 614.23,-89.64 691.52,-81.41 1388.85,149.91 1584.42,2317.31 1474.19,3339.53 -131,1214.99 -1045.61,2638.65 -2444.57,2760.86l278.86 -6018.98zm5688.09 802.69c-122.4,1391.85 6.74,2799.04 19.65,4199.12l-26.39 8530.55c36.12,371.69 91.71,744.12 517.48,769.76 329.2,19.84 646.04,-77.86 683.85,-386.47 21.15,-348.48 -18.53,-661.96 -34.81,-1032.33l-142.99 -11863.91c-10.48,-466.94 -968.32,-699.57 -1016.79,-216.72zm3385.76 13102.67c-0.38,562.95 2760.11,447.48 3479.52,414.72l96.94 3.37c253.22,-29.75 377.86,-258.27 386.1,-490.9 30.31,-853.22 -2448.69,-455.9 -2910.21,-588.77l122.21 -4538.05 2462.35 87.4c892.15,31.62 485.85,-1108.88 -172.74,-1151.55 -329.38,-11.6 -1960.41,-11.23 -2248.25,-99.19 -41.36,-2117.43 -181.72,-3636.54 -108.36,-5692.02 2.06,-57.83 5.43,-154.78 140.74,-149.91l2113.5 74.86c137.74,-53.34 244.98,-340.8 249.85,-476.68 15.16,-426.14 -326.39,-652.03 -3437.6,-509.98l-35 988.72c-98.25,2772.46 109.86,4565.93 11.42,7338.4l-136.06 3838.85 -14.41 950.73zm5814.79 1382.86c38.74,581.1 734.76,1081.92 1147.43,58.58l-233.75 -11056.54c1285.54,3606.41 2761.04,7109.51 4084.39,10695.15 81.79,133.25 380.67,356.15 554.91,350.34 174.8,-5.8 417.72,-285.96 453.28,-384.03l11.04 -252.84c-13.29,-4463.94 -7.11,-8928.81 202.12,-13128.68 -122.58,-189.96 -318.72,-241.42 -551.16,-233.75 -310.3,10.29 -654.28,176.86 -720.72,509.24 100.69,2442.33 152.16,4556.58 20.21,7006.76l-102.93 2721.19c-1531.46,-3423.75 -2439.52,-6790.42 -3714.4,-10086.35 -203.05,-265.19 -785.84,-866.88 -1131.14,-156.46l-19.28 13957.39zm7730.48 -14835.5l-9.35 117.53c11.79,369.06 214.1,3194.49 222.89,3524.81 117.91,2521.12 220.84,4868.19 373.75,7347.76 56.7,890.65 221.96,3057.3 221.96,3057.3 294.95,33.32 567.25,29.57 837.87,6.55 3286.2,-280.54 4077.66,-3327.18 3860.94,-7008.26 -21.34,-251.34 -26.76,-542.74 -51.65,-832.82 -241.06,-2822.06 -1072.01,-6859.48 -4564.63,-6717.24l-77.67 6.73c-289.71,24.71 -822.9,167.5 -814.11,497.64zm1138.63 564.82c2745.52,-0.37 3234.92,4825.33 3293.31,6650.62 58.02,1591.72 5.05,5763.14 -2449.81,5972.56 -19.47,1.5 -58.02,4.68 -214.29,-1.49l-629.21 -12621.69zm6619.93 13732.99c28.63,348.67 871.19,349.6 845.55,-116.97 -72.81,-812.61 -175.55,-2541.7 -146.36,-3466.04l2541.15 -743.18 1170.44 3363.3c431.2,566.88 962.15,160.57 903.94,-262.39 -3504.97,-9895.26 -4111.9,-11593.28 -4858.45,-13448.52 -507.37,-1261.4 -1724.23,-1563.27 -1594.9,220.65l1138.63 14453.15zm-141.49 -13474.72l3067.22 8290.81 -2354.17 678.43c-21.53,-153.47 -106.31,-905.82 -105.37,-1043 -107.42,-1199.26 -522.34,-6743.25 -607.68,-7926.24zm6216.24 10299.7c8.42,37.8 2.05,99 10.1,136.99 171.62,776.49 1469.14,1165.77 2157.3,1133.02 155.89,-14.6 307.49,-48.1 458.89,-81.23 1534.27,-338.74 1978.01,-1390.16 1900.71,-3001.91 -110.6,-2121.36 -1324.66,-3482.7 -2713.32,-5003.87 -886.54,-956.71 -1488.04,-1340.75 -1546.81,-2599.16 -149.72,-2748.5 2205.58,-1619.04 2171.15,-2584.93 -22.27,-551.54 -407.43,-585.6 -931.64,-529.83 -155.52,14.79 -288.4,43.98 -420.53,73.18 -1572.82,347.16 -2066.72,1528.84 -2001.77,3083.88 63.44,1098.58 506.43,1755.67 1220.97,2472.46 1529.4,1529.96 2926.86,2910.2 3058.06,5126.27 55.21,1060.58 -36.68,1994.84 -1313.81,2058.1 -783.04,53.53 -855.28,-903.94 -1581.24,-862.96 -265.38,58.4 -499.13,348.48 -468.06,579.99z"/>
   <path class="fil0 str1" d="M157124.9 39687.72c-2121.92,-29.2 -5125.71,65.13 -5292.27,672.43 -70.56,257.9 84.59,574.18 122.96,927.34m5148.72 -90.02c-2121.92,-29.01 -5663.58,-235.81 -5829.95,371.49 -126.7,463.02 1607.25,1776.07 117.53,2959.24 -1490.1,1183.18 -3420.94,858.47 -3516.39,4514.66 -95.07,3656.19 -417.54,7399.41 -156.09,11376.75 261.46,3977.16 173.49,7091.73 3146.4,7629.04 2530.66,457.59 4741.1,491.65 6042.74,547.05m216.35 -28907.98c2121.92,29.01 5122.15,205.68 5271.87,817.29 63.44,259.95 -100.5,571.93 -148.22,923.78m-5144.24 -231.32c2121.55,29.19 5667.89,-80.29 5817.42,531.51 114.16,466.19 -1655.54,1731.15 -198.76,2954.75 1456.79,1223.78 3396.06,952.22 3391,4609.54 -4.86,3657.31 214.48,7408.02 -156.27,11376.56 -370.37,3968.74 -368.13,7084.62 -3354.5,7539.96 -2542.08,387.78 -4391.89,366.26 -5694.65,385.91m-4061.75 -25625.35c3022.5,222.15 5186.35,477.62 8624.88,-17.03m-10426.21 2972.53c4639.3,831.14 7308.08,506.62 11468.08,67.19m-13894.31 4521.39c0,0 3201.41,1427.41 8316.45,504.37 5115.04,-923.21 7094.16,-354.27 7586.93,-76.54 492.96,277.73 628.27,279.6 628.27,279.6 0,0 101.44,9077.23 -302.25,12142.2 -403.31,3064.98 -1148.17,4725.39 -6202.76,4520.65 -5054.59,-204.74 -3072.47,138.49 -5054.59,-204.74 -1981.93,-343.43 -4785.46,-65.69 -5001.25,-4087.39 -215.41,-4021.7 -484.91,-7411.95 29.2,-13078.15zm3013.89 -23152.88l1322.97 -197.26 407.62 2735.78 -1156.79 1309.5 -573.8 -3848.02zm2138.76 5274.11l407.81 2735.6 -1156.79 1309.68 -407.8 -2735.78 1156.78 -1309.5zm-282.41 7175.58l-58.95 -394.7 1156.97 -1309.5 235.06 1575.06m885.42 6748.87l-1053.67 1192.53 -187.15 -1254.66m1751.93 2680.94l407.8 2735.6 -1156.78 1309.5 -407.81 -2735.6 1156.79 -1309.5zm815.98 5471.38l407.8 2735.59 -1156.97 1309.5 -407.99 -2735.78 1157.16 -1309.31zm-1206.38 -17006.65c6859.66,-3672.84 11971.7,1015.68 9291.7,7306.96 -283.35,-199.5 -566.33,-399.01 -849.67,-598.51 1648.05,-5603.5 -2269.96,-8586.51 -7236.59,-5698.58l1533.89 1204.89m5412.61 4218.76l-1363.21 -1012.11c-438.31,-325.46 1341.32,556.21 1580.12,44.35 238.43,-512.04 -794.46,-979.36 -859.02,-1592.09 -64.38,-612.92 815.98,-1339.45 499.13,-1821.92 -316.29,-482.48 -1076.31,508.67 -1560.47,204.37 -483.97,-304.31 -223.27,-1519.49 -789.59,-1681.75 -566.7,-162.26 -702.94,1029.15 -1279.56,1088.66 -576.24,59.7 -1178.68,-796.33 -1614.37,-789.59 -435.68,6.74 52.59,542.55 78.98,813.74m-28130.55 26284.49c-5675.37,5323.15 -11826.66,2117.24 -10866.2,-4653.34 325.08,119.4 650.16,238.81 975.81,358.21 -141.68,5839.13 4414.9,7706.71 8465.04,3631.49l-5796.26 -2594.11m-2341.83 913.49l1578.81 624.71c507.74,201.19 -1439.57,-189.96 -1537.82,366.25 -97.7,556.22 3560.93,655.78 2357.54,939.69 -1203.76,284.1 -1557.1,1880.87 -1126.27,2265.1 430.44,384.03 959.9,-1668.09 1506.38,-1499.46 546.48,168.43 556.77,2307.76 1146.11,2318.06 589.34,10.1 727.46,-1394.28 17.78,-2495.11 -709.68,-1100.64 2281.19,1576.57 2700.22,1457.16 418.85,-119.21 -191.26,-510.36 -287.09,-765.63m-320.59 -6949.87c-496.7,4824.57 3699.8,8833.17 8411.9,8897.93 4712.48,64.75 8147.64,-3840.16 8652.95,-8663.62 1192.9,-11379.75 -15893.28,-11617.43 -17064.85,-234.31zm9946.92 -4893.83c144.85,-1145.55 1064.89,204 1197.02,-19.27 131.57,-222.9 -729.89,-501.94 -667.38,-745.43 62.88,-243.67 1016.04,-186.96 971.5,-436.81 -44.92,-249.66 -908.81,219.15 -1107.94,-99.56 -199.31,-318.54 681.61,-815.99 190.52,-1099.52 -491.08,-283.53 -539.55,1017.73 -837.69,1024.28 -305.8,6.74 -485.66,-1261.59 -882.42,-1047.86 -484.53,261.26 303.19,901.32 160.58,1104.38 -142.61,202.87 -1043.37,158.33 -1094.84,406.87 -51.84,248.53 1086.23,-116.97 1142.19,128.2 55.77,245.16 -856.78,777.61 -731.2,1004.44 125.76,226.64 983.67,-1035.14 1032.51,-461.33 121.84,1424.22 482.1,1387.17 627.15,241.61z"/>
   <path class="fil0 str1" d="M52042.34 57494.06c590.65,1037.94 1.12,325.27 940.25,939.87 697.13,-2356.23 -536.57,-872.68 -940.25,-939.87zm-10653.04 1879.94c1267.76,-1635.33 4398.06,-1448.18 6266.39,-2820m939.88 -313.48c-649.42,404.43 111.17,313.48 -939.88,313.48m1880.13 -626.59c-649.61,404.25 110.98,313.11 -940.25,313.11m9713.35 -2506.52c0,-1168.2 -22.65,-577.55 -313.48,-1253.36 -1150.05,-446.35 -869.51,-313.1 -2193.42,-313.1m-3446.58 3132.92c1107,-1427.78 2064.09,-1016.42 3760.06,-1566.46l2193.42 0c4375.41,1849.99 2359.6,5528.08 2193.04,6579.87 -435.5,2757.49 745.8,6352.67 313.66,9086.39 -186.96,1183.92 -400.5,2766.29 -1224.15,3776.16 -1366.21,1674.63 -11638.77,4710.97 -12248.88,4997.13 -1117.11,881.48 -1566.46,1063.58 -2820,1566.46 -1238.76,-26.95 -1351.42,-224.58 -2506.71,-313.29m10966.71 -28199.05c-4884.85,2818.68 -11902.09,3014.44 -14432.94,4976.17 -1377.44,1465.21 -1269.82,1660.59 -2173.58,3170.16 -522.52,1887.98 500.82,6036.57 626.59,6893.16 73.17,496.7 -953.73,6074.75 -626.59,8146.52 325.27,1002.57 602.07,2318.05 626.59,3446.39m9712.97 -28826.01c-859.4,2760.11 -9226.19,3961.25 -10652.66,4386.46 -6229.15,1856.73 -3433.67,10130.7 -3447.15,10339.93 -93.2,1471.76 -1210.3,6017.67 -626.39,9713.16 274.18,845.93 457.77,1612.13 626.39,2506.52m8460 -28199.42c-1801.52,1421.79 -7741.89,3031.67 -10339.93,4073.35 -2794.92,1845.32 -3638.23,4949.78 -3132.92,8146.33 462.83,1428.53 313.11,2186.49 313.11,3760.06 -373.18,2360.92 -1041.13,7086.87 -313.11,9399.87 556.03,942.12 408.55,532.07 626.59,1566.46m2819.81 -28512.53l-8459.62 4073.35c-3519.58,2977.96 -993.97,7603.78 -940.25,8459.81l-939.69 8146.33 939.69 4386.46m6580.06 -25692.53c-3267.67,2399.28 -10694.59,2876.52 -9712.98,9086.39 197.45,1249.42 1156.41,3329.99 940.06,4699.94 -377.86,2389.17 -1123.28,6855.54 -313.29,9399.68 613.11,1024.09 687.03,993.4 939.69,2193.41m4700.12 -26006.38c-2425.48,2910.96 -9673.48,2496.6 -8459.99,9713.35 168.06,998.45 1170.63,2927.24 940.24,4386.46 -261.45,1651.61 -878.3,5303.12 -626.77,6893.16 269.88,1708.32 754.97,2633.22 1252.98,4073.54m21619.74 8459.43c-170.68,-2222.61 -1960.41,-7036.89 -313.48,-11279.43m-4386.64 9712.79c-169,-894.4 -352.22,-1660.41 -626.21,-2506.33l0 -5953.29c451.41,-1392.6 313.11,-1919.62 313.11,-3446.58m-4386.65 10339.74l-626.58 -5953.29c590.65,-1821.54 313.1,-4227.38 313.1,-6266.39m20679.49 -12533.35c-4548.71,2724.93 -10461.58,2181.25 -14726.01,5640l-1216.67 2213.06c-121.28,1056.1 -25.08,545.18 -349.79,1546.81l0 2193.6m-8146.89 11592.73c-200.81,-1040.56 -78.04,-637.25 -626.58,-1566.46l313.29 -11279.81m18486.45 -12532.78c-4915.35,3608.84 -13088.25,3311.27 -14369.49,7855.49 -494.46,1753.43 -43.8,1956.86 -43.8,4364.19m-5326.33 12532.97l-891.03 -1904.83c-133.25,-1051.04 -37.43,-540.11 -361.95,-1541.75l0 -5953.29c437.75,-1350.48 313.11,-1656.1 313.11,-3133.1m17859.49 5013.04c-580.92,-1006.69 -573.43,-1133.2 -939.88,-2193.04 131.76,-696.77 256.03,-1136.2 313.48,-1879.94 378.24,-566.32 627.33,-982.73 939.88,-1567.02m-5639.81 -12846.26c-1900.34,2451.49 -9815.35,3614.08 -10923.29,7542.01 -735.31,2607.96 -43.41,2617.32 -43.41,4991.15m8146.51 -13159.56c-1150.23,-446.73 -869.69,-313.48 -2193.41,-313.48 -865.2,-1007.81 -1199.83,-626.58 -2819.81,-626.58 -901.33,-1049.92 -578.3,-416.41 -2193.42,-940.06 -769.75,276.98 -536.94,174.98 -1252.98,313.1 -2943.7,-1142.37 -11147.68,3036.53 -10339.93,8146.71 256.21,1620.73 1238.75,3435.91 940.06,5326.51 -343.98,2174.14 -960.84,6310.19 -313.48,8459.81 315.73,1048.42 1789.54,2502.78 2819.81,3133.48 1114.49,878.86 779.11,831.14 2193.42,939.87 1266.27,1168.77 2690.49,2062.79 4386.64,2193.23 1240.44,903.2 -41.55,500.26 1566.46,626.4 1006.5,580.92 1133.39,573.24 2193.42,940.06 627.51,217.28 1252.79,409.49 1879.93,626.77 1192.53,478.17 1108.13,596.27 2506.33,626.58 1114.49,879.24 779.3,831.14 2193.42,939.88 1006.88,581.1 1133.76,573.24 2193.42,940.06 1192.52,478.17 1107.93,596.26 2506.7,626.58 1085.11,626.4 1247.93,702.38 2506.52,940.07 -79.16,-1032.33 -325.08,-1889.3 -626.58,-2820l0 -9086.39c-100.31,-336.13 -2716.32,-2967.29 -1566.46,-6579.88 824.4,-1377.06 281.85,-1166.51 1566.46,-1566.45l313.48 626.39c3885.08,-1558.03 4736.8,-608.99 6266.2,-1566.46 1371.26,-1371.07 1515.18,-1022.03 1566.84,-2506.52 1550.92,-119.21 1268.88,-507.74 2819.62,-626.95 2196.6,0 3294.05,444.48 4073.54,313.47 1200.01,-415.1 1438.82,-596.45 2820,-626.58l682.17 1224.72c-477.05,1329.15 -369.25,1424.79 -369.25,2848.45m-20992.41 6579.87c-332.76,-1579.56 -1212,-2701.16 -940.06,-4386.46 194.63,-1207.13 507.18,-1947.31 1253.54,-2820 2509.32,-2316.74 3675.09,-2191.54 6579.68,-3133.47 2542.83,-55.03 7785.69,-2249.19 10339.37,-3132.92 -942.12,-1388.1 -956.34,-939.87 -2819.43,-939.87 -854.91,-995.28 -883.36,-627.15 -2507.09,-627.15 -432.5,-760.02 -208.48,-521.59 -939.68,-1252.98 -1313.62,-28.82 -1506.57,-284.84 -2820.19,-313.48 -1085.1,-421.09 -1373.69,-259.39 -2506.33,-626.39 -872.13,-1015.11 -1510.31,-626.96 -3133.48,-626.96 -1415.99,-1008.37 -3133.85,-626.58 -5012.85,-626.58 -948.49,-376.37 -315.91,-313.3 -1566.83,-313.3 -770.32,-276.98 -537.32,-174.79 -1253.36,-313.1 -2327.6,3428.99 -9770.99,2584.94 -10653.03,7832.85 0,1482.24 -189.96,2463.48 313.47,3759.87m25692.35 3446.96l0 -626.96m-4072.98 1253.54l0 -626.58m9712.79 626.58l-312.73 -626.58m1879.37 3446.4c-654.47,-494.46 -654.47,-132.51 0,-626.59m-5013.04 2193.04c-1602.39,-125.76 -478.92,308.43 -1253.16,-626.58m3759.87 2506.71l-313.1 0m2193.04 4386.27l-313.48 0m-6893.17 940.06l0 -313.11m-2819.81 1253.17l-313.48 0m-2193.04 626.77l0 -313.48"/>
   <path class="fil0 str1" d="M21495.28 97686.52l-123.33 -710.98m4219.14 1099.7l-61.76 -355.22m13537.42 2048.38c727.08,-288.96 577.36,-157.02 1360.59,-602.07 930.52,-1439.19 695.08,-843.12 1052.73,-2379.44m-3308.84 2038.26l-61.76 -355.77m-2583.25 4109.85c295.7,1959.85 437,882.23 -402.94,1900.52 -1271.88,-574.93 -1121.04,-837.69 -2147.75,-1824.92m-1838.76 -47.72c-1541.01,-23.21 -1329.15,33.88 -2673.84,-635.19m-5824.9 -1919.99l231.69 -772.37m14727.89 2574.27c-1134.89,682.72 -609.93,472.18 -2071.39,725.4 -433.07,-1141.63 -214.67,-708.19 -1019.23,-1654.61 -250.03,-1275.06 -822.72,-2713.88 -1389.04,-3787.39m-2104.52 4759.08l123.34 710.8c1150.04,240.68 419.4,293.64 1838.76,47.72l-308.05 -1777.37c-699.2,-1326.91 -579.61,-1234.45 -847.98,-2782.95 -584.85,-1058.52 -760.78,-1325.78 -1497.97,-2303.46m-772.56 -232.44l61.39 355.59m-1511.81 -4498.56l-1545.31 -464.51m-9954.21 1724.97l-294.21 416.79m13277.47 -1568.14c881.11,2210.63 2654.93,3401.48 3535.66,5612.48 2482.75,-374.86 3639.72,695.83 6214.74,-2175.44 -298.51,-1721.61 -228.88,-3102.41 -4123.88,-4778.17 -1267.2,-270.06 -2548.44,-468.06 -3801.24,-806.25m6105.26 -691.71l294.02 -417.35m-10054.72 13826.75c432.13,-840.12 21.52,-768.81 710.8,-123.14l-710.8 123.14c-1819.11,-387.02 -3803.1,-814.48 -5114.1,-2043.13 -1221.54,-484.16 -1296.77,-601.32 -2441.2,-1407.75 -729.33,-846.49 -908.25,-1094.46 -1791.79,-1886.68 -666.07,-1671.26 -1433.77,-1993.35 -2100.22,-3664.61 -1163.7,-591.4 -404.24,209.42 -1312.86,-1236.88m13215.89 -1924.29l-246.48 -1421.79m725.02 2071.58c-847.23,499.32 -402.56,-131.76 -587.84,834.13 517.66,1381.36 635.75,1551.11 1559.35,2659.05 307.49,1204.5 98.25,643.05 663.63,1716.36l-711.17 123.15c-1530.9,-356.15 -2479.57,-893.27 -3924.38,-1517.05l-2502.78 -1763.53c-1265.7,-1356.66 -1976.32,-1712.25 -2455.24,-3602.85m4328.07 -383.66l231.88 -772.38m3275.15 1995.41c802.88,-1671.82 671.12,-1611.37 -198.76,-3261.3m2612.08 280.17l431.19 2488.36c-714.73,1589.11 -253.77,1385.11 -1825.28,2147.38 -362.7,-1071.44 164.88,-519.72 -895.9,-943.24l-123.33 -711.37 -355.21 61.58c-1636.46,-82.35 -882.24,-637.82 -1654.61,1019.41 -1221.35,-484.35 -1296.02,-601.51 -2440.83,-1408.32 -747.48,-313.66 -872.87,-411.92 -1606.88,-820.09l-1777.57 308.05c-816.35,-12.17 -1339.25,-67.19 -2194.72,14.41 -1518.92,-557.53 -661.4,-493.52 -2256.11,-341.74 -800.83,-293.64 -1510.5,-478.73 -2318.25,-696.76m13694.62 -1274.51c-724.27,-811.67 -593.83,-58.01 -184.9,-1066.57m-11827.04 5711.49l-649.6 478.92c-457.59,-647.73 -638.56,-944.56 -1018.86,-1654.61 -253.4,-1461.28 -275.67,-896.45 -14.22,-2194.72l-184.72 -1066.58m5038.87 -506.81c197.82,-895.89 211.48,-1349.36 341.36,-2256.3m18319.89 16966.03l123.33 710.81c1961.72,-384.04 3339.72,-1148.74 4252.27,-2933.98 1213.49,-2375.51 970.75,-4984.59 -165.63,-7294.98 -660.64,-1342.25 -2572.58,-2783.31 -3877.4,-3356.56 -1145.18,-1044.86 -1997.29,-972.06 -3569.54,-1578.62 -1237.45,115.85 -638.38,124.46 -1839.14,-47.16l-1421.79 246.48 -1806.01 -4081.4c-1805.64,-2983.2 -9648.04,-5407.37 -12783.76,-2114.25 -1787.3,1878.06 -2859.49,3649.45 -2612.45,6246.74 783.23,-445.05 633.32,-312.92 1360.22,-601.51 1334.76,19.84 2313.38,224.96 3678.65,94.7 2575.58,1281.62 3899.67,159.83 6474.88,1441.44 1249.23,110.61 1461.28,353.16 2673.46,635.2l-307.87 -1777.76 710.8 -123.33c-362.51,-1071.07 164.51,-519.72 -895.7,-943.24 -469.19,-610.68 -831.52,-1022.41 -1374.82,-1592.66 -1601.27,-1035.14 -1964.53,-959.71 -3568.98,-1578.62 -1133.57,597.38 -2228.97,1052.35 -3370.41,1682.67 -816.73,-331.25 64.01,-377.48 -1128.15,-170.86"/>
   <path class="fil0 str1" d="M28952.9 32910.21l485.84 -885.6c116.41,-683.47 349.41,-1374.62 440.74,-2063.15m-2726.23 348.1c-1180.74,500.44 -1986.05,1042.62 -2440.65,2348.37 -491.64,1410 -111.16,3424.13 1033.83,4449.72l2885.13 1849.24c452.9,-30.5 537.5,-59.7 1000.32,-142.61m8377.84 3213.58c-369.81,-794.46 -189.21,-471.81 -771.07,-1114.49l-1063.02 -583.16m-6572.01 -3144.71l680.3 -1240.06m4464.87 -5617.17c-477.24,-568 -237.68,-360.83 -965.7,-760.39 -1331.02,-226.64 -1790.11,-226.83 -3160.62,-120.53l-742.99 514.11c-498.57,-78.61 -386.65,-84.22 -805.68,-211.49 -978.99,177.8 -1015.11,41.18 -1920.55,559.59 399.75,591.02 261.45,522.15 868.38,937.44l320.03 1097.46c349.6,395.45 249.1,265.56 611.24,565.75 -108.74,822.91 -179.67,747.49 -600.2,1514.62m1650.49 4132.31l-371.31 257.14c244.05,542.37 226.83,676.74 399.76,1371.82 629.01,410.8 1181.67,952.23 1754.17,1423.48 424.46,128.94 328.45,123.7 805.87,211.48 2941.46,1046.55 4142.41,2817.56 6217.36,2950.44 648.29,41.36 4043.6,-363.45 4549.28,-1208.25 110.05,-736.44 8.05,-666.63 343.61,-1408.31m-17978.15 -7559.24l725.22 -540.49 1195.15 2.43 708.55 367.19c824.96,1043.56 616.85,1653.11 1250.92,2760.67 41.74,882.05 -38.93,605.44 399.57,1371.64 641.37,-78.79 169.93,116.59 823.09,-239.75 735.69,302.44 545.55,247.98 1240.26,680.3 50.15,739.62 -18.91,254.34 239.92,823.09l1533.34 115.85c1556.35,-181.72 -573.44,-541.43 2335.83,393.58 891.97,-1303.51 1563.47,-400.13 2680.57,-1525.47m-6902.7 -6322.54c107.23,-858.09 -180.23,-334.07 486.03,-885.6m354.46 194.45c485.1,-356.71 534.88,-379.73 937.44,-868.57m10011.3 7797.66c-476.86,-568 -237.31,-360.82 -965.7,-760.39 -1227.72,-209.24 -1441.82,-201.75 -2708.83,-103.5 -865.58,461.33 -669.63,155.9 -1212,948.49 802.88,342.86 1891.73,224.95 2788.94,377.67l1417.29 777.61c760.4,1517.99 -146.72,1367.71 639.5,2194.92l777.61 -1417.49 26.39 -1807.13 -437.18 -1644.69c-314.04,-589.53 -599.07,-1095.59 -931.27,-1663.4l-708.37 -388.72m-11544.62 -802.5c314.97,-545.55 489.21,-695.64 857.34,-1142.94 82.34,-521.4 67.75,-357.83 211.67,-805.87 895.52,-420.72 270.06,178.92 840.49,-691.15l-354.46 -194.45c583.54,-1063.77 403.31,-1205.63 1291.9,-674.12 353.53,-728.77 -99,-23.4 1017.36,-594.21 1428.53,-399.38 1859.54,-280.91 3177.83,-330.69l2657.18 1457.91c1025.03,809.24 2133.9,2498.47 1845.31,3778.02 -2787.81,-1529.59 -4331.43,1452.49 -6309.81,1838.95 215.41,-1732.27 3036.72,-3334.47 3926.81,-3376.77 773.13,147.29 604.13,101.06 1337.2,503.25m-6236.07 4645.29l-388.9 708.36c-396.58,-692.64 -422.41,-937.81 -656.91,-1743.31 141.49,-434.57 207.37,-721.66 406.12,-1160.15"/>
  </g>
  <rect class="fil2" width="190509.35" height="121395.06"/>
 </g>
</svg>
