<?xml version="1.0" encoding="UTF-8"?>
<!DOCTYPE svg PUBLIC "-//W3C//DTD SVG 1.1//EN" "http://www.w3.org/Graphics/SVG/1.1/DTD/svg11.dtd">
<!-- Creator: CorelDRAW 2017 -->
<svg xmlns="http://www.w3.org/2000/svg" xml:space="preserve" width="1.76389E+06px" height="1.18181E+06px" version="1.1" style="shape-rendering:geometricPrecision; text-rendering:geometricPrecision; image-rendering:optimizeQuality; fill-rule:evenodd; clip-rule:evenodd"
viewBox="0 0 190509.36 127585.47"
 xmlns:xlink="http://www.w3.org/1999/xlink">
 <defs>
  <style type="text/css">
   <![CDATA[
    .str0 {stroke:#51363B;stroke-width:935.76;stroke-linecap:round;stroke-linejoin:round;stroke-miterlimit:22.9256}
    .fil4 {fill:none}
    .fil0 {fill:none;fill-rule:nonzero}
    .fil2 {fill:#D9D8CE}
    .fil1 {fill:#51363B}
    .fil3 {fill:#51363B;fill-rule:nonzero}
   ]]>
  </style>
 </defs>
 <g id="Capa_x0020_1">
  <metadata id="CorelCorpID_0Corel-Layer"/>
  <g id="_2239407306352">
   <path class="fil0 str0" d="M46300.34 30944c-2957.55,-943.43 -1112.43,-1716.37 -509.05,-4579.78 -1470.45,-633.51 -184.34,-363.64 -2035.46,-508.87m-14757.08 19336.49l0 -508.49m8650.51 6614.68l0 -508.3m-15265.76 1017.54l0 -1017.54m7632.98 508.3l509.05 0m3053.38 3053.38l0 -1017.54m6615.24 5088.83l0 -2035.64m-8651.08 4070.73l0 -1017.54m9668.62 2035.64l0 -1526.59m-6615.62 1017.35l509.06 0m9159.75 4579.98l0 -509.24m-2544.32 3053.37l1017.54 -508.49m-10177.11 6106.38l508.68 0m-1526.6 -3562.24l508.87 0m-1526.41 1017.54c267.44,-2147.56 237.87,-885.41 0,-2035.08m13739.35 -21881.38c-54.27,-828.89 -173.3,-1489.91 -509.05,-2544.14m-9159.76 -509.05c943.81,230.76 449.17,998.45 1018.3,-509.05m-5088.84 -508.49c1302.95,810.93 223.65,810.93 1526.41,0m10177.3 -1018.11l508.86 0m-5597.14 -508.3l-509.05 508.3m3562.24 -508.3l-1526.78 0 0 -1018.29m2544.32 -3561.68c-313.1,-965.14 -411.73,-1209.19 -509.24,-2035.65m1526.79 -1526.59c0,2662.6 566.32,2202.21 -1017.55,3562.24 -899.63,2599.53 -35.74,1992.98 -2544.32,3561.68 0,-3004.53 455.52,-2596.91 -3053,-6106.38 1170.63,-100.31 1881.62,-100.31 3053,0 2591.86,1475.5 895.71,363.64 2035.08,509.05 -595.89,-2074.01 -1160.71,-2002.71 -2035.08,-4070.73m-2035.46 -1017.92l2035.46 1017.92c2164.4,1324.1 1685.3,1878.81 3561.87,2544.14 -306.56,-3995.12 -1568.71,-3105.41 -3053.19,-6615.43 4003.17,-4002.8 811.86,-1704.95 3053.19,-3561.68m-11194.66 50377.62c1107.56,893.09 1260.09,1087.91 2035.09,2035.09 0,2479.75 224.77,3336.35 -508.68,5597.88m-2035.46 -8651.26l509.05 1018.29c-1776.81,1525.47 -522.15,465.82 -1526.41,3053m2543.77 -6106.19c825.15,2866.23 712.3,194.64 1017.73,3053.19 1037.19,2210.45 -128.58,1089.6 2544.7,2035.09m-8142.03 2544.69c226.64,-1080.05 78.6,-840.31 509.05,-2035.64 -355.21,-1071.63 -550.97,-1541.01 -1018.29,-2544.14m-2035.08 -1018.29c1848.49,1560.28 162.44,725.59 2035.08,1018.29l0 -1526.59m-5597.33 4070.73c646.05,-2247.88 1314.37,-2915.63 3562.25,-3562.43 489.96,-1297.52 -279.8,-527.58 1017.91,-1017.36m4579.6 -4070.73l0 1526.6c1864.96,-121.46 860.71,-1048.24 1526.41,1017.54l0 509.05 -1526.41 508.49 0 1526.41c-2176.38,-641.18 -884.85,649.98 -1526.78,-1526.41m-1017.36 0c-489.96,1298.08 279.42,528.33 -1018.29,1018.11l-1017.17 -509.06 0 -2035.64m19845.36 -22898.92c2276.7,3801.42 3956.76,6233.83 4579.97,10177.67 1640.57,10378.3 -9963.2,16525.66 -13230.3,12721.25m-15775.19 509.05c1208.44,-92.64 1922.24,-295.14 3053.19,-509.05m14248.41 5088.65c-1529.97,-2308.33 -2334.9,-2023.67 -5088.46,-2543.95 0,-2013.38 -296.08,-1785.8 508.86,-3053.19m-5089.02 -2544.7c1056.84,508.3 1047.11,573.24 1526.78,1018.1 988.16,262.01 787.35,93.02 1526.41,508.49 1027.27,407.99 1439.38,618.35 2035.83,1018.11 1131.14,213.35 1844.57,415.85 3053.19,508.49 1540.44,-611.24 511.86,-508.49 2544.32,-508.49m-1526.96 -3562.24c-2190.8,878.67 -3249.7,828.33 -4579.41,2544.13 3703.35,-80.47 6913.19,-1481.11 9159.19,-4579.78 2919.75,-4027.31 2491.55,-7720.75 2543.95,-11703.71m-19336.12 17301.6l0 -1526.6m1526.41 1017.54c-1055.35,656.91 179.48,509.06 -1526.41,509.06l0 508.49 -1526.97 0c-415.85,-1530.71 -221.58,-1026.72 -1017.35,-2544.33m4579.78 -508.86c-371.49,1212.93 -324.52,1144.24 -509.05,2035.64 122.02,846.3 224.02,1417.86 509.05,2544.14l1017.36 0c0,-2099.28 117.72,-1082.48 -508.87,-2035.08 767.89,-1715.43 660.46,-407.99 0,-2544.7m-9159.56 508.86l4071.29 0c1002.76,193.52 1541,315.17 2544.32,509.24 656.9,-1055.34 508.87,179.67 508.87,-1526.59m8141.27 -1018.29c-1728.34,1168.57 -1557.1,1459.4 -3561.49,2035.64l0 -2035.64 1017.36 0m-6615.25 -508.31l-2035.08 -1018.1m2544.32 -508.68l-509.24 -508.86m-4579.97 0c1350.86,549.29 793.53,554.71 2544.89,1017.54l0 -1017.54m1526.41 508.86l-509.06 -1017.92m12722 -19336.67c-990.59,990.4 -514.85,635.94 -1526.59,1017.54l-1018.3 509.05c-2430.34,1027.65 -5857.28,4102.55 -7123.73,6106.38 -1252.04,3121.69 -1572.82,5145.35 -2544.32,8142.02 652.22,2012.26 508.67,1854.68 508.67,4070.74l-508.67 508.86c386.46,678.05 327.14,543.49 508.67,1526.78 990.22,989.85 635.57,515.04 1018.11,1526.6 1706.07,0 471.25,-147.85 1526.59,508.49l508.49 0 508.87 0c0,-1896.78 36.31,-938.19 509.42,-2035.09 2561.36,-451.41 1252.8,-601.69 3052.82,-3053.19m-4071.11 1017.55l0 2035.64c-1302.01,-1118.6 -1366.95,-2498.47 -1526.78,-4579.78m-6106.38 -1018.29c223.27,2901.97 770.69,1089.03 0,3562.43 -1908.57,-1479.62 -1743.5,-2265.29 -2544.13,-4579.79 0,-1965.46 -97.14,-999.01 -508.87,-2035.64 684.98,-2112.01 508.87,-2267.16 508.87,-4579.98 1119.16,-4357.82 6947.99,-8141.27 12212.94,-8141.27 1302.95,-811.3 223.65,-811.3 1526.41,0 1511.25,-489.78 2903.09,-888.78 4579.97,-1018.11l509.05 509.06c2856.49,-1116.74 52.22,1958.72 -1018.1,3053.19 -819.35,2044.25 -1346.93,2240.57 -1526.79,4579.78m1018.3 13230.3c-990.41,990.59 -635.76,515.23 -1018.3,1526.41 2942.21,-289.53 3012.96,-1674.82 4579.98,-4070.74m7632.97 -9159.38c-837.32,-2419.12 -1686.98,-2938.27 -1017.73,-5088.83 -1301.64,-500.63 -199.32,-1249.05 -1526.41,509.05 131.57,1675.01 -10.48,978.43 509.05,2544.14m-2035.83 -6614.87c-2287.74,1553.17 -1127.96,764.51 -2035.65,3561.68l0 6106.38m2035.65 -11194.47c-838.25,-54.84 -1206.19,-105.37 -2543.95,0 -204,2652.12 -1489.16,4021.89 -2035.83,6614.68m5597.51 -6614.68l-1017.73 0 0 508.3 0 1018.11 1017.73 1526.59c-1496.46,1285.73 -1017.73,384.79 -1017.73,3053.19m7124.11 -6615.43c-2105.46,817.29 -3699.43,509.24 -6106.38,509.24 1473.07,-2170.4 18.9,-1277.87 2544.51,-1526.78m7124.11 2544.14c-1536.7,-788.47 -1949.74,-968.89 -3562.24,-1526.6 -2141.95,-1236.13 -1010.99,-962.14 -3561.87,-1017.54l0 -1526.6m1526.78 -2035.64c-1160.71,1160.71 -859.58,750.1 -1526.78,2035.64 1643.57,-346.04 5012.11,-1798.9 6615.06,-2544.69 -3007.71,-1167.27 -2078.69,-125.02 -5088.28,509.05 43.05,-2000.84 -73.92,-1256.16 508.31,-3053.19 0,-2356.43 298.32,-3518.82 -508.31,-5597.14"/>
   <path class="fil0 str0" d="M166635.75 56352.25c793.34,1373.69 981.42,2242.82 2008.51,2893.92 -107.24,-914.42 128.01,-196.51 -331.63,-1159.59 221.96,-1517.99 221.96,-169.56 -78.23,-1305.94 -1099.33,-606.94 -382.16,-385.53 -1598.65,-428.39 -713.23,-738.88 -801.76,-741.87 -1384.36,-1227.34m11917.81 -4516.15c675.05,-1355.36 688.34,-1547.75 -410.43,-2465.35m-2026.66 1170.07l107.24 -399.76m1238.01 973.94c14.59,-905.44 -2.81,-1152.29 135.87,-2105.27m663.45 2319.75c-124.83,-870.44 -203.81,-1283.11 -117.91,-1958.73l-545.54 -361.02 -438.87 -759.64m-535.44 1998.21c175.17,-1118.79 176.67,-612.36 28.63,-1705.7m-145.98 -253.21c-401.25,-1485.05 87.03,-3905.48 192.77,-5516.29 152.15,-2322.55 -125.58,-3101.85 -313.48,-5223.59m-493.7 11431.96c337.06,-630.14 -235.25,-201.37 614.41,-692.08l145.98 253.21 506.81 -292.51c-213.92,-1722.73 -25.83,-3704.48 170.49,-5503.01 258.27,-2374.01 1155.29,-4488.45 -943.99,-5197.57m-5701.38 -1099.14l-253.41 146.17m-799.32 -214.29c1421.23,-495.39 1733.4,-245.17 828.15,-1491.41m-1919.62 770.88l-253.77 146.16m1880.87 -1423.66l292.52 506.62c-269.13,1121.22 111.91,779.11 -1120.67,984.79 434.76,-1392.41 6.93,-640.06 828.15,-1491.41l-292.52 -506.62m-867.45 838.44c-959.15,1064.52 -450.84,354.84 -652.59,39.11m613.67 -692.27l38.92 653.16 -652.59 39.11m321.15 -1198.7c173.11,1055.72 -54.09,329.39 292.52,506.43l906.37 -185.28c1042.25,-1129.65 847.61,-1296.58 28.45,-1705.7m1373.88 -1130.77c-549.67,804.94 -41.36,511.49 -1013.43,585.04m1374.07 -1130.77l-360.64 545.73 -399.76 -106.86m1373.69 -1131.33c-336.5,630.32 236,201.75 -613.29,692.46l-146.73 -253.59m1374.07 -1130.77c-337.06,630.14 235.62,201.56 -614.05,691.9l-145.98 -253.03m1373.51 -1131.14c-336.5,630.32 235.62,201.75 -613.48,692.27l-146.54 -253.4m1627.28 -1277.31c-422.21,618.35 36.87,316.47 -867.26,838.44l-146.35 -253.41m1120.85 -984.6l-253.41 146.35m1227.53 -1384.55c-422.4,618.54 36.68,316.67 -867.26,838.63m1481.12 -1530.52c-336.69,630.13 235.43,201.37 -613.86,691.89m-8018.32 8345.28l0 0c996.21,-969.07 -69.99,-353.35 1267.02,-731.39 690.59,-687.97 536.75,-696.58 1227.34,-1384.55l360.45 -545.73c336.5,-630.33 -235.62,-201.75 613.67,-691.9 336.69,-630.7 -235.81,-202.12 613.67,-692.46 336.87,-630.14 -235.44,-201.56 614.04,-691.9 336.5,-630.51 -235.81,-201.75 613.49,-692.27 336.68,-630.33 -235.63,-201.94 613.67,-692.28 392.27,-466.19 392.64,-455.52 867.44,-838.25l146.17 253.22 1773.45 -1023.91c1389.97,-267.81 1323.16,3.93 2173.01,-916.85 -1397.83,-22.09 -995.08,164.88 -2251.24,-388.9m-16827.92 10053.03c-426.33,-387.03 -392.08,-297.58 -838.06,-866.52m14376.04 34260.89l-653.16 39.3m-11389.66 8940.23c769.75,-980.3 986.85,-1464.46 2094.6,-2222.43 638.56,-1148.92 1144.24,-1698.96 1655.54,-2982.82m-2212.13 263.89l-106.86 399.57m-1159.6 331.82c599.45,-106.49 590.66,-112.3 1159.6,-331.82 1246.05,-192.77 1072.94,-471.06 2318.99,-663.46 1108.12,-758.52 1641.32,-1553.17 1802.27,-2729.6m13309.46 -9710.92l-4306.54 2486.5m-8674.66 14142.29c4219.33,-2013.75 5034.19,-7540.71 5508.99,-7923.25 169.75,-1376.87 1140.13,-2725.11 1577.32,-4288.76 809.61,-726.34 943.43,-1109.62 1588.35,-1930.28 60.45,-1722.36 1570.2,-4797.63 2365.78,-6432.96l428.39 -1598.09c493.52,-953.35 214.48,-300.75 321.15,-1198.89m-1569.64 -2133.9l652.98 -39.49c616.85,505.5 12.35,343.42 799.32,214.48l292.52 506.62c185.47,1372.19 242.55,479.1 -175.18,1452.29l-399.38 -107.24m-2593.73 -3907.16c-17.97,949.8 -10.67,839.19 -282.04,1851.87 721.1,-68.31 1038.69,-11.23 1705.51,28.63l-185.46 -906.19 -399.57 -107.24c-106.3,-599.63 -111.92,-590.83 -332.19,-1159.59l-506.25 292.52c-930.7,916.48 -396.76,680.3 -935.2,1890.98 -1091.28,-1003.13 -630.7,-133.06 28.83,-1705.51 -1081.93,392.83 -1115.24,215.22 -827.78,1491.6 -549.28,1086.78 -330.69,394.14 -428.57,1598.08 -794.65,4748.41 -749.92,3395.49 -2073.08,6939.95l-1431.52 4541.8c-531.89,677.11 -563.14,787.53 -1227.34,1384.17 -127.26,1568.14 -901.7,3375.46 -2230.47,4327.69 -218.97,-624.52 -323.21,-1038.32 -624.34,-1666.21 -0.19,-1311.74 190.71,-641.18 -370.93,-1812.75 -349.98,-1597.52 211.1,-7393.23 464.69,-9726.07m-39.3 -652.98c488.47,78.61 313.11,-64.56 945.49,467.51 -504.37,261.26 269.87,375.61 -906.19,185.47 -496.7,-860.71 -248.91,-270.81 -39.3,-652.98 180.6,-839 397.89,-1050.85 135.87,-2105.45m-1232.39 16587.98c-2187.8,-4564.99 -1203.94,-9881.78 -2382.62,-13487.44 108.17,-687.78 173.11,-1164.27 282.41,-1851.87m3361.43 -2953.99l399.38 107.05m-8331.43 3121.31l0 0c1011.56,-583.73 529.27,-237.31 1120.29,-984.42m2972.53 -702.57c1220.23,1225.29 1897.72,670.01 477.8,1412.62 -843.49,-837.69 -117.53,-398.82 -1491.23,-827.58 -651.28,45.67 -1307.81,85.15 -1959.1,117.53 -173.3,-1055.91 54.09,-330.13 -292.51,-506.99m867.26 -838.25l-438.88 -760.03m-2494.35 2115.56c933.7,-305.24 1132.27,-211.85 2065.97,-517.28 -745.24,-366.63 -865.58,-484.16 -1998.03,-535.26 -275.49,612.93 -233.01,368.88 -67.94,1052.54 114.35,1341.88 388.9,789.04 -1081.17,1637.77 -663.08,-97.13 -810.18,-132.51 -1452.11,-174.99 -1275.07,-287.65 -1329.34,-110.61 -2397.41,-642.68m-292.33 -506.43l292.33 506.43c-1145.56,284.85 -1564.22,93.77 -2758.62,-96.19m18562.06 -11730.1l399.76 106.87m-2783.69 10389.9l652.59 -39.49c590.84,-1069.2 405,-376.36 428.21,-1598.27 389.83,-919.67 468.06,-1544.38 496.51,-2651 618.91,-1306.14 607.49,-1999.72 710.05,-3449.96 314.23,-1172.87 466.76,-1496.08 496.33,-2651.18 711.74,-771.44 609.36,-1123.66 1041.87,-2290.55m-20442.37 13153.75l438.68 760.03c-1262.33,313.66 -695.26,225.14 -2104.89,-136.06 -796.89,279.23 -1267.2,363.45 -2065.59,517.28m23122 -14362.75l1052.17 67.75c371.87,-963.46 328.83,-759.27 428.39,-1598.46m-27164.85 19061.56c-196.14,-1016.6 -353.72,-1975.19 -702.75,-2972.34m16167.08 -3591.25c1322.97,589.91 303.93,452.16 1452.1,174.8 -1074.06,-1034.94 -681.23,-877.55 -1452.1,-174.8 -3008.09,-110.98 -61.58,1420.11 1890.98,934.83 1282.73,491.08 998.45,593.08 2397.78,642.67 332.01,-902.81 229.82,-1682.86 96.2,-2758.42 96.38,-1953.49 2155.61,-13372.91 3573.09,-14886.78l1255.98 -737c589.71,536.75 780.79,479.86 1344.87,574.74 590.08,536.56 781.17,479.48 1345.24,574.37 616.67,505.31 12.54,343.05 799.32,214.29 294.02,1213.3 -124.64,2032.28 -1002.94,2943.33l-652.78 39.3m-29173.55 16167.64l-292.52 -506.62m17433.54 -4323.01c644.36,645.67 318.15,558.09 1198.7,321.34 -962.15,-563.51 -152.71,-262.57 -1198.7,-321.34 -1765.78,-859.58 -5231.26,-1157.34 -6354.36,-1060.02 -1174.37,101.43 -3068.91,613.67 -4824.2,420.34m-7921.56 5587.03c1207.5,175.74 798.38,261.64 1959.1,-117.72 1093.9,60.83 908.06,166.38 1958.73,-117.72 19.27,-1183.92 73.55,-1712.81 -303,-2865.1 175.92,-1207.5 261.64,-798.2 -117.53,-1958.72m8535.41 -6278.94c-515.79,471.62 362.89,337.06 -1013.61,585.23 -727.08,806.24 -390.21,534.13 -1373.69,1130.58m9947.85 -6756.92c-421.65,618.16 36.87,316.85 -866.51,838.44m-1120.66 984.98l-545.74 -360.83m-1987.73 1823.42l-292.52 -507m-720.91 1092.03l-438.68 -760.02m2972.34 -702.57l1013.24 -585.03c630.13,-708.56 324.33,-437.94 1120.66,-984.98 -382.91,-474.62 -372.62,-475.18 -838.81,-867.07m-6041.07 4163.56c490.53,849.48 209.05,192.01 185.84,906.18l2026.48 -1170.07 1013.43 -585.03 1520.23 -877.56c-709.12,-630.7 -437.94,-324.52 -984.98,-1120.66m-15900.02 14584.72l292.15 506.8c-1194.03,572.68 -900.76,454.59 -2212.13,263.7 -1194.22,572.49 -900.95,454.78 -2211.95,263.69l-1013.61 585.23c-2369.9,0.37 -3552.88,803.25 -5691.09,1259.15l-4706.11 2379.63c-1529.03,1236.89 -4847.41,4717.16 -6255.54,4962.32 233.94,-3786.82 7451.81,-8518.57 10044.98,-9514.96l6012.43 -2458.05c2310.2,-492.21 7257.55,-2004.21 9530.32,-2799.97 428.2,-1010.25 534.69,-1331.03 242.92,-2504.65m16720.49 -9653.46c-422.03,617.78 36.68,316.28 -867.45,838.06l-292.33 -506.43m2494.35 -2115.75c-490.33,1231.27 -241.98,1035.88 -1334.57,1784.12l-585.23 -1013.62m2854.81 -2661.48c-422.21,618.35 36.87,316.66 -867.26,838.63m1374.07 -1131.15c-66.25,1179.06 106.11,513.55 -428.39,1598.65l-1013.43 584.85c-330.69,-855.47 -372.43,-238.06 67.75,-1052.35l-292.52 -506.99c904.13,-521.78 413.24,-275.3 1159.78,-331.64l506.81 -292.52c-56.52,-746.17 190.14,-255.83 -331.82,-1159.77m-653.16 39.49c-336.5,629.95 235.81,201.37 -613.86,692.08m-25294.83 15279.61c1207.69,175.92 798.2,261.83 1958.92,-117.53 1469.13,155.9 165.44,406.68 1558.97,-224.58 1340.56,128.2 2648.56,-213.17 3878.9,-888.22 409.86,-967.2 415.85,-1514.62 496.14,-2651.19 271.93,-1015.11 257.89,-905.44 282.22,-1851.49m14975.49 -10335.44c490.71,849.85 62.13,277.17 692.09,613.67m1013.23 -585.04c-956.53,-390.77 -538.24,-409.86 -1705.32,-28.63l-1773.26 1023.9c-854.72,948.3 -982.55,905.07 -2133.72,1569.83 -763.2,846.3 -578.48,671.87 -1627.09,1277.31m-9007.79 22427.86l1394.65 3585.63c428.39,478.55 313.86,400.13 839,867.08 1427.22,1752.3 570.26,2808.02 3060.49,2961.67 427.46,-1216.48 -1505.26,-3660.68 -2311.5,-5758.84 -420.91,-1975.76 -1512.75,-4121.26 -751.98,-5983.61 -418.84,-1281.05 -229.82,-1299.76 -157.02,-2612.07 314.04,-1172.69 343.8,-1528.47 895.71,-2543.76 37.8,-1483.36 623.21,-3047.39 1723.85,-4035.36 -253.03,-1122.91 3267.85,-7823.31 4314.59,-8908.6 -124.64,-1001.45 1.31,-1230.71 -264.07,-2212.13m574.55 -1345.25c-346.04,-1602.76 -467.69,-866.13 -1159.59,331.64m292.9 506.8l292.14 506.81c791.46,-797.08 509.61,-187.53 574.55,-1345.25 -474.8,382.73 -474.99,372.06 -866.69,838.44l-292.9 -506.8c-629.95,-336.5 -201.56,236 -692.08,-613.86m721.09 -1091.65l-721.09 1091.65 -546.11 -360.45m1773.63 -1023.72c950.17,681.42 1472.51,-1232.96 1948.44,-2476.2m-2094.6 2222.61l827.77 -1491.04m-2640.52 1862.16c-742.62,1234.26 -995.27,700.32 185.28,906.19 988.35,-1110.56 154.77,-487.53 1267.2,-731.2l506.43 -292.52 -146.16 -253.59c-852.48,122.39 -964.02,93.57 -1812.75,371.12 -1112.05,243.67 -278.48,-379.36 -1266.45,731.39 -4393.76,3659.74 -3724.69,6982.43 -5902.39,10839.25 -2578.57,1414.49 -7900.22,2700.78 -10836.63,2878.39 -2289.05,74.11 -5471.56,1003.69 -7835.28,470.12 1285.35,1290.41 5869.81,2355.68 7231.9,2580.64l3264.86 -196.14 -438.5 -760.02m26854 -15504.38c910.11,-1636.83 1388.47,-2764.79 2083.93,-4581.09 56.52,-855.47 77.11,-942.12 282.41,-1851.49 -218.97,-624.9 -323.4,-1038.32 -624.34,-1666.4m-3301.54 8323.56l438.87 760.21 -905.81 185.84 -546.29 -361.01 1013.23 -585.04c613.67,-100.12 275.3,-140.55 1052.73,68.13l506.81 -292.71 146.35 253.22c2498.47,-1710.19 3501.6,-6347.99 2209.32,-9044.47m-2216.25 48232.12l438.87 760.21c-1361.52,444.85 -1597.33,519.9 -2651.18,-496.14m1919.61 -770.88c23.96,-713.98 305.43,-56.71 -185.28,-906.37m-2173.2 917.04c181.35,622.28 -336.69,125.01 438.87,760.21 1001.44,-124.65 1230.71,1.12 2212.31,-264.07l-292.7 -506.81 -2358.48 10.67 -292.71 -506.81m0 0l-438.87 -760.02m2680.2 -1209.37c-842.75,471.81 -258.83,527.58 -1306.13,78.6m-39.12 -652.97l1266.46 -731.39c658.21,1378.93 458.33,224.77 78.79,1305.76 -814.86,-440.18 -197.63,-398.26 -1052.73,-67.57m3546.71 -2047.81c-1649.93,317.97 -3556.07,35.94 -3839.23,1541.01l292.52 506.8 -253.4 146.17c-849.67,490.52 -277.17,61.95 -613.86,692.09m-4891.58 1473.25c1010.06,15.91 2008.33,-17.4 3011.27,-49.78 655.59,-52.59 908.99,-99.38 1558.97,-224.77 870.44,-124.64 1599.21,-243.11 2465.91,-410.23 -1327.65,-1377.63 -81.6,210.17 -2144.57,-788.47l-760.21 438.68c-1233.33,237.87 -1564.4,324.15 -2864.91,303.18m-2825.99 955.79c1007.62,9.73 623.96,98.63 1559.53,-224.4 -827.21,-803.81 -2495.66,-242.92 -4064.18,-18.53l-2397.41 -642.11c134.38,2248.81 1407.75,1179.43 3742.66,1217.04m13346.14 -17839.09c438.87,1033.45 -215.6,418.85 1384.17,1227.53 -439.61,-1033.83 215.23,-419.03 -1384.17,-1227.53z"/>
   <path class="fil0 str0" d="M27693.93 84627.28c-1853.92,-1070.13 -1712.81,-588.22 -3596.87,-1199.08m4795.95 -1199.08l0 -399.19m-6793.6 1998.03c238.62,-3107.47 1697.09,-2177.51 1598.65,-3996.62m18783.08 40364.64c1801.9,-379.54 1695.03,-615.91 3197.11,-1598.46l2797.73 -2797.54c765.26,-1907.63 1329.33,-3661.24 1998.21,-5595.27l0 -1598.46m-14786.84 1198.89l0 -1198.89m8792.01 -5994.83l0 0c1542.87,1671.45 1594.9,1860.09 1998.4,3996.62m-6794.35 14786.83l-2797.16 0c-1725.54,521.78 -672.44,521.78 -2397.6,0 -6294.09,-1001.26 -11000.2,-4929.38 -11989.67,-11190.16l-399.57 -3996.43c276.61,-800.07 522.34,-1597.34 798.76,-2397.97m5595.64 -1198.89c955.41,-1527.53 547.42,-1018.11 1997.85,-1998.22m19982.53 7993.05c-391.52,-1856.54 -270.24,-1358.91 -1598.46,-2797.91 -278.67,-840.87 -432.5,-1209.75 -799.51,-1998.03 -892.34,-1668.64 -1598.46,-2100.4 -1998.03,-3996.25m-3996.8 -1998.59c-1045.62,371.5 -447.3,-175.36 -799.14,799.7 -1606.14,0 -790.53,69.06 -1998.03,-399.57m-5195.7 0l0 -400.13m-13188.19 5994.84l1997.84 0 1584.8 -2406.77 2811.95 -2788.37c1444.06,-579.23 1885.18,-635.57 3196.74,-1598.65m4396.18 1598.65c-384.78,-1019.6 219.72,-414.73 -799.32,-799.7 -1530.9,-529.45 -1835.39,-760.77 -3596.86,-798.95 -828.71,-515.97 141.29,-399.75 -1198.9,-399.75m5994.65 0c-1251.29,254.9 59.52,814.67 -1997.65,-399.57 -1372.76,-107.99 -720.54,14.78 -1998.97,-399.57 -2194.72,47.54 -1045.43,-310.48 -1998.03,799.14l-798.95 0m10790.41 0c2016.74,-198.95 1492.53,-446.55 3196.92,-1598.28l1598.84 0c270.24,2681.51 -2267.91,115.48 -1998.59,2796.98 1050.29,-363.45 1664.33,-584.66 2797.72,-798.95 913.49,176.49 616.67,46.04 1598.65,399.76l1598.46 0m-3596.86 1598.08l1598.83 799.7c-103.49,-1315.86 8.05,-768.82 -399.94,-1998.59 -1323.72,753.85 -414.73,1.5 -1198.89,1198.89l-2797.36 0c759.65,1241.75 901.7,1301.46 1998.22,2398.16 -1699.15,529.08 -3190.37,-272.49 -4795.94,-1198.89 0,4692.82 -2135.78,3357.87 -3196.93,8392.62 -847.42,-727.64 -1341.12,-1190.47 -399.94,-4396 626.21,-2130.72 2980.58,-3565.24 3197.11,-5595.08l-1998.22 0c-1123.09,1655.54 -532.07,1198.89 -2797.54,1198.89 -1078.36,349.79 -2055.85,583.73 -3197.1,799.14 1130.95,-1706.26 2238.51,-1951.43 4396.18,-1998.03 2113.32,-231.13 1465.4,-502.13 399.57,-1998.4 0,-1426.1 43.61,-676.74 -399.57,-1598.28m4396.38 399.2c1479.99,-1270.76 1036.26,-4565.94 0,-6793.98 -651.66,1678.57 -561.83,1065.27 0,2797.73l0 3996.25 0 1199.08 0 1598.83c-1717.12,-183.78 -846.49,282.23 -1998.78,-1598.83 -1578.25,-1578.63 -888.59,-1261.4 -2397.6,-1598.28l-399.19 -799.7m-11590.48 -10390.83c828.9,-515.98 -140.92,-399.76 1198.89,-399.76 516.17,-1139.56 -964.2,-837.31 1598.84,-399.38 192.2,-14.22 2415,-1293.4 5566.82,858.09 2692.92,1838.58 5006.68,5343.55 4424.63,8733.61 -800.07,2260.42 -2.24,1129.65 -1198.7,1598.27 -1397.46,-1025.77 -777.61,-638.18 -2398.35,-1198.89m-1998.4 -11189.97l-1198.89 0c-2612.26,-1014.36 -1826.23,334.62 -4795.95,399.19 563.33,-2671.59 1720.3,-2159.91 -399,-2397.78l-799.89 0m-8392.62 10790.59c370.56,-1757.35 787.35,-2080.19 1599.02,-3596.86m7992.49 5595.45c-463.01,-996.21 -735.5,-1802.08 -1198.89,-2797.73 -602.44,-1127.21 -755.72,-1358.9 -1598.09,-2397.97 -108.17,-1372.19 14.6,-720.16 -399.75,-1998.03m3196.73 8392.81l0 -1199.08c531.51,-1367.52 399.76,-755.16 399.76,-2397.97 -874.75,-2529.73 -797.08,-3428.24 -2797.73,-5595.27m-1998.03 1198.89c829.08,-515.79 -140.92,-399.38 1199.27,-399.38 384.6,-1019.6 -220.09,-415.1 798.76,-799.51 0,-1357.41 -109.48,-490.15 400.32,-799.32l798.76 0c987.6,1192.34 -445.23,638.74 1598.65,799.32m-6394.41 1598.65c-1185.23,699.2 -670.56,542.74 -1997.84,799.14 1073.32,-1619.99 1280.87,-1011.56 2397.6,-2797.36m-3596.68 -1198.89c743.56,475.74 891.22,639.68 1598.65,1198.89l1998.03 0c1467.08,-569.69 1109.25,-399.75 2797.91,-399.75l-799.69 -1998.03m-399.38 -1998.59c777.42,-777.43 499.32,-404.44 799.32,-1198.9m-7193.73 4396.38l1198.89 0c1507.51,-1702.14 1114.49,-383.66 3996.81,399.38 -581.48,-2021.8 -788.28,-958.21 -1198.89,-2797.35 1264.39,676.36 1339.44,891.77 2796.98,1199.08 -103.31,-1316.05 8.04,-768.82 -399.38,-1998.59 -443.18,-921.35 -399.95,-172.93 -399.95,-1598.28m-1198.89 798.95c-2108.07,-398.26 -2072.33,-199.31 -3196.92,-1997.84m6794.16 1598.27l-1199.08 0c-472.93,-2374.01 712.11,-1309.49 0,-3596.86 -1572.45,2206.7 -177.79,1587.42 -1199.27,3197.48 -1650.3,-311.98 -2745.7,-887.28 -4395.81,-1198.89m13987.51 9191.76c-384.78,-1019.23 219.91,-414.54 -798.95,-799.14m-799.88 -399.94l799.88 399.94c-384.78,-1019.6 219.34,-415.1 -799.88,-799.51l0 399.57 -1598.09 0m-8392.43 17984.32c-3633.55,-2090.11 -6082.43,-4955.77 -6794.72,-9191.57 -464.89,-2765.72 840.68,-6861.72 3996.8,-8792.75"/>
   <path class="fil0 str0" d="M53855.46 44091.21c-1034.95,-1034.95 -1638.32,-1784.87 -2824.86,-2510.83 -138.12,1267.2 1438.82,2007.01 2824.86,2824.87l0 -314.04c1341.69,396.01 545.73,-400.7 941.75,941.55 725.02,173.87 530.76,145.05 1255.22,314.04 -377.11,-1163.14 -313.67,-898.32 -313.67,-2197.15 -512.23,-1479.44 -716.6,-1752.3 -628.26,-3138.91 760.21,568.01 527.95,377.49 1255.78,1255.6 37.43,1724.41 -243.67,821.22 627.9,1569.27 -89.09,1157.34 -286.72,1270.01 -313.86,2511.19 607.68,432.51 857.72,596.08 1255.04,941.75 1255.98,-504 1705.7,-686.28 2825.05,-1569.64 674.12,-141.11 539.94,-76.54 1255.79,-313.66 302.06,-800.26 -173.12,-325.46 627.14,-628.08 950.17,-376.93 316.29,-313.48 1569.83,-313.48m-2196.97 941.56c1770.08,-276.61 610.11,-238.81 627.14,-628.08m-8787.88 2197.34l0 -1569.26m6904.95 2510.82l1255.79 0c771.06,-277.36 537.69,-175.36 1255.41,-314.04 912.18,-567.82 360.64,-187.53 627.52,-627.52 -1319.42,28.82 -2428.66,114.54 -3138.72,941.56 -1622.79,0 -1957.98,381.6 -2825.05,-627.52m5336.25 3138.34l0 -2824.86m627.52 -627.52c1235.95,-479.67 647.36,-479.67 1883.31,0 -1691.67,976.37 -1415.62,160.58 -1569.27,1569.08m-11927.35 1569.83c-102.75,-1340.57 -303.93,-1720.68 -941.56,-2824.87l-313.66 -628.08m2510.82 1569.64c-32.19,1482.05 -517.1,2638.27 -627.71,4080.09 0,1241.75 181.91,1101.39 -314.04,1883.12 -976.74,-838.44 -627.33,-554.72 -627.33,-2196.79 -316.1,-975.06 -311.79,-1536.14 -628.08,-2511.2 -29.57,-1360.59 -221.21,-1086.22 0,-2196.78m4080.28 -314.04l627.89 314.04c-218.97,-1183.36 166.94,-619.84 -627.89,-314.04 -1089.6,-782.48 -767.32,-25.83 -1146.87,1883.31 -299.63,1509 -288.21,2556.3 -1363.96,3452.38m4080.47 -8474.59c302.43,-737.94 381.97,-1125.16 627.52,-1883.12 -540.12,-1391.1 -87.59,-1433.58 -627.52,-2824.87m-627.9 3138.72c580.36,-1494.22 47.54,-1643.94 627.9,-3138.72m30445.24 -9729.63c-915.73,-1410.93 -78.42,-1008.37 -1255.6,-314.04 674.31,141.11 540.12,76.55 1255.6,314.04zm-35153.6 32328.17l313.85 0 0 314.23c-646.61,180.79 16.47,538.06 -941.37,0 -204.18,726.34 -117.53,439.81 -627.7,941.37 -129.7,-85.15 -812.43,-542.17 -941.75,-627.33 -1022.04,-877.93 -627.71,-1819.11 -627.71,-3452.94 -277.36,-771.44 -175.55,-537.88 -313.66,-1255.23m13809.9 -5963.77l0 1569.27 941.75 0c0,-1601.46 -4.49,-520.28 314.04,-941.56 -464.13,-967.2 -314.04,-1150.61 -314.04,-2510.82m-627.52 4707.98l0 0 0 314.04 -628.27 -314.04c0,-1119.92 -33.87,-531.51 314.04,-1255.6m2197.54 -1569.27c637.81,-1590.78 1007.62,-1572.07 941.37,-3138.9 -748.61,949.04 -1089.78,1794.03 -1569.27,2825.05 337.63,1363.77 232.07,1562.53 -627.89,1883.12m-627.52 1569.64c-302.43,800.44 172.18,325.45 -628.27,627.52 -499.69,-803.63 -499.69,-137.93 0,-941.56m-1255.03 3138.9l-314.04 627.52c929.2,-350.91 456.46,-45.85 314.04,-627.52l1255.03 0 0 -2197.34m4394.88 -30759.1c587.1,386.66 -40.42,313.48 1255.04,313.48 -115.66,-1506.94 -2292.42,-5011.92 -4080.09,-5335.5 708.93,1325.59 3303.97,4009.53 2825.05,5022.02 -1612.68,-428.57 -650.54,-574.37 -2197.34,-628.08l3766.23 2511.39c-226.26,-1191.6 1052.36,-4547.97 -627.33,-8160.56 -498.01,1281.99 -314.04,1998.41 -314.04,3452.39m4394.13 -8160.56c-867.45,-1181.48 -1342.81,-1849.8 -941.93,-3138.71 1146.68,1171.75 1128.71,1251.1 1883.12,2510.82l0 627.89 -313.3 0 -627.89 0c-187.52,992.09 -439.99,1832.59 -627.89,2824.87 -1317.55,-1131.33 -371.87,-2979.45 -2197.16,-4394.51l0 -627.51m2197.16 5022.02l0 1883.3 0 627.52c-1572.45,-501.75 -1682.68,-3749.58 -2197.16,-5335.69 -64.38,-822.9 -32.75,-1056.09 0,-1569.64m5336.06 -313.47l0 941.56c725.96,-543.12 559.4,-393.21 1255.23,-1255.6 177.79,-2311.14 1671.82,-2619.38 1255.78,-4708.17 -1477.37,2210.07 -1743.5,4011.96 -2511.01,5022.21 -489.77,-1261.22 -138.3,-1250.18 -628.08,-2511.39 -1285.92,1805.45 -167.69,1774.01 -941.74,3766.61m2511.57 941.56c939.87,-502.69 1610.44,-1037.94 2510.82,-1569.27 1338.89,-1564.02 1749.87,-444.48 1569.27,-2197.15 -1544.94,945.3 -3152.76,2250.68 -4080.09,3766.42l-941.75 0 0 -1255.22m0 1255.22c-302.06,800.45 172.56,325.64 -628.08,628.08l-313.66 941.56 -941.38 -314.04c-192.76,-1155.85 -82.53,-192.02 0,-1569.27m1255.04 941.75l-941.74 -941.75m-1569.08 4708.17c871.38,-748.6 590.27,154.59 627.89,-1569.64 219.16,-660.83 339.87,-950.54 627.89,-1569.26m4707.99 8788.07c1285.17,-416.6 1635.7,-684.04 2825.05,-313.66l-1585.74 912.36c-1476.62,143.92 -3508.15,729.14 -4692.26,1598.46l-1569.08 0c-771.62,277.73 -538.06,175.55 -1255.78,314.23 -587.1,-386.66 40.24,-314.23 -1255.04,-314.23 317.41,-1679.68 1148.17,-4096.93 2510.82,-5021.65l0 -313.85c-736.25,-530.39 -435.12,-22.65 -627.7,-941.75l1569.26 -2510.82c57.08,-745.43 182.29,-1185.61 313.86,-1883.12m-2197.16 3766.42l0 -314.04m1883.3 941.56l627.52 0c1188.04,-1940.95 4630.5,-4341.35 4708.17,-6591.29 -2024.23,2024.23 -3924.19,3953.02 -5335.69,6591.29 -555.65,903.57 35.19,319.28 -941.56,941.75m1569.08 -941.75c1889.11,-145.23 2728.86,-1146.3 4394.69,-627.52 -1691.1,785.85 -4139.23,2551.63 -5963.77,1883.12m-5963.58 9729.82c0,-1252.98 63.26,-619.1 -313.85,-1569.08 -723.34,1823.42 -146.91,1058.9 0,2824.68 1603.89,-1062.83 2824.86,-3688.57 2824.86,-5649.54 1701.96,144.85 338.19,-339.31 1255.42,627.52 3500.85,0 5624.27,1212.18 7219.18,627.7 -1307.82,-754.78 -2144.76,-814.48 -3452.95,-1569.45m-2824.86 627.71l0 -313.48m-7218.81 3766.42c220.47,664.95 331.45,946.05 627.89,1569.27l627.9 0 -941.75 -5963.77c-514.1,1324.47 -314.04,2848.07 -314.04,4394.5 -872.69,-526.64 -773.5,-460.02 -1569.08,-1255.6 -567.25,-379.35 -984.41,-628.45 -1569.64,-941.56l-941.74 0m4708.35 3766.43c-1184.85,-265.2 -643.61,-16.1 -1883.68,-1255.6 -641.18,-949.24 -1294.34,-1548.68 -1882.93,-2510.83m1255.79 6277.25c0,-1422.35 175.92,-1876.75 -314.23,-3138.72 623.97,-235.62 330.89,-16.84 941.37,-627.7m-6277.06 3138.53l627.9 0c1419.17,569.69 2146.06,1184.67 3452.38,1883.49 -196.51,-2556.12 -2313.94,-4559.2 -1569.45,-6591.29 816.54,1414.87 1114.86,3778.59 2197.16,4707.8 176.29,-933.14 292.7,-1647.31 627.7,-2510.83m13496.62 313.86l1255.41 0c195.57,-932.21 22.65,-933.89 0,-1255.23 -1085.1,725.03 -557.9,202.31 -1255.41,1255.23 -975.06,316.28 -1536.33,311.6 -2510.83,627.89l-1569.82 0c1151.35,-1736.77 1813.12,-798.58 1883.12,-2824.68 -881.67,595.52 -1056.85,761.33 -1883.12,1569.08 -771.25,277.73 -537.69,175.36 -1255.04,313.85 462.45,-902.82 356.52,-572.68 313.67,-1569.45 -874.75,1078.37 -1357.41,1581.06 -1883.31,2824.68l0 314.23c-779.49,1444.06 -769.75,941.37 -2825.05,941.37 116.41,-2068.96 446.92,-469.94 -313.29,-1882.93m4707.98 -627.9c-823.84,1243.06 -173.86,665.7 -1569.64,1255.23m0 314.23c1318.67,511.85 836.76,441.11 2196.97,0l627.71 -627.71m10985.79 -5022.02c-674.49,1450.23 -1223.22,2232.15 -628.08,3766.42 1100.64,-1394.65 1026.9,-1884.8 1569.83,-3452.57 0,-2003.83 194.45,-1311 -627.9,-1569.45m4707.99 -4394.13c-296.26,623.21 -407.06,904.69 -627.71,1569.26 -84.59,1078.18 11.6,565.76 -314.04,1569.64l0 2196.79c1000.7,-313.86 745.42,-1251.49 1255.6,-2824.87 0,-1358.91 152.71,-1309.12 -313.85,-2510.82l0 -627.52m-941.75 5963.21c-22.83,321.9 -195.39,323.21 0,1255.78 -253.22,780.99 -374.3,1415.99 -627.52,2197.16 883.17,-88.9 1050.67,-234.13 1569.27,-628.08l1255.6 0m-627.52 -1569.08c1846.81,-1847.37 3076.77,-2615.81 3138.15,-4394.31 -1550.92,949.23 -2857.61,2853.87 -3766.23,4394.31 1500.02,920.6 869.5,482.1 2824.86,-704.06m-9416.34 3528.74c0,418.66 -104.24,313.85 314.04,313.85 0,-418.47 104.43,-313.85 -314.04,-313.85 -557.15,-1198.89 -505.87,-1702.7 -941.37,-2824.68 -563.89,1453.05 -439.99,1831.09 314.04,3452.39 1659.28,0 467.5,2.05 941.37,314.04l0 627.33 627.52 0c743.18,-700.14 534.32,-460.02 1569.83,-941.37 844.42,-433.45 1681.37,-776.68 2510.82,-1255.23m-4393.94 941.37l-314.23 0m314.23 627.9l-314.23 0m627.52 627.33c1356.29,902.07 101.25,889.9 1569.83,0l1569.07 0m-14124.32 314.23c1201.89,466.19 1152.11,314.04 2510.83,314.04 1054.78,1031.2 1034.76,1087.53 -627.34,1255.22 -651.28,-405 110.99,-313.67 -941.74,-313.67 -666.07,-139.8 -518.22,-48.65 -1255.41,-314.22 -1511.44,0 -3087.63,-404.62 -1255.42,941.74 1190.47,-75.79 1186.73,63.82 2510.83,314.04l314.04 0c-423.34,1326.16 -103.68,941.56 -1883.12,941.56 -386.65,655.22 -938.56,1485.24 -1255.79,1883.31l0 313.66 941.94 0c1082.29,-1444.06 2132.03,-1253.91 3766.23,-2196.97 1234.08,-27.13 774.81,45.67 1883.31,-313.85 302.25,-800.45 -172.55,-325.46 627.52,-627.71 1639.44,-946.05 3465.48,-1368.45 5022.02,-2511.38m9730.19 -313.48l-627.89 313.48c-1298.83,-503.63 -2281.94,-313.48 -3766.61,-313.48m-2824.86 1883.3c-2079.82,-1694.65 867.07,-565.57 2197.34,-314.22 1074.06,-416.41 593.08,-313.86 1883.12,-313.86 1275.62,-413.23 1276.75,-229.07 2511.01,-941.74m-29503.87 3139.09c695.46,1161.46 833.2,1097.64 941.75,2510.82 -1548.31,-946.8 -3447.15,-2846.2 -4394.13,-4394.31m5335.87 1883.49l0 941.56 -628.08 0c-416.04,-1202.26 -597.57,-1441.44 -627.7,-2825.05m1255.78 2825.05c0,1253.35 63.07,619.47 -313.85,1569.26 410.8,343.24 143.73,-12.91 313.85,627.9 1531.09,-557.9 2412.95,-3461.18 3138.16,-5022.21m19774.24 941.74c1150.61,752.54 1551.48,1058.72 2824.49,1569.08 -893.28,-1460.15 -1273.01,-1368.26 -2510.64,-2510.82m-14124.32 1255.78l0 -941.56m314.04 941.56c800.45,-302.25 325.64,172.74 627.7,-627.89m-3766.61 3452.76c-1318.29,-381.79 -1043.37,-847.99 -1568.89,941.56 -3479.33,0 -610.67,689.46 -2825.05,0 4064.37,-3296.49 5982.86,-2162.54 4707.98,-4080.47m6904.96 314.04c436.62,884.29 -340.06,591.4 1255.78,627.71m-1569.26 313.85l-314.04 -313.85m13182.58 941.56l-314.23 -314.23m-26364.97 628.27l0 -314.04m1569.64 2824.86c390.96,1255.6 417.91,1142.94 1883.31,1255.6 1338.5,772.38 862.77,683.85 2196.78,627.52 -1027.46,-811.11 -601.5,-671.31 -1883.49,-941.56 -495.02,-268.56 -824.03,-1246.8 -2196.6,-941.56l-628.27 0c-386.84,-319.28 -801,-649.97 -1255.03,-1255.6m5649.91 627.9c1610.63,-126.33 326.21,277.17 1568.89,-627.9m6905.52 1883.12c-1299.02,0 -1034.2,63.45 -2197.35,-313.66 -800.07,-302.07 -325.27,172.74 -627.52,-627.9l-1569.82 0c-828.9,-603.93 -688.72,-523.09 -1568.89,-941.56m3766.23 627.9l-627.52 313.66m-4080.65 627.9c978.62,21.14 1313.06,146.72 2197.54,313.66 404.81,-650.72 313.29,111.17 313.29,-941.56m-11612.56 3766.43c-154.4,811.11 -147.67,312.17 0,941.56 1623.53,-1015.3 2257.42,-2747.76 3137.96,-4393.95m11613.69 1255.6c1168.2,789.59 1175.31,1185.05 2510.82,1569.08 -430.82,-1383.42 -1234.82,-1795.53 -2510.82,-1569.08 -907.68,-471.24 -470.69,-34.25 -941.75,-941.74m1255.6 4080.09l-912.17 -1585.55c-1439.01,-1392.97 -849.11,-1377.44 -2226.73,-1239.32l-314.04 0 -313.29 0 0 -941.56m313.29 941.56l314.04 941.75c-587.28,-150.28 -606.75,655.4 -627.33,-941.75m4079.9 4080.47l0 627.7c-1157.91,-964.58 -1967.34,-3190 -3452.57,-4708.17m5335.87 1883.31c-360.64,929.95 -825.52,4656.51 -627.7,5649.54 1086.04,-1198.71 1158.09,-4283.15 627.7,-5649.54l0 -627.71m-1883.3 4080.46l0 -627.89m10671.75 2511.2c-994.9,460.21 -232.25,-316.66 -941.75,941.56 -1086.78,627.14 -1250.17,703.31 -2510.82,941.75 255.27,-1212 300.94,-853.42 313.85,-1883.31 1226.78,-257.33 -7.48,370.37 1255.42,-628.08 1895.65,-358.02 1105.5,-812.61 1883.3,628.08l314.04 0c666.26,139.24 517.66,48.47 1255.23,313.48 921.72,-305.06 577.36,-237.5 1569.64,-313.48 778.73,-1004.63 621.34,-749.73 1883.11,-1255.6l1883.12 -1883.3c-1574.13,54.64 -3592,1811.81 -5335.87,2510.82l-313.86 -313.48c0,-1052.91 91.33,-291.21 -313.85,-941.75 1033.26,-633.5 1512.18,-1069 1883.31,-3138.71 19.27,-888.41 38.55,-1282.74 0,-1883.31 -1206.76,1529.4 -1511.25,2684.88 -2197.35,4394.13 -1046.93,486.97 -975.62,534.13 -2196.78,627.89 638.18,-1590.97 1007.43,-1572.07 941.55,-3138.71 -1177.55,1275.25 -1853.54,2135.58 -2196.97,3766.42l-2801.09 1304.82c26.39,-1501.7 -125.96,-858.46 1231.83,-2246.57 771.25,-1179.42 956.9,-1095.77 1255.22,-2510.82 -1439,899.82 -1906.88,2118.37 -3138.71,3452.57 -344.92,-1943.01 1525.84,-3022.31 627.89,-5335.69m-627.89 5335.69c-821.6,291.77 -351.29,-137.93 -627.9,627.52 -1250.73,0 -90.39,52.96 -941.56,-313.48 511.11,-1476.62 1055.16,-2908.33 1569.46,-4394.5m3452.75 314.04l-314.04 313.85m4080.28 2196.97l-314.04 0m-3452.2 1255.6l1255.42 -627.71m1883.3 1883.31c-343.05,-1519.48 -715.85,-356.34 627.52,-1883.31m-8788.45 941.75c-684.41,926.4 -972.62,1108.87 -1255.41,2196.78l0 628.09c737.38,264.81 589.34,174.23 1255.41,313.47 1200.39,-481.16 1845.69,-982.54 3138.72,-1255.22 -314.98,1631.4 -225.52,461.14 0,1569.26l941.56 0c1318.86,512.05 836.57,441.31 2197.35,0 1324.47,-514.1 2848.25,-314.04 4394.13,-314.04 1281.23,-1537.26 2499.59,-338.37 5649.54,-2824.86 -1585.74,-315.73 -3623.26,304.31 -5335.5,628.08m-7847.08 941.56c593.27,-311.42 999.95,-560.89 1569.45,-941.56m-4708.17 313.48c1174.38,163.01 137.93,164.32 1569.46,0 -1111.5,-1045.99 -1502.08,-115.47 -1569.46,0l0 628.08c-646.6,100.87 -640.99,90.95 -1255.41,313.66m-7846.89 -941.74c0,-1514.99 196.14,-2767.6 -313.85,-4079.9 -504.37,1298.45 -313.48,2281.75 -313.48,3766.42 359.33,1108.12 286.91,649.04 313.48,1883.31 1177.75,-913.3 1075.37,-1397.65 1569.64,-2824.87m1569.08 -5336.06l314.04 627.89c-497.26,536.94 -398.26,113.98 0,941.56 139.43,666.26 48.66,518.04 313.85,1255.23l-2510.82 5963.76c-736.26,735.88 -504.19,529.64 -941.94,1255.6l-627.33 0c56.71,-745.23 181.73,-1185.6 313.48,-1883.11m-313.48 1883.11c-222.15,1174 -413.79,1481.68 -941.56,2510.83l-314.22 941.56 627.7 0 1255.41 0c736.26,-735.32 530.02,-503.63 1255.79,-941.56 1508.82,-618.35 3479.15,-1349.36 5021.65,-1883.12 139.61,-666.26 48.47,-517.85 314.04,-1255.6l1255.41 -1255.22m5335.69 313.47l0 314.04m2197.35 0c1601.26,621.72 6873.13,621.72 8474.4,0 -1312.68,-509.42 -2564.91,-314.04 -4080.27,-314.04m-21342.95 4080.47c1948.25,-1042.62 6204.82,-3247.45 6277.06,-5335.69 -1858.04,785.47 -2972.52,2090.86 -4708.17,2824.86m12241.02 -1255.6c-370.56,131.57 -580.54,229.64 -941.37,314.04 -1799.46,836.57 -2369.34,247.98 -3452.76,1883.12 -618.72,-119.59 -950.73,-194.45 -1569.45,-313.85m2511.2 313.85c403.12,1263.09 3037.09,2280.82 4393.94,2824.87 988.53,912.55 1090.53,977.12 2197.35,1569.26 -585.6,-2619 -2710.71,-1999.34 -4080.28,-3766.42 2617.31,0 5982.86,1125.53 7218.81,-314.04 -2662.05,-1033.08 -6876.89,-41.36 -8788.08,0 -651.28,-405 110.8,-313.67 -941.74,-313.67l-941.75 0m1883.49 627.71l0 -314.04m-10985.79 1883.3l0 313.86m-4708.36 2197.34l628.27 0c1567.77,-1447.43 1978.75,-1115.61 3452.39,-2197.34m4080.65 314.04c2394.79,981.79 2717.06,515.04 3138.15,627.7 1219.29,703.51 2887.75,1467.27 4080.65,1255.6 -1872.82,-1729.46 -4797.44,-2823.36 -7218.8,-1883.3l-1569.83 0c-1547.18,132.13 -415.66,-287.28 -1255.04,627.7 -846.48,-520.65 -476.3,30.7 -628.08,-941.74m4708.17 1569.26c520.1,846.49 -30.5,476.12 941.19,628.08 -520.1,-846.3 30.88,-475.92 -941.19,-628.08l-1255.22 0c-1085.48,-649.79 -869.32,-352.22 -1569.83,-1255.22m-5963.21 1883.3c723.72,348.1 135.5,313.48 1255.41,313.48 1233.71,-26.57 774.81,45.67 1883.12,-313.48l2824.68 0c-542.55,-726.33 -392.64,-559.95 -1255.04,-1255.6m5021.28 1255.6c596.82,974.87 708.55,1022.22 1569.82,1883.31 -1305.57,231.5 -2223.54,-599.26 -3452.94,-1569.83l-1255.04 0 -628.08 -313.48m628.08 313.48c-500.26,198.94 -1069.57,429.7 -1569.64,628.27 -1760.53,-135.5 -1126.84,-659.34 -2825.05,0 -971.88,-152.16 -421.09,218.03 -941.19,-628.27m-11927.35 3766.42c1090.16,-652.41 1552.24,-987.03 2824.87,-1255.22l0 313.67c1130.02,-364.01 470.68,106.11 941.74,-627.52 1318.67,-101.07 3561.12,-1221.17 4707.99,-1883.31m7218.99 314.23c1756.6,1051.98 2728.3,1286.48 4394.5,2824.68 -1769.33,313.47 -2416.87,-966.08 -3766.61,-1569.46 -1143.3,-240.86 -2402.83,-767.13 -3452.94,-1255.22m-11612.75 -3766.61l313.67 941.56c-723.72,348.29 -135.69,313.66 -1255.42,313.66l0 -627.7c568.2,-912.18 187.72,-360.46 627.71,-627.52l314.04 0c986.85,-603.94 1924.48,-1366.02 2824.86,-2197.16 857.53,-343.98 945.31,-430.26 1883.12,-627.71l313.67 313.67c-1326.16,1075.75 -2585.31,1516.49 -3452.57,2824.86l314.22 0c895.34,-169.18 1663.41,-352.78 2510.83,-627.7 939.13,20.4 2889.81,-121.09 627.52,627.7m-4707.98 627.9c1155.28,-180.42 115.66,334.44 1255.41,-627.9m2197.16 313.86c-1715.62,324.52 -969.45,718.1 -1882.94,-313.86m-3766.42 3766.43l-314.04 628.08c1664.15,-350.72 3655.82,-1433.4 5022.02,-2511.39 -1257.84,-52.96 -1174,6.37 -2511.19,628.08 -753.85,402.75 -1443.5,852.29 -2196.79,1255.23 14.6,-1153.79 232.26,-1596.03 941.37,-2824.87m-2824.86 6277.81c479.29,-1031.2 820.47,-1876.38 1569.45,-2824.86m4080.46 941.37l-314.22 0m-2824.87 1569.45c1272.63,-268.19 1735.08,-603 2824.87,-1255.78m-5649.54 2511.38c363.44,363.26 534.69,313.67 0,313.67 -363.27,-363.45 -534.7,-313.67 0,-313.67 509.8,-60.26 660.45,-121.09 1255.6,-314.23m21970.46 -29817.34c651.28,-405.19 -110.61,-314.04 941.74,-314.04 1580.5,-512.43 1519.3,23.95 2511.2,-1255.6m-2511.2 1569.64l0 -314.04m-15693.21 10985.23c-304.68,1612.87 -760.58,1389.41 -314.23,2824.86 742.06,-940.06 1031.96,-1505.82 1570.02,-2510.82 -771.82,-277.36 -538.63,-175.55 -1255.79,-314.04 139.8,-666.08 48.47,-517.85 313.85,-1255.23 64.38,-822.9 32.75,-1056.28 0,-1569.64m-941.74 941.75l941.74 -941.75m13182.58 2511.2c500.25,-803.63 500.25,-138.12 0,-941.56m-18204.6 12241.02c334.63,-1588.54 2087.67,-4632.56 3138.9,-5963.58 345.49,-1829.6 872.13,-1405.14 -627.89,-1569.27m31073.14 313.48c-912.37,351.47 -665.14,598.88 -313.86,-313.48m-7218.99 1255.04l-313.85 0m-1255.42 628.08l-314.04 0m-18832.3 3138.53c199.31,-813.36 499.69,-512.98 -313.67,-313.67m-5649.73 3452.39c-228.88,-748.05 -200.25,-705.19 -314.04,-1255.6m-4393.94 10357.9c-1553.36,930.33 -3695.87,2167.21 -5336.06,2824.86l-313.67 -313.66c1429.46,-1128.34 4082.9,-2789.12 5649.73,-2511.2 541.8,-1097.83 -252.28,-234.32 1569.27,-941.56m-6905.33 3766.42c-813.36,199.5 -512.98,499.51 -313.67,-313.66"/>
   <path class="fil0 str0" d="M137632.7 80209.76l311.61 -472c-817.48,-777.99 59.32,-543.11 -1037.01,-277.92 250.6,1144.25 -356.9,566.13 725.4,749.92 491.65,442.98 832.07,837.5 1323.72,1280.86m14890.71 10102.81l-506.25 -876.8c-1202.82,-374.3 -3080.88,-1268.33 -3869.91,-2148.31 373.92,-410.05 626.02,-612.55 969.07,-851.54 -340.43,-497.45 -605.06,-754.41 -978.06,-1188.6 -987.03,222.71 -684.6,185.28 -1728.53,-463.01 1004.82,-580.17 1975.01,-1032.14 3101.85,-1206.2 681.98,539.19 320.78,93.77 851.73,969.07 -355.97,1388.67 -518.04,876.06 9.17,2039.96 3542.03,-0.57 4053.88,-2392.17 6305.32,-718.67 -483.23,1489.92 -824.03,1083.05 -993.96,2327.05 2574.08,-0.57 7694.92,-5024.46 10157.08,-2650.26 -90.02,759.46 -50.72,520.28 -370.37,1382.49 504.75,426.89 339.12,305.25 725.02,750.1 -100.5,135.13 -521.4,796.33 -623.4,944.18 1734.9,252.66 8378.21,-1617.17 11289.35,4877.36 -4276.6,4867.06 -6954.73,1801.33 -7805.71,2169.08 -597.39,594.96 -464.32,602.63 -1061.52,1197.4 -2848.64,-26.95 -3346.27,-1059.65 -6635.65,-2889.24 -558.83,1122.53 -179.85,1282.73 -867.44,2546 688.71,745.8 983.29,1297.34 -498.76,1666.03 -1434.52,356.89 -1521.17,-510.55 -2408.64,889.15 1541.38,395.27 6867.52,715.11 7663.29,1127.03 697.51,629.2 461.7,337.81 978.24,1188.41 -772.56,2133.15 -6.18,106.3 2925.55,1525.1 906.75,438.49 1232.96,1075.56 1577.13,1718.8 -485.1,1134.88 -571.94,968.13 447.29,1787.11 528.7,1167.45 945.3,1711.12 641.74,3135.91 -844.99,404.99 -1146.11,407.99 -2006.26,573.8 -1172.32,-264.63 -722.97,-253.59 -1820.99,-117.34 799.14,1316.05 1719.93,1704.01 2150.75,3725.25 -100.69,135.12 -521.59,796.7 -623.4,944.18l607.87 2570.9m-14524.83 -26675.82c-1431.52,-36.31 -1748.93,-598.89 -3076.77,-268.57 -723.53,608.06 -115.1,349.98 -1441.63,539.94 -110.79,2597.47 4093,1205.06 5345.23,2173.01l506.25 876.81c-343.8,595.32 -744.12,1011.92 -1154.35,1542.69l4712.29 1077.61m-27619.82 13901.43l1391.66 2410.32c908.06,787.35 681.42,766.58 1888.36,1247.37 1534.64,-931.27 1957.98,-2481.82 2586.8,-4123.51l-2.24 -1474.38 1375.75 -195.01m0 0c396.95,-3601.73 -3512.27,-4142.04 -3922.13,-6793.04 1340,-606.93 1982.68,325.83 3675.46,799.51 881.11,-508.49 455.53,-212.23 969.45,-851.73 -464.32,-3003.78 -4933.13,-3781.95 -5363.2,-6253.1 2998.54,76.36 1715.62,762.45 3388.75,-203.43 1427.59,824.59 2778.64,3821.63 3002.28,4694.32 0.19,1257.28 261.08,2848.63 1240.44,3666.67 372.06,-183.6 678.99,-302.06 1222.29,-413.23 447.48,3126.93 -374.49,3863.74 1215.55,5141.61 961.77,-689.84 1069.76,-1415.99 1431.9,-2579.88 584.66,1042.81 198.56,1626.72 861.08,3009.02 167.31,-19.46 950.73,-53.15 1129.46,-67.75 258.64,1805.26 124.08,3163.98 1089.03,4922.65 573.81,84.03 700.89,114.72 1256.16,151.4 1006.13,1742.19 2767.23,3296.86 4848.16,3336.73 986.1,-1684.18 325.09,-3469.04 -119.4,-5774.38 963.64,-1292.65 705.94,-1813.12 -203.62,-3388.75m-30361.77 -16656.29c961.02,855.09 422.21,133.81 632.76,1095.77l657.65 -379.54c768.25,-269.32 1237.63,-304.69 2006.07,-574 845.74,-1012.49 2183.5,-999.95 1037.2,278.11 -121.28,885.79 73.55,580.73 -716.61,1289.85 -354.84,476.3 67.19,253.59 -749.72,725.21 -235.25,878.11 -223.09,783.04 -244.05,1601.83 1246.43,603.37 1251.86,139.99 2604.59,-42.86 -123.34,1700.08 -1458.29,1653.11 -2147.94,3869.73 825.52,885.98 778.55,659.9 -463.39,1728.16 -389.83,1454.73 -714.73,1713.18 -268.93,3077.33 2161.03,206.62 2151.68,-2053.8 4164.12,-2404.15 -63.45,2487.62 -3102.04,5334.38 -2167.41,7953.57 742.25,1158.84 146.92,562.39 1234.27,1058.34 1058.71,-759.09 496.32,-378.05 1154.35,-1543.07 457.96,687.41 512.42,661.58 666.82,1660.6m3905.29 -18032.8c-795.96,61.39 -1117.67,-343.04 -2107.51,-1120.47 1153.04,-1380.24 861.64,12.54 2064.65,-1484.49 -452.72,-3083.5 -6210.25,-3922.5 -5270.75,-6598.58 2042.01,813.54 3918.58,2898.97 5261.39,4558.63 835.07,1446.31 1475.32,3458.56 2935.1,3564.86 569.88,-1144.99 319.47,-931.07 210.17,-2166.27 2150.93,981.6 793.52,2389.55 2993.68,2654.36 205.86,-969.44 179.29,-941.74 117.53,-1820.98 659.71,16.66 1160.34,100.69 1820.61,117.16 317.03,1646.18 -121.28,2269.77 1425.34,2975.71 1835.02,-1710.94 1380.25,2826.17 1493.29,4104.79l-3237.16 -1052.91c-1033.83,-1151.55 -2215.69,-1446.31 -3431.8,-2401.16l-4274.54 -1330.65c341.74,941.38 686.1,946.99 1577.13,1719.18l506.24 876.62m7549.69 -10202.75c-1086.23,-762.09 -862.39,-332.95 -1104.57,-1407.38 1482.99,-8.99 475.93,-66.26 1002.95,-286.72 -387.41,-2225.61 -1443.88,-421.46 -2811.77,-1904.08l-1286.66 -2157.86c-707.25,-987.41 -389.09,-764.88 -1635.33,-808.86 478.73,872.68 343.8,522.9 539.74,1441.25l759.28 1314.93c-84.22,1187.85 -62.14,1341.31 -648.48,2419.49l157.02 1351.98c1716.36,132.51 404.43,30.7 1824.54,-450.47 1118.04,1274.5 1438.44,4032.93 1595.09,5798.89m4432.31 -5480.55l-1095.59 632.39m3521.63 -5539.5l632.95 1095.77c1045.61,459.46 984.23,673.19 2107.51,1120.67 457.96,-724.09 278.48,-509.06 842.74,-1071.07 638.56,475.74 202.31,-11.04 725.03,750.29l2684.5 1685.49c1954.24,377.48 998.64,143.35 2466.66,-861.28 1712.62,458.9 3402.22,500.26 5083.03,-305.24m-23992.63 -3094.18c1559.53,95.83 2932.47,1272.07 4527.57,1768.59l812.42 -1092.03c1661.53,765.82 2409.01,2412.01 4372.61,2481.63 474.99,-940.81 285.78,-341.56 370.56,-1382.87m-25530.83 10941.82c1346.18,1242.12 880.36,-384.41 2326.66,993.96m-320.59 -1567.96c751.98,407.06 104.06,237.5 1037.2,278.11m10769.07 -13230.11c-900.01,-75.24 -161.7,-524.96 -969.45,851.91 -878.11,-235.44 -782.85,-223.09 -1601.64,-244.05 200.44,940.25 430.26,1076.69 573.99,2006.08 -1488.6,486.22 -1447.24,-11.42 -2950.44,-49.59 -83.84,573.61 -115.1,700.88 -151.59,1256.16 -554.72,68.68 -1133.58,83.47 -1694.47,101.62 662.89,720.35 270.99,442.99 1636.08,808.68 3436.29,576.43 3067.97,292.52 5808.06,444.86m-14178.41 1758.1l-379.73 -657.46 -2284 1610.81c-1047.86,1162.4 -1140.31,424.65 -1246.8,1888.73 1363.21,-462.07 2578.94,-2034.33 3910.53,-2842.08 971.13,-560.89 1042.24,-756.28 2098.71,-919.66 1169.89,2583.44 -2465.16,3871.04 -3302.85,5412.98l-370.74 1382.68m5991.46 -7841.46c-1023.15,-886.91 -353.9,-715.67 -1635.51,-808.87 154.59,1003.5 520.09,2036.95 860.71,3009.02m4895.32 -7208.89c-903.01,-860.52 -481.92,-618.16 -1728.16,-463.2 -48.1,1360.59 -148.78,1074.25 -774.99,2200.53 -718.1,493.52 -399.2,219.71 -969.07,851.54l506.06 876.62c1151.16,853.78 818.03,454.96 -184.91,691.15l-92.83 345.85m-228.32 -1913.62c-1373.13,-603 -2370.28,-1620.55 -3339.16,-2747.01 -917.6,141.67 -540.49,20.02 -1441.25,539.93 560.89,1175.5 325.08,116.22 194.07,1348.43 1390.91,548.16 3405.22,1578.06 4907.49,2426.42m4188.08 -3878.72c1078.92,-261.64 578.86,-395.45 1382.67,370.37m-10274.43 4470.87l876.24 -505.87c426.71,-504.57 304.87,-339.5 750.48,-725.22 -642.86,-938.19 -351.09,-789.78 -1416.92,-935.19 -367.57,675.61 -562.39,1284.79 -901.51,1981.18l-370.37 1382.68m3034.1 -2336.03l126.7 219.16m-2302.53 -2469.65c-601.69,-334.44 -1184.1,-668.51 -1762.03,-1027.28 -617.78,-20.77 -49.41,-264.07 -783.98,160.02 1036.26,1040.37 1971.27,987.78 2959.62,2089.92m833.57 -3111.02c1437.51,-503.44 3763.06,-844.24 5083.22,-305.06m-8092.43 1166.14c1192.16,-654.09 378.42,-435.13 1567.96,-321.15m-6271.26 1283.67c1321.29,-282.22 2568.65,-802.32 3919.32,-802.5m-3515.26 -15.54c-857.34,300.19 -3696.06,851.36 -1407.19,1104.76m2755.8 -1299.02l438.69 -253.03c645.48,-49.03 221.02,164.32 1002.75,-287.09l1348.99 -194.26m-2351.74 481.35c-924.35,-781.36 -324.34,-300.56 -506.25,-876.62 1211.99,-141.11 790.72,-408.17 1509,589.53m13360.75 -2162.35l-564.83 34.06 506.06 876.62c584.85,519.91 398.45,307.12 851.73,968.88m-2706.4 -1651.05c808.87,-279.79 477.24,-202.68 1348.61,-194.45m4290.26 -2184.99c-846.86,579.98 -977.86,939.5 -1719.54,1576.94m7805.9 -2168.71c-1079.12,187.71 -516.54,-126.89 -1314.93,759.08 -855.65,518.79 -854.53,702.38 -1626.91,1231.27m-2697.22 388.53c1288.91,-312.36 942.3,-334.63 1635.7,808.87 820.1,739.25 782.86,849.85 1357.78,1845.87 584.67,519.72 398.64,307.12 851.54,968.7m4130.06 -2968.41c688.53,-22.27 1351.24,13.1 2039.77,-9.17 170.87,521.22 175.17,381.23 287.09,1003.32l632.57 1095.4c205.87,964.2 142.61,753.66 666.45,1660.59m99 -5900.88c-643.24,742.43 -1119.92,1336.07 -1685.11,2141.57m-24577.11 13605.16c737,-1614.55 1789.17,-1660.22 3657.31,-3280.01 638.56,475.74 202.5,-11.04 725.22,749.73l1383.23 370.74c795.21,402 1048.8,488.84 1761.47,1027.84m-3144.7 -1398.58c-180.04,672.99 -145.61,380.1 -58.4,910.68m8623.2 -1764.66c-999.02,-754.97 -879.8,-741.3 -2200.34,-774.8 158.51,1026.52 558.08,2264.53 768.07,3354.5m-2311.32 -4509.23c721.65,466.01 902.07,598.89 1543.25,1154.73m7676.01 -9983.41c1097.84,-136.62 649.05,-147.1 1820.99,117.34 854.16,1479.62 1170.07,1272.63 1484.11,2064.66 239.55,1121.41 449.72,1284.79 1046.18,2318.24m-18129.55 9590.39l379.73 657.47m26592.54 -12139.4c-748.23,-406.86 -1233.52,-494.26 -1981.19,-901.13l-219.53 126.7c163.39,1056.1 358.77,1127.21 919.67,2098.53 259.95,1111.3 -73.18,533.94 759.08,1314.93l505.87 876.24m-1965.09 -4416.4l2410.51 -1391.66c525.9,-101.62 1041.13,-219.72 1567.58,-320.78m-4197.62 1839.14l-564.45 33.69m-13386.01 3637.66l1771.39 3067.97m-1617.55 3271.04c-243.29,-155.34 -700.88,-468.07 -944.36,-623.22 -559.59,1123.66 -380.86,1394.47 43.23,2604.59m707.06 -3329.99c-781.92,451.6 -385.35,190.71 -750.29,725.4m-12521.94 14242.04c593.09,-684.6 684.6,-730.45 1154.35,-1542.87 718.11,-494.08 399.57,-220.28 969.26,-851.92 812.43,-493.14 1350.49,-1051.97 1937.96,-1703.26 366.25,408.55 242.73,341.74 725.4,749.73l1728.34 463.2m-5715.98 -790.72c408.74,-365.88 342.49,-242.73 750.29,-725.02 1033.08,-596.45 1296.96,-632.76 2064.84,-1484.49 133.25,690.59 205.87,1097.65 447.11,1787.3m-675.43 -3700.92c58.2,657.84 134.75,1261.21 228.32,1913.62m13005.91 -4294.94c23.58,-921.34 82.34,-999.2 336.31,-1947.68 43.04,-926.96 -30.51,-317.6 277.92,-1036.64 545.36,290.84 174.42,-203.99 598.7,530.77 706.87,-4.12 449.72,-64.95 1256.34,151.21 842.37,468.82 881.49,417.73 1543.25,1154.54m-2799.59 -1305.75c221.21,1270.94 30.31,539.18 885.78,1534.08m-2370.08 -3598.74l885.6 1533.89m-17330.04 5914.93c1079.3,-623.22 2223.92,-1097.65 2941.64,-1990.55 2125.86,569.69 2700.04,611.24 4435.12,2114.44m26802.15 -14305.48c822.53,510.92 1449.68,746.73 2234.59,1339.44m-10772.07 5634.57c-655.03,448.6 -1431.33,1141.25 -1938.32,1703.64m-13156.94 5551.1c688.16,483.04 1086.98,724.28 1669.2,1373.32m7105.21 -4393.95l379.36 657.47m-11925.67 7177.44c585.6,459.84 681.42,486.6 1197.4,1061.71m21240.38 -8757.19c-800.82,-22.27 -319.66,213.54 -818.04,-404.06l-876.24 505.87c530.2,1514.62 205.11,2305.33 1020.91,3793.38m5266.25 -8591.94l-1315.11 759.27c-676.18,780.05 -1264.58,1453.61 -1904.27,2268.09l-2191.54 1265.33m-1129.09 67.56l252.85 438.31m-8824.2 5971.07c-203.43,-1635.14 227.58,-2924.24 638.94,-4459.44 959.71,96.94 142.42,-121.09 1037.19,277.92 790.72,154.96 2038.83,-381.05 4585.96,858.65m-20345.61 12330.66c-151.78,-786.41 -329.57,-1565.34 -481.35,-2351.93 1555.23,96.19 3218.25,1264.77 4123.32,2586.8m-4958.77 -7070.95c107.61,1223.59 380.67,2996.48 928.09,4138.66 -854.91,767.14 -2538.53,3224.06 -3370.6,4283.53m12034.21 -11038.95c808.5,1147.8 474.62,1155.67 388.53,2697.98 -311.79,1219.29 -388.9,728.58 -116.97,1820.61m19991.71 13877.84c82.91,-565.19 125.58,-698.07 151.22,-1256.34 321.15,-1146.68 527.95,-1992.23 1305.75,-2799.04 -508.3,-880.74 -288.21,-411.36 -413.6,-1222.29 -1062.27,-957.46 -1010.62,-1324.28 -2394.61,-2123.61 -594.39,1454.92 354.28,1015.68 -774.8,2200.34 -1749.12,-822.15 -1283.3,812.8 -901.32,1981.56 895.52,95.26 623.21,84.78 1475.31,24.9 355.96,2489.48 42.48,3109.89 962.52,4703.49 788.66,177.23 862.58,191.83 1601.64,243.85 550.42,907.32 807.38,938.76 1357.97,1845.69m4323.77 -1619.98c-338.56,1263.08 -335.75,2144.19 -1179.43,3018.75 -1547.56,-55.21 -1837.46,-671.87 -3144.34,-1398.77m99.38 -5900.7c-548.16,-948.85 -634.63,-852.66 -793.33,-1879.56l2765.16 740.75c504.56,426.89 339.49,305.05 725.21,750.29m-4123.13 -2587c992.28,367.75 728.58,354.47 1728.72,463.39 901.5,-1000.89 643.98,-1000.7 1786.54,-447.48m-6684.67 60.82l33.87 565.2m-3280.39 -3657.69c766.95,1328.22 917.98,1241.38 2082.81,2595.79 -484.16,750.86 -312.92,661.02 -1061.71,1197.21 -1461.09,-666.82 -1501.33,-2617.69 -1021.1,-3793l-506.06 -876.61c-939.5,248.16 -360.82,300.94 -1256.34,-151.41 -550.79,-827.21 -545.18,-1030.64 -919.29,-2098.9 -575.31,516.16 -601.88,611.79 -1061.9,1197.58 -1004.44,-441.12 -595.7,-224.21 -1416.36,-935.2 -793.34,919.85 1043.37,1804.33 2209.32,2814.95m2444.57 -827.02c-916.1,-1669.21 -1155.28,-3697.74 -2438.02,-4728.2 -329.39,895.15 -93.01,1462.96 262.39,2477.89m-3397.74 -1836.33c-779.3,-298.51 -1267.01,-551.54 -1981.37,-901.33 -1332.14,-651.66 -1483.18,-312.54 -1324.1,-1281.23 2556.12,1238 1157.72,-2374.96 2493.98,-3777.1 1340.01,1236.51 532.64,2386.37 743.56,4830.2 277.54,845.36 171.24,153.09 67.93,1129.46l505.87 876.43c158.52,766.57 66.82,498.94 413.61,1222.28m-4477.6 -4719.4l252.65 438.13m-1796.09 -1592.48l-1691.85 145.79c171.81,1082.86 26.76,717.73 883.36,1489.73l505.87 876.62c-431.39,1611.56 -1142.38,3390.06 -951.11,4932m1296.4 -4839.36l-345.29 -92.64m10308.49 -3906.23c-1119.17,365.7 -2016,275.86 -3135.73,641.74l253.22 438.31c-389.84,919.29 -261.64,1485.05 -521.78,2638.46 -52.59,946.62 -143.92,785.48 101.81,1694.47m419.97 -4332.93c810.93,626.77 1567.77,1361.9 2175.64,2250.13m-5237.06 -6034.14c366.44,408.74 242.73,342.11 725.21,749.91 516.54,850.79 280.35,559.21 978.43,1188.04 523.46,907.12 372.43,747.48 1104.56,1407.75m8166.73 -5591.71c1234.27,36.12 856.22,-109.29 1163.34,497.08 172.55,-83.85 767.32,-227.02 1003.5,-287.09 1193.65,-38.56 1949,97.88 3169.41,-76.55m-32129.23 16212.56c437.56,1250.92 553.97,2459.92 1021.29,3793m34058.57 -19956.15l1129.46 -67.94m-22907.53 14978.86c30.14,-1178.68 270.06,-2075.14 833.58,-3111.02l1897.71 3287.13m-2622.93 -4036.86c850.98,775 1299.02,168.44 2857.81,395.27m12886.13 -10069.5c365.88,408.74 242.73,342.11 725.02,750.1l506.06 876.62 1416.36 935.19m-5645.24 7934.1c-866.32,-679.92 -1076.3,-979.55 -2107.88,-1120.47 82.53,931.45 321.34,3245.77 582.97,4046.21m-582.97 -4046.21l-379.36 -657.28c754.03,-360.08 418.85,-247.6 1222.29,-413.42l876.61 -506.05c647.36,-138.12 1139.2,-309.18 1786.37,-447.3m-4737.18 397.7c472.93,688.72 238.99,423.9 851.91,969.07m12312.13 -12075.57c-987.59,599.07 -1488.41,1109.62 -2031.15,2049.12 370.93,413.98 271.18,346.23 725.21,750.1 640.81,1055.91 1305.38,1495.9 2175.83,2249.94m-16349.37 14698.69c-809.43,-440.37 -906.38,-428.02 -1854.86,-682.36 -946.05,-52.59 -785.1,-143.73 -1694.09,101.63 478.17,872.87 344.17,522.9 539.55,1441.62l1138.63 1972.21m-1678.18 -3413.83c-868.57,516.53 -781.18,604.12 -1373.7,1669.57 -276.61,1231.09 -271.37,482.67 -24.7,1475.51m14295.75 -3579.09c-478.17,-872.5 -343.98,-522.34 -539.74,-1441.25 -481.36,-877.18 -388.53,-1035.7 -793.34,-1879.56 1096.15,135.12 4707.99,2062.22 5725.15,2830.66m-6323.47 -3361.61c1099.14,386.09 3157.62,-479.86 4357.82,-1055.16m-198.38 11801.96l126.14 218.96m287.09 1003.14l126.52 219.34m286.9 1002.94l379.54 657.47m-38957.64 -42111.15l4278.66 -179.29 1706.26 -1184.67 2063.16 -394.33c3968.54,-4996 11233.77,-6242.43 6772.45,-2415.75 7664.97,-4145.78 9906.67,-592.71 3680.14,2406.77 -600.75,154.78 16376.32,-7044.38 8348.08,658.21 6312.62,-3158.37 10571.07,-1349.17 4938.93,1481.31 0,0 5500.2,210.73 5471.38,4560.13"/>
   <path class="fil1" d="M145158.81 75416.06c-1120.29,-602.07 -2143.63,-1372.38 -2914.89,-2371.77 -1120.1,-1450.61 -1733.58,-3122.44 -1570.57,-4962.7 52.96,-597.01 193.51,-1224.53 330.51,-1807.69 211.29,-898.52 455.15,-1792.54 705.18,-2681.14 429.89,-1527.9 851.92,-3213.39 992.28,-4798 148.79,-1682.86 -46.04,-3457.06 -1127.77,-4821.21 -2454.12,-3094.92 -8868.18,-3303.97 -12445.02,-3298.92 -3365.35,4.68 -6755.6,252.28 -10107.86,536.75 -3745.28,318.16 -7484.94,700.32 -11230.4,1015.49 -4155.88,349.78 -8340.03,629.76 -12512.01,623.02 -4347.72,-6.92 -8709.47,-314.22 -13040.9,-677.48 -3691.75,-309.74 -7379.39,-671.32 -11073.2,-959.16 -3305.84,-257.52 -6652.11,-469.37 -9969.18,-434.19 -3572.72,38 -9858.58,342.86 -12276.95,3451.64 -1057.78,1360.03 -1257.66,3108.21 -1109.62,4777.04 140.17,1584.42 562.01,3269.72 991.9,4797.82 249.85,888.59 494.27,1782.8 705.19,2681.69 136.81,583.16 277.17,1210.31 330.13,1807.51 163.01,1840.07 -450.47,3512.27 -1570.2,4962.88 -771.44,999.02 -1794.78,1769.14 -2915.07,2371.21 1071.82,357.09 2081.31,883.36 2982.63,1618.49 1382.68,1127.58 2524.68,2594.1 2686.94,4428.37 146.54,1653.3 10.1,3399.24 -200.25,5041.87 -136.25,1065.64 -333.51,2546.19 -239,3617.26 206.62,2330.41 855.66,4828.7 2825.8,6293.9 3116.26,2317.88 8972.79,1497.03 12531.85,908.44 3076.96,-508.87 6136.51,-1188.41 9187.46,-1835.58 3361.99,-712.86 6730.15,-1403.83 10130.32,-1910.82 3257.37,-485.85 6558.72,-807.75 9855.02,-786.04 4176.48,27.33 8380.83,609.56 12486.19,1343.94 3121.68,558.46 6222.6,1219.29 9329.5,1853.36 2813.45,573.99 5651.97,1139.56 8499.67,1512.56 3469.6,454.4 8758.13,907.31 11714.75,-1387.17 1917.18,-1487.67 2581.57,-3886.57 2787.25,-6205.57 94.51,-1071.07 -102.94,-2551.62 -239,-3617.08 -210.36,-1642.81 -347.16,-3388.75 -200.44,-5042.23 162.26,-1834.27 1304.45,-3300.6 2687.12,-4428 901.33,-735.32 1910.82,-1261.41 2982.64,-1618.49z"/>
   <path class="fil0 str0" d="M111028.74 34553.78c-1496.46,3719.07 -1733.02,6398.33 -5882.73,8112.45 -1285.17,530.77 -2244.88,405.56 -3535.29,39.49 -1001.83,1804.52 -2620.12,3924.2 1398.58,5104.93 5897.33,1732.28 13170.79,-4683.46 12193.29,-10748.67l-941.93 -2422.49c-1672.76,-617.78 -1581.43,-725.58 -3231.92,-85.71zm9853.34 -1939.27c-559.96,1975.01 -788.66,1588.73 699.57,2552.38 510.18,-1895.66 678.05,-1238.38 -699.57,-2552.38zm1517.42 -626.95c34.44,1600.52 -84.21,1547.93 1483.74,1873.38 -34.06,-1599.95 84.22,-1547.74 -1483.74,-1873.38zm-11258.28 7136.83c327.7,1492.91 752.35,2000.46 2143.44,890.09 -1158.65,-844.8 -726.7,-665.32 -2143.44,-890.09zm-4458.51 4682.53c-445.98,2352.5 -798.02,1251.67 573.99,2249.19 353.53,-1529.59 523.65,-1098.58 -573.99,-2249.19zm3264.67 -2414.06c165.25,1498.7 -514.11,675.61 1358.53,1570.01 -123.89,-1380.06 289.15,-1118.04 -1358.53,-1570.01zm-5064.69 4933.68c1022.78,-1552.04 820.84,-713.61 -20.22,-1767.64 -968.13,1469.14 -875.49,704.43 20.22,1767.64zm14232.3 -13692.19c-417.16,1004.63 -273.24,719.41 -408.73,1589.48 1733.77,-180.98 1596.4,-296.63 408.73,-1589.48zm4979.73 -1701.77c184.35,1767.46 -96.38,1651.05 1285.92,534.13 -987.41,-768.63 -131.19,-314.6 -1285.92,-534.13zm-21712 15361.21c765.07,-518.22 512.79,400.69 837.69,-1411.68 -1282.74,384.97 -1143.5,107.61 -837.69,1411.68zm9576.35 -10348.35c1386.79,20.58 409.3,175.54 1213.68,-501.38 -2113.32,-31.63 -122.21,208.3 -1213.68,501.38zm13223.19 -5817.42c1652.73,-404.81 199.13,35.75 0,0zm-16375.57 12801.72c957.09,1003.14 722.03,434.38 751.79,1820.24 -1659.47,-364.01 -1571.33,-387.78 -751.79,-1820.24l-250.78 -606.55m3554.75 -14609.05c-56.33,1290.41 -208.3,1800.02 217.66,3106.34 -669.63,1194.78 -313.1,889.34 -1444.43,1662.09l-501.2 -1213.3c-98.81,-1686.42 -232.25,-1912.31 263.7,-3660.31l1464.27 105.18c1343.38,-250.03 1305.57,51.65 2677.77,-395.45m3356.75 388.9c1003.69,1262.34 1160.9,1056.28 2697.6,1371.82 520.84,-461.14 1049.17,-897.58 1569.64,-1358.91 -1136.76,-597.57 -2846.95,-476.11 -4267.24,-12.91 -1154.92,-95.26 -926.97,-200.63 -2071.02,145.23l-1285.73 -534.13m7623.99 401.81c1402.7,-456.83 985.16,-534.5 2196.22,158.33 -606.56,550.98 -500.07,403.69 -1088.29,804.76 -0.18,0.56 -1318.85,2460.48 -3693.24,2235.71l-2572.03 -1068.45c-829.26,-973.38 -662.14,-742.43 -1180.92,-1998.03m-2532.54 2466.47c1062.09,789.78 687.79,699.95 1840.26,1015.86 811.31,-553.22 440.56,-59.14 659.34,-982.92 -1174.38,-622.47 175.55,-596.83 -1464.09,-105.18 -895.33,-1055.72 -221.4,-856.97 -1035.51,72.24l-1213.3 501.19m-7650.56 8132.48c887.28,-865.57 1267.38,-1328.4 2354.55,-2037.89 955.22,-967.76 3041.02,-3342.53 3851.58,-4432.5m3693.24 -2235.52c503.63,440.37 389.47,283.72 804.75,1088.1m1286.11 534.31c1847.18,-140.36 1145.37,-17.21 626.58,1516.68l-606.56 250.6 -125.2 -303.38c147.66,-893.46 358.77,-793.14 -679.73,-784.91l-501.2 -1213.3m12029.91 -3548.58l375.8 910.12c-488.65,1722.35 -830.95,5047.1 -3580.95,6806.32 -2015.06,1289.47 -3080.89,1405.13 -5528.27,1152.67 -60.08,1326.9 89.27,2344.07 34.06,3602.85 1346.37,-14.04 1311.93,134 2677.95,-395.83 2330.04,1226.22 9505.99,-1648.61 10651.35,-6885.67 242.18,-1105.32 -154.58,-4282.03 -2308.51,-4728.95 -1316.05,-939.87 -813.36,-917.23 -2321.43,-461.51 -909.36,-114.91 -589.34,6.55 -1589.66,-409.12l-1213.49 501.38m-8045.83 5454.53c-651.47,-467.13 -259.2,232.82 -679.73,-784.91m-19013.85 16732.84c1824.73,3607.16 5581.05,4059.13 9180.35,3310.71 -1153.61,-660.27 -900.39,-476.11 -2321.43,-461.52l-4287.08 -1780.55c-1243.44,-823.1 -1044.87,-825.9 -2571.84,-1068.64 -519.34,-1601.64 -490.15,-340.24 105.56,-1464.27 606.18,-2210.64 3684.07,-4464.69 5170.06,-6397.4 697.88,-352.78 1073.5,-649.23 1695.03,-1054.98 562.76,-8.04 1205.44,-12.16 1768.21,-20.21 720.53,-739.81 20.39,-262.01 1087.53,-804.75 694.71,-1725.16 815.98,-1037.75 336.69,-2624.61m22700.91 -8666.99c-839.93,1370.89 240.12,467.88 -1266.08,1233.14 -420.34,-1017.16 -28.26,-317.22 -679.55,-784.53m-30812.8 19120.33c4067.36,2209.88 8782.45,5275.05 14285.46,1912.5 2888.12,-1764.47 5027.07,-4528.32 6008.31,-7808.9 812.05,-2715.19 477.98,-5721.41 -580.55,-8283.88m1484.12 1873.2l-877.56 -2123.8m-13454.69 6978.5c346.6,-668.69 432.5,-833.75 837.88,-1411.68m16712.62 909.74c2726.99,-1126.46 4898.13,-1685.86 6351.18,-4399.18 1074.06,-2004.95 1449.67,-3761.18 725.58,-5982.3m-22417.56 23110.78c1141.81,-442.43 4066.61,-1022.97 5586.84,-1952.18 2749.07,-1679.87 5549.6,-5276.92 6489.67,-8363.24 188.27,-943.43 224.39,-1036.44 586.34,-2018.05m-6681.12 -3277.58c426.89,995.83 -130.63,646.23 1108.5,962.52 -207.93,-791.28 930.14,-413.05 -1108.5,-962.52z"/>
   <path class="fil2" d="M58005.73 85562.1c0,573.43 6761.6,694.15 6701.15,-332 -90.58,-1388.48 -1569.64,-694.34 -3592,-694.34 -271.75,0 -1297.9,0 -1569.64,-30.13l90.58 -7878.33 3018.38 -452.72c1207.5,-181.16 1750.8,-1569.64 332.19,-1569.64l-151.03 0 -3259.99 483.04 -150.84 -10021.4 3622.13 0c483.03,0 1298.08,-271.74 1298.08,-875.49 0,-60.27 0,-90.4 -30.32,-150.85 -30.13,-150.84 -633.88,-603.75 -815.04,-603.75l-4769.19 0c-543.3,0 -1056.47,513.17 -1056.47,1056.47l332.01 21069.14zm16662.28 -241.42c422.59,-60.45 603.76,-332.2 603.76,-664.2 0,-603.57 -543.49,-724.47 -1026.34,-724.47 -1298.09,0 -2505.4,422.59 -3773.16,422.59l-211.3 0c-362.14,-6218.11 -422.59,-12466.35 -573.43,-18624 -30.32,-1177.19 90.39,-1901.65 -181.16,-3078.83 -181.17,-664.2 -422.59,-633.89 -965.89,-633.89 -120.71,0 -483.04,30.14 -573.62,60.27 -211.3,211.29 -211.3,301.87 -211.3,543.3l0 211.29c30.32,573.62 392.46,5191.96 392.46,5765.39 0,2052.68 362.14,17627.99 392.46,17627.99l6127.52 -905.44zm12677.65 1569.45c241.61,151.03 301.87,181.16 573.62,181.16 301.87,0 754.59,-90.58 935.75,-392.45 -30.32,-996.02 -30.32,-5644.49 0,-6670.83 0,-482.85 120.72,-2837.41 150.85,-3320.26 2988.24,-1388.47 5222.08,-5040.92 5222.08,-8300.91 0,-3018.38 -2263.97,-5795.52 -5403.25,-5795.52 -362.13,0 -1116.73,-60.27 -1267.76,362.32 -60.26,2414.82 -211.29,13703.79 -211.29,16118.61l0 7817.88zm1811.06 -22699.04c2082.81,0 3199.73,2837.4 3199.73,4407.04 0,2414.82 -1026.34,4256.01 -2777.14,5855.97 -150.85,150.84 -422.59,211.29 -633.88,211.29l211.29 -10474.3zm8089.62 21763.47c0,875.31 1690.36,754.59 1750.81,-573.62l905.43 -20646.36c0,-60.45 30.32,-452.91 30.32,-543.49 0,-875.31 0,-1267.77 -875.49,-1267.77 -633.88,0 -784.73,30.32 -996.02,633.89l-815.05 22397.35zm5704.94 -10564.89c0,2445.13 422.59,8150.07 2414.82,9961.14 1841.38,2022.36 4739.05,1448.93 6157.84,-724.46l2082.63 1116.92c332,0 1086.78,-362.33 664.2,-1147.06l-2112.94 -1448.92c1448.74,-6278.56 2052.49,-14519.03 -1539.51,-20495.52 -1328.22,-1147.05 -3109.15,-1177.19 -4557.89,543.3 -2716.69,3199.54 -3109.15,8240.46 -3109.15,12194.6zm5855.97 -11832.46c784.73,0 1237.64,1267.76 1448.93,1871.51 1811.06,5493.64 1509.19,11198.58 452.72,16873.39 -664.01,-392.46 -1509.19,-996.02 -2233.65,-996.02 -181.17,211.29 -211.3,362.14 -211.3,573.43 0,845.18 1629.9,875.31 1629.9,1720.49 0,724.46 -875.3,1509.37 -1629.9,1599.77l-181.16 0c-5342.8,0 -3924.01,-21672.71 452.72,-21672.71 90.58,0 181.16,0 271.74,30.14zm16963.79 15515.04c-150.85,-5553.91 90.58,-10926.84 -60.27,-16239.51 -30.31,-512.98 -452.9,-603.56 -935.75,-603.56 -543.3,0 -724.47,60.26 -875.31,543.3 150.84,5825.65 211.29,14247.28 120.71,17990.12 -30.32,815.05 -362.32,2535.53 -1418.79,2535.53 -4135.3,0 -2807.09,-19650.34 -3320.26,-20525.65 -211.29,-603.75 -1811.06,-633.88 -1811.06,30.13l0 151.03 60.26 1479.06c301.88,10564.7 573.62,19740.93 4286.33,20193.65 271.56,30.13 513.17,60.44 724.46,60.44 3139.1,0 3169.41,-2988.43 3229.68,-5614.54zm3350.57 6489.85c0,573.43 6761.6,694.15 6701.15,-332 -90.58,-1388.48 -1569.64,-694.34 -3592,-694.34 -271.75,0 -1297.9,0 -1569.64,-30.13l90.58 -7878.33 3018.38 -452.72c1207.5,-181.16 1750.8,-1569.64 332.19,-1569.64l-151.03 0 -3259.99 483.04 -150.84 -10021.4 3622.13 0c483.03,0 1298.08,-271.74 1298.08,-875.49 0,-60.27 0,-90.4 -30.32,-150.85 -30.13,-150.84 -633.88,-603.75 -815.05,-603.75l-4769.18 0c-543.3,0 -1056.47,513.17 -1056.47,1056.47l332.01 21069.14z"/>
   <path class="fil3" d="M61218.56 110754.19l2131.28 0 58.39 -782.67 -2131.47 0 -58.2 782.67zm5128.51 4062.87l1940.01 0 58.21 -682.73 -607.87 0 116.6 -1423.66c166.56,41.55 407.99,66.63 716.04,66.63 1415.42,0 2331.34,-1298.83 2331.34,-2864.17 0,-624.34 -166.56,-1598.46 -1074.06,-1598.46 -1223.97,0 -1623.54,1273.75 -1798.34,1840.07l-16.65 0c108.17,-666.07 166.37,-1174 241.42,-1756.79l-1473.82 0 -58.2 682.73 632.76 0 -449.54 5053.65 -499.51 0 -58.39 682.73zm3671.73 -4837.3c0,857.52 -399.57,2064.84 -1382.12,2064.84 -308.05,0 -557.89,-33.31 -707.62,-91.52 258.09,-1631.96 1032.33,-2855.74 1656.86,-2855.74 374.67,0 432.88,474.43 432.88,882.42zm2414.63 1207.31c0,-716.04 291.39,-2189.67 1431.89,-2189.67 224.96,0 416.41,49.97 541.24,91.52 0,657.83 -732.69,2905.71 -1532.02,2905.71 -308.05,0 -441.11,-332.94 -441.11,-807.56zm3163.79 857.53l-591.21 0 216.53 -2497.72c24.9,-333.13 99.94,-882.61 141.49,-1040.75l-349.6 0c-333.13,-99.94 -674.49,-191.46 -1082.48,-191.46 -2006.45,0 -2381.13,1989.79 -2381.13,2847.32 0,857.72 241.42,1615.31 1140.69,1615.31 1024.09,0 1473.63,-1057.41 1731.71,-1964.91l24.89 0c-166.38,882.61 -241.42,1448.74 -274.74,1914.94l1365.46 0 58.39 -682.73zm757.59 -2963.92l632.76 0 -166.38 2131.28c-33.31,416.41 -83.28,1049.17 -149.91,1515.37l882.61 0 24.89 -283.16c124.83,-1240.44 482.85,-3296.86 1606.88,-3296.86 91.52,0 183.23,24.89 249.85,41.54l124.83 -840.87c-83.28,-16.65 -241.42,-33.31 -399.57,-33.31 -891.03,0 -1265.52,857.53 -1490.47,1756.79l-16.66 0c66.63,-533.01 133.25,-1107.37 183.22,-1673.51l-1423.66 0 -58.39 682.73zm4154.76 2106.39c0,-716.04 291.4,-2189.67 1431.9,-2189.67 224.96,0 416.41,49.97 541.24,91.52 0,657.83 -732.7,2905.71 -1532.02,2905.71 -308.05,0 -441.12,-332.94 -441.12,-807.56zm3163.8 857.53l-591.21 0 216.53 -2497.72c24.89,-333.13 99.94,-882.61 141.49,-1040.75l-349.6 0c-333.13,-99.94 -674.49,-191.46 -1082.48,-191.46 -2006.46,0 -2381.13,1989.79 -2381.13,2847.32 0,857.72 241.42,1615.31 1140.69,1615.31 1024.09,0 1473.63,-1057.41 1731.71,-1964.91l24.89 0c-166.38,882.61 -241.43,1448.74 -274.74,1914.94l1365.46 0 58.39 -682.73zm6144.37 -274.74c-282.97,149.91 -666.07,308.05 -1024.09,308.05 -799.14,0 -1082.3,-557.9 -1082.3,-1348.8 0,-915.73 374.68,-1731.71 1223.97,-1731.71 133.25,0 224.77,16.65 308.05,49.97l-25.08 599.44 732.7 0 124.83 -1165.58c-249.66,-75.04 -566.13,-166.56 -1048.98,-166.56 -1124.03,0 -2247.88,640.99 -2247.88,2572.58 0,1223.97 624.34,1923.36 1848.31,1923.36 391.33,0 815.79,-116.6 1115.61,-266.5l74.86 -774.25zm1440.32 -890.84c0,-732.7 183.22,-1831.65 1140.69,-1831.65 740.93,0 849.29,782.67 849.29,1157.16 0,732.69 -183.22,1873.38 -1140.69,1873.38 -699.38,0 -849.29,-674.3 -849.29,-1198.89zm-932.39 -8.42c0,857.71 341.36,1940.01 1756.6,1940.01 1099.14,0 2098.16,-766.01 2098.16,-2572.77 0,-1473.63 -932.39,-1923.17 -1681.74,-1923.17 -1490.29,0 -2173.02,1232.21 -2173.02,2555.93zm4437.55 -1789.92l632.76 0 -166.38 1931.59c-49.97,574.37 -99.94,1157.16 -191.46,1715.06l857.53 0 83.28 -607.87c183.04,-1323.72 974.13,-3022.12 1665.09,-3022.12 258.08,0 308.05,249.66 308.05,457.77 0,233.19 -16.65,524.59 -83.28,1007.44l-274.74 2164.78 857.53 0 66.63 -566.14c183.22,-1523.6 1007.43,-3063.85 1631.96,-3063.85 258.08,0 299.63,233 299.63,424.64 0,341.18 -199.88,2181.25 -382.92,3205.35l1490.29 0 58.21 -682.73 -574.37 0 249.66 -1948.25c25.08,-191.45 41.73,-466.19 41.73,-682.73 0,-599.44 -208.11,-1098.95 -890.84,-1098.95 -990.78,0 -1573.57,1098.95 -1690.16,1548.49l-16.66 0c24.89,-66.44 49.97,-282.97 49.97,-416.22 0,-366.26 -33.31,-1132.27 -874.19,-1132.27 -691.15,0 -1415.42,516.16 -1865.15,1914.93l-16.65 0c158.33,-691.15 208.3,-1165.58 266.5,-1831.65l-1473.63 0 -58.39 682.73zm7102.02 5736.38l1940.01 0 58.21 -682.73 -607.87 0 116.6 -1423.66c166.56,41.55 407.99,66.63 716.04,66.63 1415.42,0 2331.34,-1298.83 2331.34,-2864.17 0,-624.34 -166.56,-1598.46 -1074.06,-1598.46 -1223.97,0 -1623.54,1273.75 -1798.34,1840.07l-16.65 0c108.17,-666.07 166.37,-1174 241.42,-1756.79l-1473.82 0 -58.2 682.73 632.76 0 -449.54 5053.65 -499.51 0 -58.39 682.73zm3671.73 -4837.3c0,857.52 -399.57,2064.84 -1382.12,2064.84 -308.05,0 -557.89,-33.31 -707.62,-91.52 258.09,-1631.96 1032.33,-2855.74 1656.86,-2855.74 374.67,0 432.88,474.43 432.88,882.42zm2414.63 1207.31c0,-716.04 291.39,-2189.67 1431.89,-2189.67 224.96,0 416.41,49.97 541.24,91.52 0,657.83 -732.69,2905.71 -1532.02,2905.71 -308.05,0 -441.11,-332.94 -441.11,-807.56zm3163.79 857.53l-591.21 0 216.53 -2497.72c24.9,-333.13 99.94,-882.61 141.49,-1040.75l-349.6 0c-333.13,-99.94 -674.49,-191.46 -1082.48,-191.46 -2006.45,0 -2381.13,1989.79 -2381.13,2847.32 0,857.72 241.42,1615.31 1140.69,1615.31 1024.09,0 1473.63,-1057.41 1731.71,-1964.91l24.89 0c-166.38,882.61 -241.42,1448.74 -274.74,1914.94l1365.46 0 58.39 -682.73zm757.59 -2963.92l632.76 0 -166.38 2131.28c-33.31,416.41 -83.28,1049.17 -149.91,1515.37l882.61 0 24.89 -283.16c124.83,-1240.44 482.85,-3296.86 1606.88,-3296.86 91.52,0 183.23,24.89 249.85,41.54l124.83 -840.87c-83.28,-16.65 -241.42,-33.31 -399.57,-33.31 -891.03,0 -1265.52,857.53 -1490.47,1756.79l-16.66 0c66.63,-533.01 133.25,-1107.37 183.22,-1673.51l-1423.66 0 -58.39 682.73zm3534.36 0l624.33 0 -124.83 1490.29c-45.85,541.24 -87.4,1007.43 -87.4,1115.61 0,591.21 174.8,1090.72 1082.3,1090.72 374.68,0 707.81,-99.94 965.89,-216.54l66.63 -740.93c-233.19,133.25 -557.9,224.77 -832.64,224.77 -324.71,0 -399.76,-199.88 -399.76,-474.62 0,-324.71 58.39,-815.79 83.29,-1090.53l129.13 -1398.77 1198.89 0 58.21 -682.73 -1198.9 0 91.71 -1057.4 -882.61 58.2 -91.51 999.2 -624.53 0 -58.2 682.73zm3076.21 0l616.29 0 -324.71 3646.65 1448.55 0 58.39 -682.73 -574.55 0 316.47 -3646.65 -1482.05 0 -58.39 682.73zm591.21 -2239.64c0,233 149.91,516.16 557.9,516.16 524.39,0 674.3,-349.78 674.3,-624.52 0,-291.4 -224.77,-507.74 -541.24,-507.74 -407.8,0 -690.96,199.69 -690.96,616.1zm1889.85 2239.64l632.76 0 -166.38 2131.28c-33.31,416.41 -83.28,1049.17 -149.9,1515.37l882.6 0 24.89 -283.16c124.83,-1240.44 482.85,-3296.86 1606.89,-3296.86 91.51,0 183.22,24.89 249.84,41.54l124.83 -840.87c-83.28,-16.65 -241.42,-33.31 -399.56,-33.31 -891.03,0 -1265.52,857.53 -1490.48,1756.79l-16.66 0c66.63,-533.01 133.26,-1107.37 183.23,-1673.51l-1423.67 0 -58.39 682.73zm6136.14 1673.51l2131.28 0 58.39 -782.67 -2131.47 0 -58.2 782.67z"/>
  </g>
  <rect class="fil4" width="190509.35" height="127585.5"/>
 </g>
</svg>
