<?xml version="1.0" encoding="UTF-8"?>
<!DOCTYPE svg PUBLIC "-//W3C//DTD SVG 1.1//EN" "http://www.w3.org/Graphics/SVG/1.1/DTD/svg11.dtd">
<!-- Creator: CorelDRAW 2017 -->
<svg xmlns="http://www.w3.org/2000/svg" xml:space="preserve" width="1.76389E+06px" height="1.57339E+06px" version="1.1" style="shape-rendering:geometricPrecision; text-rendering:geometricPrecision; image-rendering:optimizeQuality; fill-rule:evenodd; clip-rule:evenodd"
viewBox="0 0 190509.36 169632.05"
 xmlns:xlink="http://www.w3.org/1999/xlink">
 <defs>
  <style type="text/css">
   <![CDATA[
    .str0 {stroke:#51363B;stroke-width:935.76;stroke-linecap:round;stroke-linejoin:round;stroke-miterlimit:22.9256}
    .fil2 {fill:none}
    .fil1 {fill:none;fill-rule:nonzero}
    .fil0 {fill:#51363B}
   ]]>
  </style>
 </defs>
 <g id="Capa_x0020_1">
  <metadata id="CorelCorpID_0Corel-Layer"/>
  <g id="_2274618930944">
   <path class="fil0" d="M54757.72 29734.07c46.6,515.22 6128.83,73.73 5991.09,-843.31 -194.08,-1239.5 -1465.96,-495.76 -3282.45,-331.26 -244.05,22.09 -1165.77,105.56 -1412.06,100.5l-559.58 -7082.93 2674.39 -652.04c1069.76,-261.07 1444.44,-1552.23 170.31,-1436.95l-135.31 12.36 -2888.49 698.82 -950.55 -8988.14 3253.07 -294.57c433.63,-39.31 1143.68,-349.42 1094.46,-891.59 -4.68,-54.28 -7.11,-81.6 -39.49,-133.26 -39.11,-133.25 -618.16,-490.71 -780.98,-475.92l-4283.15 387.96c-487.9,44.17 -907.31,546.67 -863.14,1034.58l2011.88 18895.75zm7630.72 -4206.61c115.66,1629.16 918.17,4082.52 2927.24,3939.54 1656.48,-117.9 2741.02,-2132.59 3074.9,-3575.53 504.93,-2109.94 -282.04,-5110.36 -1544,-7121.86 -1384.17,-2193.6 -3829.49,-3957.13 -4024.69,-6699.46 -67.75,-950.36 -96.2,-2885.88 1288.35,-2984.51 1493.47,-106.3 1283.48,1546.06 2342.57,1470.64 543.12,-38.74 684.6,-348.85 647.92,-864.83 -100.69,-1412.06 -2150.37,-2221.11 -3344.77,-2135.96 -1873.57,133.25 -2616.94,2724.18 -2508.95,4244.6 239.74,3367.04 3156.31,5615.29 4641.17,8457 724.83,1367.33 947.36,2961.67 1053.85,4454.95 79.16,1113.37 -206.24,3234.92 -1726.85,3343.09l-163.01 11.79c-1413.55,-690.96 -551.72,-3153.69 -1660.97,-3402.23 -444.3,-104.8 -1035.69,401.07 -1002.76,862.77zm9292.45 4161.32c223.08,126.88 278.86,151.78 523.65,141.48 271.93,-11.6 676.37,-110.42 828.14,-389.27 -65.12,-896.27 -242.54,-5084.53 -254.15,-6010.37 -18.34,-435.13 0.38,-2560.98 9.36,-2997.42 2639.4,-1364.9 4512.6,-4740.74 4388.33,-7677.89 -114.91,-2719.5 -2260.42,-5135.44 -5089.02,-5015.85 -326.21,13.85 -1008.38,-11.98 -1128.34,374.68 37.62,2178.07 331.82,12355.18 424.08,14530.82l297.95 7043.82zm766.57 -20520.42c1876.57,-79.54 2991.06,2434.28 3050.76,3848.59 92.08,2175.82 -762.46,3873.85 -2278.76,5381.91 -130.44,141.86 -372.8,206.43 -562.95,214.48l-209.05 -9444.98zm8419.39 18938.05c11.97,517.1 6110.3,484.91 6034.51,-439.24 -110.61,-1249.8 -1429.46,-592.9 -3252.88,-550.98 -245.17,5.8 -1170.07,27.14 -1415.62,5.62l-82.72 -7104.65 2711.83 -471.06c1084.73,-188.46 1545.5,-1451.55 266.5,-1422.16l-136.06 3.37 -2928.92 503.25 -344.92 -9031.75 3265.61 -75.61c435.13,-9.92 1164.46,-271.74 1151.92,-816.16 -1.5,-54.47 -1.88,-81.6 -30.32,-135.31 -30.51,-135.69 -584.1,-531.14 -747.49,-527.21l-4299.8 99.38c-489.78,11.23 -941.93,484.53 -930.52,974.49l738.88 18988.02zm13349.89 -21035.83c-3538.48,14.41 -5211.05,3804.98 -5852.79,6638.45 -1230.52,5313.05 -244.61,13502.61 5934.95,13613.59 870.81,-3.37 1876.94,-334.25 1328.77,-1284.8 -411.55,-733.26 -2203.71,281.11 -3378.27,-693.95 -2403.59,-1977.45 -2631.35,-4453.65 -2645.2,-7937.85 -12.91,-3076.02 1135.45,-8551.88 3775.97,-8562.55l163.19 -0.75c381.23,-1.68 1960.79,182.66 1956.86,-770.13 -2.43,-626.21 -711.92,-1004.25 -1283.48,-1002.01zm4092.25 21187.8c-4.49,789.4 1520.42,688.71 1581.43,-508.49l918.91 -18614.28c0.19,-54.46 29.39,-407.99 29.76,-489.77 4.31,-789.41 6.36,-1143.12 -783.04,-1147.62 -571.75,-2.99 -707.81,23.4 -901.32,566.7l-845.74 20193.46zm11354.85 -5208.8l553.97 5187.09c22.65,191.08 294.77,197.82 457.78,201.93l81.59 1.88c517.1,12.72 631.45,-202.32 834.7,-714.74 0.37,-27.32 27.7,-26.57 28.45,-53.71l-119.97 -1772.7c-577.73,-6440.25 -1156.03,-12853.19 -2581.57,-19123.32l-203.8 -576.99c-156.84,-276.24 -534.13,-421.47 -833.76,-428.77 -680.3,-16.65 -889.53,740.56 -1038.13,1254.29 0,0 -28.26,53.9 -3341.4,19713.61 -6.74,272.11 221.02,985.54 574.55,994.33 789.41,19.28 790.72,-1151.54 855.28,-1558.41l537.69 -3063.67 167.31 -159.26 4027.31 98.44zm-1690.35 -14363.69l1512.19 12753.06 -3399.61 -165.07 1887.42 -12587.99zm11764.34 19633.31c382.92,-37.8 556.97,-275.49 569.88,-574.55 23.4,-543.87 -461.14,-673.94 -896.45,-692.84 -1169.33,-50.72 -2273.71,282.6 -3415.89,233l-190.34 -8.04c-83.09,-5616.42 106.68,-11248.18 211.48,-16801.9 19.09,-1061.71 156.09,-1709.82 -42.85,-2781.07 -137,-605.25 -355.78,-587.66 -845.37,-608.81 -108.73,-4.68 -436.06,8.24 -518.78,32.01 -198.94,182.1 -202.31,263.69 -211.86,481.16l-8.42 190.52c5.24,517.85 150.66,4692.83 128.01,5209.55 -80.28,1849.25 -362.7,15896.27 -335.37,15897.4l5555.96 -576.43zm2505.78 389.46c-32.38,516.17 6046.49,1003.7 6049.86,76.55 -3.75,-1254.67 -1374.07,-712.67 -3194.12,-825.9 -244.61,-15.35 -1168.2,-72.8 -1411.12,-115.1l522.9 -7085.93 2742.33 -238.43c1096.71,-95.26 1663.78,-1314.55 387.03,-1394.09l-136.06 -8.42 -2961.11 251.9 425.77 -9028.18 3259.99 203.05c434.57,26.95 1183.73,-171.8 1217.42,-715.29 3.37,-54.27 4.87,-81.41 -18.9,-137.55 -18.53,-137.56 -536.56,-578.86 -699.57,-588.97l-4292.7 -267.25c-489.02,-30.51 -979.36,402.56 -1010.05,891.59l-881.67 18982.02zm8179.83 -3012.39c-132.32,1627.85 289.52,4174.6 2297.47,4337.43 1654.98,134 3032.04,-1693.35 3580.21,-3068.91 818.41,-2009.26 494.82,-5094.08 -448.23,-7273.46 -1035.89,-2378.13 -3186.07,-4491.26 -2963.92,-7231.72 76.92,-949.61 341.55,-2866.97 1725.54,-2754.87 1491.97,121.09 1034.57,1722.54 2092.91,1808.26 542.37,43.98 729.33,-241.43 771.07,-756.84 114.35,-1410.94 -1788.99,-2520.93 -2982.82,-2617.69 -1871.89,-151.78 -2999.11,2296.72 -3122.44,3815.83 -272.87,3364.42 2269.59,6028.52 3307.34,9062.06 509.8,1461.28 488.47,3071.16 367.57,4563.32 -90.4,1112.43 -693.77,3166.41 -2213.07,3043.27l-162.82 -13.29c-1292.66,-896.83 -68.12,-3200.85 -1127.22,-3614.46 -423.14,-170.87 -1084.35,239.93 -1121.59,701.07z"/>
   <path class="fil0" d="M78996.45 48652.65c0,742.24 421.09,842.55 1063.02,762.27 3309.59,-401.26 4212.04,-4091.88 4372.61,-7962.93 120.34,-2727.92 -280.91,-6177.87 -2426.98,-8103.47 -601.69,-541.43 -1444.25,-722.03 -2246.57,-722.03l-180.41 0c-421.28,180.6 -581.67,641.93 -581.67,1083.24l0 80.1c20.03,1704.95 20.03,9728.13 0,11453.11l0 3409.71zm1283.68 -14742.49l140.36 0c2788,0 2888.31,6197.9 2888.31,7782.51 0,2206.33 -681.98,6177.69 -3169.04,6558.91 -40.24,-2045.94 0,-5094.64 0,-6879.87 0,-1103.07 100.13,-6338.26 140.37,-7461.55zm6398.52 14762.51c0,381.23 4492.94,461.33 4452.71,-220.46 -60.08,-922.66 -1043,-461.33 -2386.75,-461.33 -180.6,0 -862.58,0 -1043.18,-20.21l60.26 -5235 2005.71 -300.94c802.31,-120.34 1163.52,-1043 220.65,-1043l-100.32 0 -2166.09 320.97 -100.31 -6659.23 2406.96 0c320.77,0 862.39,-180.41 862.39,-581.66 0,-40.05 0,-60.08 -20.03,-100.32 -20.02,-100.31 -421.27,-401.06 -541.61,-401.06l-3169.04 0c-361.01,0 -702,340.99 -702,702l220.65 14000.24zm17089.17 -160.39c280.73,-40.05 401.07,-220.65 401.07,-441.3 0,-401.06 -361.02,-481.35 -681.98,-481.35 -862.39,0 -1664.71,280.73 -2507.27,280.73l-140.36 0c-240.68,-4131.75 -280.73,-8283.7 -381.04,-12375.58 -20.03,-782.3 60.07,-1263.65 -120.34,-2045.94 -120.34,-441.12 -280.92,-421.09 -641.93,-421.09 -80.1,0 -320.97,20.02 -381.04,40.05 -140.36,140.36 -140.36,200.62 -140.36,361.01l0 140.36c20.02,381.23 260.7,3449.95 260.7,3831.18 0,1363.78 240.67,11713.63 260.7,11713.63l4071.85 -601.7zm6879.88 -3570.28l501.38 3810.96c20.02,140.37 220.65,140.37 340.99,140.37l60.07 0c381.23,0 461.33,-160.39 601.88,-541.43 0,-20.22 20.03,-20.22 20.03,-40.24l-120.34 -1303.7c-541.62,-4733.62 -1083.23,-9447.22 -2246.57,-14040.48l-160.38 -421.09c-120.34,-200.62 -401.26,-300.94 -621.91,-300.94 -501.38,0 -641.74,561.64 -742.05,942.68 0,0 -20.03,40.05 -2106.02,14582.1 0,200.44 180.41,722.03 441.3,722.03 581.67,0 561.46,-862.58 601.69,-1163.33l340.99 -2266.6 120.34 -120.33 2968.6 0zm-1504.51 -10550.29l1343.93 9366.93 -2507.26 -60.27 1163.33 -9306.66z"/>
   <path class="fil0" d="M67382.77 59145.11c-8728.56,0 -12891.37,9332.87 -14502.74,16315.68 -3088.56,13092.93 -738.5,33302.86 14502.74,33638.61 2148.68,0 4632.93,-805.69 3290.12,-3155.75 -1007.25,-1812.94 -5438.62,671.5 -8325.81,-1745.75 -5908.56,-4901.31 -6445.68,-11011.43 -6445.68,-19605.62 0,-7587.12 2887.19,-21082.8 9400.06,-21082.8l402.75 0c940.06,0 4834.31,469.94 4834.31,-1879.93 0,-1544.38 -1745.75,-2484.44 -3155.75,-2484.44zm24842.86 38875.67l1678.56 12757.18c67.19,469.94 738.5,469.94 1141.44,469.94l201.37 0c1275.63,0 1544.38,-537.13 2014.32,-1812.94 0,-67 67.18,-67 67.18,-134.19l-402.93 -4364.37c-1812.94,-15845.56 -3625.69,-31624.11 -7519.94,-46999.73l-537.12 -1410c-402.94,-671.5 -1343,-1007.25 -2081.5,-1007.25 -1678.56,0 -2148.5,1880.13 -2484.25,3155.75 0,0 -67.19,134.38 -7050,48812.66 0,671.5 604.32,2417.25 1477.19,2417.25 1947.12,0 1879.94,-2887.18 2014.31,-3894.24l1141.44 -7587.13 402.75 -402.93 9937.18 0zm-5035.68 -35316.99l4498.56 31355.55 -8392.81 -201.37 3894.25 -31154.18zm17255.74 39009.86c0,4028.62 1544.18,10205.74 6512.68,10205.74 4095.81,0 7117.19,-4767.12 8191.43,-8258.62 1611.57,-5102.87 201.57,-12622.8 -2551.43,-17792.86 -3021.37,-5640 -8728.56,-10407.12 -8728.56,-17188.37 0,-2350.06 268.56,-7117.18 3692.87,-7117.18 3692.88,0 2887.19,4028.62 5505.81,4028.62 1342.82,0 1745.57,-738.69 1745.57,-2014.31 0,-3491.5 -4901.32,-5841.56 -7855.69,-5841.56 -4632.75,0 -6915.62,6244.31 -6915.62,10004.37 0,8325.62 6781.43,14368.55 9937.18,21619.93 1544.19,3491.49 1812.75,7452.74 1812.75,11145.62 0,2752.81 -1074.25,7922.87 -4834.31,7922.87l-402.75 0c-3357.12,-1947.13 -805.69,-7855.69 -3491.5,-8661.37 -1074.25,-335.75 -2618.43,805.68 -2618.43,1947.12zm37129.92 -3692.87l1678.56 12757.18c67.18,469.94 738.5,469.94 1141.43,469.94l201.38 0c1275.62,0 1544.37,-537.13 2014.31,-1812.94 0,-67 67.19,-67 67.19,-134.19l-402.94 -4364.37c-1812.94,-15845.56 -3625.68,-31624.11 -7519.93,-46999.73l-537.13 -1410c-402.93,-671.5 -1343,-1007.25 -2081.5,-1007.25 -1678.56,0 -2148.5,1880.13 -2484.25,3155.75 0,0 -67.18,134.38 -7049.99,48812.66 0,671.5 604.31,2417.25 1477.19,2417.25 1947.12,0 1879.93,-2887.18 2014.31,-3894.24l1141.43 -7587.13 402.75 -402.93 9937.19 0zm-5035.69 -35316.99l4498.56 31355.55 -8392.81 -201.37 3894.25 -31154.18z"/>
   <path class="fil1 str0" d="M147657.65 159173.65c-3376.77,1543.62 -6506.69,1503.01 -10118.71,920.22 -968.51,-321.34 -1393.16,-498.57 -2300.28,-920.22m-22998.3 -25298.02c-664.76,-2085.43 -169,-1000.14 -2759.74,-1840.26 -2450.93,53.34 -1852.05,692.28 -4139.79,0 -1098.95,1418.05 -3030.35,1747.81 -4599.62,2759.92 -2166.09,1397.46 -4403.49,3287.32 -5519.1,5519.66l919.67 0c2944.82,-782.85 5602.56,-3167.72 8279.58,-4599.24 1715.43,-798.21 3284.51,-1226.41 5059.26,-1840.08l2759.74 0c2265.47,428.02 3957.69,286.72 4599.62,2299.53 -1623.91,527.02 -950.92,420.53 -2759.36,460.02 -3827.25,1240.82 -5680.42,2268.28 -9199.62,3679.77m-18398.49 4139.79c1314.56,-510.17 2650.63,-805.87 4139.61,-920.03 1898.09,-1137.13 2828.98,-1584.99 4599.99,-3219.76m21617.87 -4139.79l5059.83 0c2370.09,768.82 1896.59,-160.76 3220.13,1379.87l-2717.07 1465.21c-2800.16,2671.77 -6890.17,5726.83 -8322.25,9113.9 -1290.41,613.3 -1085.29,495.02 -2300.28,1379.87 -1947.87,368.31 -2774.15,995.27 -4599.43,1379.87m-17019 -21157.85l460.21 919.47 2760.11 0c-648.86,-2033.4 -1180.74,-1711.12 -3220.32,-919.47 -2317.87,-228.89 -792.4,393.02 -2759.55,-1380.06 -1625.59,-125.01 -3976.78,-879.61 -5519.66,-1380.05l-7819.37 -460.21c-1573.76,-610.49 -869.13,-459.45 -2759.74,-459.45m23458.13 24837.62c-3946.28,-303.19 -27142.77,-6328.9 -31737.52,-7819.19 -3524.81,-76.55 -8039.28,-1646.19 -11498.96,-2299.53 -9233.87,-3904.54 -6829.91,-17019.18 7358.98,-17019.18 543.3,2356.42 -648.11,2188.92 -3219.94,3219.94l-3219.38 3220.13 -1308 2795.48 -71.68 3183.63m7819 -12419.18c1705.14,553.03 1316.61,460.39 3220.32,460.39 1981.93,642.49 2430.72,460.02 4598.87,460.02 2325.92,804.38 1447.99,-93.58 2760.11,1839.32l-2770.4 1823.98c-1158.28,1184.67 -1052.36,1046.37 -1829.22,2315.81 -894.96,895.34 -574.56,465.64 -920.04,1379.87l-2759.92 2759.92c-1291.91,873.63 -1549.24,1116.36 -2759.74,2299.53 -830.95,555.84 -1442,921.54 -2299.53,1379.87m79574 9199.81l-460.01 919.85 920.41 0 -460.4 -919.85 1840.27 -920.23 459.45 920.23c1325.41,-102.19 4689.08,-961.77 5979.87,-1379.87l3219.56 0c1350.49,447.67 846.3,348.48 2300.1,459.64 9485.58,3804.61 2443.45,14293.32 -5060.02,15638.94l-6439.51 460.21c-1228.83,1430.96 -812.61,919.66 -3219.38,919.66 -6881.37,-1087.54 -14129.37,-2932.85 -21158.6,-4904.3 -5186.71,-1454.54 -9909.29,-2688.81 -15178.92,-4003.55 -9517.02,-2374.58 -21602.71,-5582.54 -30817.48,-8570.6 -3991.57,-86.84 -13913.97,-2622.55 -16098.77,-5519.47m97972.68 5979.11l0 -1839.51c-826.65,-653.72 -999.21,-818.22 -1840.27,-1380.05 -1903.7,0 -1515.17,92.45 -3219.75,-460.02 -2383.56,1749.87 -4147.65,1508.25 -6898.96,3679.58m459.45 920.23c-1358.53,567.82 -275.86,55.4 -1839.32,919.85m-6899.72 4139.6c1331.21,-2127.91 724.28,-1308.75 2759.93,-2299.53 1090.15,-583.54 2145.5,-1196.83 3219.38,-1840.07m2759.73 14259.07c-3715.89,-1442.75 -9005.54,-1963.97 -12878.45,-3219.75 -6901.59,-150.66 -14720.59,-5025.21 -21158.98,-5519.66 -1477.74,-853.04 -1663.96,-841.81 -3219.75,-1380.06m-29437.62 -26677.69c-1060.4,509.61 -199.13,459.45 -1840.07,459.45m-4599.62 4139.79c960.27,1946.19 3853.45,-621.9 5979.49,-2299.53 1981.18,-417.91 2094.22,-387.96 3219.94,-1840.26m16558.79 4139.79c-953.73,594.02 162.63,460.21 -1380.06,460.21 -762.83,-1240.25 44.54,-697.7 -1379.68,-919.66m-14259.26 9199.05c-208.67,852.48 -901.88,405.75 460.21,919.85l-460.21 -919.85c1460.16,-2203.52 7043.64,-6347.99 9659.27,-6899.71 1145.74,-161.32 2488.74,-792.96 4139.97,-919.48 0,-1542.87 -133.81,-426.51 460.02,-1379.86m17478.45 1839.32c-1573.57,-610.67 -868.57,-459.46 -2759.55,-459.46 -1909.13,-619.28 -2049.3,-460.2 -4139.79,-460.2 -2044.44,-662.7 -2817.94,-460.21 -5059.26,-460.21m-4140.17 460.21c-1060.21,510.17 -198.75,460.2 -1839.7,460.2m-22998.48 459.46l-460.02 0m10119.47 8279.58c2760.67,-582.04 5006.67,-2601.03 7359.54,-4139.79 2123.8,-2123.61 2480.51,-1466.14 1839.52,-3679.77m61175.51 10579.3c-2371.58,-1871.7 -4683.65,-2606.46 -7359.17,-3679.59l-2759.92 0c-1130.59,-406.86 -788.66,-256.96 -1839.89,-460.01 -1404.01,-2068.22 -691.34,-1019.98 -3219.57,-1840.27l-2300.09 0m0 0c-1060.59,510.37 -198.75,460.21 -1839.32,460.21m7358.98 1380.06c-1060.59,509.98 -198.94,460.01 -1839.51,460.01 -594.02,-1861.22 207.36,-1325.4 -2300.09,-1380.05m0 0l-919.85 459.64m0 0l-919.85 460.4m4139.79 460.01c-1816.68,1087.54 -3800.3,2544.7 -5979.87,2759.74 228.14,-2311.51 17.6,-1356.85 1840.08,-3219.75m-30357.84 919.66l0 460.2m17938.84 7819.19l1839.51 0c2243.57,-1343.56 4146.72,-2180.13 6439.51,-3679.4l2299.9 -2299.9m-44957.9 -12754.94l-346.04 -5388.27m-1832.96 -7655.25c-8815.21,3283.95 -3018.57,11562.22 1706.82,7758.18 4725.2,-3804.04 7108.95,-11041.94 -1706.82,-7758.18zm-2756 3998.31c-1106.44,3363.48 3209.09,4742.23 4089.45,2202.02 996.4,-2875.77 -2982.26,-5565.7 -4089.45,-2202.02zm3893.13 -2394.98l-343.61 -3657.13m43756.58 24566.82l-345.86 -5388.28m0 0c8815.02,-3284.32 5713.74,-10017.47 -1706.63,-7758.37 -7420.19,2258.92 -7109.14,11041.94 1706.63,7758.37zm-2181.44 -1914.75c1131.52,-2258.17 -2094.97,-4059.32 -2975.33,-1519.11 -996.21,2875.21 1844,3777.28 2975.33,1519.11zm1485.42 -4137.17l-343.79 -3657.13"/>
   <path class="fil1 str0" d="M49728.77 110778.89c-405.75,-704.81 -576.43,-1510.5 -1216.67,-2114.62 -640.62,-604.13 -1990.36,-527.21 -2472.65,-1365.08 -482.1,-837.88 726.9,-2009.82 39.3,-2864.17 -687.96,-854.35 -2773.58,-246.85 -3349.45,-1247.55 -575.67,-1000.7 1604.45,-1961.35 915.92,-2981.7 -688.53,-1020.35 -3175.4,-205.49 -3802.91,-1296.4 -627.71,-1090.9 2135.21,-1570.57 1369.57,-2932.85 -765.82,-1362.09 -4088.51,-1935.15 -4870.62,-3294.61 -782.1,-1359.47 1840.45,-1678.57 1220.6,-3049.26 -620.03,-1370.7 -3512.83,-2353.06 -4219.33,-3580.96 -706.49,-1227.9 902.45,-1512.74 569.32,-2762.73 -333.51,-1249.8 -2228.41,-2896.73 -2433.34,-4229.06 -204.94,-1332.52 901.13,-1868.52 1351.42,-2802.78"/>
   <path class="fil0" d="M39584.97 73515.35c-3957.13,-15464.89 -6217.73,-22791.5 -9602.37,-21884.56 -3354.69,898.89 -1070.5,8600.55 3809.1,23436.79l5793.27 -1552.23z"/>
   <path class="fil1 str0" d="M29041.04 76340.59c6693.1,26312.19 23911.23,40346.3 22220.31,34623.96l-11108.56 -37601.36 -11111.75 2977.4z"/>
   <path class="fil0" d="M150904.17 95113c-2614.5,15747.68 -3500.48,23363.62 -37.43,23898.5 3431.99,530.2 4447.47,-7438.71 5964.89,-22982.95l-5927.46 -915.55z"/>
   <path class="fil1 str0" d="M161486.28 79223.84c3073.77,-4267.05 3837.35,-13330.05 2782.38,-19095.62 -341.37,-1866.09 -1663.03,-3365.17 -2191.17,-178.55 -960.84,5799.27 134,17992.93 -5195.33,17169.84 -5329.51,-823.28 -508.11,-12046.94 234.13,-17936.22 426.89,-3386.88 -1007.62,-2243.2 -1982.49,-916.3 -3128.43,4257.51 -3972.3,13522.82 -3018.57,18825.38 1985.3,11040.07 1783.74,6929.85 616.48,18303.05l2209.32 341.17c1924.85,-10808.56 -237.68,-7097.53 6545.25,-16512.75z"/>
   <path class="fil1 str0" d="M153741.01 34815.6l115.85 -200.62m-5709.62 -1691.67l200.63 115.66m-725.77 1720.68l115.84 -200.44m1858.98 1875.63l-84.78 -316.66m-3511.34 1449.86l200.44 115.47m-5695.39 1526.22l116.03 -200.81m-1838.57 6427.34l1002.94 579.05c976.93,188.27 1238.94,256.4 2268.46,239.74 1862.35,-579.42 3782.52,-1489.35 5240.06,-2590.92m-6480.5 -2671.78l200.44 115.66m-5740.49 -1174.75c-312.36,-841.06 -449.73,38.55 62.13,-1034.01 1038.69,0 507.55,-150.85 1435.08,293.64m16218.92 2945.02c-1327.65,1479.99 -4303.74,1801.7 -5556.72,2676.07 -869.69,969.26 -1759.41,1215.55 -2909.64,1796.85 -1788.98,683.66 -3887.32,858.65 -5717.85,175.73 -831.89,-310.3 -1437.33,-1145.37 -1858.98,-1875.63m-2322.55 -1073.32c282.6,1501.71 839.38,401.44 2322.55,1073.32 1037.76,-1448.18 1989.98,-388.15 1536.52,-3124.68 -321.9,-1942.82 -946.24,-2150.93 -1712.25,-2593.36 -647.73,903.57 -356.9,700.13 -1497.21,740.37 -413.42,715.67 -174.06,352.41 -663.83,686.66m20966.95 -5278.98c372.25,1388.47 466.39,2376.63 -132.31,3935.04 -464.89,1209.75 -1403.83,2168.34 -2454.68,2861.93 -1070.32,27.32 -1590.79,166.93 -2531.22,678.42m-14916.17 1284.05c-450.47,-174.24 -443.54,-178.73 -918.35,-262.77 -848.54,-580.91 -452.16,-196.69 -971.88,-1096.14l15.91 -1036.26c684.79,-573.43 469.19,-306.55 941.75,-1085.29 -2212.88,-2295.04 2036.77,-5519.28 2525.23,-5763.33l2531.23 -678.42m11243.5 -2334.16c330.32,1911.75 2456.17,2003.08 1864.96,6960.54m-5378.73 1441.25c705.75,-2159.16 -124.64,-5573.55 -1664.71,-6844.87 -883.36,-510.18 -2039.58,-1007.25 -2607.59,-1505.45m-914.23 11774.63c734.01,-2096.28 476.49,-6335.07 -568.75,-7816.75 -698.45,-600.95 -1137.14,-1167.08 -1974.45,-1675.19 662.89,-924.91 2384.12,-1855.24 3457.43,-2282.69 800.26,-771.81 1606.89,-769.94 2762.73,-1079.49 1454.55,-80.85 1700.46,-84.22 3102.23,186.21 851.16,467.13 1069.19,374.49 1921.11,841.81 1270.76,-121.65 1863.84,541.24 3039.71,1220.04 801.76,924.91 1142,1058.91 1627.28,2276.89l-316.47 84.59"/>
   <path class="fil1 str0" d="M42222.87 51626.49c-1236.7,-2142.7 -957.65,-2605.53 -2612.82,-4702.37m-5224.15 -2612.82l0 523.27m2089.36 522.15c1360.03,1755.11 793.71,1387.17 3134.79,1567.4 0,-2206.71 222.34,-1739.01 -522.15,-3656.94m-3658.07 1567.39c-122.21,-1706.82 850.23,-2792.86 2612.64,-4702.18m-5224.15 3134.79c1363.78,-2086.93 2395.54,-3814.9 4179.1,-5747.61m-5746.49 4702.37c546.86,-2596.73 2791.55,-5768.76 4702.18,-7837.16m-6792.85 5747.61c2336.4,-2959.61 3298.73,-5321.84 6269.57,-8360.43m-8359.3 6793.04c1134.51,1732.83 154.58,1041.68 2089.73,1567.39 1087.16,2515.32 -26.01,1430.4 2090.67,2089.55 866.32,1408.12 -51.84,792.21 1567.39,1045.24 783.61,1510.68 55.59,782.48 1567.58,1567.39l1043.93 0 1045.43 522.15c1784.49,-2152.43 456.47,-1418.04 2612.64,-2089.54 -61.58,-2806.53 386.28,-1125.53 -1045.43,-3134.79 -62.7,-2870.72 404.81,-1367.52 -1045.05,-2612.82 0,-2739.9 492.39,-1815.56 -1044.31,-3134.79 0,-2085.8 104.8,-1030.64 -523.28,-2612.82 -366.63,-1107 -551.53,-1574.88 -1043.93,-2611.51m-1045.42 -3134.98c656.52,1412.06 740.37,1525.47 1045.42,3134.98 -1777.56,1177.37 -1551.48,1419.35 -3134.97,3134.78 -942.87,2227.67 -2360.92,4897.38 -4180.4,6269.77 -2146.26,-1423.1 -2352.31,-2523.93 -3656.94,-4702.37 -96.2,-1240.25 -303.56,-1973.33 -523.28,-3134.79 332.01,-1752.49 714.92,-3472.97 1045.62,-5225.64m1045.24 -1044.12c-503.63,1331.77 287.46,541.8 -1045.24,1044.12 0,-1751.18 -151.78,-483.79 521.96,-1567.4m5747.61 -4702.18c-2754.87,1904.27 -2737.28,3576.65 -5224.33,5225.46l-523.28 -523.28 0 -2089.54c1466.15,-1857.29 1387.36,-1298.27 1567.58,-3656.76m4180.03 -523.27c2838.53,279.98 4603.74,3035.97 6791.92,5225.46 2586.62,3183.07 6135.2,11512.62 6793.03,15674.31l521.97 9404.55c-793.52,1978.37 -641.74,2449.81 -2089.55,3656.94l0 6269.57c-1905.76,5876 -2839.83,10248.79 -5225.45,16196.46m-4702.56 -50157.72c1558.78,1290.97 835.82,-582.41 1045.62,2090.67 -2386.93,1746.5 -5488.41,6467.21 -6269.95,9404.55m4180.4 -13584.76c1558.78,1290.97 834.32,-582.42 1043.93,2089.54 -2378.13,1488.42 -5291.9,6340.13 -6791.54,8882.59m1045.24 -16196.47c-675.05,1082.49 -523.09,-185.09 -523.09,1567.58 3022.31,-840.49 2317.69,-478.92 523.09,-1567.58 320.97,-1530.33 -181.35,-684.97 1044.31,-1567.39 973.56,701.07 689.65,361.76 1045.05,1567.39 1571.14,329.58 633.32,-83.84 1567.58,1044.31l0 1567.39c1507.13,2068.4 834.32,-69.24 1045.43,2612.64 -2797.92,1711.87 -4785.09,5061.51 -6269.76,7837.15"/>
  </g>
  <rect class="fil2" y="-0.01" width="190509.35" height="169632.14"/>
 </g>
</svg>
