<?xml version="1.0" encoding="UTF-8"?>
<!DOCTYPE svg PUBLIC "-//W3C//DTD SVG 1.1//EN" "http://www.w3.org/Graphics/SVG/1.1/DTD/svg11.dtd">
<!-- Creator: CorelDRAW 2017 -->
<svg xmlns="http://www.w3.org/2000/svg" xml:space="preserve" width="1.76389E+06px" height="571500px" version="1.1" style="shape-rendering:geometricPrecision; text-rendering:geometricPrecision; image-rendering:optimizeQuality; fill-rule:evenodd; clip-rule:evenodd"
viewBox="0 0 190509.36 61681.76"
 xmlns:xlink="http://www.w3.org/1999/xlink">
 <defs>
  <style type="text/css">
   <![CDATA[
    .str0 {stroke:#51363B;stroke-width:935.76;stroke-linecap:round;stroke-linejoin:round;stroke-miterlimit:22.9256}
    .fil2 {fill:none}
    .fil1 {fill:none;fill-rule:nonzero}
    .fil0 {fill:#51363B;fill-rule:nonzero}
   ]]>
  </style>
 </defs>
 <g id="Capa_x0020_1">
  <metadata id="CorelCorpID_0Corel-Layer"/>
  <g id="_2239470280528">
   <g>
    <path class="fil0" d="M62305.91 22751.44l989.28 0 57.27 -630.88 -2924.8 0 -57.46 630.88 1247.37 0 -258.08 2666.73c-444.49,186.59 -1290.41,358.58 -1892.48,358.58 -2408.83,0 -3899.86,-1519.86 -3899.86,-4000.36 0,-2279.7 974.87,-5175.87 4430.25,-5175.87 659.71,0 1376.5,100.32 1849.62,286.72l0 1362.09 630.88 0 114.73 -1863.84c-673.94,-229.45 -1562.91,-415.85 -2609.46,-415.85 -3283.38,0 -5219.09,2437.46 -5219.09,5821.16 0,2236.64 1104.01,4616.84 4573.8,4616.84 788.65,0 1792.16,-215.04 2709.95,-501.76l258.08 -3154.44zm2380.01 -3283.38l1204.32 0 -229.26 2881.94c-143.36,1921.3 -301.13,3268.98 -358.4,3856.82l688.16 0c157.76,-1577.12 587.84,-6824.85 2996.67,-6824.85 215.03,0 358.39,28.82 487.34,57.45l114.72 -673.93c-143.36,-43.04 -358.39,-71.68 -544.8,-71.68 -1849.43,0 -2337.14,1878.26 -2666.9,2982.26 -71.5,243.86 -100.32,501.76 -172,745.61l-28.63 0c100.31,-530.57 186.4,-1075.37 243.67,-1605.76l200.81 -1978.75 -1878.25 0 -57.45 630.89zm9420.08 6738.76l1863.84 0 57.46 -630.89 -1175.69 0 343.98 -4244.03c86.09,-1032.14 186.41,-1863.84 286.72,-2365.59l-415.66 0c-286.91,-114.73 -817.29,-272.5 -1390.73,-272.5 -2752.99,0 -3799.73,2509.14 -3799.73,4989.65 0,1232.95 286.9,2666.91 1591.53,2666.91 1505.45,0 2451.88,-1993.17 2910.58,-3412.52 86.09,-258.08 143.36,-530.58 215.04,-802.88l28.82 0c-57.27,272.3 -129.13,530.38 -157.77,802.88l-358.39 3268.97zm530.39 -6222.6c-645.12,4029 -2093.29,5677.8 -3068.35,5677.8 -602.07,0 -946.24,-645.11 -946.24,-1992.97 0,-1347.68 243.86,-2294.1 716.98,-3111.4 444.48,-731.2 1189.91,-1290.4 2164.97,-1290.4 487.52,0 917.6,157.76 1204.32,272.49l-71.68 444.48zm7269.52 5075.74c-516.16,300.94 -1190.1,602.06 -1921.48,602.06 -1562.72,0 -1964.16,-1304.82 -1964.16,-2652.49 0,-1849.62 774.25,-3684.83 2810.27,-3684.83 286.71,0 587.84,43.05 731.2,100.31l-57.27 1247.37 630.7 0 172.18 -1734.9c-315.54,-85.9 -860.33,-243.67 -1534.27,-243.67 -2437.46,0 -3498.42,2093.29 -3498.42,4372.98 0,2007.39 903.19,3283.58 2623.86,3283.58 731.21,0 1591.54,-301.13 1949.94,-544.99l57.45 -745.42zm2078.88 1146.86l1906.89 0 57.26 -630.89 -1218.54 0 602.07 -6738.76 -1906.89 0 -57.45 630.89 1218.91 0 -602.25 6738.76zm530.57 -10394.95c0,315.35 215.04,602.25 573.44,602.25 415.66,0 688.15,-286.9 688.15,-702.57 0,-372.8 -229.45,-645.29 -587.84,-645.29 -343.98,0 -673.75,258.26 -673.75,745.61l0 0zm7111.57 10394.95l1863.85 0 57.45 -630.89 -1175.69 0 343.99 -4244.03c86.09,-1032.14 186.4,-1863.84 286.72,-2365.59l-415.67 0c-286.71,-114.73 -817.29,-272.5 -1390.72,-272.5 -2753,0 -3799.74,2509.14 -3799.74,4989.65 0,1232.95 286.91,2666.91 1591.54,2666.91 1505.63,0 2451.87,-1993.17 2910.77,-3412.52 85.9,-258.08 143.17,-530.58 215.03,-802.88l28.64 0c-57.27,272.3 -128.95,530.38 -157.77,802.88l-358.4 3268.97zm530.39 -6222.6c-645.11,4029 -2093.29,5677.8 -3068.35,5677.8 -602.06,0 -946.24,-645.11 -946.24,-1992.97 0,-1347.68 243.86,-2294.1 716.98,-3111.4 444.49,-731.2 1190.1,-1290.4 2164.97,-1290.4 487.53,0 917.6,157.76 1204.51,272.49l-71.87 444.48zm2724.36 5935.89c301.13,143.35 1089.6,430.26 2150.56,430.26 1864.03,0 2695.55,-1018.11 2695.55,-2179.38 0,-1261.78 -1017.92,-1648.99 -2322.55,-2150.75 -975.06,-372.8 -1477,-659.52 -1477,-1319.04 0,-1061.15 946.42,-1433.95 1864.02,-1433.95 559.21,0 917.61,100.5 1247.37,215.22l0 1247.36 688.16 0 0 -1706.26c-530.39,-171.99 -1247.37,-329.76 -1863.85,-329.76 -1648.8,0 -2681.13,759.84 -2681.13,2064.66 0,1175.68 688.16,1448.18 2351.37,2107.7 1118.42,444.48 1448.18,759.83 1448.18,1419.36 0,888.96 -702.57,1433.95 -1964.34,1433.95 -630.89,0 -1290.41,-200.81 -1448.18,-315.54l0 -1261.77 -688.16 0 0 1777.94z"/>
    <path class="fil0" d="M67144.15 33908.11l1460.34 0 43.98 -513.73 -457.58 0 87.77 -1071.63c125.21,31.25 306.93,49.97 538.81,49.97 1065.46,0 1754.92,-977.68 1754.92,-2155.99 0,-469.94 -125.39,-1203.2 -808.49,-1203.2 -921.16,0 -1222.1,958.97 -1353.67,1385.11l-12.54 0c81.41,-501.38 125.21,-883.73 181.73,-1322.41l-1109.25 0 -43.98 513.92 476.3 0 -338.37 3804.23 -375.99 0 -43.98 513.73zm2763.85 -3641.04c0,645.49 -300.75,1554.11 -1040.37,1554.11 -231.88,0 -419.78,-24.89 -532.63,-68.87 194.26,-1228.46 777.05,-2149.62 1247.17,-2149.62 282.04,0 325.83,357.08 325.83,664.38zm1786.18 676.74c0,-551.53 137.93,-1378.74 858.65,-1378.74 557.71,0 639.31,589.15 639.31,871.19 0,551.53 -137.93,1410 -858.65,1410 -526.46,0 -639.31,-507.56 -639.31,-902.45zm-701.82 -6.36c0,645.67 256.96,1460.34 1322.22,1460.34 827.4,0 1579.56,-576.61 1579.56,-1936.45 0,-1109.44 -702,-1447.81 -1266.08,-1447.81 -1121.78,0 -1635.7,927.53 -1635.7,1923.92zm3340.47 -1347.3l476.3 0 -125.39 1604.45c-24.9,313.29 -62.51,789.59 -112.86,1140.5l664.39 0 18.72 -212.98c94.13,-933.89 363.63,-2481.82 1209.74,-2481.82 68.87,0 137.93,18.72 187.9,31.26l93.95 -632.95c-62.51,-12.54 -181.53,-25.08 -300.75,-25.08 -670.56,0 -952.6,645.49 -1121.79,1322.42l-12.53 0c50.15,-401.07 100.31,-833.58 137.93,-1259.72l-1071.82 0 -43.79 513.92z"/>
    <path class="fil0" d="M82644.6 35415.42c-587.84,329.76 -1319.05,673.94 -2064.66,673.94 -1878.25,0 -1878.25,-1677.63 -1878.25,-2437.46 1763.53,-200.63 4502.12,-989.29 4502.12,-3010.9 0,-975.06 -645.3,-1577.31 -1763.53,-1577.31 -2494.92,0 -3484.2,2451.87 -3484.2,4573.79 0,1806.77 559.21,3082.76 2523.36,3082.76 975.06,0 1706.45,-344.17 2107.89,-573.62l57.27 -731.2zm-186.4 -4717.15c0,1290.41 -1706.26,2150.75 -3756.51,2322.74 143.36,-1863.84 1089.6,-3326.25 2595.23,-3326.25 946.24,0 1161.28,602.07 1161.28,1003.51zm2294.1 5878.62l1906.88 0 57.46 -630.89 -1218.73 0 917.6 -10394.96 -2007.38 0 -57.27 630.89 1319.04 0 -917.6 10394.96zm7971.9 -1161.47c-587.84,329.76 -1319.04,673.94 -2064.65,673.94 -1878.25,0 -1878.25,-1677.63 -1878.25,-2437.46 1763.52,-200.63 4502.11,-989.29 4502.11,-3010.9 0,-975.06 -645.3,-1577.31 -1763.53,-1577.31 -2494.91,0 -3484.2,2451.87 -3484.2,4573.79 0,1806.77 559.21,3082.76 2523.37,3082.76 975.24,0 1706.44,-344.17 2107.88,-573.62l57.27 -731.2zm-186.4 -4717.15c0,1290.41 -1706.26,2150.75 -3756.5,2322.74 143.35,-1863.84 1089.59,-3326.25 2595.22,-3326.25 946.24,0 1161.28,602.07 1161.28,1003.51zm1777.94 8975.6c458.89,215.04 1204.51,501.75 2064.65,501.75 2695.55,0 3054.13,-1892.66 3240.34,-3010.89 129.14,-774.25 444.49,-5262.14 530.58,-6251.42 71.68,-831.52 157.77,-1333.27 200.63,-1577.13l-487.35 0c-329.76,-128.95 -860.33,-272.49 -1491.22,-272.49 -3254.56,0 -3871.23,3527.24 -3871.23,4975.23 0,1075.56 301.13,2623.87 1663.22,2623.87 1706.26,0 2595.23,-2380.01 3082.57,-3584.51 100.31,-229.26 157.77,-472.94 243.86,-716.79l28.63 0c-172.18,745.61 -301.13,1433.76 -358.39,2121.92l-114.73 1190.1c-171.99,2021.79 -329.76,3871.22 -2681.13,3871.22 -975.06,0 -1691.85,-430.07 -1993.16,-630.7l-57.27 759.84zm5089.96 -8817.83c-329.76,2107.7 -1820.8,5176.05 -3140.03,5176.05 -602.25,0 -1017.92,-659.71 -1017.92,-1978.75 0,-2093.29 817.29,-4416.03 3154.25,-4416.03 415.85,0 831.71,114.72 1147.06,258.08l-143.36 960.65zm3369.47 5720.85l1906.89 0 57.46 -630.89 -1218.74 0 602.26 -6738.77 -1907.08 0 -57.26 630.71 1218.73 0 -602.26 6738.95zm530.58 -10394.96c0,315.35 215.03,602.07 573.43,602.07 415.85,0 688.16,-286.72 688.16,-702.57 0,-372.8 -229.45,-645.11 -587.85,-645.11 -343.98,0 -673.74,258.08 -673.74,745.61l0 0zm2838.9 3656.01l1204.32 0 -229.26 2882.13c-143.55,1921.11 -301.13,3268.79 -358.58,3856.82l688.34 0c157.58,-1577.13 587.65,-6824.86 2996.48,-6824.86 215.04,0 358.58,28.64 487.53,57.27l114.72 -673.74c-143.35,-43.05 -358.39,-71.87 -544.79,-71.87 -1849.62,0 -2337.15,1878.25 -2666.91,2982.45 -71.68,243.67 -100.32,501.75 -171.99,745.42l-28.83 0c100.5,-530.39 186.41,-1075.19 243.86,-1605.76l200.63 -1978.57 -1878.25 0 -57.27 630.71zm5319.4 0l1304.64 0 -315.35 3555.87c-100.32,1118.42 -229.45,2222.43 -358.4,3183.08l688.16 0c702.57,-5548.86 2695.54,-6824.86 3484.2,-6824.86 602.06,0 716.79,559.21 716.79,1089.6 0,1333.45 -458.9,4373.17 -659.52,5735.26l1935.52 0 57.45 -630.89 -1190.09 0c186.4,-1405.14 544.98,-4172.36 544.98,-5147.42 0,-860.14 -200.81,-1734.89 -1233.14,-1734.89 -1835.21,0 -2924.99,2537.96 -3269.16,3756.69 -57.27,200.63 -100.32,415.66 -157.58,616.48l-28.64 0c85.9,-573.62 186.22,-1046.74 257.9,-1720.49l286.9 -2509.14 -2007.39 0 -57.27 630.71zm7971.72 3584.51c0,2451.87 1218.73,3297.79 2552.19,3297.79 2107.7,0 3254.75,-1921.29 3254.75,-4358.75 0,-2279.7 -1060.96,-3297.8 -2466.1,-3297.8 -2408.82,0 -3340.84,2265.47 -3340.84,4358.76zm745.61 43.04c0,-1706.07 659.53,-3770.73 2466.29,-3770.73 1046.55,0 1849.43,817.11 1849.43,2723.99 0,1534.27 -573.43,3670.61 -2480.51,3670.61 -1347.68,0 -1835.21,-1261.78 -1835.21,-2623.87zm6237.01 2824.68c301.13,143.17 1089.79,430.07 2150.75,430.07 1864.03,0 2695.54,-1018.1 2695.54,-2179.38 0,-1261.77 -1017.91,-1648.8 -2322.74,-2150.74 -975.05,-372.81 -1476.81,-659.52 -1476.81,-1319.04 0,-1060.97 946.24,-1433.77 1863.84,-1433.77 559.21,0 917.8,100.31 1247.56,215.04l0 1247.36 688.15 0 0 -1706.26c-530.57,-171.99 -1247.36,-329.76 -1864.03,-329.76 -1648.8,0 -2681.13,760.02 -2681.13,2064.65 0,1175.69 688.34,1448.18 2351.37,2107.7 1118.42,444.49 1448.18,760.03 1448.18,1419.55 0,888.97 -702.57,1433.77 -1964.34,1433.77 -630.89,0 -1290.41,-200.82 -1447.99,-315.54l0 -1261.59 -688.35 0 0 1777.94zm6953.99 -215.04c0,329.76 229.45,587.66 616.48,587.66 301.13,0 616.48,-257.9 616.48,-659.52 0,-358.4 -229.26,-673.75 -602.07,-673.75 -401.44,0 -630.89,343.99 -630.89,745.61zm559.21 -2882.13l630.89 0 745.61 -7641.96 -803.07 0 -573.43 7641.96z"/>
   </g>
   <path class="fil1 str0" d="M150169.6 24155.45c1471.2,-394.32 3038.41,-187.71 4357.64,573.81 2747.01,1585.92 3687.82,5098.01 2102.27,7845.02 -3528.74,6115.36 -15838.63,857.53 -15838.63,-8438.1 0,-8212.77 6449.24,-12007.27 14250.09,-12292.49"/>
   <path class="fil1 str0" d="M39903.69 35588.54c-1471.95,394.33 -3039.15,187.71 -4358.57,-573.81 -2746.45,-1585.92 -3687.63,-5098 -2101.34,-7845.01 3528.37,-6115.37 15838.07,-857.34 15838.07,8438.1 0,8212.76 -6448.86,12007.26 -14249.53,12292.48"/>
   <path class="fil1 str0" d="M123647.06 40379.43c14202.17,3851.58 25516.04,7518.44 30573.81,7539.02 9965.82,40.43 18046.64,-8079.89 18046.64,-18046.83 0,-9967.12 -8079.33,-18046.45 -18046.64,-18046.45 -4240.85,0 -9783.53,2082.81 -15719.6,4597.93l-13267.17 5621.29c-6586.61,2790.8 -12878.64,3841.65 -17144.2,1715.8 -2011.5,-1002.2 -3145.08,-3200.1 -3145.08,-5447.04 0,-7868.04 9977.98,-8077.65 10546.55,-1068.08"/>
   <path class="fil1 str0" d="M69120.47 44801.07c568.38,7009.57 10546.17,6799.96 10546.17,-1068.07 0,-2246.94 -1133.76,-4444.85 -3145.08,-5447.05 -4299.43,-2142.69 -10648.54,-1034.2 -17304.77,1775.7l-11315.74 4776.85c-4485.84,1893.41 -8697.49,3080.33 -12049.19,3080.33 -9967.13,0 -18047.02,-8079.33 -18047.02,-18046.46 0,-9966.94 8081.02,-18087.25 18047.02,-18046.83 3373.78,13.66 9246.03,1599.02 16762.79,3776.16"/>
  </g>
  <rect class="fil2" y="0.07" width="190509.35" height="61681.73"/>
 </g>
</svg>
