<?xml version="1.0" encoding="UTF-8"?>
<!DOCTYPE svg PUBLIC "-//W3C//DTD SVG 1.1//EN" "http://www.w3.org/Graphics/SVG/1.1/DTD/svg11.dtd">
<!-- Creator: CorelDRAW 2017 -->
<svg xmlns="http://www.w3.org/2000/svg" xml:space="preserve" width="1.76389E+06px" height="631472px" version="1.1" style="shape-rendering:geometricPrecision; text-rendering:geometricPrecision; image-rendering:optimizeQuality; fill-rule:evenodd; clip-rule:evenodd"
viewBox="0 0 190509.36 68333.69"
 xmlns:xlink="http://www.w3.org/1999/xlink">
 <defs>
  <style type="text/css">
   <![CDATA[
    .str0 {stroke:#51363B;stroke-width:935.76;stroke-linecap:round;stroke-linejoin:round;stroke-miterlimit:22.9256}
    .fil3 {fill:none}
    .fil0 {fill:none;fill-rule:nonzero}
    .fil2 {fill:#51363B}
    .fil1 {fill:#51363B;fill-rule:nonzero}
   ]]>
  </style>
 </defs>
 <g id="Capa_x0020_1">
  <metadata id="CorelCorpID_0Corel-Layer"/>
  <g id="_2239407283344">
   <path class="fil0 str0" d="M58654.59 49941.93c498.01,6140.82 9239.48,5957.04 9239.48,-935.94 0,-1968.46 -993.4,-3894.06 -2755.43,-4771.99 -9810.11,-4889.33 -31131.53,11222.91 -42224.37,11222.91 -8731.74,0 -15810.56,-7078.25 -15810.56,-15809.99 0,-8731.74 7079.57,-15845.93 15810.56,-15810.56 9602.74,39.12 42307.09,14608.48 72459.06,14286.21 30151.79,-322.09 63219.96,-14248.59 72459.44,-14286.21 8730.81,-35.37 15810.18,7078.82 15810.18,15810.56 0,8731.74 -7078.06,15809.99 -15810.18,15809.99 -11092.65,0 -32413.89,-16112.24 -42224.18,-11222.91 -1762.41,877.93 -2755.43,2803.53 -2755.43,4771.99 0,6892.98 8741.47,7076.76 9239.48,935.94m-105628.67 -5287.21c-1289.48,345.48 -2662.42,164.32 -3818.45,-502.69 -2406.02,-1389.41 -3230.43,-4466.18 -1840.83,-6872.95 3091.19,-5357.59 13875.23,-751.04 13875.23,7392.48 0,7195.04 -5649.54,10519.23 -12483.57,10769.26m142087.28 -10786.1c1288.73,345.48 2661.86,164.32 3817.52,-502.69 2406.58,-1389.41 3230.79,-4466.18 1841.75,-6872.95 -3091.55,-5357.59 -13875.97,-751.04 -13875.97,7392.48 0,7195.04 5649.92,10519.23 12484.32,10769.26"/>
   <polygon class="fil1" points="75335.4,40775.07 75446.38,43375.35 78046.66,43486.33 75850.62,44882.67 77054.01,47190.06 74746.99,45986.11 73350.28,48182.52 73239.3,45582.43 70639.02,45471.26 72835.61,44074.92 71631.48,41767.53 73938.87,42971.48 "/>
   <polygon class="fil1" points="84827.72,46588.37 84938.89,49188.65 87538.98,49299.63 85342.95,50695.97 86546.52,53003.17 84239.32,51799.41 82843.17,53995.64 82732.18,51395.73 80132.09,51284.37 82328.12,49888.04 81124.18,47580.83 83431.76,48784.78 "/>
   <polygon class="fil1" points="117997.7,41133.84 118070.69,42845.52 119782.56,42918.51 118336.82,43837.99 119129.22,45357.1 117610.11,44564.32 116691.01,46010.44 116617.65,44298.57 114905.96,44225.21 116351.89,43306.1 115559.3,41787.18 117078.23,42579.58 "/>
   <polygon class="fil1" points="116056.94,50229.03 116149.21,52394.37 118314.92,52486.82 116485.89,53649.97 117488.27,55571.64 115566.6,54569.07 114403.83,56398.1 114311.19,54232.57 112145.85,54139.93 113974.5,52976.97 112971.93,51055.49 114893.61,52057.87 "/>
   <polygon class="fil1" points="93462.33,40712.37 93602.5,44001.93 96892.44,44142.3 94113.99,45908.82 95636.84,48827.63 92717.65,47304.78 90951.13,50083.23 90810.95,46794.05 87521.2,46653.12 90299.66,44886.79 88776.8,41967.97 91695.99,43490.82 "/>
   <polygon class="fil1" points="104459.72,45888.61 104570.89,48488.89 107170.99,48599.87 104975.14,49996.21 106178.52,52303.41 103871.51,51099.65 102474.79,53295.88 102364.19,50695.97 99763.53,50584.61 101960.32,49188.28 100756,46881.07 103063.57,48084.83 "/>
   <polygon class="fil1" points="76737.35,49231.51 76808.09,50879.94 78456.52,50950.68 77064.12,51835.91 77827.32,53298.5 76364.36,52535.29 75478.94,53927.7 75408.57,52279.27 73760.14,52208.9 75152.36,51323.67 74389.16,49860.71 75852.12,50623.73 "/>
   <polygon class="fil1" points="110094.11,44079.79 110164.85,45728.22 111813.28,45798.96 110421.06,46684.19 111184.08,48146.78 109721.49,47383.57 108836.26,48775.98 108765.89,47127.55 107117.46,47057.18 108509.68,46171.96 107746.67,44708.99 109209.25,45472.2 "/>
   <polygon class="fil1" points="101465.11,40087.29 101535.86,41735.72 103184.29,41806.46 101792.07,42691.69 102555.08,44154.28 101091.93,43391.07 100206.71,44783.48 100136.34,43135.05 98487.91,43064.68 99880.13,42179.45 99116.92,40716.49 100579.7,41479.69 "/>
   <polygon class="fil1" points="95541.02,51292.42 95611.58,52940.66 97260.01,53011.41 95867.79,53896.63 96630.99,55359.41 95167.65,54596.21 94282.43,55988.43 94212.06,54339.99 92563.63,54269.63 93956.03,53384.4 93192.83,51921.44 94655.42,52684.64 "/>
   <polygon class="fil1" points="88586.1,54254.47 88656.84,55902.9 90304.9,55973.45 88912.86,56858.68 89675.69,58321.46 88213.1,57558.25 87327.88,58950.47 87257.51,57302.04 85608.7,57231.67 87001.3,56346.45 86238.09,54883.48 87700.87,55646.69 "/>
   <polygon class="fil1" points="108935.26,52709.16 109006.01,54357.59 110654.06,54428.14 109262.03,55313.56 110025.23,56776.15 108562.27,56012.94 107677.04,57405.16 107606.68,55756.73 105958.06,55686.36 107350.47,54801.14 106587.45,53338.17 108050.04,54101.38 "/>
   <path class="fil2" d="M33858.51 21195.84l8104.6 2356.99 1139.19 -3293.49 -1570.58 -456.65 -740.56 1923.16 -3475.96 -1010.99 2671.77 -8937.6 1186.36 344.92 398.63 -1369.95 -4311.22 -1254.11 -398.64 1370.33 1253.36 364.38 -2671.59 8937.61 -1186.91 -344.92 -398.45 1370.32zm24227.13 302.81l-3131.23 -748.79 2104.71 -3039.72c328.45,-475.92 472.93,-781.91 580.36,-1006.31l33.87 8.05c-9.92,266.13 -14.79,587.09 45.85,1156.22l366.44 3630.55zm-9076.47 3984.83l4129.5 987.41 331.82 -1387.91 -1218.36 -291.4 1804.33 -2681.69 4163.75 995.46 311.04 3187.94 -1082.67 -259.02 -332.01 1388.1 4332.75 1035.88 332 -1387.91 -1049.35 -250.97 -1476.07 -11411.19 -2099.09 -502.13 -6800.52 9432.25 -1015.3 -242.73 -331.82 1387.91zm30995.84 6011.87l4582.97 515.98 159.64 -1418.43 -1400.64 -157.39 1112.43 -9261.75 2766.84 311.42 -129.32 1771.76 1729.28 194.83 288.96 -3190 -10981.3 -1236.14 -427.45 3174.47 1729.47 194.63 267.81 -1756.23 2818.69 317.04 -1112.43 9261.75 -1245.31 -140.18 -159.64 1418.24zm20643.75 -5335.88l-3216.39 143.36 1185.05 -3502.16c184.53,-547.98 239.18,-881.68 280.35,-1127.41l35 -1.68c63.81,258.64 147.66,568.38 362.51,1099.14l1353.48 3388.75zm-7626.43 6332.83l4241.98 -189.58 -63.44 -1425.72 -1252.05 55.96 995.46 -3075.46 4276.79 -190.71 1177.93 2978.33 -1112.43 49.78 63.82 1425.53 4450.46 -198.56 -63.44 -1425.72 -1078 48.28 -4564.99 -10562.08 -2156.18 96.2 -3936.35 10941.43 -1043 46.6 63.44 1425.72zm19513.35 -1431.7l4523.46 -696.58 -217.1 -1410.56 -1392.78 214.47 -537.87 -3720.76 1031.76 -158.89c567.63,-87.4 854.91,62.51 1486.36,845.37l2082.43 2549.37c885.6,1061.53 1365.83,1093.16 2380.76,936.7l1117.67 -172 -217.1 -1410.56 -447.1 68.69c-395.64,61.01 -746.36,-43.23 -1177.56,-558.09l-1646.37 -2000.46c-518.6,-623.96 -1053.29,-1122.91 -1731.9,-1071.25l-5.62 -34.44c1507.51,-390.77 2703.03,-1543.06 2382.81,-3624.56 -270.43,-1754.17 -1659.84,-3001.91 -4136.6,-2620.5l-5349.36 823.84 217.47 1410.19 1255.42 -193.14 1351.04 9229.75 -1187.1 182.85 217.28 1410.56zm2142.51 -7126.73l-579.98 -3995.87 1599.4 -246.48c1393.34,-214.1 2278.38,389.09 2471.9,1644.68 198.75,1290.04 -636.13,2157.86 -1995.23,2367.1l-1496.09 230.57zm14771.87 4167.86l5606.87 -1321.1c3794.12,-894.02 5378.74,-4110.04 4552.46,-7616.51 -810.18,-3438.9 -3518.26,-5142.92 -7329.41,-4245.15l-5623.9 1325.4 327.32 1389.04 1270.39 -299.63 2071.58 9095.57 -1202.64 283.34 327.33 1389.04zm2772.46 -2119.49l-2071.2 -9095.19 1914 -451.03c2913.01,-686.47 4837.11,648.29 5463.51,3307.71 698.45,2964.48 -512.61,5109.05 -3408.78,5791.59l-1897.53 446.92zm16192.16 -2641.83l8234.29 -2216.43 -751.97 -3329.62 -1579.56 425.02 380.85 1951.81 -3579.08 963.64 -1015.86 -3907.72 3360.87 -904.88 -398.07 -1478.5 -3360.68 904.51 -944 -3638.98 3411.78 -918.35 562.01 1687.17 1563.09 -420.72 -899.64 -3074.15 -8267.97 2225.61 370.93 1377.81 1361.15 -366.44 2357.18 9025.75 -1176.25 316.66 370.93 1377.81z"/>
  </g>
  <rect class="fil3" width="190509.35" height="68333.68"/>
 </g>
</svg>
