<?xml version="1.0" encoding="UTF-8"?>
<!DOCTYPE svg PUBLIC "-//W3C//DTD SVG 1.1//EN" "http://www.w3.org/Graphics/SVG/1.1/DTD/svg11.dtd">
<!-- Creator: CorelDRAW 2017 -->
<svg xmlns="http://www.w3.org/2000/svg" xml:space="preserve" width="1.76389E+06px" height="1.85561E+06px" version="1.1" style="shape-rendering:geometricPrecision; text-rendering:geometricPrecision; image-rendering:optimizeQuality; fill-rule:evenodd; clip-rule:evenodd"
viewBox="0 0 1195801.48 1258169.96"
 xmlns:xlink="http://www.w3.org/1999/xlink">
 <defs>
  <style type="text/css">
   <![CDATA[
    .fil1 {fill:none}
    .fil0 {fill:#51363B;fill-rule:nonzero}
   ]]>
  </style>
 </defs>
 <g id="Capa_x0020_1">
  <metadata id="CorelCorpID_0Corel-Layer"/>
  <g id="_2238606258048">
   <path class="fil0" d="M598666.66 961418.08c-210.28,1202.92 -500.43,2286.02 -758.87,3427.85l0 -10.57 0 10.57c-263.14,-1141.83 -536.85,-2224.93 -754.17,-3427.85 -2300.12,-12013.9 -258.44,-17875.78 754.17,-19872.81 992.64,1997.03 3066.03,7858.91 758.87,19872.81zm101472.71 4179.67c-9259.18,4785.83 -14237.66,8159.64 -17787.68,11354.89 1259.3,-21193.2 -22941.2,-40328.29 -43202.85,-34235 -21140.34,5900.65 -24828.97,25159.08 -21176.76,35225.29 1676.34,3625.2 4522.69,8321.75 8830.41,10960.18 7560.53,4594.35 16395.63,2464.58 17240.26,-230.24 804.68,-2706.57 -8259.49,-3719.18 -10882.65,-11786.01 -2549.15,-7949.36 1688.08,-17619.7 13650.3,-17889.88 219.67,0 438.17,-54.04 660.19,-54.04 1170.03,7.05 2026.4,139.79 2748.86,312.48 8354.64,1328.61 16264.06,8278.28 16861.99,19022.31 901.02,13765.42 -11734.32,26340.85 -26641.57,27459.19 -8594.29,730.68 -15774.21,-566.22 -21384.69,-3534.75 -5216.95,-3113.02 -13783.04,-10444.47 -19012.92,-24266.28 1610.55,-4454.56 3066.03,-9582.23 4207.87,-15532.21 2498.64,-13228.58 622.6,-23220.78 -3687.46,-26087.11 -812.91,-535.68 -1739.77,-816.43 -2654.88,-816.43 -924.51,0 -1858.42,280.75 -2673.67,816.43 -4271.3,2866.33 -6179.06,12858.53 -3649.87,26087.11 1125.38,5949.98 2558.55,11077.65 4191.41,15532.21 -5227.52,13821.81 -13783.04,21153.26 -19010.56,24266.28 -5628.11,2968.53 -12815.07,4265.43 -21398.79,3534.75 -14917.82,-1118.34 -27553.16,-13693.77 -26633.35,-27459.19 587.36,-10744.03 8493.26,-17693.7 16833.8,-19022.31 740.08,-172.69 1624.64,-305.43 2773.53,-312.48 214.97,0 418.2,54.04 663.71,54.04 11950.48,270.18 16195.93,9940.52 13631.51,17889.88 -2603.19,8066.83 -11676.76,9079.44 -10865.03,11786.01 846.98,2694.82 9687.95,4824.59 17235.56,230.24 4301.84,-2638.43 7151.72,-7334.98 8853.9,-10960.18 3652.22,-10066.21 -63.44,-29324.64 -21202.61,-35225.29 -20256.95,-6093.29 -44487.99,13041.8 -43241.61,34235 -3542.97,-3195.25 -8523.8,-6569.06 -17775.93,-11354.89 -17777.11,-9169.9 -28495.29,340.67 -27768.14,7855.39 691.91,7453.62 1244.04,3187.02 17792.38,3601.7 16529.55,414.68 27588.41,12541.36 35713.98,21640.78 0,0 18.79,-48.16 45.81,-48.16 8349.94,9955.79 21872.2,15673.17 33583.03,15673.17 28045.37,0 41310.36,-24744.4 42900.94,-27696.48 1588.23,2952.08 14839.12,27696.48 42897.42,27696.48 11719.05,0 25231.9,-5717.38 33552.48,-15673.17 16.44,0 32.89,48.16 32.89,48.16 8145.54,-9099.42 19184.43,-21226.1 35748.04,-21640.78 16524.85,-414.68 17073.45,3851.92 17793.56,-3601.7 702.48,-7514.72 -10011.01,-17025.29 -27792.81,-7855.39z"/>
   <path class="fil0" d="M299813.21 1037095.02l15043.52 -17363.61c-2965.01,-5792.57 -9417.77,-14610.05 -17952.14,-22003.76 -22602.88,-19582.66 -49454.73,-17202.67 -67773.39,3942.37 -16723.38,19304.25 -18289.28,44436.31 6056.88,65529.66 8051.56,6975.52 18292.81,12792.75 23919.74,15116.36l16439.1 -18190.61 -9700.88 -8403.98 -10976.62 11885.86c-2941.51,-1698.65 -8308.83,-5500.06 -12965.44,-9532.89 -13872.32,-12017.43 -13770.12,-30949.29 -409.98,-46372.25 14707.56,-16974.77 31718.74,-19556.82 47915.84,-5523.56 5140.6,4452.21 8181.96,8784.59 10114.38,11649.75l-9411.89 10862.68 9700.88 8403.98zm48767.51 54545.98l-20581.17 -11834.17 21233.14 -17102.82c3319.77,-2683.07 4979.66,-4539.13 6209.6,-5905.34l220.85 128.05c-624.96,1859.58 -1329.79,4118.58 -2091.01,8273.58l-4991.41 26440.7zm-72516.92 9228.64l27146.71 15609.74 5246.32 -9122.91 -8010.45 -4607.27 18360.95 -15198.59 27371.08 15736.61 -4455.73 23197.29 -7120.01 -4095.09 -5245.14 9125.26 28480.02 16375.66 5247.5 -9122.91 -6899.16 -3965.87 13389.51 -83791.93 -13793.62 -7932.92 -67795.7 52507.84 -6675.96 -3839 -5246.32 9124.09zm106224.47 57569.72l32700.81 11065.91 3372.63 -9967.54 -10455.05 -3538.27 9785.46 -28121.73 26505.31 8967.85 3620.5 -10699.39 -26505.31 -8967.85 9129.96 -26174.04 24678.61 8348.77 -3465.44 12648.26 11304.38 3824.9 7081.24 -22531.22 -59808.75 -20238.15 -3374.99 9965.19 9847.72 3332.69 -22534.74 64995.16 -8509.71 -2876.9 -3372.63 9966.36zm88501.4 27401.63l61905.63 11056.51 5433.1 -24582.29 -11875.29 -2120.38 -3582.91 14222.39 -26909.41 -4806.97 5485.96 -29265.91 25270.68 4513.29 1984.11 -11118.77 -25268.33 -4512.12 5128.85 -27244.21 25644.24 4579.08 -1541.24 13024.17 11746.07 2098.06 3647.52 -23335.91 -62157.03 -11103.49 -1851.36 10359.89 10233.02 1827.88 -12601.27 67626.54 -8842.15 -1577.66 -1850.19 10359.9zm115523.59 12817.42l33996.53 -859.9 -264.32 -10519.66 -10391.61 260.79 -1226.41 -68780.12 20528.31 -518.06 843.45 13072.34 12830.34 -323.05 -1110.11 -23593.17 -81467.15 2056.95 83.4 23621.36 12826.82 -324.23 184.43 -13100.53 20911.28 -528.62 1224.06 68781.3 -9235.69 233.77 266.67 10520.83zm85554.01 -5072.46l61273.64 -14140.16 -4656.61 -24742.05 -11753.12 2713.61 2289.54 14484.36 -26638.06 6149.68 -6445.71 -29072.08 25012.23 -5771.42 -2538.58 -11004.82 -25012.23 5771.42 -5981.7 -27068.01 25384.62 -5858.35 3693.34 12583.65 11629.77 -2685.42 -5810.19 -22893.03 -61526.2 14197.72 2367.07 10254.17 10130.83 -2337.7 14964.82 67144.91 -8749.35 2018.17 2365.89 10255.35zm91256.13 -23333.55l31400.39 -12379.25 -3858.97 -9790.16 -9669.16 3813.16 -9927.6 -25885.06 7162.3 -2824.03c3940.03,-1554.17 6248.36,-945.66 12062.07,3659.26l19137.44 14942.5c8095.03,6190.8 11600.4,5635.15 18646.4,2859.28l7759.06 -3060.16 -3861.32 -9790.15 -3102.45 1222.88c-2745.33,1080.75 -5437.8,902.19 -9379,-2096.88l-15098.73 -11703.78c-4747.07,-3647.52 -9404.85,-6363.48 -14201.25,-4886.85l-96.33 -237.3c10202.49,-5262.76 16925.43,-15501.66 11231.54,-29947.25 -4801.1,-12179.55 -16825.58,-18890.75 -34018.84,-12111.41l-37131.87 14637.07 3858.97 9788.98 8715.28 -3434.9 24750.27 64185.78 -8238.34 3246.94 3860.14 9791.33zm3800.24 -54749.22l-10680.6 -27793.98 11103.5 -4377.03c9671.5,-3810.8 17022.93,-912.76 20456.65,7800.18 3531.22,8954.92 -1060.78,16558.91 -10491.47,20275.74l-10388.08 4095.09zm50818.58 -72677.86l10419.81 -31069.11 -10365.77 -1894.83 -10187.21 32142.81 10133.17 821.13zm39310.98 84864.45l27876.22 -17867.56 -5680.97 -8860.94 -8104.43 5194.63 -36693.69 -58188.81 7672.12 -4919.75 -5677.44 -8856.24 -27876.21 17871.08 5679.79 8857.42 8102.07 -5194.63 36693.7 58188.81 -7672.12 4917.4 5680.96 8858.59zm65872.68 -103254.76l-17946.26 15546.3 -9169.9 -25677.13c-1441.39,-4017.55 -2647.83,-6194.32 -3534.75,-7807.22l195 -166.81c1550.64,1205.27 3451.35,2612.59 7123.53,4697.73l23332.38 13407.13zm-15130.45 71518.41l23668.35 -20502.47 -6892.11 -7956.41 -6984.91 6049.83 -8315.87 -22337.39 23863.35 -20672.8 20441.38 11834.17 -6209.59 5379.07 6894.46 7952.88 24828.98 -21509.2 -6889.76 -7957.59 -6014.59 5209.91 -74727.76 -40196.73 -12028 10419.81 27295.9 81292.11 -5819.59 5040.75 6889.76 7954.06z"/>
   <path class="fil0" d="M243649.62 322037.82l22437.24 -26069.49 -7976.38 -6863.91 -7202.23 8365.21 -18897.8 -16604.73 8623.66 -10018.05c4939.71,-5738.53 7007.23,-9716.15 8174.9,-15992.7 1547.12,-8486.21 -2301.28,-18573.57 -9887.65,-25101.52 -7393.72,-6365.83 -16450.85,-8234.82 -24266.29,-5646.9 -5153.52,1662.24 -9127.61,4506.24 -16995.91,13650.3l-22102.45 25678.3 7977.56 6865.1 6277.73 -7293.87 51804.18 45260.96 -5942.94 6907.38 7976.38 6863.92zm-19615.55 -48035.66l-24930 -21794.67 5191.11 -6031.03c4352.35,-5058.37 7770.8,-8044.52 12630.63,-8771.67 3786.14,-465.19 8519.11,725.98 12506.12,4157.35 7491.22,6449.24 9673.86,14930.75 1218.19,24754.97l-6616.05 7685.05zm86440.94 -77441.37l-18543.03 14828.55 -8153.77 -26015.45c-1283.97,-4071.6 -2403.48,-6294.18 -3224.61,-7938.79l199.7 -162.11c1502.47,1265.17 3346.79,2747.68 6935.57,4973.78l22786.14 14314.02zm-17931 70869.96l24455.42 -19556.82 -6573.76 -8220.72 -7216.34 5771.42 -7431.3 -22647.51 24657.47 -19720.1 19959.74 12629.46 -6416.35 5128.85 6574.94 8220.72 25657.16 -20520.09 -6573.76 -8218.37 -6214.29 4966.73 -73087.84 -43101.82 -12429.76 9939.35 24079.5 82301.2 -6013.41 4806.98 6572.58 8220.72zm78344.73 -88351.04l9031.28 19718.93c8399.28,-458.14 23563.8,-5567.02 29516.13,-8292.38 19367.69,-8870.35 27003.4,-23943.24 19577.96,-40163.83 -6574.93,-14351.61 -19308.95,-14728.7 -29766.34,-12905.53l-14099.05 2504.51c-8205.45,1500.13 -14579.5,1453.14 -17839.37,-5663.34 -2883.94,-6301.23 -379.43,-14083.78 11756.65,-19640.22 6301.22,-2886.3 11088.22,-3526.53 13160.44,-3625.2l4487.45 9797.2 12368.67 -5663.35 -8280.63 -18086.06c-6986.09,1081.92 -15937.49,2499.82 -26557,7360.83 -17149.81,7856.56 -27221.89,21926.23 -19848.15,38027.01 5985.22,13069.98 16898.42,14707.55 27460.36,13115.8l16340.42 -2540.93c9874.74,-1558.86 15017.68,-807.04 18009.71,5725.6 4006.98,8752.88 -740.08,16571.84 -11124.65,21329.48 -6534.99,2992.02 -13118.15,4031.65 -16153.63,3869.54l-4971.44 -10853.28 -13068.81 5985.22zm108665.55 -18109.55l33157.77 -7560.53 -2340.05 -10261.22 -10134.35 2310.69 -14787.43 -67183.68 20019.66 -4562.63 3413.75 12649.44 12509.64 -2852.23 -5747.93 -22909.48 -79456.02 18111.9 4747.06 23137.38 12510.82 -2852.24 -2405.84 -12878.5 20393.22 -4647.21 14789.78 67182.5 -9008.96 2052.24 2338.88 10263.57zm72740.12 -14735.75l62705.62 -4755.28 -879.87 -25159.08 -12028 911.59 82.23 14666.43 -27259.49 2065.17 -1994.68 -29708.78 25596.08 -1940.65 -855.2 -11260.91 -25594.9 1939.47 -1838.45 -27661.24 25976.69 -1970.01 1758.56 12995.98 11899.96 -903.37 -2296.59 -23506.23 -62960.53 4772.9 794.11 10494.99 10365.77 -787.06 4687.15 68632.1 -8956.1 678.99 797.64 10494.99zm82839.23 -3940.02l61683.61 8334.67 4709.47 -25265.98 -11954 -1615.24 -3299.8 14836.77 -26454.8 -3575.86 9717.32 -68101.14 9030.11 1219.37 1410.85 -10428.03 -32813.59 -4433.41 -1409.66 10429.2 9538.76 1288.67 -9718.5 68101.14 -9028.93 -1218.19 -1410.84 10428.03zm83858.88 12138.43l59862.79 19259.61 8681.22 -23631.94 -11482.94 -3694.51 -5458.94 13612.71 -26021.32 -8372.26 9362.55 -28265.05 24435.45 7861.26 3458.39 -10752.26 -24434.28 -7862.43 8734.08 -26309.13 24798.44 7981.08 -3272.79 12697.6 11358.42 3653.39 6745.27 -22636.94 -60108.31 -19335.97 -3222.27 10015.7 9895.88 3183.51 -21558.55 65326.43 -8549.64 -2750.03 -3223.45 10019.23zm78469.26 26631l29838 15777.73 4917.4 -9302.65 -9188.7 -4859.83 13183.93 -24386.11 6808.71 3598.18c3742.67,1980.59 4785.83,4129.16 5075.98,11541.67l1113.64 24249.84c569.74,10175.47 3276.31,12475.58 9969.89,16016.2l7373.75 3900.08 4920.92 -9304.99 -2950.91 -1561.21c-2610.24,-1377.95 -4225.49,-3539.45 -4514.47,-8482.69l-944.48 -19082.22c-324.22,-5975.83 -1293.37,-11282.06 -5538.82,-13959.26l120.99 -229.07c10637.14,4318.29 22786.14,2755.91 30043.59,-10970.75 6119.14,-11572.21 3385.55,-25067.45 -12952.52,-33705.2l-35286.37 -18656.97 -4918.58 9301.47 8281.81 4378.2 -32606.83 60573.49 -7829.54 -4138.55 -4917.39 9302.64zm44031.02 -32756.02l14144.86 -26201.05 10551.38 5578.76c9189.87,4859.84 11773.09,12325.21 7394.89,20605.85 -4499.2,8509.7 -13259.12,9974.58 -22222.27,5235.74l-9868.86 -5219.3zm102193.99 12777.48l32763.07 -669.59 -1709.22 -10395.14 -33696.98 1249.91 2643.13 9814.82zm-66633.9 65629.51l26224.55 20215.84 6425.74 -8334.67 -7625.13 -5877.15 42404.03 -54168.9 7218.68 5564.67 6424.57 -8334.67 -26225.73 -20215.83 -6424.56 8334.67 7622.78 5875.97 -42401.68 54168.9 -7217.51 -5563.5 -6425.74 8334.67zm111424.97 40441.07l-16322.79 -17240.26 25244.83 -10295.28c3949.42,-1616.42 6072.15,-2921.54 7645.11,-3875.42l173.85 184.43c-1133.6,1603.5 -2455.17,3565.29 -4377.02,7326.76l-12363.98 23899.77zm-72117.51 -11955.17l21529.18 22737.97 7642.75 -7235.13 -6354.08 -6710.03 21949.73 -9294.42 21707.73 22924.75 -10919.06 20944.17 -5646.9 -5965.25 -7643.94 7237.47 22587.61 23856.31 7643.93 -7235.13 -5469.52 -5777.29 36855.81 -76432.28 -10942.56 -11554.59 -80003.44 30858.84 -5294.48 -5591.69 -7642.76 7236.3z"/>
   <path class="fil0" d="M793942.3 570073.86l0 11134.04 50448.55 0 0 -11134.04 -50448.55 0zm83847.14 268300.05l0 11135.21 67166.05 0 0 -268301.22 83847.14 0 0 -67016.86 -11134.03 0 0 55882.82 -83847.15 0 0 268300.05 -56032.01 0zm-315330.14 -110427.64c-733.03,-4059.84 -1101.89,-8264.18 -1101.89,-12621.24l0 -6818.1 0 -60137.67 0 -134178.22 -11130.52 0 0 178860.04c0,13430.63 4050.45,24934.7 12232.41,34895.19zm198084.41 -213755.23l1947.69 0 0 55882.82 0 13333.13 0 64962.27 0 66955.77c0,37059.04 -13133.42,68647.38 -39401.44,94848.44 -26268.01,26196.36 -57862.23,39335.65 -94710.99,39335.65l0 0c-25108.56,0 -47700.87,-6034.56 -67810.98,-18070.79 14256.46,4614.32 29450.35,6935.58 45547.6,6935.58 39919.49,0 74311.9,-14404.47 102564.03,-42584.94 28343.75,-28266.22 42682.44,-62700.93 42682.44,-102737.89l0 -109644.09 0 -69215.95 9181.65 0zm-571281.48 324182.87l0 11135.21 67166.05 0 0 -170350.33 -11135.22 -10155.5 0 169370.62 -56030.83 0zm257166 975.02l11134.04 10160.19 0 -335318.08 -11134.04 0 0 325157.89z"/>
   <polygon class="fil0" points="855526.06,491915.91 771677.75,491915.91 771677.75,558938.65 855526.06,558938.65 855526.06,827235.17 922686.24,827235.17 922686.24,558938.65 1006534.56,558938.65 1006534.56,491915.91 922686.24,491915.91 "/>
   <path class="fil0" d="M673060.79 491915.91l0 134188.79 0 60132.98 0 6813.4c0,18465.5 -6601.95,34218.55 -19736.54,47357.85 -13205.08,13066.46 -28964.01,19669.59 -47208.66,19669.59l0 0c-18465.5,0 -34224.43,-6603.13 -47362.55,-19669.59 -13057.06,-13139.3 -19660.19,-28892.35 -19660.19,-47357.85l0 -6813.4 0 -60132.98 0 -134188.79 -67166.05 0 0 134188.79 0 66946.38c0,37063.74 13139.3,68657.95 39334.48,94854.31 26196.36,26201.06 57790.57,39329.78 94854.31,39329.78l0 0c36842.89,0 68437.1,-13128.72 94705.12,-39329.78 26268.02,-26196.36 39407.31,-57790.57 39407.31,-94854.31l0 -66946.38 0 -134188.79 -67167.23 0z"/>
   <polygon class="fil0" points="166997.67,491915.91 166997.67,827235.17 234159.02,827235.17 234159.02,643786.66 435293.02,827235.17 435293.02,491915.91 368126.96,491915.91 368126.96,675160.03 "/>
   <path class="fil0" d="M365383.98 432196.44l0 -3405.53 8691.79 0 0 -51448.23 3406.7 26125.87 0 28727.89 -12098.49 0zm17115.74 -134419.03l2543.28 0 5470.69 44496.21 -1269.88 10352.85 -6744.09 -54849.06zm41310.36 0l3405.53 0 0 134419.03 -12097.31 0 0 -3405.53 8691.78 0 0 -131013.5zm-18910.71 109995.33l-3224.62 24423.7 -11088.23 0 -444.04 -3405.53 7705.01 0 7051.88 -53401.8 0 32383.63zm51928.7 -109994.16l3406.7 0 0 134420.21 -13443.55 0 0 -3406.7 10036.85 0 0 -131013.51zm43118.26 13442.38l-5712.68 0 0 35484.9 -3406.71 0 0 -38891.61 3819.03 0c3236.37,0 4788.18,993.82 5300.36,3406.71zm-5712.68 120974.31l-13442.38 0 0 -3405.53 10035.67 0 0 -61830.45 686.04 0 2720.67 19631.99 0 45603.99zm24501.23 -126670.55c3379.68,4693.02 5071.28,11520.52 5071.28,20481.32l0 14787.43c0,12433.29 -3472.48,21280.14 -10417.46,26548.78l10081.49 64853.02 -13609.18 0 -472.24 -3405.53 11244.46 0 -10392.79 -66865.32c7873.01,-7018.98 10160.2,-17634.97 10160.2,-27943.18l0 -14788.6c0,-4890.38 -508.66,-9528.19 -1665.76,-13667.92zm38565.03 75590l-775.32 6249.53 -4223.13 0 2920.36 -23573.2 2078.09 17323.67zm-19851.67 51081.72l451.09 -3405.53 9377.83 0 2354.15 -20162.97 11098.8 0 425.25 3406.7 -7742.61 0 -2354.15 20161.8 -13610.36 0zm28946.39 -134419.03l2473.97 0 17806.47 134419.03 -13608.01 0 -425.25 -3405.53 11108.2 0 -17355.38 -131013.5zm46193.69 15702.54c-803.51,1280.45 -1206.44,3102.45 -1206.44,5468.34l0 18316.31c0,1565.91 300.73,3318.6 899.84,5258.07 -2404.66,-4221.96 -4305.37,-8634.23 -4305.37,-12070.3l0 -18317.48c0,-1872.51 -43.46,-4320.64 2304.81,-4320.64 2348.28,0 2307.16,2448.13 2307.16,4320.64l0 1345.06zm18244.65 59663.09c3608.75,6565.53 5414.3,12473.22 5414.3,17721.89l0 11757.82c0,19715.4 -6379.92,29572.52 -19153.88,29572.52 -4564.98,0 -8312.35,-1260.48 -11246.81,-3779.09 1377.95,241.99 2851.05,373.56 4434.58,373.56 18678.12,0 22559.41,-17811.17 22559.41,-32980.39l0 -11756.65c0,-3642.82 -760.04,-7317.36 -2007.6,-10909.66zm-22856.62 12844.44l3405.53 0 0 22300.97c-290.16,158.58 -651.97,247.86 -1100.72,247.86 -2350.62,0 -2304.81,-2448.12 -2304.81,-4325.33l0 -18223.5zm22922.4 -81633.96c3565.29,4911.52 5348.52,12576.6 5348.52,22995.23l0 12267.65 -13440.02 0 0 -3406.7 10033.32 0 0 -15673.18c0,-5366.14 -487.51,-11062.38 -1941.82,-16183zm37668.72 7599.29c-2147.4,1098.37 -3221.09,3429.02 -3221.09,6995.48l0 89586.85 -90.46 1.17c-2908.62,0 -3316.24,-1615.24 -3316.24,-4325.33l0 -92076.09c0,-2705.39 411.15,-4320.64 3316.24,-4320.64 2838.14,0 3292.76,1545.94 3311.55,4138.56zm23662.48 90669.94c0,19715.4 -6724.13,29572.52 -20160.62,29572.52 -4863.36,0 -8846.86,-1291.03 -11951.65,-3871.9 1582.35,304.26 3291.58,466.37 5138.24,466.37 19005.87,0 23567.33,-16972.42 23567.33,-32980.39l0 -75272.83c0,-5373.19 -515.71,-10854.45 -1917.15,-15765.98 3547.66,4924.45 5323.85,12449.73 5323.85,22578.21l0 75274zm45376.08 16131.32l3406.71 0 0 13442.37 -34112.83 0 0 -3405.53 30706.12 0 0 -10036.84zm-20665.75 -120976.66l3406.7 0 0 110757.73 -3406.7 0 0 -110757.73zm65922.02 120976.66l3405.53 0 0 13442.37 -34111.66 0 0 -3405.53 30706.13 0 0 -10036.84zm0 -120976.66l3405.53 0 0 13442.37 -20666.93 0 0 35486.08 -3406.71 0 0 -38892.78 20668.11 0 0 -10035.67zm-8910.29 59146.2l3405.53 0 0 13442.38 -11756.64 0 0 38169.15 -3406.71 0 0 -41574.68 11757.82 0 0 -10036.85zm39619.94 -43447.18c-805.86,1278.1 -1209.97,3102.44 -1209.97,5471.86l0 18316.31c0,1567.08 300.73,3320.95 901.02,5262.77 -2404.67,-4223.14 -4307.72,-8637.75 -4307.72,-12075l0 -18317.48c0,-1874.86 -39.94,-4320.64 2309.51,-4320.64 2348.27,0 2307.16,2448.13 2307.16,4320.64l0 1341.54zm18241.12 59660.73c3611.1,6567.89 5415.48,12476.75 5415.48,17727.77l0 11757.82c0,19715.4 -6383.45,29572.52 -19150.36,29572.52 -4566.15,0 -8314.7,-1260.48 -11246.81,-3780.27 1375.6,243.17 2851.06,374.74 4433.41,374.74 18674.6,0 22558.24,-17814.7 22558.24,-32980.39l0 -11756.65c0,-3645.17 -761.23,-7322.05 -2009.96,-10915.54zm-22857.79 12850.32l3406.7 0 0 22304.49c-290.16,156.24 -650.8,244.34 -1097.19,244.34 -2351.8,0 -2309.51,-2445.77 -2309.51,-4325.33l0 -18223.5zm22924.75 -81631.61c3565.29,4911.52 5348.52,12575.42 5348.52,22992.88l0 12267.65 -13437.67 0 0 -3406.7 10032.15 0 0 -15673.18c0,-5364.97 -488.69,-11060.03 -1943,-16180.65z"/>
   <path class="fil0" d="M358570.58 425384.21l0 -134417.86 19660.19 0 8903.24 72413.55 2184.98 23863.36 2015.83 -23689.5 8904.41 -72587.41 20164.15 0 0 134417.86 -12097.31 0 0 -105184.83 -1685.73 16132.49 -11757.82 89052.34 -11088.23 0 -11762.51 -90228.24 -1341.54 -14786.26 0 105014.5 -12099.66 0zm81408.41 -134416.68l13443.55 0 0 134419.03 -13443.55 0 0 -134419.03zm54834.97 59145.03c5826.63,0 8738.78,-3028.44 8738.78,-9075.92l0 -27556.69c0,-6048.66 -2968.53,-9071.22 -8906.77,-9071.22l-7224.55 0 0 45703.83 7392.54 0zm-7392.54 75271.65l-13442.38 0 0 -134416.68 20666.93 0c14896.69,0 22347.96,9410.72 22347.96,28225.11l0 14788.6c0,12432.11 -3472.48,21280.14 -10417.45,26548.78l10080.31 64854.19 -13608.01 0 -8569.62 -61830.45 -7057.74 0 0 61830.45zm61025.76 -34613.26l13441.2 0 -4535.61 -37804.98 -2183.81 -23858.66 -2018.18 23691.85 -4703.6 37971.79zm-17811.17 34613.26l17811.17 -134417.86 13609.19 0 17806.47 134417.86 -13608.01 0 -2517.43 -20161.79 -17136.88 0 -2355.32 20161.79 -13609.19 0zm85357.84 -113249.32c0,-5149.99 -1905.41,-7726.16 -5712.69,-7726.16 -3807.28,0 -5711.51,2576.17 -5711.51,7726.16l0 18317.48c0,5823.11 4142.08,14227.09 12434.46,25202.54 8287.68,10981.33 12429.76,20442.56 12429.76,28397.79l0 11756.65c0,19716.57 -6378.75,29574.86 -19152.71,29574.86 -12769.25,0 -19152.71,-9858.29 -19152.71,-29574.86l0 -16634.1 13441.2 0 0 25035.73c0,5158.21 1904.23,7730.86 5711.51,7730.86 3807.28,0 5712.69,-2572.65 5712.69,-7730.86l0 -15458.2c0,-8285.34 -4142.08,-17751.27 -12435.64,-28394.27 -8287.68,-10638.31 -12429.76,-21055.76 -12429.76,-31251.2l0 -8570.79c0,-19713.05 6383.46,-29568.99 19152.71,-29568.99 12773.96,0 19152.71,9855.94 19152.71,29568.99l0 12267.65 -13440.02 0 0 -20669.28zm55981.5 0c0,-5149.99 -2241.38,-7726.16 -6719.43,-7726.16 -4481.57,0 -6722.95,2576.17 -6722.95,7726.16l0 92076.09c0,5158.21 2241.38,7730.86 6722.95,7730.86 4478.05,0 6719.43,-2572.65 6719.43,-7730.86l0 -92076.09zm13441.2 83674.46c0,19716.57 -6724.13,29574.86 -20160.63,29574.86 -13442.37,0 -20164.14,-9858.29 -20164.14,-29574.86l0 -75272.83c0,-19713.05 6721.77,-29568.99 20164.14,-29568.99 13436.5,0 20160.63,9855.94 20160.63,29568.99l0 75272.83zm28117.03 16131.32l20665.75 0 0 13444.72 -34111.65 0 0 -134419.04 13445.9 0 0 120974.32zm45253.91 0l20668.11 0 0 13444.72 -34110.48 0 0 -134419.04 34110.48 0 0 13441.2 -20668.11 0 0 45705.01 11757.82 0 0 13441.2 -11757.82 0 0 48386.91zm58189.98 -99805.78c0,-5149.99 -1905.4,-7726.16 -5712.68,-7726.16 -3806.11,0 -5715.04,2576.17 -5715.04,7726.16l0 18317.48c0,5823.11 4145.61,14227.09 12434.46,25202.54 8292.38,10981.33 12432.11,20442.56 12432.11,28397.79l0 11756.65c0,19716.57 -6383.45,29574.86 -19151.53,29574.86 -12770.43,0 -19153.88,-9858.29 -19153.88,-29574.86l0 -16634.1 13438.84 0 0 25035.73c0,5158.21 1908.93,7730.86 5715.04,7730.86 3807.28,0 5712.68,-2572.65 5712.68,-7730.86l0 -15458.2c0,-8285.34 -4147.95,-17751.27 -12433.28,-28394.27 -8286.51,-10638.31 -12433.28,-21055.76 -12433.28,-31251.2l0 -8570.79c0,-19713.05 6383.45,-29568.99 19153.88,-29568.99 12768.08,0 19151.53,9855.94 19151.53,29568.99l0 12267.65 -13438.85 0 0 -20669.28z"/>
  </g>
  <polygon class="fil1" points="1195801.48,1258169.96 0,1258169.96 0,0 1195801.48,0 "/>
 </g>
</svg>
