<?xml version="1.0" encoding="UTF-8"?>
<!DOCTYPE svg PUBLIC "-//W3C//DTD SVG 1.1//EN" "http://www.w3.org/Graphics/SVG/1.1/DTD/svg11.dtd">
<!-- Creator: CorelDRAW 2017 -->
<svg xmlns="http://www.w3.org/2000/svg" xml:space="preserve" width="1.76389E+06px" height="1.12536E+06px" version="1.1" style="shape-rendering:geometricPrecision; text-rendering:geometricPrecision; image-rendering:optimizeQuality; fill-rule:evenodd; clip-rule:evenodd"
viewBox="0 0 190509.36 121395.06"
 xmlns:xlink="http://www.w3.org/1999/xlink">
 <defs>
  <style type="text/css">
   <![CDATA[
    .str0 {stroke:#51363B;stroke-width:935.76;stroke-linecap:round;stroke-linejoin:round;stroke-miterlimit:22.9256}
    .fil2 {fill:none}
    .fil0 {fill:none;fill-rule:nonzero}
    .fil1 {fill:#51363B;fill-rule:nonzero}
   ]]>
  </style>
 </defs>
 <g id="Capa_x0020_1">
  <metadata id="CorelCorpID_0Corel-Layer"/>
  <g id="_2274687788672">
   <path class="fil0 str0" d="M20749.3 52357.5c2487.62,-227.39 2408.64,2644.64 81.22,2869.59 -5366.75,518.23 -6074.37,-8256 2018.24,-8222.12 424.28,1.87 1453.42,-58.02 956.35,0l5175.86 0"/>
   <path class="fil1" d="M32199.23 53847.04c0,460.2 1117.85,525.89 1117.85,-131.57l153.28 -13456.57c4646.41,12426.49 4821.58,12864.8 5040.74,13325 175.36,372.62 854.9,635.57 1008.18,175.36 0,-1271.13 219.16,-7341.95 263.14,-8613.08 87.58,-2279.32 416.41,-4558.64 482.1,-6837.96 21.9,-482.1 -21.9,-503.99 -547.98,-525.89 -328.64,0 -569.69,0 -569.69,241.05 -285.03,1227.34 -197.26,2564.16 -263.13,3879.09 -131.39,2147.94 -306.75,7539.4 -328.64,8503.6l-4471.05 -12119.74c-460.21,-1271.14 -1665.65,-745.05 -1621.67,131.57l-263.13 15429.14zm16327.65 -4712.1c-109.48,-4032.56 65.88,-7933.73 -43.79,-11790.92 -21.9,-372.62 -328.83,-438.5 -679.36,-438.5 -394.52,0 -526.08,43.98 -635.57,394.52 109.49,4230 153.28,10344.61 87.59,13062.24 -21.9,591.77 -262.95,1841.01 -1030.08,1841.01 -3002.47,0 -2038.27,-14267.68 -2410.7,-14903.25 -153.46,-438.31 -1315.11,-460.21 -1315.11,21.9l0 109.67 43.98 1073.87c219.15,7670.78 416.41,14333.37 3111.95,14662.01 197.26,21.9 372.62,43.98 526.08,43.98 2279.32,0 2301.22,-2169.83 2345.01,-4076.53zm2432.6 4712.1c0,416.41 4909.36,504 4865.56,-241.24 -65.88,-1008 -1139.75,-504 -2608.14,-504 -197.26,0 -942.31,0 -1139.57,-21.9l65.69 -5720.09 2191.73 -328.83c876.62,-131.57 1271.14,-1139.56 241.06,-1139.56l-109.68 0 -2366.9 350.53 -109.67 -7276.26 2630.04 0c350.72,0 942.31,-197.26 942.31,-635.57 0,-43.79 0,-65.69 -21.9,-109.48 -21.9,-109.67 -460.21,-438.31 -591.59,-438.31l-3462.86 0c-394.52,0 -767.13,372.43 -767.13,766.95l241.05 15297.76zm7210.57 -2871.09c0,1314.92 504,3331.29 2125.85,3331.29 1336.83,0 2323.11,-1556.16 2673.84,-2695.73 525.89,-1665.64 65.69,-4120.32 -832.83,-5807.87 -986.29,-1841.01 -2849.19,-3396.99 -2849.19,-5610.61 0,-766.95 87.77,-2323.11 1205.44,-2323.11 1205.44,0 942.5,1314.92 1797.22,1314.92 438.31,0 569.69,-241.05 569.69,-657.46 0,-1139.57 -1599.77,-1906.7 -2564.17,-1906.7 -1512.18,0 -2257.42,2038.27 -2257.42,3265.61 0,2717.62 2213.63,4690.01 3243.71,7057.1 504,1139.57 591.77,2432.6 591.77,3638.04 0,898.52 -350.72,2586.06 -1578.06,2586.06l-131.56 0c-1095.78,-635.57 -262.95,-2564.16 -1139.57,-2827.11 -350.72,-109.67 -854.72,262.95 -854.72,635.57zm9686.96 1117.67c0,197.25 438.31,306.92 569.88,306.92 131.38,0 569.69,-109.67 569.69,-306.92l-416.42 -13916.78 1841.01 0c197.26,0 438.31,-219.15 438.31,-416.41 0,-635.56 -810.74,-701.44 -1293.03,-723.34l-1841.01 0c-2279.31,-131.57 -2279.31,131.57 -2323.11,876.62 43.8,372.62 657.46,394.51 2016.37,306.93l438.31 13872.98zm5194.2 2345c153.47,219.35 416.42,306.93 657.47,306.93 547.98,0 482.29,-460.2 482.29,-876.62 21.89,-1862.9 131.38,-6728.28 153.27,-6925.54 0,-197.25 87.78,-1074.06 131.57,-1271.32l350.72 0c1336.82,0 1555.98,1468.58 1643.75,2542.46 43.8,745.05 241.05,4098.24 262.95,4821.58 87.59,306.74 372.62,306.74 613.67,306.74l21.9 0c284.84,0 635.56,-43.79 635.56,-416.41l0 -175.36c0,-131.38 -131.56,-1139.57 -131.56,-1271.13 -109.49,-1512.19 131.56,-4646.23 -854.72,-5939.26 -87.59,-153.46 -591.78,-745.23 -701.26,-854.72 1446.49,-986.29 1862.91,-2849.19 1862.91,-4449.15l0 -241.05c0,-1928.6 -1293.03,-3243.52 -3309.4,-3243.52l-219.16 0c-876.62,0 -1249.24,0 -1293.03,1008.18 -131.57,4931.07 -306.93,9906.12 -306.93,14837.37l0 1840.82zm1424.6 -10519.78c0,-1950.49 175.36,-3550.45 153.46,-5457.15 0,-372.62 219.16,-569.88 547.8,-569.88 1249.23,0 1731.52,1315.12 1731.52,2345.01 0,1008.19 -591.77,3879.28 -2147.94,3879.28 -131.38,0 -284.84,-21.9 -284.84,-197.26zm5895.46 810.93c0,2564.16 175.36,9182.96 4054.64,9182.96 2191.54,0 3002.47,-2783.32 3155.93,-4383.28 219.16,-2914.88 789.03,-12251.31 -3134.04,-12689.62 -3879.27,0 -4076.53,5106.62 -4076.53,7889.94zm1271.13 -2016.37c0,-1095.78 701.45,-4755.71 2345.2,-4755.71 2082.06,0 2542.26,6136.51 2542.26,7824.05l0 87.59c0,1380.81 -21.89,6947.63 -2169.83,6947.63 -1555.98,0 -2739.52,-1753.43 -2739.52,-8174.78 0,-613.67 0,-1227.34 21.89,-1928.78zm8437.91 8262.55c0,1314.92 504,3331.29 2125.86,3331.29 1336.82,0 2323.11,-1556.16 2673.83,-2695.73 525.9,-1665.64 65.69,-4120.32 -832.82,-5807.87 -986.29,-1841.01 -2849.2,-3396.99 -2849.2,-5610.61 0,-766.95 87.78,-2323.11 1205.44,-2323.11 1205.45,0 942.5,1314.92 1797.22,1314.92 438.31,0 569.69,-241.05 569.69,-657.46 0,-1139.57 -1599.77,-1906.7 -2564.16,-1906.7 -1512.19,0 -2257.42,2038.27 -2257.42,3265.61 0,2717.62 2213.62,4690.01 3243.71,7057.1 503.99,1139.57 591.77,2432.6 591.77,3638.04 0,898.52 -350.72,2586.06 -1578.06,2586.06l-131.57 0c-1095.77,-635.57 -262.95,-2564.16 -1139.57,-2827.11 -350.72,-109.67 -854.72,262.95 -854.72,635.57z"/>
   <path class="fil1" d="M28696.31 60120.54c-4389.82,0 -6483.49,4693.95 -7294.04,8205.85 -1553.36,6584.92 -371.5,16749.31 7294.04,16918.12 1080.61,0 2330.04,-405.19 1654.61,-1587.05 -506.43,-911.8 -2735.22,337.62 -4187.33,-878.11 -2971.59,-2465.16 -3241.65,-5538 -3241.65,-9860.45 0,-3815.83 1451.92,-10603.26 4727.63,-10603.26l202.5 0c472.75,0 2431.47,236.37 2431.47,-945.67 0,-776.68 -878.11,-1249.43 -1587.23,-1249.43zm12696.92 25563.02c472.74,-67.56 675.43,-371.49 675.43,-742.99 0,-675.43 -607.87,-810.36 -1148.18,-810.36 -1451.92,0 -2802.78,472.74 -4221.01,472.74l-236.37 0c-405.19,-6956.42 -472.75,-13946.53 -641.56,-20835.39 -33.87,-1316.98 101.25,-2127.35 -202.68,-3444.33 -202.69,-742.99 -472.75,-709.12 -1080.62,-709.12 -135.12,0 -540.3,33.69 -641.55,67.56 -236.37,236.37 -236.37,337.62 -236.37,607.68l0 236.56c33.68,641.56 438.87,5808.06 438.87,6449.8 0,2296.17 405.37,19720.9 439.05,19720.9l6854.99 -1013.05zm11582.8 -6010.93l844.25 6416.12c33.68,236.37 371.3,236.37 573.99,236.37l101.25 0c641.74,0 776.68,-270.25 1013.05,-911.8 0,-33.69 33.87,-33.69 33.87,-67.56l-202.68 -2194.92c-911.8,-7969.47 -1823.42,-15905.07 -3782.15,-23638.17l-270.06 -709.11c-202.68,-337.62 -675.43,-506.43 -1046.73,-506.43 -844.24,0 -1080.62,945.49 -1249.61,1587.04 0,0 -33.69,67.56 -3545.59,24549.97 0,337.62 303.93,1215.55 742.8,1215.55 979.37,0 945.49,-1452.11 1013.06,-1958.54l574.18 -3815.83 202.49 -202.69 4997.88 0zm-2532.72 -17762.36l2262.48 15770.13 -4221.02 -101.43 1958.54 -15668.7zm8678.59 19619.65c0,2026.11 776.68,5132.82 3275.71,5132.82 2059.79,0 3579.46,-2397.6 4119.77,-4153.45 810.37,-2566.41 101.25,-6348.56 -1283.3,-8948.84 -1519.48,-2836.47 -4389.82,-5234.06 -4389.82,-8644.71 0,-1181.86 134.93,-3579.46 1857.1,-3579.46 1857.29,0 1452.11,2026.1 2769.09,2026.1 675.43,0 877.93,-371.5 877.93,-1013.05 0,-1756.04 -2464.97,-2937.9 -3950.77,-2937.9 -2330.03,0 -3478.21,3140.58 -3478.21,5031.56 0,4187.33 3410.65,7226.48 4997.7,10873.5 776.68,1756.05 911.8,3748.27 911.8,5605.57 0,1384.54 -540.31,3984.83 -2431.29,3984.83l-202.68 0c-1688.48,-979.37 -405.18,-3950.96 -1756.04,-4356.33 -540.31,-168.81 -1316.99,405.37 -1316.99,979.36zm11143.75 4862.76c0,979.18 1890.98,844.24 1958.54,-641.74l1013.05 -23097.68c0,-67.56 33.69,-506.62 33.69,-607.86 0,-979.37 0,-1418.24 -979.18,-1418.24 -709.11,0 -877.93,33.69 -1114.48,709.12l-911.62 25056.4zm14250.28 -26272.14c-4389.83,0 -6483.49,4693.95 -7294.05,8205.85 -1553.35,6584.92 -371.49,16749.31 7294.05,16918.12 1080.61,0 2330.03,-405.19 1654.6,-1587.05 -506.43,-911.8 -2735.22,337.62 -4187.33,-878.11 -2971.59,-2465.16 -3241.65,-5538 -3241.65,-9860.45 0,-3815.83 1451.93,-10603.26 4727.64,-10603.26l202.5 0c472.74,0 2431.47,236.37 2431.47,-945.67 0,-776.68 -878.12,-1249.43 -1587.23,-1249.43zm4964 11785.31c0,3950.95 270.06,14149.02 6247.12,14149.02 3376.96,0 4626.38,-4288.57 4862.76,-6753.73 337.62,-4491.08 1215.73,-18876.66 -4828.89,-19551.91 -5977.05,0 -6280.99,7868.04 -6280.99,12156.62zm1958.54 -3106.72c0,-1688.48 1080.61,-7327.73 3613.34,-7327.73 3207.96,0 3917.08,9455.27 3917.08,12055.36l0 135.13c0,2127.35 -33.69,10704.69 -3343.09,10704.69 -2397.6,0 -4221.02,-2701.53 -4221.02,-12595.86 0,-945.49 0,-1890.98 33.69,-2971.59zm13000.85 12730.79c0,2026.11 776.68,5132.82 3275.72,5132.82 2059.79,0 3579.46,-2397.6 4119.76,-4153.45 810.37,-2566.41 101.25,-6348.56 -1283.3,-8948.84 -1519.48,-2836.47 -4389.82,-5234.06 -4389.82,-8644.71 0,-1181.86 134.94,-3579.46 1857.1,-3579.46 1857.29,0 1452.11,2026.1 2769.1,2026.1 675.43,0 877.92,-371.5 877.92,-1013.05 0,-1756.04 -2464.97,-2937.9 -3950.76,-2937.9 -2330.04,0 -3478.21,3140.58 -3478.21,5031.56 0,4187.33 3410.64,7226.48 4997.69,10873.5 776.68,1756.05 911.8,3748.27 911.8,5605.57 0,1384.54 -540.3,3984.83 -2431.28,3984.83l-202.69 0c-1688.48,-979.37 -405.18,-3950.96 -1756.04,-4356.33 -540.31,-168.81 -1316.99,405.37 -1316.99,979.36z"/>
   <path class="fil1" d="M135813.77 19211.47c-714.54,-2622.18 -445.04,-2927.79 -1658.16,-2455.42 260.14,1369.95 978.99,1937.39 1170.45,4625.26 97.69,1367.51 49.4,3226.68 -171.25,4501.74 -103.68,598.88 -235.62,1316.42 -379.54,1991.85 -170.31,797.46 -1451.55,5202.63 -1822.86,5687.91 -2114.43,-2091.42 -554.34,-8818.58 -2136.7,-10998.7l-429.14 -721.66c-246.48,-569.32 -584.1,-952.98 -1050.48,-1025.03 -322.28,1090.35 174.42,1523.6 98.81,2252.18 -1.87,18.9 -10.48,56.9 -13.66,75.99l-119.22 812.42c-160.57,759.09 -256.77,722.22 -211.85,1732.27 32.94,732.52 95.07,1468.96 260.51,2181.82 255.84,1101.94 471.06,2518.12 1248.49,3594.99 763.02,1057.03 1681.56,1672.38 2277.07,2435.4 -171.99,1278.62 -698.07,2677.76 -859.96,4264.06 -171.8,1685.11 -68.12,3192.8 155.9,4950.34 -2216.62,-2755.99 -591.21,-7315.37 -1844.75,-10438.74 -79.73,-198.01 -205.87,-440.56 -355.59,-632.39l-410.61 -713.23c-225.14,-565.01 -494.64,-839 -968.7,-996.02 -588.59,1088.47 206.06,1246.99 -45.29,2642.58l-257.89 1717.11c26.76,3667.05 808.12,6169.45 3498.42,8409.28 205.68,171.05 86.65,54.09 229.64,172.36 877.36,724.84 809.05,2275.39 1386.41,3405.41l633.7 1055.54c249.28,463.57 456.27,671.68 635.56,1270.57 -1331.77,-541.43 -1722.16,-1297.52 -2540.02,-2441.39 -1161.08,-1624.1 -2020.48,-3143.02 -3420.94,-4400.68l-2748.5 -2250.31c-242.93,-186.97 -418.66,-319.66 -671.32,-503.25 -171.43,-124.64 -492.77,-382.73 -715.1,-366.63l192.95 1097.27c9.36,43.42 14.79,72.43 23.96,116.97 132.87,634.82 191.27,824.03 447.48,1388.1 672.06,1478.5 1643.75,2638.27 2800.72,3643.28 20.96,18.34 49.03,45.1 70.37,63.82 1911.75,1695.21 3691.56,2812.32 6194.71,3799.92 778.74,307.3 416.6,93.01 812.61,795.21 346.79,614.42 953.54,1511.43 1395.22,1842.5 415.85,-654.28 417.53,-106.49 -408.74,-1154.72 -224.21,-284.47 -739.81,-1001.82 -924.53,-1370.51 128.01,-325.46 72.43,-219.53 298.13,-531.7 486.6,-673.37 1028.21,-1104.01 1569.08,-1750.24l338.93 -444.11c623.22,-741.49 1783.56,-1187.48 2637.34,-2478.82l866.89 -1440.51c164.88,-397.88 185.46,-145.41 -45.48,-586.72 443.17,-143.92 -378.8,154.96 142.23,23.21 138.68,-35.37 -15.9,182.29 191.46,-130.82 492.58,-743.74 361.58,-1734.71 211.85,-2603.46l-149.9 294.39c-15.35,32.56 -61.58,154.77 -78.05,186.96 -125.39,243.3 297.01,175.36 -206.05,235.44 -441.68,52.59 1.68,-130.82 8.42,-174.62 24.14,-158.33 489.78,167.69 -58.58,-353.15 -388.15,466.19 -395.26,585.41 -708.93,1067.32l-1444.24 1732.47c-19.28,20.21 -48.66,45.85 -68.13,65.5l-1977.63 2359.79c-310.67,371.5 -614.23,650.73 -954.66,1030.65 -1144.43,1277.12 -388.15,1872.82 -902.07,2852.75 -307.49,-946.8 -753.28,-1833.15 -1085.48,-2815.51 -462.45,-1366.02 -892.52,-2540.4 293.65,-3334.11 212.22,-142.04 328.82,-204.74 586.15,-385.9 2757.31,-1939.08 5227.89,-2354.37 7228.54,-5774.19 414.73,-709.3 678.05,-1560.09 974.69,-2371.58 682.54,-1865.9 357.83,-1137.13 365.5,-2492.86l-1729.46 1107.75c-218.6,156.09 -172.37,92.08 -343.99,309.74l-444.86 405.93c-229.44,195.01 141.49,27.51 -472.74,352.78 -1827.72,967.95 -3811.15,3096.8 -4999.57,4800.06 -561.08,804.38 -1185.79,1458.85 -1723.66,2428.29 -395.83,713.42 -284.1,1634.77 -482.48,2041.82l-194.63 -3622.87c30.5,-1504.89 1012.11,-959.16 3348.14,-4140.54 268.56,-366.26 393.95,-504.75 596.07,-833.76 213.17,-347.73 330.89,-536.38 519.54,-886.91 329.38,-612.55 661.01,-1258.79 939.5,-1950.5l1119.54 -2954.18c135.49,-370.75 177.42,-782.67 274.17,-1033.83 -464.51,330.7 -972.62,705.94 -1408.12,1169.14 -635.76,675.43 -1347.68,1368.82 -1833.9,2123.79 -1568.14,2433.35 -674.12,1486.17 -952.23,2427.17l-216.35 -435.88c-372.99,564.64 -801.94,1830.91 -1077.99,2562.48 -281.29,743.93 -562.2,1900.9 -1136.2,2429.23 164.89,-2711.26 1277.87,-5622.97 2117.62,-8188.07 154.97,-472.74 142.43,-953.53 439.25,-1273.75 178.54,-192.39 864.26,-579.61 1183.54,-875.68 669.26,-620.78 1091.85,-1334.77 1611.94,-2056.8 534.5,-742.24 796.89,-1628.59 1022.6,-2571.46 222.33,-927.15 294.57,-2176.94 64,-3250.63 -130.26,-608.24 -279.42,-985.17 -580.54,-1475.88 -270.81,-440.93 -586.35,-887.84 -1049.17,-1084.73l-738.69 6609.82c-133.07,425.21 -230.2,799.51 -390.96,1194.77 -303.56,745.8 -584.1,1573.01 -792.96,2398.72 -241.8,-454.77 262.39,-197.25 -395.45,-462.45 281.66,-208.67 418.84,459.27 637.44,-1418.42 130.63,-1120.1 -6.55,-3163.61 472.93,-3951.14 1678.37,-2758.24 757.21,-8108.15 -2336.78,-8626.56l1276.19 3599.48c147.85,334.07 68.31,72.81 124.64,309.36l250.22 1694.85c78.98,721.47 200.07,234.13 -98.44,891.21zm-3281.7 596.46l-771.62 -105.56c198.19,839 227.95,188.09 293.64,1257.47 71.86,1164.27 523.46,2467.78 858.84,3427.5 29.19,12.53 74.11,-3.93 90.39,29.19l296.07 31.63c-436.43,398.26 -417.34,160.01 279.05,1818.36 287.27,683.67 498.94,1436.95 997.89,1820.05 -69.81,-1313.43 -248.91,-2658.3 -336.13,-3950.2 -302.06,-162.08 -254.71,74.29 -459.27,-47.17 214.67,-393.95 58.77,-107.98 370,-471.81 -70.55,-487.34 -127.64,-430.07 -185.46,-815.04 -113.23,-751.6 -339.5,-1886.11 -687.41,-2535.72 -444.86,-829.64 -282.98,-994.14 -626.02,-1713.37 -142.99,-299.63 -630.14,-1227.34 -936.51,-1439.38 -494.83,3011.08 803.07,1519.3 816.54,2694.05z"/>
   <line class="fil0 str0" x1="124741.33" y1="34441.3" x2="119022.73" y2= "34441.3" />
   <line class="fil0 str0" x1="123470.95" y1="35712.62" x2="120294.05" y2= "35712.62" />
   <line class="fil0 str0" x1="132366.82" y1="35712.62" x2="131096.06" y2= "35712.62" />
   <line class="fil0 str0" x1="126647.84" y1="36347.63" x2="126012.09" y2= "36347.63" />
   <line class="fil0 str0" x1="131096.06" y1="37618.95" x2="129189.92" y2= "36983.19" />
   <line class="fil0 str0" x1="138721.36" y1="37618.95" x2="137450.04" y2= "36983.19" />
   <path class="fil0 str0" d="M139992.12 53504.36c-7028.66,-2278.57 -13575.6,-3650.57 -18427.5,-9531.62 -1703.83,-2520.93 -3025.3,-3392.31 -3812.65,-6353.79m8260.12 1906.32c-2683.19,-929.21 -5204.12,-1840.26 -8260.12,-1906.32 -1328.59,-1002.76 -1328.59,-268.75 0,-1271.32"/>
   <line class="fil0 str0" x1="143804.58" y1="39525.27" x2="141262.5" y2= "38253.95" />
   <line class="fil0 str0" x1="129824.93" y1="40160.28" x2="128553.98" y2= "40160.28" />
   <line class="fil0 str0" x1="146981.48" y1="40795.84" x2="146346.47" y2= "40160.28" />
   <path class="fil0 str0" d="M136815.22 42702.17c-2433.34,-512.61 -2371.21,-662.71 -4448.4,-1906.33"/>
   <path class="fil0 str0" d="M143283.18 44957.53c-2005.52,-638 -2333.41,-1114.49 -3291.06,-1619.61"/>
   <path class="fil0 str0" d="M137450.04 49691.71l-3176.9 -1906.32m-635.94 0l635.94 0 1270.39 -634.82"/>
   <path class="fil0 str0" d="M146346.47 49691.71l-635.38 -634.81m-8895.87 1906.32c-2349.31,-1092.78 -4634.62,-2073.83 -6990.29,-3329.42 -3440.6,-1833.53 -6834.22,-3023.81 -3812.84,-5567.2m20334.38 6354.54l-635.38 635.76c-1648.43,-1187.48 -644.92,63.63 -1906.51,-1906.33 -3071.9,348.1 -13177.71,-4212.03 -17792.49,-5083.97l-1270.76 -635"/>
   <path class="fil0 str0" d="M146981.48 52233.79c2737.84,1121.98 3074.15,1604.64 5718.97,634.82 -2827.86,-2231.97 -2553.31,-976.37 -3177.08,-3176.9m5718.97 6354.73c4071.67,312.92 2347.07,1766.71 5719.17,-635.75 -2816.07,-2222.24 -8024.69,-4999.19 -11438.14,-5718.98l-635.38 -634.81"/>
   <path class="fil0 str0" d="M142534.01 50963.22l635 -635.75m1271.32 635.75l-1271.32 -635.75c-2084.86,-1531.09 -2787.43,-1621.11 -5083.22,-2542.08"/>
   <line class="fil0 str0" x1="140627.5" y1="52233.79" x2="139356.18" y2= "51598.04" />
   <path class="fil0 str0" d="M152700.45 55410.69c-2571.27,-485.66 -4577.35,-1071.82 -6989.36,-1906.33"/>
   <path class="fil0 str0" d="M145711.09 55410.69c-1346.55,-445.8 -1915.49,-670.94 -3177.08,-1270.57"/>
   <path class="fil0 str0" d="M160325.56 57952.77l-4447.28 0c-2244.13,-728.02 -1314.17,-580.92 -3812.83,-635.76 -1272.63,-440.55 -2540.58,-830.01 -3812.47,-1270.57"/>
   <line class="fil0 str0" x1="151429.69" y1="58587.58" x2="150159.31" y2= "58587.58" />
   <path class="fil0 str0" d="M143557.17 41498.97c-2667.47,-1028.96 -6086.17,-1713.18 -8013.27,-2609.27"/>
   <path class="fil0 str0" d="M162232.26 52868.61c3224.81,1293.97 5714.86,2029.47 7625.12,5084.16l1271.32 0c-836.76,-2909.09 -2163.85,-3434.42 -4448.22,-5718.98 -5004.62,-2007.76 -7198.22,-3569.54 -12311.76,-5811.43"/>
   <path class="fil0 str0" d="M169857.38 57952.77c-2595.23,1007.06 -4046.03,634.81 -6989.74,634.81"/>
   <line class="fil0 str0" x1="171763.51" y1="58587.58" x2="171128.7" y2= "57952.77" />
   <path class="fil0 str0" d="M162867.64 59859.09l-3812.46 0c-2512.7,-815.23 -2316.19,-635.75 -5083.41,-635.75"/>
   <line class="fil0 str0" x1="167315.86" y1="60493.91" x2="166680.48" y2= "60493.91" />
   <path class="fil0 str0" d="M166680.48 70025.53c2745.89,-1808.81 3812.46,-6777.87 5718.98,-10166.44m-2542.08 0l2542.08 0c3150.32,-9720.83 -10326.46,-11751.61 -16545.88,-15476.49"/>
   <line class="fil0 str0" x1="127283.41" y1="63671.55" x2="126012.09" y2= "63035.99" />
   <line class="fil0 str0" x1="130460.3" y1="65577.88" x2="129824.93" y2= "64942.31" />
   <path class="fil0 str0" d="M129824.93 66848.64c-1317.36,-820.47 225.14,-635.76 -1906.52,-635.76"/>
   <path class="fil0 str0" d="M137450.04 67484.2c-1580.68,-512.6 -2866.41,-757.96 -4447.66,-1271.32"/>
   <path class="fil0 str0" d="M131731.06 71931.86c-3570.1,-2060.16 -7011.44,-2813.07 -10802.19,-5083.22"/>
   <path class="fil0 str0" d="M136815.22 69390.53c-2149.62,-743.74 -2407.14,-728.02 -4448.4,-1906.33"/>
   <line class="fil0 str0" x1="128553.98" y1="68754.96" x2="127283.41" y2= "68119.21" />
   <path class="fil0 str0" d="M150159.31 70661.1c-3518.64,-664.95 -6812.5,-1907.63 -10167.19,-2541.89"/>
   <path class="fil0 str0" d="M135543.53 70661.1c-1271.89,-440.55 -2539.46,-830.76 -3812.47,-1270.57"/>
   <line class="fil0 str0" x1="141262.5" y1="70661.1" x2="139992.12" y2= "70661.1" />
   <path class="fil0 str0" d="M156513.29 73203.18l-2541.52 0c-2512.69,-815.04 -2316.19,-635.75 -5083.78,-635.75 -1669.21,-577.74 -2645.76,-930.52 -4447.66,-1270.58"/>
   <path class="fil0 str0" d="M140627.5 76380.08c-3449.95,-652.23 -9614.72,-2373.83 -12709.09,-3812.65"/>
   <path class="fil0 str0" d="M137450.04 73203.18c-1309.13,-204.93 -1297.71,-183.78 -2541.14,-635.75"/>
   <path class="fil0 str0" d="M144440.33 74473.75c-1790.1,-338.37 -2467.59,-592.15 -4448.21,-635.57m3812.46 -635c-1956.48,-370 -2095.35,-472.74 -3812.46,-1271.32"/>
   <line class="fil0 str0" x1="148252.98" y1="73838.18" x2="147617.23" y2= "73838.18" />
   <path class="fil0 str0" d="M156513.29 75109.5c-2502.4,-971.87 -2902.53,-635.75 -5718.98,-635.75"/>
   <line class="fil0 str0" x1="147617.23" y1="75109.5" x2="146981.48" y2= "75109.5" />
   <line class="fil0 str0" x1="144440.33" y1="77015.83" x2="143169.01" y2= "77015.83" />
   <line class="fil0 str0" x1="152065.45" y1="78286.4" x2="151429.69" y2= "78286.4" />
   <line class="fil0 str0" x1="155242.34" y1="78922.15" x2="154606.78" y2= "78922.15" />
   <line class="fil0 str0" x1="138721.36" y1="82099.05" x2="138085.79" y2= "82099.05" />
   <line class="fil0 str0" x1="144440.33" y1="82734.81" x2="143804.58" y2= "82734.81" />
   <path class="fil0 str0" d="M132366.82 80192.73c-1031.21,3728.62 -6214.37,3095.11 -5083.41,-635.76m30501.01 -634.82l635.01 634.82m-22240.15 1906.33c0,4218.02 4510.54,4387.58 5718.97,635.75 1208.44,-3751.82 -4879.22,-4699 -5718.97,-635.75 -1736.02,-695.64 -1914.37,-870.44 -3812.46,-1270.57 430.63,-3357.88 -3280.77,-4805.49 -5083.41,-635.76 -643.24,-333.88 -1898.65,-936.5 -2542.08,-1270.57m37490.75 -635.57l0 -1906.32m-1906.52 1906.32c-2432.4,-944.17 -2331.72,-635 -5083.22,-635 -1715.61,-556.21 -3268.97,-928.46 -5083.03,-1271.32m10166.25 0l1906.52 0c1713.56,-1053.85 963.64,62.13 1271.5,-1906.33m-43209.53 0c1721.42,-2123.23 6479.74,500.45 4447.28,4448.22 -3407.09,3832.86 -7892.93,27.14 -5530.51,-3240.71 333.5,-460.02 -819.35,-862.4 -1458.85,-1207.51m-8518.39 -23933.3c-2651.56,26429.53 14133.68,32356.99 17886.45,34315.16 16918.68,5991.28 28897.68,-2610.39 31299.4,-4027.31l0 -635.76c1838.01,-953.91 952.22,-68.12 1906.13,-1906.14l1906.52 0m-21604.58 -15250.6c-3177.46,5083.97 -9441.98,2578.77 -7625.12,-2541.14m-7625.3 12072.77c-4855.08,-1946.94 -8896.43,-5351.97 -13344.27,-8260.31m31636.65 61.58l-3041.96 -1332.9c641.74,-1972.38 -105.56,-3456.12 -1702.71,-4638.92m-839 -1714.87l635.57 634.82m-15250.41 10167.38l-9539.12 -6343.5m16528.47 -1917.56c-3720.19,5958.35 -10028.13,252.29 -8260.11,-3812.65m1270.76 7625.3l-5023.15 -2661.29c-1553.73,-1255.6 -1696.34,-1380.24 -3237.91,-2421.93l-2541.14 -2542.08c2194.54,1251.11 5139.55,1754.74 6989.36,-1270.57m-1270.39 12073.52c-2067.65,-874.37 -2575.01,-1316.42 -4448.59,-2541.89m9531.82 1270.57c-3541.1,-2120.24 -6645.01,-4050.52 -10167.2,-6353.79 -1375.93,-1493.66 -1500.58,-1636.27 -2541.51,-3177.84m35584.23 3177.84c-2091.6,-164.51 -1221.54,12.72 -3177.46,-635.76 -1980.62,-42.85 -2658.48,-297.19 -4447.65,-635.75l-635.57 635.75c-2737.28,-450.28 -4127.25,678.43 -5083.41,2542.08 -1085.85,-563.7 -797.07,-169.74 -2455.61,-1504.13 1717.3,-4649.41 -5495.89,-7264.29 -8346.58,-3580.03l-2542.08 -1270.57c1733.77,-2976.45 -857.72,-6865.65 -6354.36,-5083.22 -852.85,2629.11 -306.92,3236.23 -1270.94,5718.98m-931.83 -13228.62c-1688.11,2581.76 -1313.62,4503.8 -1610.06,7509.64 1413.36,-267.25 2304.21,-519.34 3812.83,-635.75 439.62,-2087.86 830.77,-2360.36 1271.14,-4447.47 -1826.79,-4320.77 -3867.3,-2894.11 -635.76,-6990.29m21604.4 19063.06c-14105.99,-6559.47 -13193.06,-6201.45 -21604.4,-19063.06 1236.89,-1236.14 643.43,-794.09 1906.52,-1270.76m43209.53 38761.31l4448.4 0c1712.44,-1053.85 963.46,62.33 1270.58,-1906.32m1906.32 -635.01c-1317.36,820.29 224.21,635.01 -1906.32,635.01 -3176.9,0 -6354.73,0 -9531.82,0m11438.14 -635.01c0,-424.08 0,-847.23 0,-1271.32 -2809.14,-807.55 -3005.09,-1003.5 -3812.84,-3812.65m-1906.13 0c-423.34,4768.81 -6232.52,3803.67 -5719.17,-1270.57m-3176.89 -635.75c96.94,-4881.29 -6097.96,-6008.69 -8395.99,-573.43 -185.47,5219.09 7312.38,5978.74 8395.99,573.43 1955.36,648.48 1085.29,471.25 3176.89,635.75 1023.16,-3889.94 5806.19,-3205.53 5719.17,1270.57 635.75,0 1270.57,0 1906.13,0 866.14,-2858.73 4405.74,-4467.11 6237.01,-1844"/>
   <path class="fil0 str0" d="M155176.47 48504.61c-2104.9,461.89 -2072.52,233.01 -4068.86,-270.43 -383.48,-2097.78 497.44,-1146.87 3837.35,-2152.24l550.6 1828.65c1528.28,-1059.46 1170.63,-851.54 3061.98,-1420.85 401.07,-1016.8 512.8,-1236.32 820.48,-2240.2 -1547.93,-241.8 -1413.37,-72.62 -3336.73,506.61l-550.78 -1828.84 -1370.89 412.86c-167.31,-1979.32 262.57,-1881.62 -186.03,-3930.37 -958.03,497.82 -1544.56,872.12 -2604.58,1281.99l-1597.16 2973.08c-302.81,991.91 -482.85,1707.95 -683.1,2697.04 -1844.94,777.81 -1113.36,-127.63 -1414.86,1921.11"/>
   <path class="fil0 str0" d="M154119.62 43340.17c-1429.46,750.47 -894.96,394.14 -2008.88,1601.83 -3597.8,1490.28 210.36,1457.91 -3061.99,1419.91"/>
   <path class="fil0 str0" d="M158871.96 40913.37c769.75,-875.68 -299.82,-408.92 1232.95,-870.25l1827.72 -550.04c27.89,2193.04 -391.7,2973.84 -2235.33,4162.25 -815.98,-1533.15 -364.95,-641.37 -825.34,-2741.96l-1827.72 550.23c-1603.89,769 -314.79,-436.06 -1553.73,1463.71"/>
   <path class="fil0 str0" d="M160104.91 40043.12c125.39,-1398.58 211.67,-1564.77 89.09,-3017.07l-2741.96 825.34 -1370.88 412.67 963.08 3199.54"/>
   <path class="fil0 str0" d="M160194 37026.05c88.52,-1296.96 -394.14,-398.07 638.18,-1188.23 1704.58,-512.98 852.85,-221.4 1966.03,-93.76 -125.39,-1460.9 -239.93,-531.7 500.63,-1646l914.42 -275.11 456.46 -137.55c9.74,1502.82 -546.1,1978.75 -1139.37,2835.34l-1597.72 2972.34"/>
   <path class="fil0 str0" d="M157452.04 37851.39c36.87,-1771.02 133.25,-1070.32 -368.88,-2879.33 -1547.74,-131.94 -597.2,-318.16 -2422.48,231.51 -769.57,874.37 299.06,407.8 -1233.71,869.32 -1824.35,549.1 -873.43,364.01 -2421.36,230.94l-914.42 275.11c-2205.96,-773.31 -159.27,-747.85 -2560.61,-226.26l-137.37 -456.65c-952.6,97.32 -1469.14,133.81 -2421.74,230.94l-1278.25 2377.95c-40.98,1983.43 44.92,1803.21 643.99,3793.75 -3335.41,2287.36 1728.35,3673.22 3660.69,3881.33l-687.97 -2285.12c737.19,-1868.89 694.7,-1841.94 864.64,-3748.64 1466.33,-1558.6 490.71,-975.25 2466.84,-1739.76l687.6 2285.31"/>
   <polyline class="fil0 str0" points="153426.97,36072.89 154252.31,38814.47 156081.16,38264.06 "/>
   <path class="fil0 str0" d="M147309.93 43894.88c-1703.08,-718.66 -577.55,729.52 -1464.28,-1552.42 -549.47,-1824.16 -363.07,-873.62 -231.69,-2422.49 1150.05,-966.63 68.12,-376.17 1691.29,-1007.06 461.51,1532.77 -5.05,463.01 869.32,1233.33"/>
   <path class="fil0 str0" d="M154660.68 35203.57c37.61,-1771.39 133.44,-1070.32 -367.94,-2879.7l-137.19 -456.65c1646,-636.88 1723.11,-974.31 3516.95,-1558.04 399.01,1433.96 362.14,1976.14 506.81,3337.1l1827.35 -550.41 825.52 2741.95"/>
   <line class="fil0 str0" x1="150091.19" y1="36578.94" x2="150641.41" y2= "38406.48" />
   <path class="fil0 str0" d="M164213.26 33822.95c-1180.36,-1992.23 -929.39,-303 -369.06,-2879.32 797.26,-594.21 794.27,-576.99 1691.29,-1007.25l913.11 -274.74c29.76,2343.32 -336.87,2255.74 -1778.88,4023.76"/>
   <line class="fil0 str0" x1="163161.47" y1="33641.6" x2="163298.84" y2= "34098.06" />
   <path class="fil0 str0" d="M147530.58 36352.68c-410.05,1100.64 -390.21,1002.94 -225.33,2560.23"/>
   <line class="fil0 str0" x1="157083.16" y1="34972.06" x2="158179.31" y2= "33646.28" />
   <path class="fil0 str0" d="M154292.74 32323.87c-1793.66,693.96 -1506.2,745.24 -2924.25,1877.5 -94.13,599.07 -269.31,1503.2 -362.88,2102.46"/>
   <path class="fil0 str0" d="M163844.2 30943.63c-1745.38,-136.25 -999.76,-196.89 -2879.33,368.68 -1114.86,1083.24 -669.81,254.53 -958.21,1783.56"/>
   <path class="fil0 str0" d="M151368.49 34201.37c-823.46,-901.32 -515.97,-60.26 -1006.87,-1691.29l-1827.72 550.23c-1412.62,2127.54 -1121.23,773.12 -1140.69,2835.72"/>
   <path class="fil0 str0" d="M154155.55 31867.22c-335.56,-1540.26 -274.55,-875.87 -231.5,-2422.86 1834.46,-1634.02 1220.97,-1693.16 3518.63,-1557.1 317.79,746.17 227.77,158.7 412.86,1370.88 1000.7,-742.8 705.37,-491.46 1689.79,-1007.81l1783.55 958.21c-652.97,1249.05 -532.44,445.05 -364.01,2103.77"/>
   <path class="fil0 str0" d="M165535.49 29936.38l-275.3 -914.24c1955.92,-510.92 1472.51,85.53 2191.92,-2652.87 -1823.98,-1357.04 -1415.43,-571.19 -4388.15,323.77l275.3 914.42c-641.74,507.37 -1369.57,1093.9 -2010.38,1601.08"/>
   <line class="fil0 str0" x1="157535.32" y1="29852.53" x2="157672.5" y2= "30309.18" />
   <path class="fil0 str0" d="M153924.05 29444.36l-1827.72 550.22c-889.72,1080.24 -961.4,1205.63 -1734.71,2515.5"/>
   <path class="fil0 str0" d="M163063.96 26693.04c-1490.1,-2138.02 -2876.89,-112.29 -3518.63,1557.29"/>
   <line class="fil0 str0" x1="154944.96" y1="46081.94" x2="156041.29" y2= "44756.15" />
   <path class="fil0 str0" d="M144337.21 42298.67c1125.16,304.12 -24.7,505.31 1508.44,43.79"/>
   <path class="fil0 str0" d="M163339.26 27607.46c2230.85,777.62 865.77,-198.19 1920.93,1414.68"/>
   <path class="fil1" d="M167535.39 40485.54c2487.05,-2465.34 2383,-2980.2 3432.17,-1671.63 -1172.88,1361.15 -2340.33,1531.08 -4285.77,4406.85 -990.03,1463.34 -2133.71,3568.8 -2708.64,5133.76 -270.44,734.75 -585.23,1620.73 -859.96,2467.21 -323.78,999.39 -1732.09,6740.26 -1630.66,7521.06 3707.29,-971.5 6300.27,-9482.96 9470.24,-10896.33l943.62 -528.89c641.74,-476.49 1266.08,-686.85 1832.78,-466.95 -342.87,1424.41 -1176.25,1587.8 -1561.6,2449.44 -9.73,22.46 -24.89,70.37 -33.5,93.77l-390.02 983.29c-309.92,950.35 -178.92,971.13 -879.8,2069.33 -508.49,796.33 -1051.98,1578.06 -1696.15,2266.78 -995.65,1064.89 -2147.94,2506.52 -3709.53,3207.03 -1532.4,687.97 -2953.25,782.85 -4109.29,1250.73 -142.23,345.86 -268.19,710.06 -387.77,1087.91l-1004.07 0c744.86,-2420.8 1198.7,-5031.19 1691.47,-7374.33 131.94,-627.14 455.72,-1155.66 330.51,-1704.2 -75.05,-329.94 -590.46,-1203.57 -756.28,-1739.76 -346.79,-1123.47 -358.77,-2192.66 -473.68,-3333.35 -118.46,-1172.69 160.02,-2330.41 515.42,-3528.18 349.6,-1177.75 1074.06,-2618.81 2022.73,-3668.54 537.5,-594.59 946.8,-919.29 1599.02,-1272.45 586.16,-317.78 1226.03,-613.29 1869.09,-534.88l-3433.67 7851.57c-125.21,560.33 -258.46,1040.56 -333.51,1584.99 -141.67,1027.83 -361.39,2131.65 -660.83,3187.19 563.33,-351.29 -165.44,-388.91 739.81,-260.89 -180.04,-414.36 -763.76,242.54 201.94,-1993.54 576.05,-1333.83 2045.38,-3525.75 2017.86,-4713.41 -95.82,-4158.88 4378.6,-9535.37 8164.86,-8120.5l-3742.84 3194.11c-379.92,277.73 -123.33,37.43 -338.37,265.01l-1371.07 1730.02c-552.85,754.23 -374.12,132.32 -464.51,1057.78zm3278.14 2779.77l928.84 379.35c-761.9,808.5 -375.8,62.88 -1137.88,1213.87 -829.83,1253.16 -2173.77,2416.68 -3166.61,3271.4 -40.42,-4.67 -80.1,-52.02 -119.21,-25.45l-350.91 -155.71c230.01,725.4 362.51,447.48 -1482.8,1849.06 -761.15,577.92 -1482.43,1282.17 -2285.87,1388.29 923.59,-1420.67 1989.98,-2806.15 2920.12,-4191.26 441.12,13.66 236.19,247.04 542.18,242.92 14.6,-577.73 4.49,-158.14 -108.73,-764.51 392.83,-498.39 419.22,-397.7 732.13,-789.97 610.3,-765.82 1593.78,-1886.11 2400.59,-2386.55 1031.02,-639.31 956.35,-926.96 1802.27,-1508.63 352.6,-242.36 1493.85,-963.64 1972.21,-1002.95 -1387.73,3678.47 -1874.7,1178.12 -2646.33,2480.14z"/>
   <path class="fil0 str0" d="M154977.34 50197.4c-2005.33,-638 -2333.6,-1114.49 -3291.06,-1619.61"/>
  </g>
  <rect class="fil2" width="190509.35" height="121395.06"/>
 </g>
</svg>
