<?xml version="1.0" encoding="UTF-8"?>
<!DOCTYPE svg PUBLIC "-//W3C//DTD SVG 1.1//EN" "http://www.w3.org/Graphics/SVG/1.1/DTD/svg11.dtd">
<!-- Creator: CorelDRAW 2017 -->
<svg xmlns="http://www.w3.org/2000/svg" xml:space="preserve" width="1.76389E+06px" height="1.12536E+06px" version="1.1" style="shape-rendering:geometricPrecision; text-rendering:geometricPrecision; image-rendering:optimizeQuality; fill-rule:evenodd; clip-rule:evenodd"
viewBox="0 0 190509.36 121395.06"
 xmlns:xlink="http://www.w3.org/1999/xlink">
 <defs>
  <style type="text/css">
   <![CDATA[
    .str0 {stroke:#51363B;stroke-width:935.76;stroke-linecap:round;stroke-linejoin:round;stroke-miterlimit:22.9256}
    .fil2 {fill:none}
    .fil0 {fill:none;fill-rule:nonzero}
    .fil1 {fill:#51363B;fill-rule:nonzero}
   ]]>
  </style>
 </defs>
 <g id="Capa_x0020_1">
  <metadata id="CorelCorpID_0Corel-Layer"/>
  <g id="_2274689219920">
   <path class="fil0 str0" d="M149175.45 89256.29l-283.72 75.98m-10084.47 9995.01c-497.26,4565.75 5123.27,8395.99 7554.56,8914.78l6202.39 465.44 4611.97 -932.01c2709.39,-1205.45 9175.1,-5269.63 8611.03,-8688.51m-4763.76 364.94c16.85,782.86 -327.14,584.29 359.15,207.18m3791.5 -7396.79c-196.14,617.42 -284.47,753.47 -546.67,1361.72 -782.11,807.56 -1172.51,1066.2 -1887.99,2025.54 -483.78,1695.22 -85.15,3205.9 -1356.84,4009.53l-359.15 -207.18c-432.69,-1229.77 -92.64,-618.53 -1023.15,-1549.24 -4054.08,1086.42 -2049.31,1595.66 -3039.91,3264.49l-1470.45 1342.81c-1292.84,-110.42 -1249.42,56.71 -2536.65,-288.21m-7123.36 4035.92c1916.81,501.19 3986.14,744.67 5918.67,540.87l3761.74 -703.88c1023.35,-663.64 957.28,-560.52 2192.11,-891.4 3043.83,-1973.7 4033.3,-2656.24 6895.22,-4885.97 782.86,-1236.51 173.3,-618.53 1189.54,-1230.33 419.22,-974.12 466.56,-1390.54 886.16,-2364.66 -35.75,-643.43 -61.76,-506.06 -20.59,-1210.12 -435.69,-1625.97 -243.67,-2231.03 -1478.68,-3249.89 -1209.94,-4515.96 -7857.37,-6059.21 -11842.57,-5639.25l-5103.25 1367.52c-2700.41,1751.36 -4049.96,2549.75 -6687.67,4526.63 -1541.57,1668.46 -3161.18,4525.14 -2733.35,6810.07 850.04,633.88 1099.33,970.57 1949.37,1604.64m3711.59 4779.1l-1438.07 -830.39m4895.69 -1007.81c1190.85,85.15 845.93,119.77 1777.01,-172.56 92.82,-849.85 -204.75,-1748.55 -323.96,-2343.88 894.58,-48.47 995.27,8.23 1852.98,110.98m-4819.9 1291.53c-1053.1,-1438.26 -234.68,-1438.63 -1686.04,-2890.55 -1264.96,947.92 -977.5,1307.62 -2399.47,1250.92m4875.11 -2217.94l-283.35 75.99m-2612.82 -2946.51l-283.72 75.98m16686.8 -6902.34l-75.8 -283.16m-3554.38 344.18l-359.33 -207.18m-4364.19 2992.36c-552.47,436.44 -5518.53,2801.47 -3603.97,5827.53 771.43,1219.85 3692.31,1063.95 4991.7,485.66 2857.99,-1271.14 4104.61,-2542.64 5609.49,-5149.48 -2332.28,-2993.11 -4738.11,-1046.74 -6997.22,-1163.71zm1975.2 7371.53c-822.72,72.42 -697.33,382.72 0,0zm-8516.33 -6834.21c135.87,1221.91 493.89,1125.9 0,0z"/>
   <path class="fil1" d="M21504.83 53629.75c0,509.62 367.94,679.55 764.33,679.55 481.35,0 622.84,-141.48 764.51,-622.84 28.26,-906 141.49,-5237.62 198.19,-6171.88l198.01 -1727.03c3340.84,-1953.49 5039.43,-4218.4 5039.43,-8266.86 0,-3397.36 -1783.56,-6455.04 -5435.63,-6455.04 -396.39,0 -1075.94,226.45 -1330.65,566.32 -56.71,3312.39 -169.93,18600.42 -198.19,21884.56l0 113.22zm1925.04 -20610.61c84.97,-226.46 226.64,-226.46 396.39,-226.46 2491.54,0 2718,3312.4 2718,5067.69 0,2293.17 -453.1,4076.91 -2349.88,5577.3 -56.7,56.71 -651.1,453.1 -962.52,453.1l0 -1217.42 198.01 -9654.21zm7898.91 21035.26c-28.26,509.62 1189.16,679.55 1245.68,0 56.71,-1188.97 254.9,-3708.78 481.36,-5039.43l3822.01 -566.13 1019.22 5095.95c509.62,906 1358.91,424.83 1358.91,-198.01 -3085.94,-15005.06 -3623.81,-17581.38 -4331.62,-20412.61 -481.36,-1925.04 -2179.94,-2604.59 -2349.88,0l-1245.68 21120.23zm2491.36 -19506.42l2774.53 12598.47 -3538.85 509.62c0,-226.46 28.26,-1330.65 56.52,-1528.84 84.96,-1755.3 594.58,-9852.22 707.8,-11579.25zm8295.31 16165.77c0,56.7 -28.26,141.48 -28.26,198.19 0,1160.71 1727.03,2123.42 2717.81,2293.17 226.45,28.26 453.09,28.26 679.55,28.26 2293.17,0 3255.69,-1358.91 3652.07,-3680.34 509.62,-3057.68 -792.58,-5379.29 -2293.17,-7983.88 -962.52,-1642.07 -1698.77,-2378.13 -1387.35,-4190.13 651.29,-3963.5 3652.26,-1613.62 3906.98,-3000.98 141.67,-792.58 -396.2,-962.52 -1160.72,-1047.48 -226.45,-28.26 -424.64,-28.26 -622.84,-28.26 -2349.87,0 -3425.62,1528.84 -3822.01,3765.3 -254.71,1585.54 169.94,2661.29 962.52,3906.97 1698.78,2661.3 3255.88,5067.88 2746.27,8267.04 -254.72,1528.84 -679.55,2831.04 -2519.63,2519.62 -1132.45,-169.74 -934.44,-1557.1 -1981.93,-1727.03 -396.39,0 -821.03,339.87 -849.29,679.55zm13079.83 141.48c198.19,792.78 1358.9,1047.68 1585.36,198.2l0 -367.94c0,-1358.91 113.22,-3539.04 113.22,-4699.75 56.71,-3652.07 169.94,-12626.92 198.2,-12655.18l3085.94 56.7c821.03,0 906,-1415.61 -368.13,-1528.84 -2293.17,-169.93 -4444.85,-113.22 -6653.05,-169.93 -1387.35,339.68 -1047.48,1217.42 -141.67,1472.13l2264.91 84.97c28.44,28.45 56.7,5520.78 56.7,7700.72 0,2038.46 -113.22,7898.92 -141.48,9908.92zm8861.43 622.84c28.26,821.04 4048.46,509.62 5095.95,424.84l141.67 0c367.94,-56.71 537.88,-396.39 537.88,-736.26 0,-1245.68 -3595.56,-537.87 -4275.1,-707.62l-56.52 -6624.97 3595.55 0c1302.2,0 651.1,-1642.07 -311.42,-1670.33 -481.35,0 -2859.49,84.97 -3284.13,-28.26 -169.94,-3085.94 -452.91,-5294.33 -452.91,-8295.3 0,-84.97 0,-226.45 198.01,-226.45l3085.94 0c198.19,-84.97 339.86,-509.62 339.86,-707.81 0,-622.84 -509.61,-934.26 -5039.42,-566.13l0 1443.87c0,4048.46 396.38,6653.05 396.38,10701.51l0 5605.75 28.26 1387.16zm8606.73 -19874.55l0 3595.56 367.93 6992.91c169.94,3340.84 28.45,6992.92 368.13,10390.28 56.52,368.12 537.88,764.51 877.56,764.51 453.09,0 849.48,-283.16 1217.42,-368.13 990.96,-283.16 2264.9,-226.45 3227.61,-566.32 481.17,-169.74 566.13,-452.9 566.13,-820.84 0,-566.32 -452.9,-707.81 -962.52,-707.81 -1104.19,0 -2548.06,367.94 -3397.36,594.39 -566.32,-6426.59 -537.87,-12909.89 -764.51,-19308.23 -113.23,-424.64 -481.17,-990.96 -934.26,-990.96 -254.71,0 -424.65,113.22 -566.13,424.64zm9880.66 19874.55c28.26,821.04 4048.46,509.62 5095.95,424.84l141.67 0c367.94,-56.71 537.87,-396.39 537.87,-736.26 0,-1245.68 -3595.55,-537.87 -4275.1,-707.62l-56.52 -6624.97 3595.56 0c1302.2,0 651.1,-1642.07 -311.42,-1670.33 -481.36,0 -2859.49,84.97 -3284.14,-28.26 -169.93,-3085.94 -452.91,-5294.33 -452.91,-8295.3 0,-84.97 0,-226.45 198.01,-226.45l3085.94 0c198.2,-84.97 339.87,-509.62 339.87,-707.81 0,-622.84 -509.61,-934.26 -5039.43,-566.13l0 1443.87c0,4048.46 396.39,6653.05 396.39,10701.51l0 5605.75 28.26 1387.16zm9003.11 1443.88c339.68,538.06 1132.45,509.61 1500.39,0 198.19,-3227.43 -56.52,-6454.86 254.9,-9654.02 56.52,0 254.71,-28.45 282.97,-28.45 3284.14,0 3822.2,6002.13 3963.69,8125.37 141.48,453.09 283.16,453.09 622.84,453.09 509.61,0 821.03,-198.19 821.03,-707.81 0,-3170.9 -792.77,-7785.68 -4048.46,-9229.56 1811.81,-1302.2 2802.78,-2887.75 2802.78,-5492.33 0,-3255.88 -1387.36,-6058.66 -5294.33,-6058.66 -566.13,0 -1302.2,169.94 -1302.2,821.04l0 113.22c28.26,311.42 198.19,2802.78 198.19,3085.94 56.52,1330.65 198.2,6483.31 198.2,7361.05 28.26,1698.58 28.26,9512.53 0,11211.12zm1019.22 -20667.14c0,-226.64 877.56,-226.64 990.78,-226.64 2038.46,0 2661.3,3114.39 2661.3,4614.78 0,1783.74 -1104.2,3991.94 -3114.2,4388.33l-537.88 -8776.47zm9399.31 396.39c-56.7,2038.26 254.9,4076.72 396.39,6115.17l707.81 12428.73c84.96,537.87 198.19,1075.75 821.03,1075.75 481.17,0 934.26,-169.94 962.52,-622.84 0,-509.62 -84.97,-962.52 -141.49,-1500.58l-1245.68 -17269.78c-56.7,-679.55 -1472.32,-934.26 -1500.58,-226.45zm5747.24 21403.2c-28.26,509.62 1189.16,679.55 1245.68,0 56.7,-1188.97 254.9,-3708.78 481.35,-5039.43l3822.01 -566.13 1019.23 5095.95c509.61,906 1358.9,424.83 1358.9,-198.01 -3085.94,-15005.06 -3623.81,-17581.38 -4331.62,-20412.61 -481.35,-1925.04 -2179.94,-2604.59 -2349.87,0l-1245.68 21120.23zm2491.36 -19506.42l2774.52 12598.47 -3538.85 509.62c0,-226.46 28.26,-1330.65 56.52,-1528.84 84.97,-1755.3 594.58,-9852.22 707.81,-11579.25z"/>
   <path class="fil1" d="M61790.12 83384.41c84.97,396.38 452.91,537.87 849.29,537.87 396.39,0 764.33,-169.75 764.33,-622.84l-990.78 -11494.28 2802.78 -8606.72 0 -113.23c0,-934.26 -1698.59,-990.97 -1812,-198.19l-1896.78 7502.52 -3227.43 -6794.72c-283.16,-792.77 -1868.52,-566.32 -1132.45,1047.49 452.91,1019.23 2859.3,5860.46 3368.91,6879.69 821.04,3142.46 877.74,8295.11 1274.13,11862.41zm14891.83 -12003.9c-367.94,3680.34 -169.93,11239.57 5294.33,11494.28l254.71 0c1528.84,0 2519.81,-707.8 3170.91,-2094.97 254.71,-594.58 396.39,-594.58 424.65,-1104.19 0,-396.39 -283.16,-622.84 -679.55,-622.84l-84.78 0c-1613.81,0 -821.03,2633.03 -2859.49,2633.03l-141.67 0c-6511.56,-283.16 -3850.27,-18062.74 28.45,-18062.74 84.78,0 141.48,28.26 169.74,28.26 1047.49,141.68 1189.16,1274.13 2123.42,1302.39 396.39,0 481.36,-339.68 481.36,-622.84 0,-1387.17 -1359.1,-1981.75 -2491.55,-2038.45l-198.19 0c-4161.69,0 -5379.11,6341.81 -5492.34,9088.07zm12910.09 7275.89c679.36,2604.59 1981.74,4020.2 4359.88,4020.2 113.22,0 226.45,-28.26 339.68,-28.26 6228.58,-537.87 5379.29,-20667.32 -905.82,-20667.32 -7106.14,0 -4161.87,14976.79 -3793.74,16675.38zm3623.81 -15118.28l226.45 0c4020.2,0 3652.26,10503.5 3199.17,12768.41 -254.71,1330.64 -877.55,4643.04 -2774.52,4812.97 -84.78,0 -198.19,28.26 -339.68,0 -1415.61,-141.49 -2349.87,-2831.04 -2576.33,-3765.3 -537.87,-2066.9 -2010,-13419.7 2264.91,-13816.08zm8182.08 19733.06c28.26,849.29 1019.22,1613.81 1670.32,141.49l198.2 -16137.33c1698.58,5322.4 3680.52,10503.51 5435.81,15797.65 113.23,198.19 537.87,537.87 792.59,537.87 254.9,0 622.84,-396.39 679.54,-537.87l28.26 -367.94c198.2,-6511.75 424.65,-13023.31 934.26,-19138.49 -169.74,-283.16 -452.9,-368.12 -792.58,-368.12 -453.1,0 -962.71,226.45 -1075.94,707.8 28.26,3567.3 0,6653.24 -311.42,10220.35l-283.16 3963.68c-2066.71,-5067.88 -3227.42,-10022.34 -4926.01,-14891.83 -283.16,-396.39 -1104.19,-1302.39 -1642.07,-283.16l-707.8 20355.9zm13278.02 -2236.65c113.23,283.16 566.13,368.13 821.03,368.13 396.2,0 651.1,-311.42 651.1,-707.81 0,-4076.9 28.26,-5265.88 -169.93,-9342.79l-84.97 -1642.06c764.52,-113.23 3227.62,198.19 3227.62,-566.14 0,-339.86 -311.42,-906 -736.07,-906l-2576.33 28.26 -368.12 -5549.04c3878.71,0 3878.71,-311.42 3878.71,-424.64 0,-1472.14 -1415.61,-1047.49 -2491.36,-1047.49 -821.03,56.71 -2859.49,0 -2859.49,707.81 0,3284.13 396.39,7700.72 537.88,11267.83 56.7,1585.54 169.93,6200.32 169.93,7813.94zm7502.34 -18402.23c-56.71,2038.27 254.9,4076.72 396.39,6115.18l707.8 12428.73c84.97,537.87 198.2,1075.74 821.04,1075.74 481.16,0 934.26,-169.93 962.52,-622.84 0,-509.61 -84.97,-962.52 -141.49,-1500.58l-1245.68 -17269.77c-56.71,-679.55 -1472.32,-934.26 -1500.58,-226.46zm8691.69 18204.04c198.19,792.77 1358.91,1047.67 1585.36,198.19l0 -367.94c0,-1358.9 113.23,-3539.03 113.23,-4699.74 56.7,-3652.08 169.93,-12626.93 198.19,-12655.19l3085.94 56.71c821.03,0 906,-1415.61 -368.13,-1528.84 -2293.16,-169.93 -4444.84,-113.23 -6653.04,-169.93 -1387.36,339.68 -1047.49,1217.42 -141.68,1472.13l2264.91 84.97c28.45,28.44 56.71,5520.78 56.71,7700.72 0,2038.45 -113.23,7898.91 -141.49,9908.92zm8861.44 622.84c28.25,821.03 4048.46,509.61 5095.94,424.83l141.68 0c367.94,-56.7 537.87,-396.38 537.87,-736.25 0,-1245.68 -3595.55,-537.87 -4275.1,-707.62l-56.52 -6624.97 3595.55 0c1302.2,0 651.1,-1642.07 -311.42,-1670.33 -481.35,0 -2859.48,84.97 -3284.13,-28.26 -169.93,-3085.94 -452.91,-5294.33 -452.91,-8295.3 0,-84.97 0,-226.46 198.01,-226.46l3085.94 0c198.19,-84.96 339.87,-509.61 339.87,-707.8 0,-622.84 -509.62,-934.26 -5039.43,-566.14l0 1443.88c0,4048.46 396.39,6653.04 396.39,10701.51l0 5605.74 28.26 1387.17zm9003.1 1443.87c339.68,538.06 1132.46,509.62 1500.4,0 198.19,-3227.42 -56.52,-6454.85 254.9,-9654.02 56.52,0 254.71,-28.44 282.97,-28.44 3284.14,0 3822.2,6002.13 3963.68,8125.36 141.49,453.1 283.16,453.1 622.84,453.1 509.62,0 821.04,-198.2 821.04,-707.81 0,-3170.91 -792.78,-7785.69 -4048.46,-9229.56 1811.81,-1302.2 2802.78,-2887.75 2802.78,-5492.34 0,-3255.87 -1387.36,-6058.65 -5294.33,-6058.65 -566.14,0 -1302.2,169.93 -1302.2,821.03l0 113.23c28.26,311.42 198.19,2802.78 198.19,3085.94 56.52,1330.65 198.19,6483.3 198.19,7361.04 28.26,1698.59 28.26,9512.54 0,11211.12zm1019.23 -20667.13c0,-226.64 877.55,-226.64 990.78,-226.64 2038.46,0 2661.3,3114.38 2661.3,4614.78 0,1783.74 -1104.2,3991.94 -3114.21,4388.32l-537.87 -8776.46zm9399.31 396.38c-56.71,2038.27 254.9,4076.72 396.39,6115.18l707.8 12428.73c84.97,537.87 198.2,1075.74 821.04,1075.74 481.16,0 934.26,-169.93 962.52,-622.84 0,-509.61 -84.97,-962.52 -141.49,-1500.58l-1245.68 -17269.77c-56.71,-679.55 -1472.32,-934.26 -1500.58,-226.46zm5747.24 21403.21c-28.26,509.61 1189.16,679.54 1245.68,0 56.7,-1188.98 254.9,-3708.78 481.35,-5039.43l3822.01 -566.13 1019.22 5095.94c509.62,906 1358.91,424.84 1358.91,-198 -3085.94,-15005.06 -3623.81,-17581.39 -4331.62,-20412.61 -481.35,-1925.04 -2179.94,-2604.59 -2349.87,0l-1245.68 21120.23zm2491.36 -19506.43l2774.52 12598.48 -3538.85 509.61c0,-226.45 28.26,-1330.64 56.52,-1528.84 84.97,-1755.29 594.58,-9852.21 707.81,-11579.25z"/>
   <path class="fil0 str0" d="M22070.77 64026.96c-2238.7,1480.93 -1089.03,465.25 -3786.26,689.46"/>
   <path class="fil0 str0" d="M30614.8 70343.51c80.29,-1901.46 355.78,-4940.06 208.49,-6716.68"/>
   <path class="fil0 str0" d="M35856.35 83414.73l121.46 406.86m-18559.62 -4206.6l-121.65 -407.24m159.83 3500.85c-214.85,-988.9 -224.02,-1608 -323.59,-2564.91 1418.42,-363.63 919.48,1012.87 1263.28,-1708.69m25231.38 10196.2c-1231.27,957.84 -647.54,637.44 -2321.24,1138.25m-4478.72 1339.82c-657.65,244.61 -940.62,372.62 -2036.02,609.18m371.68 -7653.19c1402.33,1257.85 2609.83,1749.5 4354.08,2689.93 1727.04,541.25 2770.22,759.46 4110.22,1876.01 2175.45,-650.91 1524.35,-211.48 3013.52,-1788.79m-12371.65 -4283.71c1543.81,1242.12 743.74,-225.71 893.83,1506.56l814.67 -243.67 1628.41 -487.15c1402.33,1257.66 2610.01,1749.3 4354.27,2689.93l2935.09 880.73c1567.21,-453.09 817.29,-143.92 1745.38,-62.69 2033.4,-786.41 742.8,214.28 1385.11,-1302.02m1262.89 -1708.69c2205.77,-712.3 1637.95,-25.83 1670.7,-1830.72m-12503.77 8621.14l2850.31 -852.67c-1311.74,-1106.06 -436.06,-624.52 -2116.31,-1141.62l-3702.41 -1997.65c-827.59,-676.74 -1583.49,-1236.51 -2359.8,-1955.74m-323.77 -2564.91c989.28,-23.02 655.03,-145.6 1465.4,449.17 -49.78,2046.87 1675,976.36 -734.2,1993.72m-12504.15 8621.13c-1490.1,-1271.69 -1194.21,-687.4 -1423.29,-1792.53 -1714.68,-139.24 -1866.65,-109.11 -1667.52,-2606.09m33346.66 -8645.84c459.45,2131.29 586.9,502.51 -327.15,1871.89 -991.15,-115.28 -232.25,-373.74 -1750.61,80.48 -2231.22,-567.26 -3644.59,-409.68 -5453.41,-1917.74m-13972.35 12609.33c-526.65,-858.84 -4880.54,-5402.69 -5979.31,-6640.14 1636.64,-489.58 784.54,-311.23 2158.24,-201.93m1663.58 7043.82c-598.69,-723.72 -1288.91,-1409.07 -1952.36,-2077.57 -1432.08,-1613.43 -2371.96,-2950.44 -3619.51,-4684.03m28053.26 -7062.16c-434.57,-1452.67 -162.07,-703.31 -894.77,-1506.94m-2972.34 445.42c1668.45,133.44 1252.6,69.06 2972.34,-445.42 -547.42,-717.92 -150.28,-422.4 -1179.62,-977.87m-25780.49 16142c-565.01,-1469.32 -929.39,-1819.86 -1788.61,-3014.26l-1340 -4478.72m-410.8 4559.2c-408.55,-1365.65 5.62,-412.86 -772.75,-1099.52 273.62,-912.36 422.97,-70.55 -79.72,-1750.8 262.76,-917.98 359.33,-1078.37 734.01,-1994.29m28217.01 -7998.1c-408.55,-1365.46 -231.13,-341.74 41.36,-1343.38m-28700.24 1932.34l243.49 814.3 -1099.52 772.75c-1199.45,1471.57 -1625.22,2673.08 159.83,3500.85 434.56,1452.86 162.07,703.51 894.39,1507.13m31181.87 430.64c-803.62,731.95 -53.52,459.46 -1506.56,894.02 -6919.18,-1007.06 -5646.93,-1825.66 -8790.88,-2693.29 -2659.99,-733.64 -5863.09,-2527.11 -6835.15,-5052.72m-1628.78 487.34c789.03,2040.52 -233,531.33 1423.85,1791.98 1040.19,1991.66 466.19,523.84 608.8,2035.83 -711.74,-611.8 -923.4,-712.48 -1708.69,-1262.9 -620.41,-1140.12 -766.57,-1220.6 -1545.31,-2199.4m-8961 7116.81c-1029.52,-554.91 -564.45,-385.53 -1465.21,-448.79l-529.26 -285.41 -243.68 -814.11c170.69,-1073.87 354.84,-297.94 -79.72,-1750.8m27154.93 -4131.74c-495.76,1438.45 -843.87,902.63 1171.19,980.49 1472.7,57.26 1968.28,172.55 3510.03,-162.64 1028.96,555.09 632.01,259.95 1179.62,978.05 -1921.86,529.27 -3807.98,544.62 -5658.9,362.14 -1775.14,-521.96 -420.72,-289.52 -1872.27,-327.51 -1896.78,-94.7 -5764.45,-2523.18 -7405.58,-3994.75m-8550.58 2558.17c976.56,1357.23 1831.65,2309.08 2846.58,3584.7 1567.58,927.9 1690.72,1035.14 2889.05,2240.58l-407.43 122.02c-1285.54,108.36 -1220.78,333.13 -1628.78,487.35l1470.08 1750.8c1894.91,1088.66 4363.44,1959.29 5486.91,3709.53 -626.77,270.81 -265.38,300.94 -1628.41,487.15 -1248.3,-1021.28 -1775.69,-1298.83 -3295.74,-2119.49l-3661.43 -3340.84c1025.22,-859.02 60.83,-335.19 1506.57,-894.02 -1038.31,-1908.95 -3599.3,-3922.32 -5206.37,-5540.43m19826.08 -1939.08c-1420.66,-351.47 -848.91,-348.66 -2279.31,-205.12l-5453.41 -1917.74c597.39,1766.71 -262.57,927.34 1830.9,1670.7 2505.21,1112.62 2043.14,1783.74 5331.2,1509.94l814.11 -243.67 -243.49 -814.11 814.86 -243.67 1221.35 -365.51c-574.18,-1202.07 119.78,-631.07 -1179.99,-977.87 -990.96,-115.28 -232.25,-374.3 -1750.43,79.92l-2793.04 -577.55 -2131.47 -1054.04m-7829.67 18312.77l2443.26 -731.01c-1679.5,-2616.19 -2175.82,-727.46 -6723.04,-5942.25l1680.06 -534.13c-1203.95,-2937.53 -2175.83,-1208.06 -5042.8,-6476.37m1663.22 7043.63l1629.15 -487.34c-1325.22,-2434.47 -3131.79,-3294.43 -4106.85,-6312.62m21172.82 -6334.52c2443.26,2097.78 557.52,1178.12 -1791.98,1423.1 -2575.2,-1060.77 -1917.18,-1232.39 -3094.17,38.74l-1628.41 487.16m-13488.38 18674.91c1577.13,35.74 953.35,120.34 2564.72,-323.96 1378.75,120.34 532.08,284.47 2157.49,-201.75 988.91,-215.23 1608.56,-224.02 2564.91,-323.59 -1609.13,-2622.55 -4725.39,-3466.98 -6385.98,-6518.48l406.68 -121.65c-624.9,-1148.55 -2520.94,-4035.73 -3333.73,-5213.1l-487.35 -1628.78m1054.6 5007.98c-1157.53,-1676.31 -1257.47,-2719.5 -1869.08,-4764.31m15594.58 -4221.95l-1179.8 -977.68m5985.48 -2234.59l41.92 -1343.37m-20772.5 15086.84c-440,-809.81 -263.89,-652.97 -894.4,-1506.38l-1461.84 -4886.16c905.63,-1520.04 731.01,295.33 327.14,-1872.63m13026.12 539.18l-1705.51 -5700.63m11359.16 -2067.65c-626.21,-693.4 -879.61,-1014.74 -1423.85,-1791.98 -527.96,-1365.27 -204.18,-738.5 -1015.67,-1914m-15315.92 12567.41c-506.24,-1308.75 -226.26,-785.85 -1016.23,-1914.37l-1705.33 -5700.26m13958.7 5139.74c-506.25,-1308.75 -225.89,-785.47 -1015.67,-1914l-1096.52 -3664.61c49.78,-1180.55 88.52,-1873.95 -38.56,-3093.99m-11773.32 11063.84c397.51,-1410.57 235.25,-1044.5 -730.83,-2443.08l-487.15 -1628.41c27.32,-1206 -32.19,-2273.32 -159.83,-3501.41m23528.87 58.58l1301.64 1385.29c-1620.92,352.41 -1546.43,263.51 -3094.18,37.99 -586.9,-100.5 -1033.82,-177.79 -1871.7,-326.95 -1949.74,-1840.64 -2293.73,-4701.62 -3128.98,-7492.8m-18079.02 6296.53l-417.54 2821.12 901.32 3244.46 -1221.35 365.5c-514.1,-1590.41 -242.17,-1022.59 -1138.44,-2321.24 267.63,-1837.82 324.71,-2960.92 1224.72,-4802.68m30643.43 13456.76c-1731.34,-1459.6 -2830.1,-641 -4395.62,-1346.75 -534.32,-485.09 -1300.15,-1179.24 -1830.35,-1670.32 -1855.98,346.23 -1903.89,-344.18 -3988.38,-1468.39 -2085.99,-1707.01 -4466.18,-1864.22 -3132.54,-3055.44l814.67 -243.67c723.34,-659.34 700.13,-709.3 977.86,-1179.8l1221.54 -365.32c-1726.47,-4486.21 -1480.93,-772 -2112.75,-5578.99l-730.83 -2443.07c38.56,-1313.62 84.03,-840.88 -201.75,-2157.49m-128.57 8467.3l-1336.64 -8916.09m-734.38 1993.92c-500.63,-1673.7 -447.66,-1009.87 -323.96,-2564.73m641 14004.36c766.76,-1532.02 1053.47,-200.44 -730.83,-2443.08l-730.83 -2443.07c68.69,-3003.41 -458.33,-6913.75 -237.3,-9688.83m-3716.27 15751.23c-439.25,-809.99 -264.26,-653.35 -894.02,-1507.13l-1218.17 -4071.3c355.96,-3921.57 774.62,-6029.46 1920.36,-9890.58m3164.17 15023.59c-617.04,-1910.07 -1438.45,-2560.42 -1625.6,-3950.02 -446.54,-3313.14 -298.69,-9180.53 782.67,-12211.82m-6315.8 8543.84c993.4,-1841.95 2352.87,-4074.1 1022.41,-6960.17 1292.09,-184.34 542.55,128.01 1099.7,-772.93m11885.05 2655.3c1182.61,1712.63 1361.72,3067.98 1990.92,5171 1520.98,1363.77 593.46,1052.16 2115.56,1141.81l1628.78 -487.34c-963.27,-994.53 -226.64,-597.02 -1586.86,-856.03l-121.83 -407.43c340.05,-1206.76 157.95,-953.73 -324.15,-2564.73 -1361.53,-1125.71 -478.73,-644.73 -2115.37,-1141.25 -963.65,-994.89 -226.83,-597.01 -1587.05,-856.03 -702.56,-920.97 97.51,-489.77 -1057.96,-571 -1029.34,-555.09 -564.45,-385.53 -1465.03,-448.79 -1029.7,-555.46 -564.45,-385.53 -1465.21,-448.79 -702.94,-920.78 97.14,-489.58 -1058.34,-570.81l-1057.96 -570.62 -1586.86 -856.03 -365.51 -1221.54m-1426.47 2644.64c622.28,-1522.29 454.78,-805.69 612.36,-2401.16m-3542.59 1503.76l121.46 406.87m3692.69 15309.37c-506.06,-1308.94 -226.08,-785.48 -1015.86,-1914 -1358.72,-4930.13 504.37,-8425.19 131.94,-12904.84l-529.26 -284.85c157.21,-1595.46 -10.29,-878.86 612.36,-2401.71m-2564.73 323.96l-407.42 122.02m4071.85 -1218.36l243.67 814.3 -814.11 243.48 -529.26 -285.4c136.43,-1287.23 -861.09,-728.02 1099.7,-772.38 -1443.31,-926.77 -1446.12,-740.93 -2972.15,445.42m-2077.38 1952.55l243.48 814.11 814.48 -243.67 407.06 -121.83c622.65,-1522.29 455.15,-805.69 612.36,-2401.16 -1439.57,125.39 -624.71,-505.12 -1099.7,772.94 -336.88,377.48 -770.13,873.81 -977.68,1179.61 -2397.41,199.51 -2973.84,-688.53 -5373.5,-167.12m6216.05 16328.97l650.91 692.46 1628.97 -487.35 406.87 -121.83 1221.35 -365.32 122.21 407.24 1221.35 -365.51 407.43 -121.83 1221.35 -365.51 1221.54 -365.32c2148.5,2598.97 4614.78,2597.66 5899.39,4889.33l1628.21 -487.15c1043.19,946.98 897.96,806.43 2237.77,1548.3 2811.96,-233.94 2826.18,1094.28 5495.33,574l406.68 -121.84 243.67 814.67c1384.74,1779.62 1028.4,7701.1 1295.47,10259.46 -402.75,2686.74 -4084.96,5655.9 -6396.65,6793.22 -1635.89,489.59 -826.46,170.87 -1913.81,1016.42 -2193.98,105.74 -370.94,-286.15 -2442.89,731.02l-9159.76 521.96c-2868.47,-789.22 -8735.67,-7811.14 -9884.03,-10794.9l1221.35 -365.32c1648.06,653.35 1040.94,637.44 2808.77,490.53 -810.18,-1491.97 483.6,-134.19 -1301.45,-1385.3 -609.93,-1177.74 -1935.33,-3436.1 -2683.57,-4520.64l-487.15 -1628.78 814.11 -243.67 650.91 692.83c1929.72,-815.04 882.98,-1278.05 -567.82,-3379.39 -805.12,-2692.18 -2066.34,-3930.18 125.21,-4029.93l122.02 407.24 814.48 -243.67 1343.38 41.92 407.05 -121.84 407.43 -121.83 813.92 -243.67c-439.24,-810 -263.88,-653.35 -894.21,-1507.14l-852.47 -2850.31c53.9,-1281.05 131.19,-2351 247.04,-3622.69l-2443.27 731.01 -1343.18 -41.92c-1001.64,-272.49 21.9,-449.91 -1343.37,-41.36l-651.29 -692.84 -1470.08 -1750.8 -805.87 -2891.68c613.29,-1890.6 597.2,-1539.88 1712.25,-3174.09l1628.4 -487.15c-1019.41,-3154.63 -3513.39,-5937.94 -5937.19,-7982.95 -1595.09,-780.23 -2403.4,-998.45 -3988.01,-1468.58l-2036.21 609.18"/>
   <path class="fil0 str0" d="M131160.63 54523.22c2816.81,1093.52 11419.98,-2352.5 11770.7,-2583.82 1070.69,-706.87 2375.33,-2154.86 2583.81,-3444.89l0 -2009.82m0 -4306.36c-859.21,459.46 -1724.97,975.99 -2583.81,1435.45 -2402.46,1117.11 -4988.15,1493.84 -7464.54,2296.91 -495.76,78.23 -3429.73,196.51 -4593.07,574l0 3732.17c-1428.52,-379.73 -3155.56,-1808.63 -4306.35,-2870.9 -3513.02,-2265.47 -7870.28,-4999.01 -10909.44,-8038.53m-574.18 -286.91l574.18 286.91m29857.21 -1148.18c-1069.38,428.58 -1060.58,399.2 -2009.82,1148.18 -2322.73,1087.72 -5209.73,1866.65 -7751.25,2296.91l-5167.63 286.9c449.54,1386.42 287.28,2745.51 287.28,4306.17 -1626.53,-467.51 -14238.3,-9965.44 -15789.97,-11483.24m30431.39 -1435.64l0 4880.72c52.22,681.61 166.38,1083.98 286.72,1722.54 -367.94,1134.89 -286.72,1046.37 -286.72,2296.54l0 4306.36c-1125.9,305.8 -396.94,-96.01 -1435.82,861.27 -3261.49,1308.19 -5665.45,1822.29 -8899.43,2870.9l-4306.17 286.9c0,3025.31 286.91,1798.9 286.91,4019.46 -2073.83,-159.27 -9425.7,-6390.85 -11770.52,-8325.81l-4306.36 -4019.08c-401.63,-1238.19 -480.6,-1919.8 0,-3157.81 -379.92,-598.51 -280.35,-815.42 -573.99,-1722.54 25.45,-1187.48 157.58,-1567.58 573.99,-2583.81 -475.92,-750.29 -287.09,-1953.68 -287.09,-3158.18m16077.06 5454.9l0 -3732.36c1367.71,0 2536.65,-186.4 3731.8,-574l4593.45 -574.18c1479.99,-854.16 3168.47,-1035.88 4880.35,-1722.54 729.51,-729.33 642.86,-663.45 1435.82,-1148.36m-14641.42 7751.44c0,1657.98 339.87,3624 -574.37,4593.45 -1459.4,-419.78 -2625.17,-1707.39 -4019.45,-2296.91 -1186.54,-1095.59 -3786.26,-2860.8 -5167.44,-3445.09 -866.51,-558.83 -4634.99,-3822.75 -6315.8,-4306.35l0 -1148.18c-441.86,-1363.4 -286.9,-2496.97 -286.9,-4019.45m24115.03 0c-472,2252.93 -2526.36,3240.34 -3731.99,2871.09 -806.62,-545.17 -967.39,-696.76 -1722.54,-1435.26 0,-1250.55 -81.23,-1161.84 287.28,-2297.1m-2583.82 6316.17l0 1148.37c-1898.84,-145.8 -4145.59,-2115.75 -6028.9,-2870.91 -2632.66,-2430.16 -6533.64,-4462.63 -9473.79,-7177.26m-574.37 -286.9l574.37 286.9m29569.56 5454.72c-2477.89,1955.73 -7629.23,2926.67 -10909.06,3445.08l-3157.81 0c-2688.8,-1078.36 -7522.74,-3962.18 -9761.26,-6028.89 -1155.66,-488.66 -720.34,-223.46 -1722.35,-1148.37 -1268.33,-536.18 -2943.15,-1817.99 -4019.08,-2870.71m573.99 -287.28c869.13,344.92 288.96,287.28 1435.45,287.28 4410.6,1429.83 11379.38,2844.51 16077.07,3731.8 686.47,-1026.9 1686.42,-2172.83 3157.8,-1722.36 806.44,545.18 967.2,696.77 1722.55,1435.64 129.13,616.48 70.18,493.71 286.9,1147.99l1148.36 0c805.5,261.45 2905.34,798.01 3732.17,861.27 1518.74,525.71 1048.05,-66.06 1435.27,1148.55 774.06,476.11 435.5,-27.89 574.55,861.27l0 4019.08c-3151.06,1685.86 -6090.47,2910.39 -9474.17,3445.08l-5167.25 287.28c-1832.96,-386.28 -3844.09,-2109.76 -5741.62,-2871.09 -2145.69,-1980.62 -6167.01,-4716.22 -8612.9,-6315.61 -1008.56,-1008.94 -743.74,-1071.63 -2009.44,-1435.83 0,-1385.67 -179.29,-2531.41 286.9,-3731.8 -31.07,-150.66 -920.78,116.97 574.37,-861.27l573.99 -287.28z"/>
   <path class="fil0 str0" d="M162603.01 33730.31c1246.8,357.27 2694.98,-206.24 2903.28,-1703.08 -1454.91,349.04 -1958.16,611.61 -2903.28,1703.08z"/>
   <path class="fil0 str0" d="M170271.17 30928.09c-775.37,1096.34 -326.39,93.77 -517.85,1595.47 222.9,600.57 285.41,730.83 452.72,1322.41 964.58,-1230.52 487.72,-1363.02 65.13,-2917.88z"/>
   <path class="fil0 str0" d="M169064.23 23777.6c1252.6,-451.41 1300.14,-575.12 1221.91,-1954.61 -972.44,406.49 -1105.32,963.26 -1221.91,1954.61z"/>
   <path class="fil0 str0" d="M158233.59 29080.16c1223.59,-293.45 1156.97,-259.39 2112.94,-1077.81 -1107.75,-317.41 -1816.68,-288.77 -2112.94,1077.81z"/>
   <path class="fil0 str0" d="M164572.59 25846.74c-629.01,889.35 -707.06,1399.71 -158.14,2299.72 689.09,-974.68 580.73,-1021.47 158.14,-2299.72z"/>
   <path class="fil0 str0" d="M164975.53 20981.74l0 0c673.37,-809.43 5.99,-469 1056.28,-539 296.83,-611.98 -378.23,-254.34 790.72,-625.08"/>
   <path class="fil0 str0" d="M169452.19 28017.51c924.53,-288.77 1336.45,-498.76 2112.94,-1077.8 -1191.03,-340.24 -282.97,-352.78 -1502.26,100.68l-1408.5 718.29"/>
   <path class="fil0 str0" d="M159855.44 54880.11c1028.02,164.7 5.8,314.79 1235.95,-186.77m-11562.03 -8746.9c289.15,-891.97 157.02,-221.59 -7.49,-884.11m-265.75 -86.09c-49.23,-874.55 72.05,-1154.53 72.05,-2033.96m9111.28 11772.39l1984.18 -6115.55c1409.07,-1943.75 1452.11,-5063.01 2861.17,-7006.57m-6527.09 12870.59c819.16,-2524.49 2520.55,-9402.49 3889.19,-11081.43 6.37,-1149.29 -386.28,-153.27 431.57,-1329.71l344.74 -1063.2m-5908.37 12777.01c0.18,-1266.82 190.14,-1491.59 596.82,-2745.32 2083.56,-2874.27 1898.65,-7588.99 3982.4,-10463.08m2499.41 14035.61c-1301.46,425.02 -102.38,436.07 -1502.08,100.32l5204.31 -12417.88m-12023.92 10793.03c701.06,580.54 181.53,352.97 1243.06,697.32 730.07,536.75 390.21,344.55 1242.87,697.33 1037.94,0 629.01,-64.75 1681.74,251.53 556.96,68.87 859.03,96.76 1415.99,165.44 0,-1228.08 -116.97,-867.07 603.94,-1861.22l3284.88 -9220.2c682.17,-940.44 580.54,-882.98 956.16,-2040.89m-11758.17 10879.49l2329.29 -7179.32c0,-1944.31 1083.04,-4244.22 1718.05,-6201.64m-5204.31 12417.88l1293.97 -3988.57c0,-1472.89 712.86,-3102.6 1200.76,-4606.18 0,-1473.25 712.67,-3103.15 1200.58,-4606.73m3017.81 1567.21c1342.63,15.9 267.44,-209.05 1595.66,517.47 1087.72,5.8 184.72,-410.05 1329.15,431.39 1475.69,-212.8 791.65,-434.76 1861.59,603.75 1286.48,-345.86 286.35,-544.99 1415.62,165.25 1441.06,102.75 248.16,-182.47 1595.28,517.66 1420.29,-463.95 348.47,-599.44 1415.61,165.26m-16637.58 8708.72c440.18,522.15 -180.04,235.43 711.55,524.77 637.44,721.28 328.83,505.87 1156.97,963.08l1329.53 431.2 1983.99 -6115.55c0.19,-1383.43 395.45,-2602.34 1207.69,-3722.26 225.7,-769.56 -658.03,-125.01 1034.94,-3190.74 -839.93,-609.37 -470.87,-421.47 -1508.81,-783.61 -1058.9,-849.66 -433.63,-564.82 -1509,-783.6 -1295.84,-715.48 -329.02,-317.78 -1329.53,-431.38m-4148.02 11879.06l2725.3 -12928.23m13451.7 12886.5c1008.37,-1190.1 1483.55,-2437.46 2357.54,-3643.28 578.3,-1657.98 1635.71,-2734.28 2263.98,-4261.44m-21394.04 -181.54c398.63,-1327.46 661.21,-4317.02 661.77,-5663.01l344.73 -1063.59m19151.4 7094.73c-1108.31,1529.78 -2501.28,5402.5 -2867.91,6122.85 -773.31,1066.95 -562.76,386.65 -517.47,1595.28l-345.3 1063.77c-1159.21,1599.77 -1194.21,3138.34 -3241.27,3650.57l4161.87 -10111.04c682.17,-941 580.36,-882.98 955.97,-2041.26 1469.51,-655.78 471.62,-582.42 1854.11,-280.17 914.61,-579.98 -158.33,-520.84 1236.14,-186.59 1127.4,-1016.42 1692.22,-2184.99 1207.68,-3722.26m-20524.52 -1956.85c-1261.03,3886.57 -1255.42,6586.8 -1962.85,8767.48l-265.75 -86.09c-138.5,865.02 -300.38,296.64 273.24,970.2 -343.99,1423.66 -721.29,3157.24 473.68,3973.97 674.49,1198.71 119.96,607.5 1070.69,1229.03 215.04,-897.58 171.24,-509.62 165.82,-1415.62l2141.95 -8415.45c0.18,-1339.44 336.31,-1941.7 769.56,-3277.02 -1177.93,-1288.73 -218.03,-706.5 -1422.72,-1049.17 -838.82,-1035.33 87.96,-609.37 -1243.62,-697.33 -303.75,-350.35 -766.58,-878.49 -1070.7,-1229.03 -810.74,-1191.21 -500.82,-1173.06 -20.96,-2651.93 556.96,-363.45 936.32,-622.09 1494.78,-984.23m2443.45 -3909.41c243.86,1014.74 640.06,1971.83 1171.19,2731.29 351.66,-1226.22 -69.99,-1811.81 -1084.73,-2997.04m3414.02 -4182.28l-2113.13 1077.81 -992.84 1129.08c-191.45,945.3 -86.65,1058.16 -308.05,1975.39l-86.46 265.75c-957.47,345.11 -645.67,243.67 -1494.41,984.61 -368.12,889.71 -145.97,482.1 -697.32,1243.06 -80.1,627.33 -95.64,1034.76 -251.72,1681.74 1835.39,2117.24 1080.24,2520.93 5252.78,4643.04l5497.76 2077.19c1266.46,0.38 1491.6,190.34 2744.77,597.02 1883.86,0.18 3394.36,86.84 5303.87,-42.67 825.34,-421.09 587.28,-281.48 1322.22,-452.54 402.38,-735.69 611.99,-1070.69 1135.83,-1689.04 -61.39,-958.03 -160.2,-332.57 165.44,-1415.42l-337.25 -1593.97c22.83,-506.62 972.44,-2359.61 411.92,-4233 -618.91,-1518.36 -570.06,-798.95 -52.21,-2394.6 126.14,-2121.55 -2330.04,-2783.32 -854.72,-7330.54m-13856.14 2852.01c1065.45,582.22 1325.03,675.99 2134.28,1574.13 -1024.28,57.83 -588.41,102.74 -1681.56,-251.91 -696.39,-511.67 -423.71,-360.08 -1243.06,-697.14 395.83,-781.92 -69.06,-416.6 790.34,-625.08 565.76,-1743.88 1400.83,-2939.59 3062.17,-4002.8 3703.73,-1838.39 5455.47,-1369.01 8911.41,-2104.71 1206.38,291.4 541.62,246.86 1767.83,-14.22 1053.1,316.29 643.99,251.35 1681.75,251.72 71.11,1257.66 143.73,830.02 -603.76,1861.22"/>
   <path class="fil0 str0" d="M129952 97918.59c-3391.56,-309.92 -3283.95,3606.04 -110.23,3912.59 7317.25,706.68 8282.39,-11256.79 -2752.44,-11210.56 -578.11,2.43 -1981.74,-79.35 -1303.88,-0.19l-62020.69 0.19"/>
   <path class="fil0 str0" d="M15922.66 16630.28c3391.56,309.92 3283.95,-3606.03 110.23,-3912.59 -7317.25,-706.68 -8282.2,11256.79 2752.44,11210.56 578.11,-2.43 1981.75,79.36 1303.7,0.19l89255.53 -0.19"/>
  </g>
  <rect class="fil2" width="190509.35" height="121395.06"/>
 </g>
</svg>
