<?xml version="1.0" encoding="UTF-8"?>
<!DOCTYPE svg PUBLIC "-//W3C//DTD SVG 1.1//EN" "http://www.w3.org/Graphics/SVG/1.1/DTD/svg11.dtd">
<!-- Creator: CorelDRAW 2017 -->
<svg xmlns="http://www.w3.org/2000/svg" xml:space="preserve" width="1.76389E+06px" height="1.00542E+06px" version="1.1" style="shape-rendering:geometricPrecision; text-rendering:geometricPrecision; image-rendering:optimizeQuality; fill-rule:evenodd; clip-rule:evenodd"
viewBox="0 0 190509.36 108696.27"
 xmlns:xlink="http://www.w3.org/1999/xlink">
 <defs>
  <style type="text/css">
   <![CDATA[
    .str0 {stroke:#51363B;stroke-width:935.76;stroke-linecap:round;stroke-linejoin:round;stroke-miterlimit:22.9256}
    .fil2 {fill:none}
    .fil1 {fill:none;fill-rule:nonzero}
    .fil0 {fill:#51363B}
   ]]>
  </style>
 </defs>
 <g id="Capa_x0020_1">
  <metadata id="CorelCorpID_0Corel-Layer"/>
  <g id="_2274848383904">
   <path class="fil0" d="M46210.88 98481.36l5821.54 0 119.96 -2400.6 -1128.34 0 -119.96 1416.37 -2496.6 0 48.1 -6433.52 852.1 0 0 -984.23 -3096.8 0 0 984.23 900.2 0 -47.91 6433.52 -852.29 0 0 984.23zm7141.89 -4057.07c0,2580.63 1548.3,4201.17 3996.81,4201.17 2832.72,0 4129.12,-2268.65 4129.12,-4489.2 0,-2592.61 -1464.46,-4200.99 -3889.01,-4200.99 -2592.61,0 -4236.92,1860.47 -4236.92,4489.02zm1488.23 -59.89c0,-2340.71 1260.28,-3300.79 2664.66,-3300.79 1980.63,0 2484.63,1644.31 2484.63,3144.7 0,1140.32 -372.06,3288.82 -2592.61,3288.82 -1764.47,0 -2556.68,-1500.4 -2556.68,-3132.73zm7765.85 1788.42l0 2028.53c732.14,288.03 2220.55,444.11 2832.72,444.11 1992.42,0 3228.74,-984.23 3228.74,-2652.68 0,-1476.44 -1068.26,-2004.58 -2028.35,-2256.67l-1296.39 -335.94c-756.28,-192.21 -1296.4,-444.11 -1296.4,-1176.44 0,-648.1 516.16,-1212.18 1764.46,-1212.18 648.11,0 1080.24,131.95 1260.28,204l0 1008.18 1272.44 0 0 -1860.47c-636.12,-180.04 -1452.48,-407.99 -2544.7,-407.99 -1764.46,0 -3168.84,804.19 -3168.84,2460.67 0,1344.31 864.26,1908.38 1824.54,2184.43l1488.41 420.16c900.2,252.09 1308.19,516.16 1308.19,1188.22 0,900.2 -708.18,1380.43 -1776.44,1380.43 -672.06,0 -1272.26,-168.06 -1524.35,-300.19l0 -1116.17 -1344.31 0zm10718.54 2328.54l3973.04 0c2688.62,0 4261.06,-1908.39 4261.06,-4393.01 0,-2436.71 -1548.49,-4008.97 -4249.08,-4008.97l-3985.02 0 0 984.23 900.2 0 -47.91 6433.52 -852.29 0 0 984.23zm2196.6 -984.23l48.09 -6433.52 1356.29 0c2064.47,0 3144.71,1200.2 3144.71,3084.63 0,2100.59 -1152.29,3348.89 -3204.78,3348.89l-1344.31 0zm7225.73 984.23l5881.42 0 96.01 -2352.5 -1128.15 0 -96.01 1368.27 -2556.67 0 23.95 -2784.63 2400.59 0 0 -1056.28 -2400.59 0 23.96 -2592.61 2436.71 0 72.05 1224.16 1116.17 0 -47.91 -2208.39 -5905.56 0 0 984.23 972.25 0 -47.91 6433.52 -840.31 0 0 984.23zm10754.66 -2328.54l0 2028.53c732.14,288.03 2220.55,444.11 2832.72,444.11 1992.42,0 3228.74,-984.23 3228.74,-2652.68 0,-1476.44 -1068.26,-2004.58 -2028.35,-2256.67l-1296.4 -335.94c-756.27,-192.21 -1296.39,-444.11 -1296.39,-1176.44 0,-648.1 516.16,-1212.18 1764.46,-1212.18 648.11,0 1080.24,131.95 1260.28,204l0 1008.18 1272.44 0 0 -1860.47c-636.13,-180.04 -1452.48,-407.99 -2544.7,-407.99 -1764.46,0 -3168.85,804.19 -3168.85,2460.67 0,1344.31 864.27,1908.38 1824.54,2184.43l1488.42 420.16c900.2,252.09 1308.19,516.16 1308.19,1188.22 0,900.2 -708.18,1380.43 -1776.44,1380.43 -672.06,0 -1272.26,-168.06 -1524.35,-300.19l0 -1116.17 -1344.31 0zm7261.66 2328.54l3096.8 0 0 -984.23 -900.2 0 48.1 -6433.52 852.1 0 0 -984.23 -3096.8 0 0 984.23 900.2 0 -47.91 6433.52 -852.29 0 0 984.23zm4213.16 0l5881.42 0 96.01 -2352.5 -1128.15 0 -96.01 1368.27 -2556.68 0 23.96 -2784.63 2400.59 0 0 -1056.28 -2400.59 0 23.96 -2592.61 2436.71 0 72.05 1224.16 1116.17 0 -47.91 -2208.39 -5905.56 0 0 984.23 972.25 0 -47.91 6433.52 -840.31 0 0 984.23zm6973.82 0l2928.74 0 0 -984.23 -948.3 0 47.91 -5653.48 24.14 0c119.97,432.14 204,864.27 372.06,1284.43l2100.4 5353.28 1344.5 0 2148.5 -5569.44c143.92,-360.08 215.97,-744.12 323.96,-1116.18l36.12 23.96 -48.1 5677.43 -828.15 0 0 984.23 3060.68 0 0 -984.23 -912.18 0 -47.91 -6433.52 960.09 0 0 -984.23 -2616.57 0 -2400.59 6253.48c-84.03,215.97 -132.13,456.09 -192.02,684.22l-23.95 0c-60.08,-228.13 -108.17,-468.25 -192.21,-684.22l-2424.54 -6253.48 -2760.67 0 0 984.23 948.29 0 -48.1 6433.52 -852.1 0 0 984.23zm11390.6 0l3216.76 0 0 -984.23 -1032.14 0 23.96 -2352.68 1236.32 0c708.18,0 1116.36,-96.01 1632.34,-396.02 696.2,-408.17 1176.43,-1296.4 1176.43,-2232.53 0,-912.17 -420.15,-1668.45 -1080.42,-2064.47 -431.95,-264.07 -876.06,-372.05 -2004.4,-372.05l-3168.85 0 0 984.23 900.2 0 -47.91 6433.52 -852.29 0 0 984.23zm2208.58 -4321.14l23.95 -3096.61 744.31 0c624.15,0 1044.11,59.89 1392.22,360.08 264.07,239.93 468.25,648.1 468.25,1140.12 0,924.34 -468.25,1596.41 -1680.43,1596.41l-948.3 0zm4909.17 4321.14l3156.87 0 0 -984.23 -972.25 0 23.95 -2592.61 720.16 0c396.2,0 576.24,131.94 924.34,732.13l1152.3 1956.49c492.02,816.16 816.16,888.22 1524.34,888.22l780.05 0 0 -984.23 -311.98 0c-276.05,0 -504.19,-107.99 -744.11,-504.19l-912.37 -1536.33c-288.02,-480.04 -600.01,-876.24 -1068.26,-912.17l0 -24.14c1068.26,-107.99 2004.58,-768.07 2004.58,-2220.56 0,-1224.15 -816.17,-2220.36 -2544.7,-2220.36l-3732.92 0 0 984.23 876.24 0 -47.91 6433.52 -828.33 0 0 984.23zm2208.57 -4633.13l23.96 -2784.62 1116.36 0c972.25,0 1512.37,504 1512.37,1380.24 0,900.2 -660.08,1404.38 -1608.38,1404.38l-1044.31 0zm5653.29 4633.13l5881.42 0 96.01 -2352.5 -1128.15 0 -96.01 1368.27 -2556.67 0 23.95 -2784.63 2400.59 0 0 -1056.28 -2400.59 0 23.96 -2592.61 2436.71 0 72.05 1224.16 1116.17 0 -47.91 -2208.39 -5905.56 0 0 984.23 972.25 0 -47.91 6433.52 -840.31 0 0 984.23z"/>
   <path class="fil0" d="M27543.65 67421.7c-435.69,1983.61 -343.24,5191.95 2103.02,5729.08 2016.55,442.8 4019.82,-1577.5 4926.2,-3180.27 1344.87,-2338.27 1463.71,-6193.21 667.57,-9036.23 -877.93,-3103.54 -3172.22,-6067.64 -2438.96,-9406.61 253.96,-1157.16 901.88,-3475.03 2587.74,-3104.84 1817.99,399.38 985.73,2295.78 2275.02,2578.94 661.2,145.23 939.31,-174.98 1077.24,-803.06 377.67,-1719.18 -1781.49,-3405.97 -3235.85,-3725.44 -2281,-501.01 -4080.09,2326.67 -4486.77,4177.78 -900.38,4099.18 1785.24,7807.59 2554.81,11719.24 382.72,1885.74 86.46,3865.24 -312.55,5683.42 -297.57,1355.35 -1385.85,3784.76 -3236.78,3378.08l-198.38 -43.42c-1442.57,-1321.85 452.72,-3955.07 -782.67,-4642.1 -492.58,-281.29 -1376.12,113.6 -1499.64,675.43zm16947.5 1503.38l-337.25 6477.32c-9.73,239.18 323.02,300.75 522.9,337.62l99.57 18.53c632.76,116.78 815.04,-124.83 1164.64,-714.17 6.55,-33.13 39.68,-27.14 45.67,-60.45l200.25 -2199.97c553.97,-8020.56 1101.2,-16008 580.35,-23986.08l-136.99 -748.42c-138.31,-369.63 -573.43,-622.28 -939.5,-689.84 -831.89,-153.84 -1237.26,734.94 -1520.79,1336.45 0,0 -45.48,60.45 -7968.17,23549.27 -61.57,332.94 78.05,1253.54 510.55,1333.64 965.33,178.54 1196.84,-1258.97 1355.54,-1745.75l1261.03 -3656.19 236.56 -162.82 4925.64 910.86zm740.74 -17967.47l-643.8 15954.66 -4141.85 -869.13 4785.65 -15085.53zm3935.05 25140.8c-93.2,704.63 1604.64,1032.33 1738.08,25.83l2967.84 -20569.44c4589.33,19967.19 4768.44,20673.87 5010.61,21422.85 192.58,606 1179.43,1146.68 1507.51,473.12 258.27,-1945.81 1826.78,-11195.21 2151.86,-13132.42 597.39,-3471.29 1563.65,-6893.91 2127.17,-10370.06 131.38,-733.64 68.68,-775.93 -731.95,-916.3 -503.63,-66.81 -872.5,-115.84 -921.54,253.22 -685.34,1820.98 -822.53,3885.45 -1190.28,5885.16 -637.44,3261.31 -2001.02,11479.5 -2230.1,12951.45l-4383.46 -19462.26c-446.54,-2039.39 -2398.34,-1478.87 -2509.32,-128.01l-3536.42 23566.86zm15695.09 1960.04c-99.94,1248.3 594.95,1473.63 1685.29,1425.35 5621.1,-228.33 7636.91,-6314.12 8428.56,-12803.79 570.44,-4572.11 361.2,-10429.01 -2989.18,-13957.38 -938.76,-991.9 -2331.73,-1409.25 -3680.9,-1517.61l-303.93 -24.14c-732.7,246.85 -1064.71,1001.07 -1124.41,1743.5l-10.85 134.94c-196.14,2870.34 -1278.25,16365.08 -1544.38,19263.87l-460.2 5735.26zm4147.65 -24623.71l235.99 18.91c4689.83,376.17 4022.26,10814.36 3808.54,13479.77 -297.57,3711.02 -1979.88,10298.76 -6214.93,10604.56 208.67,-3446.58 687.03,-8569.29 927.9,-11571.95 148.6,-1855.6 1023.53,-10647.42 1242.5,-12531.29zm15637.25 15381.98l3557 10527.84c267.63,825.15 201.94,1533.52 1080.99,1573.19l236.75 10.67c679.17,-37.24 557.71,-347.54 947.92,-736.63 625.65,-7120.36 1013.42,-14217.71 1911.19,-21359.79 116.6,-1078.92 658.02,-3324.37 605.43,-4410.97 -84.96,-1121.78 -1577.31,-1087.35 -1988.67,-225.14 -609.74,5257.83 -1737.14,15235.44 -2174.14,21178.62l-3332.42 -9501.12c-220.09,-382.54 -591.96,-399.38 -965.32,-382.16 -578.11,41.55 -1068.08,392.08 -1159.78,930.14 -449.54,2453 -776.12,5182.6 -1603.51,7753.87l-474.43 -3748.08c-603.01,-4668.87 -1233.89,-10964.83 -2010.2,-15539.75 -131,-852.85 -2131.65,-807.74 -2176.19,172.93 0,0 -1.5,33.69 26.57,170.5 446.17,1375.37 716.98,2878.2 924.9,4276.59 840.13,6170.2 1378.75,12258.8 2048,18455.2l339.12 2251.43c286.16,419.41 353.34,422.4 828.52,410.05 883.73,-61.76 1010.81,-632.01 1248.67,-1400.45 1.88,-33.88 37.06,-66.26 38.37,-100.13 547.61,-3125.99 1476.63,-5692.77 2091.23,-10306.81zm10569.19 11184.92c7.86,981.43 1901.84,831.33 1957.98,-658.21l836.38 -23157.56c-0.37,-67.56 29.76,-507.93 29.2,-609.55 -7.67,-981.24 -11.23,-1421.23 -992.47,-1413.74 -710.8,5.61 -879.98,40.61 -1111.49,719.41l-719.6 25119.65zm12279.01 -26567.65c-4398.24,111.92 -6376.62,4868.19 -7099.03,8407.78 -1388.47,6637.33 54.84,16791.24 7739.65,16765.03 1082.49,-27.51 2324.05,-465.25 1617.37,-1632.52 -530.77,-900.38 -2731.85,408.37 -4218.02,-772.75 -3040.28,-2394.23 -3388.94,-5466.13 -3499.18,-9797.19 -97.31,-3823.32 1184.3,-10660.9 4466.37,-10744.37l202.88 -5.24c473.86,-11.97 2442.32,174.8 2412.01,-1009.3 -19.66,-778.37 -911.25,-1229.59 -1622.05,-1211.44zm11027.16 15554.54c47.72,607.49 645.67,6060.34 693.58,6667.64 177.23,2260.79 291.39,3711.59 1469.51,3585.08 1111.12,-121.28 -347.54,-7883.01 -1092.03,-23407.22 -21.71,-711.37 -90.39,-2878.77 -148.41,-3621.2 -262.76,-318.72 -761.7,-619.1 -1166.7,-587.47 -472.37,37.25 -858.84,305.25 -818.97,811.49l13.1 168.62c437.93,4277.16 820.09,10867.52 849.85,14701.32 -1254.1,30.69 -2536.09,131.38 -3818.08,232.25 -304.12,23.77 -534.88,109.86 -828.52,-172.55 -68.49,-436.07 -238.05,-2595.61 -274.92,-3067.79 -270.44,-3441.9 -330.14,-8088.13 -584.66,-11327.34 -335.38,-381.04 -629.39,-663.46 -1101.39,-626.4 -371.31,29.2 -674.87,52.96 -923.59,344.17 170.49,2600.66 1002.57,16217.05 1209.18,18848.96 92.83,1180.93 465.45,6787.24 560.9,8002.04 101.99,433.44 2002.71,861.08 1883.49,-657.28l-747.48 -9515.15 4825.14 -379.17zm6682.43 9063.56c73.17,638.93 7620.81,-86.28 7423.36,-1221.91 -277.73,-1535.4 -1837.08,-573.81 -4090.2,-316.48 -302.43,34.44 -1445.93,164.88 -1752.11,165.82l-901.13 -8788.26 3305.28 -888.22c1322.04,-355.22 1750.62,-1971.08 170.12,-1790.85l-168.06 19.27 -3570.29 952.6 -1442.38 -11145.24 4035.18 -460.58c538.24,-61.2 1411.31,-467.51 1334.95,-1140.13 -7.67,-67.37 -11.79,-100.87 -52.97,-164.32 -52.96,-164.32 -783.04,-591.77 -984.6,-568.75l-5313.04 606.37c-605.44,69.06 -1112.06,705.94 -1043,1311.18l3048.89 23429.5zm10951.73 -394.52c284.28,299.44 706.12,373.18 1074.62,318.16 836.76,-125.39 630.89,-813.17 535.82,-1449.3 -392.83,-2850.13 -1338.14,-10305.87 -1349.93,-10612.24 -45.29,-301.31 -111.54,-1660.22 -89.83,-1971.45l535.44 -80.29c2041.82,-305.81 2712.57,1886.86 3092.12,3506.84 237.3,1127.97 1305.38,6204.26 1504.32,7303.78 204,448.41 639.31,383.28 1007.44,328.07l33.5 -4.86c434.94,-65.32 960.83,-212.23 875.49,-781.36l-40.05 -267.63c-30.13,-201 -461.7,-1710.56 -491.65,-1911.37 -513.35,-2284.37 -862.02,-7126.17 -2663.91,-8875.48 -169,-214.28 -1074.06,-1002.75 -1266.45,-1144.99 1983.24,-1837.08 2193.22,-4777.6 1827.16,-7221.05l-54.84 -368.13c-441.3,-2945.58 -2717.06,-4658.01 -5796.27,-4197.06l-334.81 50.35c-1338.88,200.25 -1908.01,285.59 -1744.07,1835.39 926.96,7561.3 1797.03,15199.7 2924.81,22730.67l421.09 2811.95zm-230.2 -16392.41c-446.54,-2979.08 -544.42,-5462.76 -1013.99,-8369.97 -85.52,-568.95 204.19,-920.23 706.31,-995.46 1908.01,-285.78 2945.02,1612.31 3180.83,3185.5 230.57,1539.7 -16.47,6059.97 -2392.92,6415.93 -200.81,29.94 -440.37,31.63 -480.23,-236zm11304.7 14168.87c178.92,965.14 2017.87,486.22 1812.94,-990.04l-3225.19 -22947.39c-12.53,-66.44 -59.32,-505.12 -78.04,-604.87 -178.91,-965.14 -259.39,-1397.65 -1224.34,-1218.73 -698.83,129.69 -858.65,193.89 -968.32,902.63l3682.95 24858.4zm12194.42 -9306.11l2216.06 6095.9c84.78,224.02 415.1,150.84 613.29,106.86l99 -21.9c627.9,-138.86 701.45,-432.5 794.09,-1111.68 -7.49,-32.94 25.83,-40.42 18.15,-73.36l-673.74 -2104.14c-2618.63,-7601.16 -5229.95,-15169.19 -8821.95,-22312.2l-417.91 -635.57c-271.56,-286.53 -770.69,-349.41 -1134.14,-268.94 -826.08,182.85 -852.85,1159.41 -879.05,1823.79 0,0 -18.34,73.55 1848.87,24792.34 72.99,330.32 560.71,1123.47 990.41,1028.58 958.4,-212.23 610.67,-1625.97 567.07,-2135.96l-265.01 -3858.69 154.4 -242.17 4890.46 -1082.86zm-6326.1 -16832.97l5630.27 14941.99 -4152.71 815.42 -1477.56 -15757.41z"/>
   <path class="fil0" d="M116495.44 22632.79c88.33,-1475.88 -639.69,-3008.46 -1294.91,-3942.35 -1817.8,-2590.92 -6869.77,-5905 -10208.55,-6933.02 -3840.35,-1182.05 -7502.15,-1795.16 -11459.1,-1670.7l-4393.75 577.92c-445.8,141.11 -815.61,228.7 -1269.08,358.58 -2947.82,843.68 -6187.04,2802.41 -8386.25,4764.13 -2054.37,1832.4 -1738.45,1574.32 -2785.75,3833.8 -221.59,477.98 -1467.65,2418 -201.38,3108.58 927.15,505.5 17141.39,1352.17 18102.98,1381.93 7568.03,235.25 14784.78,14.22 21895.79,-1478.87zm-21374.2 -9666.19c-23.96,-44.73 -353.53,37.06 30.5,-592.89 29.2,-47.73 272.5,-308.24 338.94,-360.83 189.39,-150.28 743.17,-506.25 1008.93,-244.98 164.32,162.07 -359.89,1517.98 -1378.37,1198.7zm-2732.41 -954.66c86.09,340.25 231.5,489.78 228.7,914.61 -596.64,235.25 -410.99,246.29 -1185.23,35.56l-182.1 -42.29c-202.31,-72.24 -91.89,9.35 -227.77,-111.55 -100.87,-89.83 -142.04,-280.35 -207.73,-442.98 503.81,-309.55 970.94,-410.43 1574.13,-353.35zm9783.15 983.3c-94.88,-476.68 -152.52,-313.29 116.79,-586.72 144.85,-147.48 1084.35,-575.12 1724.97,-132.51 -221.77,915.55 -906.56,703.69 -1841.76,719.23zm-1675 959.52c-293.08,-292.14 -512.8,-453.84 -441.12,-1051.79 2213.26,413.42 1794.97,2400.97 441.12,1051.79zm5023.33 138.5c123.15,191.26 320.59,585.41 141.67,769.94 -665.88,387.21 -1101.38,-451.41 -1286.47,-886.17 13.84,-6.92 30.88,-25.64 35.37,-29.75l446.17 -394.33c353.9,193.51 431.38,179.48 663.26,540.31zm-13304.79 37.43c203.63,468.62 218.6,866.88 -101.43,1254.85 -1582.93,1917.74 -1023.53,-995.46 101.43,-1254.85zm3198.61 2485.18c-733.07,-191.83 -731.2,-1060.96 -688.16,-1951.8 994.15,-21.15 1174.94,1232.39 688.16,1951.8zm-12968.66 1178.12c-363.08,-387.03 -521.78,-794.46 -670,-1318.11 792.77,-51.84 1492.72,818.6 1405.88,1311.93l-735.88 6.18zm15616.29 2585.87c-186.03,-509.61 547.42,-1605.95 1428.34,-1741.82 21.34,1184.11 -865.2,1916.43 -1428.34,1741.82zm-5268.87 840.12c-133.63,-417.53 57.27,-880.54 314.6,-1174.75l421.46 -393.76c265.76,-153.47 400.88,-102.75 768.26,-85.34 129.14,633.32 -204.37,792.77 -505.87,1157.72 -316.1,383.28 -472,765.26 -998.45,496.13zm-16506.2 19549.29c202.12,1606.32 736.44,3842.4 1018.1,5357.77 889.53,58.02 544.8,123.33 1227.15,381.6 73.37,27.7 1416.93,193.52 2574.65,562.77 500.07,159.45 352.22,7.11 986.29,63.07 1936.64,171.43 3617.26,581.29 5383.6,446.16 1703.63,-130.44 3734.23,345.86 5595.82,247.98 971.32,-50.9 1659.1,104.06 2565.1,69.62 956.72,-36.49 1020.91,-239.55 2753.38,-146.73l6810.62 -719.03c582.61,-71.31 643.43,-213.54 1162.78,-272.31 972.44,-110.23 1764.84,-309.55 2610.57,-389.83 2520.93,-239.18 2480.51,-571.19 3656.57,-905.07 1176.43,-334.06 1879.19,-894.58 2319.93,-2190.61 165.63,-486.96 583.54,-1802.64 597.95,-2292.6 -1115.24,-791.28 -644.93,-298.13 -1287.98,-710.06 -395.08,-253.02 341.74,-88.7 -477.61,-195.76l-5277.67 187.16c-1278.99,70.55 -74.67,-227.95 -2262.85,107.05 -999.2,152.9 -1381.74,231.5 -2225.98,576.8 -3414.77,1395.02 -4646.6,3126.92 -4912.54,3215.45 -724.84,241.05 -1724.41,-3227.43 -5279.54,-3065.36 -1488.79,67.94 -3755.2,651.66 -4579.04,1050.11 -753.28,364.38 -2851.81,1586.86 -3425.43,2192.11 -271.18,285.78 -390.03,446.54 -602.07,793.7 -48.84,80.11 -234.87,378.61 -266.5,411.55 -353.16,367.38 -45.29,163.2 -537.13,309.18l-574.74 -782.11c-1480.55,-2012.07 -5161.45,-5190.27 -7553.43,-4302.61zm40568.64 -6479c526.27,-417.35 -734.57,-1981.37 -1552.99,-1917.74 -328.07,25.45 -423.14,121.65 -841.05,144.67 -2077.76,114.72 -1482.06,249.66 -2522.43,380.1l-5163.51 699.57c-720.91,126.33 -4934.81,179.11 -5691.84,166.57 -3364.8,-55.96 -1506.76,-291.21 -4785.28,771.44l-1373.87 572.31c-3378.84,1707.19 -1487.48,2175.26 -3644.97,67.56 -2106.95,-2058.29 -1873.38,-1063.96 -3683.7,-1037.76 -2544.7,37.06 -6112.93,53.71 -8459.43,-320.4 -756.84,-120.71 -1149.86,-762.46 -3014.45,-364.76 -297.57,1786.55 -908.06,2545.26 1176.81,3930.37 1021.28,678.61 183.59,429.7 914.23,576.8 1087.16,219.34 10938.82,785.1 11895.35,718.47 536.38,-37.24 585.97,-124.45 1251.86,-117.71 1867.21,18.71 2095.16,-36.87 3959.75,-157.77 2508.58,-162.45 2517.56,7.3 5246.23,-426.52 446.73,-71.12 733.07,-166 1197.58,-174.61 2288.49,-42.67 4364.56,-290.84 6520.36,-394.52 3574.4,-172.18 7359.35,559.77 8571.35,-3116.07zm-43044.09 -8762.25c164.69,-348.85 869.13,-830.57 1437.51,-919.47 1811.81,-282.79 4783.21,1203.76 5363.57,1788.98 -556.78,-54.09 -2727.73,-909.74 -3423.19,-1127.78 -621.71,-194.82 -1259.34,-388.33 -1867.4,-297.57 -513.91,76.74 -1236.88,313.11 -1510.49,555.84zm1315.86 1271.14c1126.46,789.96 -1056.85,2486.12 -1996.16,908.06 -418.85,-703.88 305.24,-2084.87 2001.96,-2324.24 1443.31,-203.43 2626.11,483.23 3659.18,1011.37 751.61,384.41 1716.93,706.12 2642.02,767.32 238.43,15.72 323.59,-3.37 522.34,-4.49l408.74 43.04c-287.28,179.67 -538.43,173.3 -952.04,163.95l-2528.6 -384.97c-515.6,-217.29 -651.85,-412.11 -1309.13,-639.31 -467.13,-161.51 -897.2,-362.33 -1475.87,-488.28 -986.85,-214.85 -2633.41,154.4 -2584,1226.22 26.2,574.36 477.79,988.53 1154.91,856.96 766.94,-148.97 183.78,-795.02 456.65,-1135.63zm-823.28 628.26c358.02,-118.84 -2.81,-202.49 461.14,-325.45 19.28,329.01 -25.45,410.05 -173.3,586.16 -424.46,-39.12 -664.02,-257.15 -771.25,-602.26 676.55,-1614.18 2858.73,-530.01 4126.69,-58.95 702.75,260.7 1553.91,436.06 2348.93,620.78 793.71,184.35 2276.33,-94.32 2432.97,9.92 -1497.96,927.52 -3138.9,1040.56 -4950.53,415.48 -1234.82,-426.15 -972.44,-764.52 -1817.24,-1262.34 -766.01,-450.66 -1909.51,-932.01 -1657.41,616.66zm22858.87 -33.87c516.35,346.98 45.48,1673.32 3246.51,406.49 610.12,-241.61 1154.54,-514.85 1687.92,-839.56 680.86,-414.73 1065.46,-545.55 1761.29,-789.97 -223.46,316.67 -15.35,107.24 -357.84,361.02 -1111.12,822.16 -3887.51,2247.32 -5176.98,2348.75 -815.61,64.38 -1464.84,-619.66 -1160.9,-1486.73zm8286.5 -1096.9c2173.39,-1220.78 2610.77,2272.77 384.41,1742.39l494.46 -94.33c-543.87,-411.92 -326.96,-398.63 -364.2,-613.67l-52.03 -184.72c-725.58,-189.02 -560.7,437.38 -1072.38,30.32 582.05,-374.49 754.97,-222.15 1433.21,-364.76l304.68 362.89 -331.63 682.17c400.32,-89.27 521.59,-14.98 579.42,-433.26 141.49,-1025.21 -1147.99,-964.2 -1375.94,-1127.03zm-1413.55 473.5c-905.81,976.37 -3554.38,2925.18 -5221.9,3109.33 -4485.09,495.39 -2607.21,-4370.73 -808.12,-3409.34 -360.83,324.53 -724.09,99.01 -1071.07,702.57 -208.3,362.51 -288.96,949.61 -101.44,1390.16 366.26,860.52 1792.73,742.99 2602.72,515.98 2009.07,-563.51 3879.09,-2121.18 4599.81,-2308.7zm-19462.07 315.72c323.77,-172.55 1869.83,-499.88 2359.6,-566.32 1756.42,-238.43 3090.06,392.83 4813.73,1109.81 734.19,305.24 1938.7,400.13 2328.54,574.56 -1529.41,663.07 -4630.88,-1276.75 -7054.49,-1324.48 -601.51,-11.79 -2272.77,297.95 -2447.38,206.43zm21325.72 2491.55c286.16,-132.5 775.37,-115.47 1953.49,-651.85l3528.93 -1708.32c427.08,-161.51 1295.84,-248.16 1783.93,-128.57 8.98,2.25 279.79,101.44 280.72,102 214.67,106.11 139.43,61.94 278.3,182.28 -3019.32,-22.46 -4807.92,2652.13 -7825.37,2204.46zm-13336.22 -748.23c-3272.16,283.53 -3798.81,-1077.43 -8147.64,-1098.02 1978,-1341.5 5269.25,283.91 7588.05,867.07l559.59 230.95zm22564.66 -1077.43c1388.29,176.48 499.7,1697.27 310.67,1914.74 -564.82,649.23 -1747.24,624.9 -1884.99,-393.39 508.31,294.02 817.86,817.67 1686.43,187.72 632.01,-458.53 160.38,-1208.82 -112.11,-1709.07zm-39512.73 2105.08l-111.54 542.55 274.36 85.15c136.44,29.39 -28.07,-66.81 260.89,31.63 -370.18,668.13 -1005.38,183.04 -1012.49,-457.21 780.24,-853.6 2507.27,-282.78 3738.73,-454.22 1258.59,-175.36 2498.1,-1325.22 3180.64,-1032.32 -694.71,621.15 -1675.57,1116.36 -2582.13,1397.46 -1723.85,534.69 -2569.97,-444.49 -3748.46,-113.04zm23410.59 12806.77c1159.22,-1239.5 2110.32,-2378.5 5889.85,-3617.63 405.18,-132.88 775.55,-107.43 1203.57,-112.3 862.39,-9.35 1488.41,-181.91 2284.56,-240.11 1795.15,-131.01 3406.15,-81.6 5142.36,-3.37 1016.6,46.04 2327.23,726.34 2871.65,1191.97 265.01,226.64 343.61,465.07 674.31,555.84 393.02,-704.63 -1061.34,-2900.48 -1488.04,-2873.71l-802.32 40.98c-568.57,7.12 -430.83,145.05 -1131.52,172.18 -921.91,35.37 -1830.53,26.77 -2749.82,76.73 -1666.39,90.77 -6033.2,278.49 -7636.9,592.53 -3232.86,632.57 -5552.6,465.07 -8610.47,449.16 -458.52,-2.43 -729.7,121.27 -1246.24,140.93 -2501.46,94.88 -5582.17,-13.67 -7919.5,173.48 -1817.24,145.61 -6506.7,-444.85 -8409.28,-1177.55 -924.34,-355.96 -1003.13,-1139.94 -2031.53,1680.43 822.53,-288.96 528.52,-509.24 1427.97,-632.95 1447.8,-199.12 1847.18,58.21 3029.23,627.71 1844.38,888.22 2977.58,1283.3 4399.19,3288.63 160.01,226.08 562.57,950.16 695.26,1071.63 357.84,-302.25 300.76,-378.99 514.48,-811.12 784.35,-1586.67 2509.52,-2072.51 4073.73,-2654.37 8042.65,-2991.61 8204.16,849.48 9819.46,2060.91zm-21811.01 -11792.41c-51.09,51.47 -190.52,52.78 -277.35,565.38 -30.7,181.17 -40.62,487.53 30.5,658.03 268,643.99 2818.13,901.69 3418.89,912.92 4033.11,75.99 9763.13,-46.78 13704.16,-889.34 1455.67,-311.05 1069.95,-219.53 1962.85,-900.2 -73.37,-1626.35 -1034.76,-1025.03 -2743.83,-834.13l-2137.83 168.25c-3537.91,520.09 -5973.69,749.91 -9646.91,593.64 -1724.79,-73.18 -3454.63,-757.59 -4310.48,-274.55zm20697.09 557.15c431.38,345.85 118.84,313.85 824.4,453.65l5105.31 767.89c820.65,29.57 1588.91,-15.35 2402.65,-1.31 3290.31,57.08 2071.95,-151.78 4369.98,-403.88 1249.99,-137.18 3187.38,-145.23 3675.85,-1116.17 386.65,-767.88 696.39,-1224.34 -350.54,-943.62 -2552,684.04 -3766.61,640.62 -6666.15,597.2 -1470.26,-21.89 -3372.28,-77.85 -4801.37,-1.87 -921.35,49.04 -916.11,258.08 -2107.14,131.94 -741.31,-78.79 -1484.48,-116.03 -2264.72,-164.69l-188.27 680.86zm-5266.26 3810.78c361.39,-59.33 480.23,-284.1 743.93,-474.06 497.26,-358.77 1897.9,-758.9 2550.31,-995.27 564.08,-204.18 1152.86,-472 1789.17,-599.26 210.17,-41.92 2063.53,-296.07 2066.34,-297.38 -142.05,-337.62 -1935.52,-209.8 -2272.21,-195.76 -1833.52,76.17 -2687.49,101.62 -4532.81,437.93 -384.4,70.18 -2147.75,158.52 -2306.08,237.5 180.42,297.76 286.16,169.93 654.66,341.36 447.48,207.93 1083.98,1058.16 1306.69,1544.94zm-12456.24 -4722.96c480.61,228.14 6400.96,172.74 7487.37,79.73 -174.99,-629.39 231.13,-163.76 -368.13,-496.14 -551.91,-306.37 -2784.25,-667.76 -3489.62,-619.1 -500.07,34.63 -3449.95,397.14 -3629.62,1035.51zm28278.96 -2631.91c559.77,-91.89 743.93,-439.8 1152.3,-734.19 770.12,-555.66 2939.58,-1175.5 3950.39,-1541.57 873.62,-316.1 -64.38,-152.9 921.35,-350.54 8667.54,-1730.02 -4044.16,-926.77 -5489.72,-663.07 -596.08,108.73 -3327.18,245.35 -3572.53,367.75 279.6,461.33 443.36,263.32 1014.55,528.7 692.83,321.9 1678.56,1639.07 2023.66,2392.92zm-13404.91 445.61c-559.96,-91.89 -743.74,-439.81 -1152.1,-734.2 -770.51,-555.65 -2939.59,-1175.5 -3950.4,-1541.56 -873.62,-316.1 64.01,-152.91 -921.72,-350.54 -8667.54,-1730.03 4044.53,-926.77 5490.09,-663.08 595.7,108.74 3326.81,245.36 3572.16,367.76 -279.6,461.33 -442.99,263.32 -1014.36,528.7 -692.65,321.9 -1678.37,1639.07 -2023.67,2392.92zm-11537.7 -1139.01c-1396.71,-1214.05 -4229.62,-1715.24 -7541.08,-3485.13 -282.23,-150.84 2568.09,-186.03 6363.15,344.36 596.08,108.73 3327.18,245.35 3572.53,367.75 -279.6,461.33 -443.36,263.32 -1014.54,528.7 -692.84,321.9 -1034.95,1490.48 -1380.06,2244.32zm15279.42 -68.31c346.42,-1040 -445.79,-1089.4 1881.44,-1584.61 2327.6,-495.2 2872.21,-346.6 2872.21,-346.6 0,0 -1139.19,940.62 -2674.21,1584.42 -1535.01,643.8 -475.18,1024.28 -2079.44,346.79zm1851.68 2767.23c232.81,228.13 3102.78,172.74 3629.61,79.72 -84.78,-629.39 112.11,-163.75 -178.54,-496.14 -267.44,-306.36 -1349.55,-667.75 -1691.47,-619.09 -242.74,34.62 -1672.58,397.13 -1759.6,1035.51z"/>
   <path class="fil1 str0" d="M144478.33 31348.43c-4969.81,-454.4 -4812.23,5283.67 -161.7,5733.02 10721.72,1035.32 12135.65,-16494.41 -4032.74,-16426.66 -847.05,3.74 -2904.03,-116.22 -1910.63,-0.38l-10340.31 0.38m-82303.61 10693.64c4970,-454.4 4812.42,5283.67 161.89,5733.02 -10721.72,1035.32 -12135.65,-16494.41 4032.74,-16426.66 847.23,3.74 2904.03,-116.22 1910.63,-0.38l10340.3 0.38"/>
  </g>
  <rect class="fil2" width="190509.35" height="108696.26"/>
 </g>
</svg>
