<?xml version="1.0" encoding="UTF-8"?>
<!DOCTYPE svg PUBLIC "-//W3C//DTD SVG 1.1//EN" "http://www.w3.org/Graphics/SVG/1.1/DTD/svg11.dtd">
<!-- Creator: CorelDRAW 2017 -->
<svg xmlns="http://www.w3.org/2000/svg" xml:space="preserve" width="1.76389E+06px" height="303389px" version="1.1" style="shape-rendering:geometricPrecision; text-rendering:geometricPrecision; image-rendering:optimizeQuality; fill-rule:evenodd; clip-rule:evenodd"
viewBox="0 0 1195801.48 205708.37"
 xmlns:xlink="http://www.w3.org/1999/xlink">
 <defs>
  <style type="text/css">
   <![CDATA[
    .fil0 {fill:none}
    .fil2 {fill:#D4CACB}
    .fil1 {fill:#51363B;fill-rule:nonzero}
    .fil3 {fill:#D4CACB;fill-rule:nonzero}
   ]]>
  </style>
 </defs>
 <g id="Capa_x0020_1">
  <metadata id="CorelCorpID_0Corel-Layer"/>
  <polygon class="fil0" points="1195801.48,0 0,0 0,205708.37 1195801.48,205708.37 "/>
  <path class="fil1" d="M310570.16 68719.04l571917.01 0c20426.11,0 37137.74,16711.63 37137.74,37137.74l0 0c0,20426.11 -16711.63,37137.74 -37137.74,37137.74l-571917.01 0c-20426.11,0 -37137.74,-16711.63 -37137.74,-37137.74l0 0c0,-20426.11 16711.63,-37137.74 37137.74,-37137.74z"/>
  <path class="fil2" d="M310570.16 97250.75c4752.93,0 8606.03,3853.09 8606.03,8606.03 0,4752.94 -3853.1,8606.03 -8606.03,8606.03 -4752.94,0 -8606.03,-3853.09 -8606.03,-8606.03 0,-4752.94 3853.09,-8606.03 8606.03,-8606.03z"/>
  <path class="fil2" d="M882487.17 97250.75c4752.93,0 8606.03,3853.09 8606.03,8606.03 0,4752.94 -3853.1,8606.03 -8606.03,8606.03 -4752.94,0 -8606.04,-3853.09 -8606.04,-8606.03 0,-4752.94 3853.1,-8606.03 8606.04,-8606.03z"/>
  <path class="fil3" d="M362603.41 120129.68l9951.09 0 0 -3344.44 -3222.27 0 163.29 -19206.74 82.23 0c407.63,1467.23 693.09,2935.63 1264,4362.92l7136.45 18188.26 4567.33 0 7299.74 -18922.46c489.86,-1222.89 734.2,-2528.01 1100.72,-3792.01l122.17 81.06 -162.11 19288.97 -2814.64 0 0 3344.44 10399.83 0 0 -3344.44 -3100.09 0 -163.29 -21858.1 3263.38 0 0 -3344.44 -8890.31 0 -8156.11 21247.25c-285.46,734.2 -448.75,1549.46 -653.15,2324.78l-81.06 0c-204.4,-775.32 -367.69,-1590.58 -653.14,-2324.78l-8237.17 -21247.25 -9380.18 0 0 3344.44 3222.27 0 -163.29 21858.1 -2895.69 0 0 3344.44zm48356.36 0l19982.07 0 326.57 -7992.82 -3833.13 0 -326.57 4648.38 -8685.91 0 81.05 -9461.23 8156.11 0 0 -3587.61 -8156.11 0 82.23 -8809.26 8278.29 0 244.34 4159.7 3793.18 0 -163.28 -7504.14 -20064.3 0 0 3344.44 3303.33 0 -163.29 21858.1 -2854.58 0 0 3344.44zm33430.31 0l9908.8 0 0 -3344.44 -3140.03 0 -162.12 -18106.03 81.06 -82.23c407.63,816.44 1182.95,1958.27 1998.21,3017.87l14272.9 18514.83 3710.95 0 163.29 -25202.54 2773.53 0 0 -3344.44 -9951.1 0 0 3344.44 3181.16 0 163.28 18188.26 -81.05 0c-775.32,-1264 -1998.21,-3140.04 -2854.58,-4281.87l-13213.3 -17250.83 -7504.14 0 0 3344.44 3588.78 0 -163.29 21858.1 -2772.35 0 0 3344.44zm41299.79 -25202.54l3017.87 0c-39.94,4935.02 -81.05,9909.98 -81.05,15374.8 0,3750.89 570.91,6197.85 2650.17,7951.71 1836.1,1549.46 4281.88,2365.89 8564.92,2365.89 3343.27,0 6524.42,-775.31 8359.34,-2324.78 1957.09,-1671.63 3181.16,-4241.93 3181.16,-8033.94l81.05 -15333.68 2732.41 0 0 -3344.44 -10439.78 0 0 3344.44 3344.44 0 -82.23 14436.19c-39.94,2732.41 -325.4,4486.28 -1630.51,5791.4 -1305.12,1305.11 -2732.41,1630.51 -5505.94,1630.51 -2405.83,0 -3792.01,-366.51 -5097.13,-1590.57 -1509.52,-1427.29 -1590.58,-3750.9 -1590.58,-5953.51l41.12 -14314.02 2894.52 0 0 -3344.44 -10439.78 0 0 3344.44zm52761.58 25202.54l19778.84 0 407.63 -8156.11 -3833.13 0 -408.8 4811.67 -8481.51 0 163.29 -21858.1 2894.52 0 0 -3344.44 -10520.84 0 0 3344.44 3058.99 0 -163.29 21858.1 -2895.7 0 0 3344.44zm50965.43 -14028.56l-7544.08 0 3140.04 -8075.05c489.86,-1264.01 651.97,-2038.15 775.31,-2609.07l81.06 0c122.17,610.86 285.46,1345.06 734.2,2609.07l2813.47 8075.05zm-18513.66 14028.56l9949.92 0 0 -3344.44 -2935.64 0 2650.18 -7095.33 10032.15 0 2446.95 7095.33 -2610.24 0 0 3344.44 10439.78 0 0 -3344.44 -2528.01 0 -9583.4 -25202.54 -5057.19 0 -10358.72 25202.54 -2445.78 0 0 3344.44zm41994.05 -7911.77l0 6892.11c2488.07,978.55 7544.09,1509.52 9624.52,1509.52 6768.77,0 10969.58,-3344.44 10969.58,-9012.48 0,-5016.08 -3629.9,-6811.06 -6892.11,-7667.43l-4404.04 -1141.83c-2569.12,-651.97 -4404.04,-1508.35 -4404.04,-3996.42 0,-2202.6 1752.69,-4118.58 5994.62,-4118.58 2201.43,0 3669.84,448.75 4281.87,693.09l0 3425.49 4322.98 0 0 -6321.19c-2161.49,-610.85 -4935.01,-1386.17 -8645.97,-1386.17 -5994.62,0 -10766.35,2732.41 -10766.35,8359.34 0,4568.5 2936.81,6484.48 6199.02,7423.08l5057.19 1427.29c3057.81,856.38 4445.16,1752.69 4445.16,4036.36 0,3058.98 -2407.01,4690.67 -6035.74,4690.67 -2283.66,0 -4322.98,-570.92 -5179.36,-1019.66l0 -3793.19 -4567.33 0zm63729.99 7911.77l10522 0 0 -3344.44 -3058.98 0 163.29 -21858.1 2895.69 0 0 -3344.44 -10522 0 0 3344.44 3017.86 0 -81.05 9094.72 -13253.24 0 81.05 -9094.72 2895.7 0 0 -3344.44 -10522.01 0 0 3344.44 3017.87 0 -163.29 21858.1 -2854.58 0 0 3344.44 10522.01 0 0 -3344.44 -3058.99 0 82.24 -9175.77 13253.24 0 -81.06 9175.77 -2855.75 0 0 3344.44zm23439.28 0l19982.06 0 326.57 -7992.82 -3833.12 0 -326.58 4648.38 -8685.91 0 81.06 -9461.23 8156.11 0 0 -3587.61 -8156.11 0 82.23 -8809.26 8278.28 0 244.34 4159.7 3793.19 0 -163.29 -7504.14 -20064.29 0 0 3344.44 3303.32 0 -163.28 21858.1 -2854.58 0 0 3344.44zm33267.02 0l10725.24 0 0 -3344.44 -3303.33 0 81.06 -8808.08 2446.95 0c1346.23,0 1958.26,448.74 3140.04,2488.07l3915.35 6646.59c1671.64,2773.52 2773.53,3017.86 5179.36,3017.86l2650.18 0 0 -3344.44 -1059.6 0c-938.6,0 -1712.75,-366.51 -2529.18,-1712.75l-3098.92 -5219.3c-978.55,-1631.69 -2039.33,-2976.75 -3629.9,-3100.09l0 -81.06c3629.9,-366.51 6811.05,-2610.24 6811.05,-7544.08 0,-4159.7 -2773.52,-7545.26 -8645.97,-7545.26l-12682.33 0 0 3344.44 2976.75 0 -163.28 21858.1 -2813.47 0 0 3344.44zm7502.97 -15741.31l82.23 -9461.23 3792.01 0c3303.32,0 5138.24,1712.75 5138.24,4689.5 0,3058.99 -2242.55,4771.73 -5463.64,4771.73l-3548.84 0zm45705.01 1712.75l-7544.09 0 3140.04 -8075.05c489.86,-1264.01 651.98,-2038.15 775.32,-2609.07l81.06 0c122.17,610.86 285.46,1345.06 734.2,2609.07l2813.47 8075.05zm-18513.66 14028.56l9949.91 0 0 -3344.44 -2935.63 0 2650.18 -7095.33 10032.14 0 2446.95 7095.33 -2610.23 0 0 3344.44 10439.77 0 0 -3344.44 -2528 0 -9583.41 -25202.54 -5057.19 0 -10358.72 25202.54 -2445.77 0 0 3344.44zm41994.05 -7911.77l0 6892.11c2488.07,978.55 7544.08,1509.52 9624.52,1509.52 6768.76,0 10969.58,-3344.44 10969.58,-9012.48 0,-5016.08 -3629.9,-6811.06 -6892.11,-7667.43l-4404.04 -1141.83c-2569.13,-651.97 -4404.05,-1508.35 -4404.05,-3996.42 0,-2202.6 1752.69,-4118.58 5994.62,-4118.58 2201.44,0 3669.84,448.75 4281.87,693.09l0 3425.49 4322.99 0 0 -6321.19c-2161.49,-610.85 -4935.02,-1386.17 -8645.97,-1386.17 -5994.62,0 -10766.35,2732.41 -10766.35,8359.34 0,4568.5 2936.81,6484.48 6199.02,7423.08l5057.19 1427.29c3057.81,856.38 4445.16,1752.69 4445.16,4036.36 0,3058.98 -2407.02,4690.67 -6035.74,4690.67 -2283.66,0 -4322.99,-570.92 -5179.36,-1019.66l0 -3793.19 -4567.33 0z"/>
 </g>
</svg>
